%TF.GenerationSoftware,KiCad,Pcbnew,5.1.6-c6e7f7d~87~ubuntu18.04.1*%
%TF.CreationDate,2020-09-21T19:35:09+01:00*%
%TF.ProjectId,ActiveSplitterPedal_SOIC14,41637469-7665-4537-906c-697474657250,rev?*%
%TF.SameCoordinates,Original*%
%TF.FileFunction,Copper,L2,Bot*%
%TF.FilePolarity,Positive*%
%FSLAX46Y46*%
G04 Gerber Fmt 4.6, Leading zero omitted, Abs format (unit mm)*
G04 Created by KiCad (PCBNEW 5.1.6-c6e7f7d~87~ubuntu18.04.1) date 2020-09-21 19:35:09*
%MOMM*%
%LPD*%
G01*
G04 APERTURE LIST*
%TA.AperFunction,Profile*%
%ADD10C,0.050000*%
%TD*%
%TA.AperFunction,SMDPad,CuDef*%
%ADD11R,1.000000X1.000000*%
%TD*%
%TA.AperFunction,SMDPad,CuDef*%
%ADD12R,1.100000X1.100000*%
%TD*%
%TA.AperFunction,SMDPad,CuDef*%
%ADD13R,1.000000X3.000000*%
%TD*%
%TA.AperFunction,ComponentPad*%
%ADD14C,2.500000*%
%TD*%
%TA.AperFunction,ComponentPad*%
%ADD15C,3.500000*%
%TD*%
%TA.AperFunction,SMDPad,CuDef*%
%ADD16R,0.800000X0.900000*%
%TD*%
%TA.AperFunction,ComponentPad*%
%ADD17C,1.800000*%
%TD*%
%TA.AperFunction,ComponentPad*%
%ADD18R,1.800000X1.800000*%
%TD*%
%TA.AperFunction,ComponentPad*%
%ADD19C,3.000000*%
%TD*%
%TA.AperFunction,ComponentPad*%
%ADD20R,3.500000X3.500000*%
%TD*%
%TA.AperFunction,ViaPad*%
%ADD21C,0.800000*%
%TD*%
%TA.AperFunction,Conductor*%
%ADD22C,1.000000*%
%TD*%
%TA.AperFunction,Conductor*%
%ADD23C,0.500000*%
%TD*%
%TA.AperFunction,Conductor*%
%ADD24C,0.400000*%
%TD*%
G04 APERTURE END LIST*
D10*
X186309000Y-130429000D02*
X185674000Y-131064000D01*
X186309000Y-125349000D02*
X186309000Y-130429000D01*
X191770000Y-125349000D02*
X186309000Y-125349000D01*
X192405000Y-124714000D02*
X191770000Y-125349000D01*
X192405000Y-51054000D02*
X192405000Y-124714000D01*
X191770000Y-50419000D02*
X192405000Y-51054000D01*
X186309000Y-50419000D02*
X191770000Y-50419000D01*
X186309000Y-45275500D02*
X186309000Y-50419000D01*
X185674000Y-44640500D02*
X186309000Y-45275500D01*
X86614000Y-44640500D02*
X185674000Y-44640500D01*
X85979000Y-45275500D02*
X86614000Y-44640500D01*
X85979000Y-50419000D02*
X85979000Y-45275500D01*
X80518000Y-50419000D02*
X85979000Y-50419000D01*
X79883000Y-51054000D02*
X80518000Y-50419000D01*
X79883000Y-124777500D02*
X79883000Y-51054000D01*
X80518000Y-125412500D02*
X79883000Y-124777500D01*
X85979000Y-125412500D02*
X80518000Y-125412500D01*
X85979000Y-130429000D02*
X85979000Y-125412500D01*
X86614000Y-131064000D02*
X85979000Y-130429000D01*
X185674000Y-131064000D02*
X86614000Y-131064000D01*
D11*
%TO.P,TP3,1*%
%TO.N,-3V3*%
X187579000Y-104521000D03*
%TD*%
%TO.P,TP2,1*%
%TO.N,VCOM*%
X181356000Y-104521000D03*
%TD*%
%TO.P,TP1,1*%
%TO.N,+3V3*%
X174244000Y-104521000D03*
%TD*%
%TO.P,U12,14*%
%TO.N,Net-(R21-Pad2)*%
%TA.AperFunction,SMDPad,CuDef*%
G36*
G01*
X102258000Y-93242000D02*
X101958000Y-93242000D01*
G75*
G02*
X101808000Y-93092000I0J150000D01*
G01*
X101808000Y-91442000D01*
G75*
G02*
X101958000Y-91292000I150000J0D01*
G01*
X102258000Y-91292000D01*
G75*
G02*
X102408000Y-91442000I0J-150000D01*
G01*
X102408000Y-93092000D01*
G75*
G02*
X102258000Y-93242000I-150000J0D01*
G01*
G37*
%TD.AperFunction*%
%TO.P,U12,13*%
%TA.AperFunction,SMDPad,CuDef*%
G36*
G01*
X100988000Y-93242000D02*
X100688000Y-93242000D01*
G75*
G02*
X100538000Y-93092000I0J150000D01*
G01*
X100538000Y-91442000D01*
G75*
G02*
X100688000Y-91292000I150000J0D01*
G01*
X100988000Y-91292000D01*
G75*
G02*
X101138000Y-91442000I0J-150000D01*
G01*
X101138000Y-93092000D01*
G75*
G02*
X100988000Y-93242000I-150000J0D01*
G01*
G37*
%TD.AperFunction*%
%TO.P,U12,12*%
%TO.N,Net-(C39-Pad1)*%
%TA.AperFunction,SMDPad,CuDef*%
G36*
G01*
X99718000Y-93242000D02*
X99418000Y-93242000D01*
G75*
G02*
X99268000Y-93092000I0J150000D01*
G01*
X99268000Y-91442000D01*
G75*
G02*
X99418000Y-91292000I150000J0D01*
G01*
X99718000Y-91292000D01*
G75*
G02*
X99868000Y-91442000I0J-150000D01*
G01*
X99868000Y-93092000D01*
G75*
G02*
X99718000Y-93242000I-150000J0D01*
G01*
G37*
%TD.AperFunction*%
%TO.P,U12,11*%
%TO.N,-3V3*%
%TA.AperFunction,SMDPad,CuDef*%
G36*
G01*
X98448000Y-93242000D02*
X98148000Y-93242000D01*
G75*
G02*
X97998000Y-93092000I0J150000D01*
G01*
X97998000Y-91442000D01*
G75*
G02*
X98148000Y-91292000I150000J0D01*
G01*
X98448000Y-91292000D01*
G75*
G02*
X98598000Y-91442000I0J-150000D01*
G01*
X98598000Y-93092000D01*
G75*
G02*
X98448000Y-93242000I-150000J0D01*
G01*
G37*
%TD.AperFunction*%
%TO.P,U12,10*%
%TO.N,Net-(U12-Pad10)*%
%TA.AperFunction,SMDPad,CuDef*%
G36*
G01*
X97178000Y-93242000D02*
X96878000Y-93242000D01*
G75*
G02*
X96728000Y-93092000I0J150000D01*
G01*
X96728000Y-91442000D01*
G75*
G02*
X96878000Y-91292000I150000J0D01*
G01*
X97178000Y-91292000D01*
G75*
G02*
X97328000Y-91442000I0J-150000D01*
G01*
X97328000Y-93092000D01*
G75*
G02*
X97178000Y-93242000I-150000J0D01*
G01*
G37*
%TD.AperFunction*%
%TO.P,U12,9*%
%TO.N,Net-(U12-Pad9)*%
%TA.AperFunction,SMDPad,CuDef*%
G36*
G01*
X95908000Y-93242000D02*
X95608000Y-93242000D01*
G75*
G02*
X95458000Y-93092000I0J150000D01*
G01*
X95458000Y-91442000D01*
G75*
G02*
X95608000Y-91292000I150000J0D01*
G01*
X95908000Y-91292000D01*
G75*
G02*
X96058000Y-91442000I0J-150000D01*
G01*
X96058000Y-93092000D01*
G75*
G02*
X95908000Y-93242000I-150000J0D01*
G01*
G37*
%TD.AperFunction*%
%TO.P,U12,8*%
%TO.N,Net-(U12-Pad8)*%
%TA.AperFunction,SMDPad,CuDef*%
G36*
G01*
X94638000Y-93242000D02*
X94338000Y-93242000D01*
G75*
G02*
X94188000Y-93092000I0J150000D01*
G01*
X94188000Y-91442000D01*
G75*
G02*
X94338000Y-91292000I150000J0D01*
G01*
X94638000Y-91292000D01*
G75*
G02*
X94788000Y-91442000I0J-150000D01*
G01*
X94788000Y-93092000D01*
G75*
G02*
X94638000Y-93242000I-150000J0D01*
G01*
G37*
%TD.AperFunction*%
%TO.P,U12,7*%
%TO.N,Net-(R20-Pad2)*%
%TA.AperFunction,SMDPad,CuDef*%
G36*
G01*
X94638000Y-98192000D02*
X94338000Y-98192000D01*
G75*
G02*
X94188000Y-98042000I0J150000D01*
G01*
X94188000Y-96392000D01*
G75*
G02*
X94338000Y-96242000I150000J0D01*
G01*
X94638000Y-96242000D01*
G75*
G02*
X94788000Y-96392000I0J-150000D01*
G01*
X94788000Y-98042000D01*
G75*
G02*
X94638000Y-98192000I-150000J0D01*
G01*
G37*
%TD.AperFunction*%
%TO.P,U12,6*%
%TO.N,Net-(R19-Pad2)*%
%TA.AperFunction,SMDPad,CuDef*%
G36*
G01*
X95908000Y-98192000D02*
X95608000Y-98192000D01*
G75*
G02*
X95458000Y-98042000I0J150000D01*
G01*
X95458000Y-96392000D01*
G75*
G02*
X95608000Y-96242000I150000J0D01*
G01*
X95908000Y-96242000D01*
G75*
G02*
X96058000Y-96392000I0J-150000D01*
G01*
X96058000Y-98042000D01*
G75*
G02*
X95908000Y-98192000I-150000J0D01*
G01*
G37*
%TD.AperFunction*%
%TO.P,U12,5*%
%TO.N,/sheet5F6AEF15/SIGNAL_INPUT*%
%TA.AperFunction,SMDPad,CuDef*%
G36*
G01*
X97178000Y-98192000D02*
X96878000Y-98192000D01*
G75*
G02*
X96728000Y-98042000I0J150000D01*
G01*
X96728000Y-96392000D01*
G75*
G02*
X96878000Y-96242000I150000J0D01*
G01*
X97178000Y-96242000D01*
G75*
G02*
X97328000Y-96392000I0J-150000D01*
G01*
X97328000Y-98042000D01*
G75*
G02*
X97178000Y-98192000I-150000J0D01*
G01*
G37*
%TD.AperFunction*%
%TO.P,U12,4*%
%TO.N,+3V3*%
%TA.AperFunction,SMDPad,CuDef*%
G36*
G01*
X98448000Y-98192000D02*
X98148000Y-98192000D01*
G75*
G02*
X97998000Y-98042000I0J150000D01*
G01*
X97998000Y-96392000D01*
G75*
G02*
X98148000Y-96242000I150000J0D01*
G01*
X98448000Y-96242000D01*
G75*
G02*
X98598000Y-96392000I0J-150000D01*
G01*
X98598000Y-98042000D01*
G75*
G02*
X98448000Y-98192000I-150000J0D01*
G01*
G37*
%TD.AperFunction*%
%TO.P,U12,3*%
%TO.N,Net-(R20-Pad2)*%
%TA.AperFunction,SMDPad,CuDef*%
G36*
G01*
X99718000Y-98192000D02*
X99418000Y-98192000D01*
G75*
G02*
X99268000Y-98042000I0J150000D01*
G01*
X99268000Y-96392000D01*
G75*
G02*
X99418000Y-96242000I150000J0D01*
G01*
X99718000Y-96242000D01*
G75*
G02*
X99868000Y-96392000I0J-150000D01*
G01*
X99868000Y-98042000D01*
G75*
G02*
X99718000Y-98192000I-150000J0D01*
G01*
G37*
%TD.AperFunction*%
%TO.P,U12,2*%
%TO.N,Net-(D13-Pad2)*%
%TA.AperFunction,SMDPad,CuDef*%
G36*
G01*
X100988000Y-98192000D02*
X100688000Y-98192000D01*
G75*
G02*
X100538000Y-98042000I0J150000D01*
G01*
X100538000Y-96392000D01*
G75*
G02*
X100688000Y-96242000I150000J0D01*
G01*
X100988000Y-96242000D01*
G75*
G02*
X101138000Y-96392000I0J-150000D01*
G01*
X101138000Y-98042000D01*
G75*
G02*
X100988000Y-98192000I-150000J0D01*
G01*
G37*
%TD.AperFunction*%
%TO.P,U12,1*%
%TO.N,Net-(D13-Pad1)*%
%TA.AperFunction,SMDPad,CuDef*%
G36*
G01*
X102258000Y-98192000D02*
X101958000Y-98192000D01*
G75*
G02*
X101808000Y-98042000I0J150000D01*
G01*
X101808000Y-96392000D01*
G75*
G02*
X101958000Y-96242000I150000J0D01*
G01*
X102258000Y-96242000D01*
G75*
G02*
X102408000Y-96392000I0J-150000D01*
G01*
X102408000Y-98042000D01*
G75*
G02*
X102258000Y-98192000I-150000J0D01*
G01*
G37*
%TD.AperFunction*%
%TD*%
%TO.P,U9,14*%
%TO.N,Net-(R15-Pad2)*%
%TA.AperFunction,SMDPad,CuDef*%
G36*
G01*
X122832000Y-93242000D02*
X122532000Y-93242000D01*
G75*
G02*
X122382000Y-93092000I0J150000D01*
G01*
X122382000Y-91442000D01*
G75*
G02*
X122532000Y-91292000I150000J0D01*
G01*
X122832000Y-91292000D01*
G75*
G02*
X122982000Y-91442000I0J-150000D01*
G01*
X122982000Y-93092000D01*
G75*
G02*
X122832000Y-93242000I-150000J0D01*
G01*
G37*
%TD.AperFunction*%
%TO.P,U9,13*%
%TA.AperFunction,SMDPad,CuDef*%
G36*
G01*
X121562000Y-93242000D02*
X121262000Y-93242000D01*
G75*
G02*
X121112000Y-93092000I0J150000D01*
G01*
X121112000Y-91442000D01*
G75*
G02*
X121262000Y-91292000I150000J0D01*
G01*
X121562000Y-91292000D01*
G75*
G02*
X121712000Y-91442000I0J-150000D01*
G01*
X121712000Y-93092000D01*
G75*
G02*
X121562000Y-93242000I-150000J0D01*
G01*
G37*
%TD.AperFunction*%
%TO.P,U9,12*%
%TO.N,Net-(C28-Pad1)*%
%TA.AperFunction,SMDPad,CuDef*%
G36*
G01*
X120292000Y-93242000D02*
X119992000Y-93242000D01*
G75*
G02*
X119842000Y-93092000I0J150000D01*
G01*
X119842000Y-91442000D01*
G75*
G02*
X119992000Y-91292000I150000J0D01*
G01*
X120292000Y-91292000D01*
G75*
G02*
X120442000Y-91442000I0J-150000D01*
G01*
X120442000Y-93092000D01*
G75*
G02*
X120292000Y-93242000I-150000J0D01*
G01*
G37*
%TD.AperFunction*%
%TO.P,U9,11*%
%TO.N,-3V3*%
%TA.AperFunction,SMDPad,CuDef*%
G36*
G01*
X119022000Y-93242000D02*
X118722000Y-93242000D01*
G75*
G02*
X118572000Y-93092000I0J150000D01*
G01*
X118572000Y-91442000D01*
G75*
G02*
X118722000Y-91292000I150000J0D01*
G01*
X119022000Y-91292000D01*
G75*
G02*
X119172000Y-91442000I0J-150000D01*
G01*
X119172000Y-93092000D01*
G75*
G02*
X119022000Y-93242000I-150000J0D01*
G01*
G37*
%TD.AperFunction*%
%TO.P,U9,10*%
%TO.N,Net-(U9-Pad10)*%
%TA.AperFunction,SMDPad,CuDef*%
G36*
G01*
X117752000Y-93242000D02*
X117452000Y-93242000D01*
G75*
G02*
X117302000Y-93092000I0J150000D01*
G01*
X117302000Y-91442000D01*
G75*
G02*
X117452000Y-91292000I150000J0D01*
G01*
X117752000Y-91292000D01*
G75*
G02*
X117902000Y-91442000I0J-150000D01*
G01*
X117902000Y-93092000D01*
G75*
G02*
X117752000Y-93242000I-150000J0D01*
G01*
G37*
%TD.AperFunction*%
%TO.P,U9,9*%
%TO.N,Net-(U9-Pad9)*%
%TA.AperFunction,SMDPad,CuDef*%
G36*
G01*
X116482000Y-93242000D02*
X116182000Y-93242000D01*
G75*
G02*
X116032000Y-93092000I0J150000D01*
G01*
X116032000Y-91442000D01*
G75*
G02*
X116182000Y-91292000I150000J0D01*
G01*
X116482000Y-91292000D01*
G75*
G02*
X116632000Y-91442000I0J-150000D01*
G01*
X116632000Y-93092000D01*
G75*
G02*
X116482000Y-93242000I-150000J0D01*
G01*
G37*
%TD.AperFunction*%
%TO.P,U9,8*%
%TO.N,Net-(U9-Pad8)*%
%TA.AperFunction,SMDPad,CuDef*%
G36*
G01*
X115212000Y-93242000D02*
X114912000Y-93242000D01*
G75*
G02*
X114762000Y-93092000I0J150000D01*
G01*
X114762000Y-91442000D01*
G75*
G02*
X114912000Y-91292000I150000J0D01*
G01*
X115212000Y-91292000D01*
G75*
G02*
X115362000Y-91442000I0J-150000D01*
G01*
X115362000Y-93092000D01*
G75*
G02*
X115212000Y-93242000I-150000J0D01*
G01*
G37*
%TD.AperFunction*%
%TO.P,U9,7*%
%TO.N,Net-(R14-Pad2)*%
%TA.AperFunction,SMDPad,CuDef*%
G36*
G01*
X115212000Y-98192000D02*
X114912000Y-98192000D01*
G75*
G02*
X114762000Y-98042000I0J150000D01*
G01*
X114762000Y-96392000D01*
G75*
G02*
X114912000Y-96242000I150000J0D01*
G01*
X115212000Y-96242000D01*
G75*
G02*
X115362000Y-96392000I0J-150000D01*
G01*
X115362000Y-98042000D01*
G75*
G02*
X115212000Y-98192000I-150000J0D01*
G01*
G37*
%TD.AperFunction*%
%TO.P,U9,6*%
%TO.N,Net-(R13-Pad2)*%
%TA.AperFunction,SMDPad,CuDef*%
G36*
G01*
X116482000Y-98192000D02*
X116182000Y-98192000D01*
G75*
G02*
X116032000Y-98042000I0J150000D01*
G01*
X116032000Y-96392000D01*
G75*
G02*
X116182000Y-96242000I150000J0D01*
G01*
X116482000Y-96242000D01*
G75*
G02*
X116632000Y-96392000I0J-150000D01*
G01*
X116632000Y-98042000D01*
G75*
G02*
X116482000Y-98192000I-150000J0D01*
G01*
G37*
%TD.AperFunction*%
%TO.P,U9,5*%
%TO.N,/sheet5F6A444D/SIGNAL_INPUT*%
%TA.AperFunction,SMDPad,CuDef*%
G36*
G01*
X117752000Y-98192000D02*
X117452000Y-98192000D01*
G75*
G02*
X117302000Y-98042000I0J150000D01*
G01*
X117302000Y-96392000D01*
G75*
G02*
X117452000Y-96242000I150000J0D01*
G01*
X117752000Y-96242000D01*
G75*
G02*
X117902000Y-96392000I0J-150000D01*
G01*
X117902000Y-98042000D01*
G75*
G02*
X117752000Y-98192000I-150000J0D01*
G01*
G37*
%TD.AperFunction*%
%TO.P,U9,4*%
%TO.N,+3V3*%
%TA.AperFunction,SMDPad,CuDef*%
G36*
G01*
X119022000Y-98192000D02*
X118722000Y-98192000D01*
G75*
G02*
X118572000Y-98042000I0J150000D01*
G01*
X118572000Y-96392000D01*
G75*
G02*
X118722000Y-96242000I150000J0D01*
G01*
X119022000Y-96242000D01*
G75*
G02*
X119172000Y-96392000I0J-150000D01*
G01*
X119172000Y-98042000D01*
G75*
G02*
X119022000Y-98192000I-150000J0D01*
G01*
G37*
%TD.AperFunction*%
%TO.P,U9,3*%
%TO.N,Net-(R14-Pad2)*%
%TA.AperFunction,SMDPad,CuDef*%
G36*
G01*
X120292000Y-98192000D02*
X119992000Y-98192000D01*
G75*
G02*
X119842000Y-98042000I0J150000D01*
G01*
X119842000Y-96392000D01*
G75*
G02*
X119992000Y-96242000I150000J0D01*
G01*
X120292000Y-96242000D01*
G75*
G02*
X120442000Y-96392000I0J-150000D01*
G01*
X120442000Y-98042000D01*
G75*
G02*
X120292000Y-98192000I-150000J0D01*
G01*
G37*
%TD.AperFunction*%
%TO.P,U9,2*%
%TO.N,Net-(D12-Pad2)*%
%TA.AperFunction,SMDPad,CuDef*%
G36*
G01*
X121562000Y-98192000D02*
X121262000Y-98192000D01*
G75*
G02*
X121112000Y-98042000I0J150000D01*
G01*
X121112000Y-96392000D01*
G75*
G02*
X121262000Y-96242000I150000J0D01*
G01*
X121562000Y-96242000D01*
G75*
G02*
X121712000Y-96392000I0J-150000D01*
G01*
X121712000Y-98042000D01*
G75*
G02*
X121562000Y-98192000I-150000J0D01*
G01*
G37*
%TD.AperFunction*%
%TO.P,U9,1*%
%TO.N,Net-(D12-Pad1)*%
%TA.AperFunction,SMDPad,CuDef*%
G36*
G01*
X122832000Y-98192000D02*
X122532000Y-98192000D01*
G75*
G02*
X122382000Y-98042000I0J150000D01*
G01*
X122382000Y-96392000D01*
G75*
G02*
X122532000Y-96242000I150000J0D01*
G01*
X122832000Y-96242000D01*
G75*
G02*
X122982000Y-96392000I0J-150000D01*
G01*
X122982000Y-98042000D01*
G75*
G02*
X122832000Y-98192000I-150000J0D01*
G01*
G37*
%TD.AperFunction*%
%TD*%
%TO.P,U6,14*%
%TO.N,Net-(R9-Pad2)*%
%TA.AperFunction,SMDPad,CuDef*%
G36*
G01*
X143406000Y-93242000D02*
X143106000Y-93242000D01*
G75*
G02*
X142956000Y-93092000I0J150000D01*
G01*
X142956000Y-91442000D01*
G75*
G02*
X143106000Y-91292000I150000J0D01*
G01*
X143406000Y-91292000D01*
G75*
G02*
X143556000Y-91442000I0J-150000D01*
G01*
X143556000Y-93092000D01*
G75*
G02*
X143406000Y-93242000I-150000J0D01*
G01*
G37*
%TD.AperFunction*%
%TO.P,U6,13*%
%TA.AperFunction,SMDPad,CuDef*%
G36*
G01*
X142136000Y-93242000D02*
X141836000Y-93242000D01*
G75*
G02*
X141686000Y-93092000I0J150000D01*
G01*
X141686000Y-91442000D01*
G75*
G02*
X141836000Y-91292000I150000J0D01*
G01*
X142136000Y-91292000D01*
G75*
G02*
X142286000Y-91442000I0J-150000D01*
G01*
X142286000Y-93092000D01*
G75*
G02*
X142136000Y-93242000I-150000J0D01*
G01*
G37*
%TD.AperFunction*%
%TO.P,U6,12*%
%TO.N,Net-(C17-Pad1)*%
%TA.AperFunction,SMDPad,CuDef*%
G36*
G01*
X140866000Y-93242000D02*
X140566000Y-93242000D01*
G75*
G02*
X140416000Y-93092000I0J150000D01*
G01*
X140416000Y-91442000D01*
G75*
G02*
X140566000Y-91292000I150000J0D01*
G01*
X140866000Y-91292000D01*
G75*
G02*
X141016000Y-91442000I0J-150000D01*
G01*
X141016000Y-93092000D01*
G75*
G02*
X140866000Y-93242000I-150000J0D01*
G01*
G37*
%TD.AperFunction*%
%TO.P,U6,11*%
%TO.N,-3V3*%
%TA.AperFunction,SMDPad,CuDef*%
G36*
G01*
X139596000Y-93242000D02*
X139296000Y-93242000D01*
G75*
G02*
X139146000Y-93092000I0J150000D01*
G01*
X139146000Y-91442000D01*
G75*
G02*
X139296000Y-91292000I150000J0D01*
G01*
X139596000Y-91292000D01*
G75*
G02*
X139746000Y-91442000I0J-150000D01*
G01*
X139746000Y-93092000D01*
G75*
G02*
X139596000Y-93242000I-150000J0D01*
G01*
G37*
%TD.AperFunction*%
%TO.P,U6,10*%
%TO.N,Net-(U6-Pad10)*%
%TA.AperFunction,SMDPad,CuDef*%
G36*
G01*
X138326000Y-93242000D02*
X138026000Y-93242000D01*
G75*
G02*
X137876000Y-93092000I0J150000D01*
G01*
X137876000Y-91442000D01*
G75*
G02*
X138026000Y-91292000I150000J0D01*
G01*
X138326000Y-91292000D01*
G75*
G02*
X138476000Y-91442000I0J-150000D01*
G01*
X138476000Y-93092000D01*
G75*
G02*
X138326000Y-93242000I-150000J0D01*
G01*
G37*
%TD.AperFunction*%
%TO.P,U6,9*%
%TO.N,Net-(U6-Pad9)*%
%TA.AperFunction,SMDPad,CuDef*%
G36*
G01*
X137056000Y-93242000D02*
X136756000Y-93242000D01*
G75*
G02*
X136606000Y-93092000I0J150000D01*
G01*
X136606000Y-91442000D01*
G75*
G02*
X136756000Y-91292000I150000J0D01*
G01*
X137056000Y-91292000D01*
G75*
G02*
X137206000Y-91442000I0J-150000D01*
G01*
X137206000Y-93092000D01*
G75*
G02*
X137056000Y-93242000I-150000J0D01*
G01*
G37*
%TD.AperFunction*%
%TO.P,U6,8*%
%TO.N,Net-(U6-Pad8)*%
%TA.AperFunction,SMDPad,CuDef*%
G36*
G01*
X135786000Y-93242000D02*
X135486000Y-93242000D01*
G75*
G02*
X135336000Y-93092000I0J150000D01*
G01*
X135336000Y-91442000D01*
G75*
G02*
X135486000Y-91292000I150000J0D01*
G01*
X135786000Y-91292000D01*
G75*
G02*
X135936000Y-91442000I0J-150000D01*
G01*
X135936000Y-93092000D01*
G75*
G02*
X135786000Y-93242000I-150000J0D01*
G01*
G37*
%TD.AperFunction*%
%TO.P,U6,7*%
%TO.N,Net-(R8-Pad2)*%
%TA.AperFunction,SMDPad,CuDef*%
G36*
G01*
X135786000Y-98192000D02*
X135486000Y-98192000D01*
G75*
G02*
X135336000Y-98042000I0J150000D01*
G01*
X135336000Y-96392000D01*
G75*
G02*
X135486000Y-96242000I150000J0D01*
G01*
X135786000Y-96242000D01*
G75*
G02*
X135936000Y-96392000I0J-150000D01*
G01*
X135936000Y-98042000D01*
G75*
G02*
X135786000Y-98192000I-150000J0D01*
G01*
G37*
%TD.AperFunction*%
%TO.P,U6,6*%
%TO.N,Net-(R7-Pad2)*%
%TA.AperFunction,SMDPad,CuDef*%
G36*
G01*
X137056000Y-98192000D02*
X136756000Y-98192000D01*
G75*
G02*
X136606000Y-98042000I0J150000D01*
G01*
X136606000Y-96392000D01*
G75*
G02*
X136756000Y-96242000I150000J0D01*
G01*
X137056000Y-96242000D01*
G75*
G02*
X137206000Y-96392000I0J-150000D01*
G01*
X137206000Y-98042000D01*
G75*
G02*
X137056000Y-98192000I-150000J0D01*
G01*
G37*
%TD.AperFunction*%
%TO.P,U6,5*%
%TO.N,/sheet5F6A30A3/SIGNAL_INPUT*%
%TA.AperFunction,SMDPad,CuDef*%
G36*
G01*
X138326000Y-98192000D02*
X138026000Y-98192000D01*
G75*
G02*
X137876000Y-98042000I0J150000D01*
G01*
X137876000Y-96392000D01*
G75*
G02*
X138026000Y-96242000I150000J0D01*
G01*
X138326000Y-96242000D01*
G75*
G02*
X138476000Y-96392000I0J-150000D01*
G01*
X138476000Y-98042000D01*
G75*
G02*
X138326000Y-98192000I-150000J0D01*
G01*
G37*
%TD.AperFunction*%
%TO.P,U6,4*%
%TO.N,+3V3*%
%TA.AperFunction,SMDPad,CuDef*%
G36*
G01*
X139596000Y-98192000D02*
X139296000Y-98192000D01*
G75*
G02*
X139146000Y-98042000I0J150000D01*
G01*
X139146000Y-96392000D01*
G75*
G02*
X139296000Y-96242000I150000J0D01*
G01*
X139596000Y-96242000D01*
G75*
G02*
X139746000Y-96392000I0J-150000D01*
G01*
X139746000Y-98042000D01*
G75*
G02*
X139596000Y-98192000I-150000J0D01*
G01*
G37*
%TD.AperFunction*%
%TO.P,U6,3*%
%TO.N,Net-(R8-Pad2)*%
%TA.AperFunction,SMDPad,CuDef*%
G36*
G01*
X140866000Y-98192000D02*
X140566000Y-98192000D01*
G75*
G02*
X140416000Y-98042000I0J150000D01*
G01*
X140416000Y-96392000D01*
G75*
G02*
X140566000Y-96242000I150000J0D01*
G01*
X140866000Y-96242000D01*
G75*
G02*
X141016000Y-96392000I0J-150000D01*
G01*
X141016000Y-98042000D01*
G75*
G02*
X140866000Y-98192000I-150000J0D01*
G01*
G37*
%TD.AperFunction*%
%TO.P,U6,2*%
%TO.N,Net-(D11-Pad2)*%
%TA.AperFunction,SMDPad,CuDef*%
G36*
G01*
X142136000Y-98192000D02*
X141836000Y-98192000D01*
G75*
G02*
X141686000Y-98042000I0J150000D01*
G01*
X141686000Y-96392000D01*
G75*
G02*
X141836000Y-96242000I150000J0D01*
G01*
X142136000Y-96242000D01*
G75*
G02*
X142286000Y-96392000I0J-150000D01*
G01*
X142286000Y-98042000D01*
G75*
G02*
X142136000Y-98192000I-150000J0D01*
G01*
G37*
%TD.AperFunction*%
%TO.P,U6,1*%
%TO.N,Net-(D11-Pad1)*%
%TA.AperFunction,SMDPad,CuDef*%
G36*
G01*
X143406000Y-98192000D02*
X143106000Y-98192000D01*
G75*
G02*
X142956000Y-98042000I0J150000D01*
G01*
X142956000Y-96392000D01*
G75*
G02*
X143106000Y-96242000I150000J0D01*
G01*
X143406000Y-96242000D01*
G75*
G02*
X143556000Y-96392000I0J-150000D01*
G01*
X143556000Y-98042000D01*
G75*
G02*
X143406000Y-98192000I-150000J0D01*
G01*
G37*
%TD.AperFunction*%
%TD*%
%TO.P,U3,14*%
%TO.N,Net-(R3-Pad2)*%
%TA.AperFunction,SMDPad,CuDef*%
G36*
G01*
X164234000Y-93242000D02*
X163934000Y-93242000D01*
G75*
G02*
X163784000Y-93092000I0J150000D01*
G01*
X163784000Y-91442000D01*
G75*
G02*
X163934000Y-91292000I150000J0D01*
G01*
X164234000Y-91292000D01*
G75*
G02*
X164384000Y-91442000I0J-150000D01*
G01*
X164384000Y-93092000D01*
G75*
G02*
X164234000Y-93242000I-150000J0D01*
G01*
G37*
%TD.AperFunction*%
%TO.P,U3,13*%
%TA.AperFunction,SMDPad,CuDef*%
G36*
G01*
X162964000Y-93242000D02*
X162664000Y-93242000D01*
G75*
G02*
X162514000Y-93092000I0J150000D01*
G01*
X162514000Y-91442000D01*
G75*
G02*
X162664000Y-91292000I150000J0D01*
G01*
X162964000Y-91292000D01*
G75*
G02*
X163114000Y-91442000I0J-150000D01*
G01*
X163114000Y-93092000D01*
G75*
G02*
X162964000Y-93242000I-150000J0D01*
G01*
G37*
%TD.AperFunction*%
%TO.P,U3,12*%
%TO.N,Net-(C6-Pad1)*%
%TA.AperFunction,SMDPad,CuDef*%
G36*
G01*
X161694000Y-93242000D02*
X161394000Y-93242000D01*
G75*
G02*
X161244000Y-93092000I0J150000D01*
G01*
X161244000Y-91442000D01*
G75*
G02*
X161394000Y-91292000I150000J0D01*
G01*
X161694000Y-91292000D01*
G75*
G02*
X161844000Y-91442000I0J-150000D01*
G01*
X161844000Y-93092000D01*
G75*
G02*
X161694000Y-93242000I-150000J0D01*
G01*
G37*
%TD.AperFunction*%
%TO.P,U3,11*%
%TO.N,-3V3*%
%TA.AperFunction,SMDPad,CuDef*%
G36*
G01*
X160424000Y-93242000D02*
X160124000Y-93242000D01*
G75*
G02*
X159974000Y-93092000I0J150000D01*
G01*
X159974000Y-91442000D01*
G75*
G02*
X160124000Y-91292000I150000J0D01*
G01*
X160424000Y-91292000D01*
G75*
G02*
X160574000Y-91442000I0J-150000D01*
G01*
X160574000Y-93092000D01*
G75*
G02*
X160424000Y-93242000I-150000J0D01*
G01*
G37*
%TD.AperFunction*%
%TO.P,U3,10*%
%TO.N,Net-(U3-Pad10)*%
%TA.AperFunction,SMDPad,CuDef*%
G36*
G01*
X159154000Y-93242000D02*
X158854000Y-93242000D01*
G75*
G02*
X158704000Y-93092000I0J150000D01*
G01*
X158704000Y-91442000D01*
G75*
G02*
X158854000Y-91292000I150000J0D01*
G01*
X159154000Y-91292000D01*
G75*
G02*
X159304000Y-91442000I0J-150000D01*
G01*
X159304000Y-93092000D01*
G75*
G02*
X159154000Y-93242000I-150000J0D01*
G01*
G37*
%TD.AperFunction*%
%TO.P,U3,9*%
%TO.N,Net-(U3-Pad9)*%
%TA.AperFunction,SMDPad,CuDef*%
G36*
G01*
X157884000Y-93242000D02*
X157584000Y-93242000D01*
G75*
G02*
X157434000Y-93092000I0J150000D01*
G01*
X157434000Y-91442000D01*
G75*
G02*
X157584000Y-91292000I150000J0D01*
G01*
X157884000Y-91292000D01*
G75*
G02*
X158034000Y-91442000I0J-150000D01*
G01*
X158034000Y-93092000D01*
G75*
G02*
X157884000Y-93242000I-150000J0D01*
G01*
G37*
%TD.AperFunction*%
%TO.P,U3,8*%
%TO.N,Net-(U3-Pad8)*%
%TA.AperFunction,SMDPad,CuDef*%
G36*
G01*
X156614000Y-93242000D02*
X156314000Y-93242000D01*
G75*
G02*
X156164000Y-93092000I0J150000D01*
G01*
X156164000Y-91442000D01*
G75*
G02*
X156314000Y-91292000I150000J0D01*
G01*
X156614000Y-91292000D01*
G75*
G02*
X156764000Y-91442000I0J-150000D01*
G01*
X156764000Y-93092000D01*
G75*
G02*
X156614000Y-93242000I-150000J0D01*
G01*
G37*
%TD.AperFunction*%
%TO.P,U3,7*%
%TO.N,Net-(R2-Pad2)*%
%TA.AperFunction,SMDPad,CuDef*%
G36*
G01*
X156614000Y-98192000D02*
X156314000Y-98192000D01*
G75*
G02*
X156164000Y-98042000I0J150000D01*
G01*
X156164000Y-96392000D01*
G75*
G02*
X156314000Y-96242000I150000J0D01*
G01*
X156614000Y-96242000D01*
G75*
G02*
X156764000Y-96392000I0J-150000D01*
G01*
X156764000Y-98042000D01*
G75*
G02*
X156614000Y-98192000I-150000J0D01*
G01*
G37*
%TD.AperFunction*%
%TO.P,U3,6*%
%TO.N,Net-(R1-Pad2)*%
%TA.AperFunction,SMDPad,CuDef*%
G36*
G01*
X157884000Y-98192000D02*
X157584000Y-98192000D01*
G75*
G02*
X157434000Y-98042000I0J150000D01*
G01*
X157434000Y-96392000D01*
G75*
G02*
X157584000Y-96242000I150000J0D01*
G01*
X157884000Y-96242000D01*
G75*
G02*
X158034000Y-96392000I0J-150000D01*
G01*
X158034000Y-98042000D01*
G75*
G02*
X157884000Y-98192000I-150000J0D01*
G01*
G37*
%TD.AperFunction*%
%TO.P,U3,5*%
%TO.N,/PeakDetector1/SIGNAL_INPUT*%
%TA.AperFunction,SMDPad,CuDef*%
G36*
G01*
X159154000Y-98192000D02*
X158854000Y-98192000D01*
G75*
G02*
X158704000Y-98042000I0J150000D01*
G01*
X158704000Y-96392000D01*
G75*
G02*
X158854000Y-96242000I150000J0D01*
G01*
X159154000Y-96242000D01*
G75*
G02*
X159304000Y-96392000I0J-150000D01*
G01*
X159304000Y-98042000D01*
G75*
G02*
X159154000Y-98192000I-150000J0D01*
G01*
G37*
%TD.AperFunction*%
%TO.P,U3,4*%
%TO.N,+3V3*%
%TA.AperFunction,SMDPad,CuDef*%
G36*
G01*
X160424000Y-98192000D02*
X160124000Y-98192000D01*
G75*
G02*
X159974000Y-98042000I0J150000D01*
G01*
X159974000Y-96392000D01*
G75*
G02*
X160124000Y-96242000I150000J0D01*
G01*
X160424000Y-96242000D01*
G75*
G02*
X160574000Y-96392000I0J-150000D01*
G01*
X160574000Y-98042000D01*
G75*
G02*
X160424000Y-98192000I-150000J0D01*
G01*
G37*
%TD.AperFunction*%
%TO.P,U3,3*%
%TO.N,Net-(R2-Pad2)*%
%TA.AperFunction,SMDPad,CuDef*%
G36*
G01*
X161694000Y-98192000D02*
X161394000Y-98192000D01*
G75*
G02*
X161244000Y-98042000I0J150000D01*
G01*
X161244000Y-96392000D01*
G75*
G02*
X161394000Y-96242000I150000J0D01*
G01*
X161694000Y-96242000D01*
G75*
G02*
X161844000Y-96392000I0J-150000D01*
G01*
X161844000Y-98042000D01*
G75*
G02*
X161694000Y-98192000I-150000J0D01*
G01*
G37*
%TD.AperFunction*%
%TO.P,U3,2*%
%TO.N,Net-(D10-Pad2)*%
%TA.AperFunction,SMDPad,CuDef*%
G36*
G01*
X162964000Y-98192000D02*
X162664000Y-98192000D01*
G75*
G02*
X162514000Y-98042000I0J150000D01*
G01*
X162514000Y-96392000D01*
G75*
G02*
X162664000Y-96242000I150000J0D01*
G01*
X162964000Y-96242000D01*
G75*
G02*
X163114000Y-96392000I0J-150000D01*
G01*
X163114000Y-98042000D01*
G75*
G02*
X162964000Y-98192000I-150000J0D01*
G01*
G37*
%TD.AperFunction*%
%TO.P,U3,1*%
%TO.N,Net-(D1-Pad2)*%
%TA.AperFunction,SMDPad,CuDef*%
G36*
G01*
X164234000Y-98192000D02*
X163934000Y-98192000D01*
G75*
G02*
X163784000Y-98042000I0J150000D01*
G01*
X163784000Y-96392000D01*
G75*
G02*
X163934000Y-96242000I150000J0D01*
G01*
X164234000Y-96242000D01*
G75*
G02*
X164384000Y-96392000I0J-150000D01*
G01*
X164384000Y-98042000D01*
G75*
G02*
X164234000Y-98192000I-150000J0D01*
G01*
G37*
%TD.AperFunction*%
%TD*%
%TO.P,R22,2*%
%TO.N,Net-(C39-Pad1)*%
%TA.AperFunction,SMDPad,CuDef*%
G36*
G01*
X101403999Y-85540000D02*
X102304001Y-85540000D01*
G75*
G02*
X102554000Y-85789999I0J-249999D01*
G01*
X102554000Y-86440001D01*
G75*
G02*
X102304001Y-86690000I-249999J0D01*
G01*
X101403999Y-86690000D01*
G75*
G02*
X101154000Y-86440001I0J249999D01*
G01*
X101154000Y-85789999D01*
G75*
G02*
X101403999Y-85540000I249999J0D01*
G01*
G37*
%TD.AperFunction*%
%TO.P,R22,1*%
%TO.N,VCOM*%
%TA.AperFunction,SMDPad,CuDef*%
G36*
G01*
X101403999Y-83490000D02*
X102304001Y-83490000D01*
G75*
G02*
X102554000Y-83739999I0J-249999D01*
G01*
X102554000Y-84390001D01*
G75*
G02*
X102304001Y-84640000I-249999J0D01*
G01*
X101403999Y-84640000D01*
G75*
G02*
X101154000Y-84390001I0J249999D01*
G01*
X101154000Y-83739999D01*
G75*
G02*
X101403999Y-83490000I249999J0D01*
G01*
G37*
%TD.AperFunction*%
%TD*%
%TO.P,R16,2*%
%TO.N,Net-(C28-Pad1)*%
%TA.AperFunction,SMDPad,CuDef*%
G36*
G01*
X121469999Y-85540000D02*
X122370001Y-85540000D01*
G75*
G02*
X122620000Y-85789999I0J-249999D01*
G01*
X122620000Y-86440001D01*
G75*
G02*
X122370001Y-86690000I-249999J0D01*
G01*
X121469999Y-86690000D01*
G75*
G02*
X121220000Y-86440001I0J249999D01*
G01*
X121220000Y-85789999D01*
G75*
G02*
X121469999Y-85540000I249999J0D01*
G01*
G37*
%TD.AperFunction*%
%TO.P,R16,1*%
%TO.N,VCOM*%
%TA.AperFunction,SMDPad,CuDef*%
G36*
G01*
X121469999Y-83490000D02*
X122370001Y-83490000D01*
G75*
G02*
X122620000Y-83739999I0J-249999D01*
G01*
X122620000Y-84390001D01*
G75*
G02*
X122370001Y-84640000I-249999J0D01*
G01*
X121469999Y-84640000D01*
G75*
G02*
X121220000Y-84390001I0J249999D01*
G01*
X121220000Y-83739999D01*
G75*
G02*
X121469999Y-83490000I249999J0D01*
G01*
G37*
%TD.AperFunction*%
%TD*%
%TO.P,R10,2*%
%TO.N,Net-(C17-Pad1)*%
%TA.AperFunction,SMDPad,CuDef*%
G36*
G01*
X142297999Y-85540000D02*
X143198001Y-85540000D01*
G75*
G02*
X143448000Y-85789999I0J-249999D01*
G01*
X143448000Y-86440001D01*
G75*
G02*
X143198001Y-86690000I-249999J0D01*
G01*
X142297999Y-86690000D01*
G75*
G02*
X142048000Y-86440001I0J249999D01*
G01*
X142048000Y-85789999D01*
G75*
G02*
X142297999Y-85540000I249999J0D01*
G01*
G37*
%TD.AperFunction*%
%TO.P,R10,1*%
%TO.N,VCOM*%
%TA.AperFunction,SMDPad,CuDef*%
G36*
G01*
X142297999Y-83490000D02*
X143198001Y-83490000D01*
G75*
G02*
X143448000Y-83739999I0J-249999D01*
G01*
X143448000Y-84390001D01*
G75*
G02*
X143198001Y-84640000I-249999J0D01*
G01*
X142297999Y-84640000D01*
G75*
G02*
X142048000Y-84390001I0J249999D01*
G01*
X142048000Y-83739999D01*
G75*
G02*
X142297999Y-83490000I249999J0D01*
G01*
G37*
%TD.AperFunction*%
%TD*%
%TO.P,R4,2*%
%TO.N,Net-(C6-Pad1)*%
%TA.AperFunction,SMDPad,CuDef*%
G36*
G01*
X163125999Y-85540000D02*
X164026001Y-85540000D01*
G75*
G02*
X164276000Y-85789999I0J-249999D01*
G01*
X164276000Y-86440001D01*
G75*
G02*
X164026001Y-86690000I-249999J0D01*
G01*
X163125999Y-86690000D01*
G75*
G02*
X162876000Y-86440001I0J249999D01*
G01*
X162876000Y-85789999D01*
G75*
G02*
X163125999Y-85540000I249999J0D01*
G01*
G37*
%TD.AperFunction*%
%TO.P,R4,1*%
%TO.N,VCOM*%
%TA.AperFunction,SMDPad,CuDef*%
G36*
G01*
X163125999Y-83490000D02*
X164026001Y-83490000D01*
G75*
G02*
X164276000Y-83739999I0J-249999D01*
G01*
X164276000Y-84390001D01*
G75*
G02*
X164026001Y-84640000I-249999J0D01*
G01*
X163125999Y-84640000D01*
G75*
G02*
X162876000Y-84390001I0J249999D01*
G01*
X162876000Y-83739999D01*
G75*
G02*
X163125999Y-83490000I249999J0D01*
G01*
G37*
%TD.AperFunction*%
%TD*%
D12*
%TO.P,D13,2*%
%TO.N,Net-(D13-Pad2)*%
X100962000Y-100584000D03*
%TO.P,D13,1*%
%TO.N,Net-(D13-Pad1)*%
X103762000Y-100584000D03*
%TD*%
%TO.P,D12,2*%
%TO.N,Net-(D12-Pad2)*%
X121536000Y-100584000D03*
%TO.P,D12,1*%
%TO.N,Net-(D12-Pad1)*%
X124336000Y-100584000D03*
%TD*%
%TO.P,D11,2*%
%TO.N,Net-(D11-Pad2)*%
X142110000Y-100584000D03*
%TO.P,D11,1*%
%TO.N,Net-(D11-Pad1)*%
X144910000Y-100584000D03*
%TD*%
%TO.P,D10,2*%
%TO.N,Net-(D10-Pad2)*%
X162938000Y-100584000D03*
%TO.P,D10,1*%
%TO.N,Net-(D1-Pad2)*%
X165738000Y-100584000D03*
%TD*%
%TO.P,C39,2*%
%TO.N,VCOM*%
%TA.AperFunction,SMDPad,CuDef*%
G36*
G01*
X106993000Y-84950000D02*
X104843000Y-84950000D01*
G75*
G02*
X104593000Y-84700000I0J250000D01*
G01*
X104593000Y-83775000D01*
G75*
G02*
X104843000Y-83525000I250000J0D01*
G01*
X106993000Y-83525000D01*
G75*
G02*
X107243000Y-83775000I0J-250000D01*
G01*
X107243000Y-84700000D01*
G75*
G02*
X106993000Y-84950000I-250000J0D01*
G01*
G37*
%TD.AperFunction*%
%TO.P,C39,1*%
%TO.N,Net-(C39-Pad1)*%
%TA.AperFunction,SMDPad,CuDef*%
G36*
G01*
X106993000Y-87925000D02*
X104843000Y-87925000D01*
G75*
G02*
X104593000Y-87675000I0J250000D01*
G01*
X104593000Y-86750000D01*
G75*
G02*
X104843000Y-86500000I250000J0D01*
G01*
X106993000Y-86500000D01*
G75*
G02*
X107243000Y-86750000I0J-250000D01*
G01*
X107243000Y-87675000D01*
G75*
G02*
X106993000Y-87925000I-250000J0D01*
G01*
G37*
%TD.AperFunction*%
%TD*%
%TO.P,C28,2*%
%TO.N,VCOM*%
%TA.AperFunction,SMDPad,CuDef*%
G36*
G01*
X126932000Y-84950000D02*
X124782000Y-84950000D01*
G75*
G02*
X124532000Y-84700000I0J250000D01*
G01*
X124532000Y-83775000D01*
G75*
G02*
X124782000Y-83525000I250000J0D01*
G01*
X126932000Y-83525000D01*
G75*
G02*
X127182000Y-83775000I0J-250000D01*
G01*
X127182000Y-84700000D01*
G75*
G02*
X126932000Y-84950000I-250000J0D01*
G01*
G37*
%TD.AperFunction*%
%TO.P,C28,1*%
%TO.N,Net-(C28-Pad1)*%
%TA.AperFunction,SMDPad,CuDef*%
G36*
G01*
X126932000Y-87925000D02*
X124782000Y-87925000D01*
G75*
G02*
X124532000Y-87675000I0J250000D01*
G01*
X124532000Y-86750000D01*
G75*
G02*
X124782000Y-86500000I250000J0D01*
G01*
X126932000Y-86500000D01*
G75*
G02*
X127182000Y-86750000I0J-250000D01*
G01*
X127182000Y-87675000D01*
G75*
G02*
X126932000Y-87925000I-250000J0D01*
G01*
G37*
%TD.AperFunction*%
%TD*%
%TO.P,C17,2*%
%TO.N,VCOM*%
%TA.AperFunction,SMDPad,CuDef*%
G36*
G01*
X147379000Y-84823000D02*
X145229000Y-84823000D01*
G75*
G02*
X144979000Y-84573000I0J250000D01*
G01*
X144979000Y-83648000D01*
G75*
G02*
X145229000Y-83398000I250000J0D01*
G01*
X147379000Y-83398000D01*
G75*
G02*
X147629000Y-83648000I0J-250000D01*
G01*
X147629000Y-84573000D01*
G75*
G02*
X147379000Y-84823000I-250000J0D01*
G01*
G37*
%TD.AperFunction*%
%TO.P,C17,1*%
%TO.N,Net-(C17-Pad1)*%
%TA.AperFunction,SMDPad,CuDef*%
G36*
G01*
X147379000Y-87798000D02*
X145229000Y-87798000D01*
G75*
G02*
X144979000Y-87548000I0J250000D01*
G01*
X144979000Y-86623000D01*
G75*
G02*
X145229000Y-86373000I250000J0D01*
G01*
X147379000Y-86373000D01*
G75*
G02*
X147629000Y-86623000I0J-250000D01*
G01*
X147629000Y-87548000D01*
G75*
G02*
X147379000Y-87798000I-250000J0D01*
G01*
G37*
%TD.AperFunction*%
%TD*%
%TO.P,C6,2*%
%TO.N,VCOM*%
%TA.AperFunction,SMDPad,CuDef*%
G36*
G01*
X168715000Y-84823000D02*
X166565000Y-84823000D01*
G75*
G02*
X166315000Y-84573000I0J250000D01*
G01*
X166315000Y-83648000D01*
G75*
G02*
X166565000Y-83398000I250000J0D01*
G01*
X168715000Y-83398000D01*
G75*
G02*
X168965000Y-83648000I0J-250000D01*
G01*
X168965000Y-84573000D01*
G75*
G02*
X168715000Y-84823000I-250000J0D01*
G01*
G37*
%TD.AperFunction*%
%TO.P,C6,1*%
%TO.N,Net-(C6-Pad1)*%
%TA.AperFunction,SMDPad,CuDef*%
G36*
G01*
X168715000Y-87798000D02*
X166565000Y-87798000D01*
G75*
G02*
X166315000Y-87548000I0J250000D01*
G01*
X166315000Y-86623000D01*
G75*
G02*
X166565000Y-86373000I250000J0D01*
G01*
X168715000Y-86373000D01*
G75*
G02*
X168965000Y-86623000I0J-250000D01*
G01*
X168965000Y-87548000D01*
G75*
G02*
X168715000Y-87798000I-250000J0D01*
G01*
G37*
%TD.AperFunction*%
%TD*%
%TO.P,D7,2*%
%TO.N,Net-(D13-Pad1)*%
X107318000Y-94996000D03*
%TO.P,D7,1*%
%TO.N,Net-(C39-Pad1)*%
X104518000Y-94996000D03*
%TD*%
%TO.P,D5,2*%
%TO.N,Net-(D12-Pad1)*%
X128400000Y-94996000D03*
%TO.P,D5,1*%
%TO.N,Net-(C28-Pad1)*%
X125600000Y-94996000D03*
%TD*%
%TO.P,D3,2*%
%TO.N,Net-(D11-Pad1)*%
X148212000Y-94996000D03*
%TO.P,D3,1*%
%TO.N,Net-(C17-Pad1)*%
X145412000Y-94996000D03*
%TD*%
%TO.P,D1,2*%
%TO.N,Net-(D1-Pad2)*%
X170056000Y-94869000D03*
%TO.P,D1,1*%
%TO.N,Net-(C6-Pad1)*%
X167256000Y-94869000D03*
%TD*%
D13*
%TO.P,U14,7*%
%TO.N,Net-(C3-Pad1)*%
X185928000Y-93599000D03*
%TO.P,U14,10*%
%TO.N,Net-(U14-Pad10)*%
X178308000Y-93599000D03*
%TO.P,U14,5*%
%TO.N,Net-(C48-Pad2)*%
X188468000Y-83439000D03*
%TO.P,U14,4*%
%TO.N,VCOM*%
X185928000Y-83439000D03*
%TO.P,U14,2*%
%TO.N,/PowerSupply/+5V_REG*%
X180848000Y-83439000D03*
%TO.P,U14,1*%
%TO.N,GNDS*%
X178308000Y-83439000D03*
%TD*%
D14*
%TO.P,RV1,1*%
%TO.N,Net-(R6-Pad2)*%
X168757600Y-69469000D03*
%TO.P,RV1,2*%
X165252400Y-69469000D03*
%TO.P,RV1,3*%
%TO.N,Net-(C14-Pad2)*%
X168757600Y-127965200D03*
D15*
%TO.P,RV1,*%
%TO.N,*%
X171196000Y-74803000D03*
X162839400Y-73609200D03*
X171196000Y-122605800D03*
X162814000Y-123825000D03*
%TD*%
D14*
%TO.P,RV2,1*%
%TO.N,Net-(R12-Pad2)*%
X148183600Y-69469000D03*
%TO.P,RV2,2*%
X144678400Y-69469000D03*
%TO.P,RV2,3*%
%TO.N,Net-(C25-Pad2)*%
X148183600Y-127965200D03*
D15*
%TO.P,RV2,*%
%TO.N,*%
X150622000Y-74803000D03*
X142265400Y-73609200D03*
X150622000Y-122605800D03*
X142240000Y-123825000D03*
%TD*%
D14*
%TO.P,RV3,1*%
%TO.N,Net-(R18-Pad2)*%
X127584200Y-69519800D03*
%TO.P,RV3,2*%
X124079000Y-69519800D03*
%TO.P,RV3,3*%
%TO.N,Net-(C36-Pad2)*%
X127584200Y-128016000D03*
D15*
%TO.P,RV3,*%
%TO.N,*%
X130022600Y-74853800D03*
X121666000Y-73660000D03*
X130022600Y-122656600D03*
X121640600Y-123875800D03*
%TD*%
D14*
%TO.P,RV4,1*%
%TO.N,Net-(R24-Pad2)*%
X107010200Y-69469000D03*
%TO.P,RV4,2*%
X103505000Y-69469000D03*
%TO.P,RV4,3*%
%TO.N,Net-(C47-Pad2)*%
X107010200Y-127965200D03*
D15*
%TO.P,RV4,*%
%TO.N,*%
X109448600Y-74803000D03*
X101092000Y-73609200D03*
X109448600Y-122605800D03*
X101066600Y-123825000D03*
%TD*%
D16*
%TO.P,U1,3*%
%TO.N,/PowerSupply/+9V_POL*%
X184785000Y-77740000D03*
%TO.P,U1,2*%
%TO.N,/PowerSupply/+5V_REG*%
X183835000Y-79740000D03*
%TO.P,U1,1*%
%TO.N,GNDS*%
X185735000Y-79740000D03*
%TD*%
%TO.P,C2,2*%
%TO.N,GNDS*%
%TA.AperFunction,SMDPad,CuDef*%
G36*
G01*
X179057000Y-79131000D02*
X179057000Y-80381000D01*
G75*
G02*
X178807000Y-80631000I-250000J0D01*
G01*
X177882000Y-80631000D01*
G75*
G02*
X177632000Y-80381000I0J250000D01*
G01*
X177632000Y-79131000D01*
G75*
G02*
X177882000Y-78881000I250000J0D01*
G01*
X178807000Y-78881000D01*
G75*
G02*
X179057000Y-79131000I0J-250000D01*
G01*
G37*
%TD.AperFunction*%
%TO.P,C2,1*%
%TO.N,/PowerSupply/+5V_REG*%
%TA.AperFunction,SMDPad,CuDef*%
G36*
G01*
X182032000Y-79131000D02*
X182032000Y-80381000D01*
G75*
G02*
X181782000Y-80631000I-250000J0D01*
G01*
X180857000Y-80631000D01*
G75*
G02*
X180607000Y-80381000I0J250000D01*
G01*
X180607000Y-79131000D01*
G75*
G02*
X180857000Y-78881000I250000J0D01*
G01*
X181782000Y-78881000D01*
G75*
G02*
X182032000Y-79131000I0J-250000D01*
G01*
G37*
%TD.AperFunction*%
%TD*%
%TO.P,C1,2*%
%TO.N,GNDS*%
%TA.AperFunction,SMDPad,CuDef*%
G36*
G01*
X188224000Y-78880000D02*
X189474000Y-78880000D01*
G75*
G02*
X189724000Y-79130000I0J-250000D01*
G01*
X189724000Y-80055000D01*
G75*
G02*
X189474000Y-80305000I-250000J0D01*
G01*
X188224000Y-80305000D01*
G75*
G02*
X187974000Y-80055000I0J250000D01*
G01*
X187974000Y-79130000D01*
G75*
G02*
X188224000Y-78880000I250000J0D01*
G01*
G37*
%TD.AperFunction*%
%TO.P,C1,1*%
%TO.N,/PowerSupply/+9V_POL*%
%TA.AperFunction,SMDPad,CuDef*%
G36*
G01*
X188224000Y-75905000D02*
X189474000Y-75905000D01*
G75*
G02*
X189724000Y-76155000I0J-250000D01*
G01*
X189724000Y-77080000D01*
G75*
G02*
X189474000Y-77330000I-250000J0D01*
G01*
X188224000Y-77330000D01*
G75*
G02*
X187974000Y-77080000I0J250000D01*
G01*
X187974000Y-76155000D01*
G75*
G02*
X188224000Y-75905000I250000J0D01*
G01*
G37*
%TD.AperFunction*%
%TD*%
%TO.P,U16,3*%
%TO.N,VCOM*%
X187579000Y-99425000D03*
%TO.P,U16,2*%
%TO.N,Net-(C48-Pad2)*%
X188529000Y-97425000D03*
%TO.P,U16,1*%
%TO.N,-3V3*%
X186629000Y-97425000D03*
%TD*%
%TO.P,U15,3*%
%TO.N,Net-(C3-Pad1)*%
X177800000Y-97425000D03*
%TO.P,U15,2*%
%TO.N,+3V3*%
X176850000Y-99425000D03*
%TO.P,U15,1*%
%TO.N,VCOM*%
X178750000Y-99425000D03*
%TD*%
%TO.P,C50,2*%
%TO.N,-3V3*%
%TA.AperFunction,SMDPad,CuDef*%
G36*
G01*
X183965001Y-97975000D02*
X183064999Y-97975000D01*
G75*
G02*
X182815000Y-97725001I0J249999D01*
G01*
X182815000Y-97074999D01*
G75*
G02*
X183064999Y-96825000I249999J0D01*
G01*
X183965001Y-96825000D01*
G75*
G02*
X184215000Y-97074999I0J-249999D01*
G01*
X184215000Y-97725001D01*
G75*
G02*
X183965001Y-97975000I-249999J0D01*
G01*
G37*
%TD.AperFunction*%
%TO.P,C50,1*%
%TO.N,VCOM*%
%TA.AperFunction,SMDPad,CuDef*%
G36*
G01*
X183965001Y-100025000D02*
X183064999Y-100025000D01*
G75*
G02*
X182815000Y-99775001I0J249999D01*
G01*
X182815000Y-99124999D01*
G75*
G02*
X183064999Y-98875000I249999J0D01*
G01*
X183965001Y-98875000D01*
G75*
G02*
X184215000Y-99124999I0J-249999D01*
G01*
X184215000Y-99775001D01*
G75*
G02*
X183965001Y-100025000I-249999J0D01*
G01*
G37*
%TD.AperFunction*%
%TD*%
%TO.P,C49,2*%
%TO.N,VCOM*%
%TA.AperFunction,SMDPad,CuDef*%
G36*
G01*
X174694001Y-97975000D02*
X173793999Y-97975000D01*
G75*
G02*
X173544000Y-97725001I0J249999D01*
G01*
X173544000Y-97074999D01*
G75*
G02*
X173793999Y-96825000I249999J0D01*
G01*
X174694001Y-96825000D01*
G75*
G02*
X174944000Y-97074999I0J-249999D01*
G01*
X174944000Y-97725001D01*
G75*
G02*
X174694001Y-97975000I-249999J0D01*
G01*
G37*
%TD.AperFunction*%
%TO.P,C49,1*%
%TO.N,+3V3*%
%TA.AperFunction,SMDPad,CuDef*%
G36*
G01*
X174694001Y-100025000D02*
X173793999Y-100025000D01*
G75*
G02*
X173544000Y-99775001I0J249999D01*
G01*
X173544000Y-99124999D01*
G75*
G02*
X173793999Y-98875000I249999J0D01*
G01*
X174694001Y-98875000D01*
G75*
G02*
X174944000Y-99124999I0J-249999D01*
G01*
X174944000Y-99775001D01*
G75*
G02*
X174694001Y-100025000I-249999J0D01*
G01*
G37*
%TD.AperFunction*%
%TD*%
%TO.P,C48,2*%
%TO.N,Net-(C48-Pad2)*%
%TA.AperFunction,SMDPad,CuDef*%
G36*
G01*
X191077001Y-97975000D02*
X190176999Y-97975000D01*
G75*
G02*
X189927000Y-97725001I0J249999D01*
G01*
X189927000Y-97074999D01*
G75*
G02*
X190176999Y-96825000I249999J0D01*
G01*
X191077001Y-96825000D01*
G75*
G02*
X191327000Y-97074999I0J-249999D01*
G01*
X191327000Y-97725001D01*
G75*
G02*
X191077001Y-97975000I-249999J0D01*
G01*
G37*
%TD.AperFunction*%
%TO.P,C48,1*%
%TO.N,VCOM*%
%TA.AperFunction,SMDPad,CuDef*%
G36*
G01*
X191077001Y-100025000D02*
X190176999Y-100025000D01*
G75*
G02*
X189927000Y-99775001I0J249999D01*
G01*
X189927000Y-99124999D01*
G75*
G02*
X190176999Y-98875000I249999J0D01*
G01*
X191077001Y-98875000D01*
G75*
G02*
X191327000Y-99124999I0J-249999D01*
G01*
X191327000Y-99775001D01*
G75*
G02*
X191077001Y-100025000I-249999J0D01*
G01*
G37*
%TD.AperFunction*%
%TD*%
%TO.P,C3,2*%
%TO.N,VCOM*%
%TA.AperFunction,SMDPad,CuDef*%
G36*
G01*
X180905999Y-98875000D02*
X181806001Y-98875000D01*
G75*
G02*
X182056000Y-99124999I0J-249999D01*
G01*
X182056000Y-99775001D01*
G75*
G02*
X181806001Y-100025000I-249999J0D01*
G01*
X180905999Y-100025000D01*
G75*
G02*
X180656000Y-99775001I0J249999D01*
G01*
X180656000Y-99124999D01*
G75*
G02*
X180905999Y-98875000I249999J0D01*
G01*
G37*
%TD.AperFunction*%
%TO.P,C3,1*%
%TO.N,Net-(C3-Pad1)*%
%TA.AperFunction,SMDPad,CuDef*%
G36*
G01*
X180905999Y-96825000D02*
X181806001Y-96825000D01*
G75*
G02*
X182056000Y-97074999I0J-249999D01*
G01*
X182056000Y-97725001D01*
G75*
G02*
X181806001Y-97975000I-249999J0D01*
G01*
X180905999Y-97975000D01*
G75*
G02*
X180656000Y-97725001I0J249999D01*
G01*
X180656000Y-97074999D01*
G75*
G02*
X180905999Y-96825000I249999J0D01*
G01*
G37*
%TD.AperFunction*%
%TD*%
D17*
%TO.P,D2,2*%
%TO.N,Net-(D2-Pad2)*%
X167005000Y-52705000D03*
D18*
%TO.P,D2,1*%
%TO.N,VCOM*%
X167005000Y-55245000D03*
%TD*%
%TO.P,U11,8*%
%TO.N,+3V3*%
%TA.AperFunction,SMDPad,CuDef*%
G36*
G01*
X98448000Y-110895000D02*
X98148000Y-110895000D01*
G75*
G02*
X97998000Y-110745000I0J150000D01*
G01*
X97998000Y-109095000D01*
G75*
G02*
X98148000Y-108945000I150000J0D01*
G01*
X98448000Y-108945000D01*
G75*
G02*
X98598000Y-109095000I0J-150000D01*
G01*
X98598000Y-110745000D01*
G75*
G02*
X98448000Y-110895000I-150000J0D01*
G01*
G37*
%TD.AperFunction*%
%TO.P,U11,7*%
%TO.N,/sheet5F6AEF15/SIGNAL_INPUT*%
%TA.AperFunction,SMDPad,CuDef*%
G36*
G01*
X97178000Y-110895000D02*
X96878000Y-110895000D01*
G75*
G02*
X96728000Y-110745000I0J150000D01*
G01*
X96728000Y-109095000D01*
G75*
G02*
X96878000Y-108945000I150000J0D01*
G01*
X97178000Y-108945000D01*
G75*
G02*
X97328000Y-109095000I0J-150000D01*
G01*
X97328000Y-110745000D01*
G75*
G02*
X97178000Y-110895000I-150000J0D01*
G01*
G37*
%TD.AperFunction*%
%TO.P,U11,6*%
%TO.N,Net-(C47-Pad2)*%
%TA.AperFunction,SMDPad,CuDef*%
G36*
G01*
X95908000Y-110895000D02*
X95608000Y-110895000D01*
G75*
G02*
X95458000Y-110745000I0J150000D01*
G01*
X95458000Y-109095000D01*
G75*
G02*
X95608000Y-108945000I150000J0D01*
G01*
X95908000Y-108945000D01*
G75*
G02*
X96058000Y-109095000I0J-150000D01*
G01*
X96058000Y-110745000D01*
G75*
G02*
X95908000Y-110895000I-150000J0D01*
G01*
G37*
%TD.AperFunction*%
%TO.P,U11,5*%
%TO.N,VCOM*%
%TA.AperFunction,SMDPad,CuDef*%
G36*
G01*
X94638000Y-110895000D02*
X94338000Y-110895000D01*
G75*
G02*
X94188000Y-110745000I0J150000D01*
G01*
X94188000Y-109095000D01*
G75*
G02*
X94338000Y-108945000I150000J0D01*
G01*
X94638000Y-108945000D01*
G75*
G02*
X94788000Y-109095000I0J-150000D01*
G01*
X94788000Y-110745000D01*
G75*
G02*
X94638000Y-110895000I-150000J0D01*
G01*
G37*
%TD.AperFunction*%
%TO.P,U11,4*%
%TO.N,-3V3*%
%TA.AperFunction,SMDPad,CuDef*%
G36*
G01*
X94638000Y-115845000D02*
X94338000Y-115845000D01*
G75*
G02*
X94188000Y-115695000I0J150000D01*
G01*
X94188000Y-114045000D01*
G75*
G02*
X94338000Y-113895000I150000J0D01*
G01*
X94638000Y-113895000D01*
G75*
G02*
X94788000Y-114045000I0J-150000D01*
G01*
X94788000Y-115695000D01*
G75*
G02*
X94638000Y-115845000I-150000J0D01*
G01*
G37*
%TD.AperFunction*%
%TO.P,U11,3*%
%TO.N,/InputBuffer1/SIGNAL_INPUT*%
%TA.AperFunction,SMDPad,CuDef*%
G36*
G01*
X95908000Y-115845000D02*
X95608000Y-115845000D01*
G75*
G02*
X95458000Y-115695000I0J150000D01*
G01*
X95458000Y-114045000D01*
G75*
G02*
X95608000Y-113895000I150000J0D01*
G01*
X95908000Y-113895000D01*
G75*
G02*
X96058000Y-114045000I0J-150000D01*
G01*
X96058000Y-115695000D01*
G75*
G02*
X95908000Y-115845000I-150000J0D01*
G01*
G37*
%TD.AperFunction*%
%TO.P,U11,2*%
%TO.N,Net-(R23-Pad2)*%
%TA.AperFunction,SMDPad,CuDef*%
G36*
G01*
X97178000Y-115845000D02*
X96878000Y-115845000D01*
G75*
G02*
X96728000Y-115695000I0J150000D01*
G01*
X96728000Y-114045000D01*
G75*
G02*
X96878000Y-113895000I150000J0D01*
G01*
X97178000Y-113895000D01*
G75*
G02*
X97328000Y-114045000I0J-150000D01*
G01*
X97328000Y-115695000D01*
G75*
G02*
X97178000Y-115845000I-150000J0D01*
G01*
G37*
%TD.AperFunction*%
%TO.P,U11,1*%
%TA.AperFunction,SMDPad,CuDef*%
G36*
G01*
X98448000Y-115845000D02*
X98148000Y-115845000D01*
G75*
G02*
X97998000Y-115695000I0J150000D01*
G01*
X97998000Y-114045000D01*
G75*
G02*
X98148000Y-113895000I150000J0D01*
G01*
X98448000Y-113895000D01*
G75*
G02*
X98598000Y-114045000I0J-150000D01*
G01*
X98598000Y-115695000D01*
G75*
G02*
X98448000Y-115845000I-150000J0D01*
G01*
G37*
%TD.AperFunction*%
%TD*%
%TO.P,U8,8*%
%TO.N,+3V3*%
%TA.AperFunction,SMDPad,CuDef*%
G36*
G01*
X119022000Y-110895000D02*
X118722000Y-110895000D01*
G75*
G02*
X118572000Y-110745000I0J150000D01*
G01*
X118572000Y-109095000D01*
G75*
G02*
X118722000Y-108945000I150000J0D01*
G01*
X119022000Y-108945000D01*
G75*
G02*
X119172000Y-109095000I0J-150000D01*
G01*
X119172000Y-110745000D01*
G75*
G02*
X119022000Y-110895000I-150000J0D01*
G01*
G37*
%TD.AperFunction*%
%TO.P,U8,7*%
%TO.N,/sheet5F6A444D/SIGNAL_INPUT*%
%TA.AperFunction,SMDPad,CuDef*%
G36*
G01*
X117752000Y-110895000D02*
X117452000Y-110895000D01*
G75*
G02*
X117302000Y-110745000I0J150000D01*
G01*
X117302000Y-109095000D01*
G75*
G02*
X117452000Y-108945000I150000J0D01*
G01*
X117752000Y-108945000D01*
G75*
G02*
X117902000Y-109095000I0J-150000D01*
G01*
X117902000Y-110745000D01*
G75*
G02*
X117752000Y-110895000I-150000J0D01*
G01*
G37*
%TD.AperFunction*%
%TO.P,U8,6*%
%TO.N,Net-(C36-Pad2)*%
%TA.AperFunction,SMDPad,CuDef*%
G36*
G01*
X116482000Y-110895000D02*
X116182000Y-110895000D01*
G75*
G02*
X116032000Y-110745000I0J150000D01*
G01*
X116032000Y-109095000D01*
G75*
G02*
X116182000Y-108945000I150000J0D01*
G01*
X116482000Y-108945000D01*
G75*
G02*
X116632000Y-109095000I0J-150000D01*
G01*
X116632000Y-110745000D01*
G75*
G02*
X116482000Y-110895000I-150000J0D01*
G01*
G37*
%TD.AperFunction*%
%TO.P,U8,5*%
%TO.N,VCOM*%
%TA.AperFunction,SMDPad,CuDef*%
G36*
G01*
X115212000Y-110895000D02*
X114912000Y-110895000D01*
G75*
G02*
X114762000Y-110745000I0J150000D01*
G01*
X114762000Y-109095000D01*
G75*
G02*
X114912000Y-108945000I150000J0D01*
G01*
X115212000Y-108945000D01*
G75*
G02*
X115362000Y-109095000I0J-150000D01*
G01*
X115362000Y-110745000D01*
G75*
G02*
X115212000Y-110895000I-150000J0D01*
G01*
G37*
%TD.AperFunction*%
%TO.P,U8,4*%
%TO.N,-3V3*%
%TA.AperFunction,SMDPad,CuDef*%
G36*
G01*
X115212000Y-115845000D02*
X114912000Y-115845000D01*
G75*
G02*
X114762000Y-115695000I0J150000D01*
G01*
X114762000Y-114045000D01*
G75*
G02*
X114912000Y-113895000I150000J0D01*
G01*
X115212000Y-113895000D01*
G75*
G02*
X115362000Y-114045000I0J-150000D01*
G01*
X115362000Y-115695000D01*
G75*
G02*
X115212000Y-115845000I-150000J0D01*
G01*
G37*
%TD.AperFunction*%
%TO.P,U8,3*%
%TO.N,/InputBuffer1/SIGNAL_INPUT*%
%TA.AperFunction,SMDPad,CuDef*%
G36*
G01*
X116482000Y-115845000D02*
X116182000Y-115845000D01*
G75*
G02*
X116032000Y-115695000I0J150000D01*
G01*
X116032000Y-114045000D01*
G75*
G02*
X116182000Y-113895000I150000J0D01*
G01*
X116482000Y-113895000D01*
G75*
G02*
X116632000Y-114045000I0J-150000D01*
G01*
X116632000Y-115695000D01*
G75*
G02*
X116482000Y-115845000I-150000J0D01*
G01*
G37*
%TD.AperFunction*%
%TO.P,U8,2*%
%TO.N,Net-(R17-Pad2)*%
%TA.AperFunction,SMDPad,CuDef*%
G36*
G01*
X117752000Y-115845000D02*
X117452000Y-115845000D01*
G75*
G02*
X117302000Y-115695000I0J150000D01*
G01*
X117302000Y-114045000D01*
G75*
G02*
X117452000Y-113895000I150000J0D01*
G01*
X117752000Y-113895000D01*
G75*
G02*
X117902000Y-114045000I0J-150000D01*
G01*
X117902000Y-115695000D01*
G75*
G02*
X117752000Y-115845000I-150000J0D01*
G01*
G37*
%TD.AperFunction*%
%TO.P,U8,1*%
%TA.AperFunction,SMDPad,CuDef*%
G36*
G01*
X119022000Y-115845000D02*
X118722000Y-115845000D01*
G75*
G02*
X118572000Y-115695000I0J150000D01*
G01*
X118572000Y-114045000D01*
G75*
G02*
X118722000Y-113895000I150000J0D01*
G01*
X119022000Y-113895000D01*
G75*
G02*
X119172000Y-114045000I0J-150000D01*
G01*
X119172000Y-115695000D01*
G75*
G02*
X119022000Y-115845000I-150000J0D01*
G01*
G37*
%TD.AperFunction*%
%TD*%
%TO.P,U5,8*%
%TO.N,+3V3*%
%TA.AperFunction,SMDPad,CuDef*%
G36*
G01*
X139596000Y-110895000D02*
X139296000Y-110895000D01*
G75*
G02*
X139146000Y-110745000I0J150000D01*
G01*
X139146000Y-109095000D01*
G75*
G02*
X139296000Y-108945000I150000J0D01*
G01*
X139596000Y-108945000D01*
G75*
G02*
X139746000Y-109095000I0J-150000D01*
G01*
X139746000Y-110745000D01*
G75*
G02*
X139596000Y-110895000I-150000J0D01*
G01*
G37*
%TD.AperFunction*%
%TO.P,U5,7*%
%TO.N,/sheet5F6A30A3/SIGNAL_INPUT*%
%TA.AperFunction,SMDPad,CuDef*%
G36*
G01*
X138326000Y-110895000D02*
X138026000Y-110895000D01*
G75*
G02*
X137876000Y-110745000I0J150000D01*
G01*
X137876000Y-109095000D01*
G75*
G02*
X138026000Y-108945000I150000J0D01*
G01*
X138326000Y-108945000D01*
G75*
G02*
X138476000Y-109095000I0J-150000D01*
G01*
X138476000Y-110745000D01*
G75*
G02*
X138326000Y-110895000I-150000J0D01*
G01*
G37*
%TD.AperFunction*%
%TO.P,U5,6*%
%TO.N,Net-(C25-Pad2)*%
%TA.AperFunction,SMDPad,CuDef*%
G36*
G01*
X137056000Y-110895000D02*
X136756000Y-110895000D01*
G75*
G02*
X136606000Y-110745000I0J150000D01*
G01*
X136606000Y-109095000D01*
G75*
G02*
X136756000Y-108945000I150000J0D01*
G01*
X137056000Y-108945000D01*
G75*
G02*
X137206000Y-109095000I0J-150000D01*
G01*
X137206000Y-110745000D01*
G75*
G02*
X137056000Y-110895000I-150000J0D01*
G01*
G37*
%TD.AperFunction*%
%TO.P,U5,5*%
%TO.N,VCOM*%
%TA.AperFunction,SMDPad,CuDef*%
G36*
G01*
X135786000Y-110895000D02*
X135486000Y-110895000D01*
G75*
G02*
X135336000Y-110745000I0J150000D01*
G01*
X135336000Y-109095000D01*
G75*
G02*
X135486000Y-108945000I150000J0D01*
G01*
X135786000Y-108945000D01*
G75*
G02*
X135936000Y-109095000I0J-150000D01*
G01*
X135936000Y-110745000D01*
G75*
G02*
X135786000Y-110895000I-150000J0D01*
G01*
G37*
%TD.AperFunction*%
%TO.P,U5,4*%
%TO.N,-3V3*%
%TA.AperFunction,SMDPad,CuDef*%
G36*
G01*
X135786000Y-115845000D02*
X135486000Y-115845000D01*
G75*
G02*
X135336000Y-115695000I0J150000D01*
G01*
X135336000Y-114045000D01*
G75*
G02*
X135486000Y-113895000I150000J0D01*
G01*
X135786000Y-113895000D01*
G75*
G02*
X135936000Y-114045000I0J-150000D01*
G01*
X135936000Y-115695000D01*
G75*
G02*
X135786000Y-115845000I-150000J0D01*
G01*
G37*
%TD.AperFunction*%
%TO.P,U5,3*%
%TO.N,/InputBuffer1/SIGNAL_INPUT*%
%TA.AperFunction,SMDPad,CuDef*%
G36*
G01*
X137056000Y-115845000D02*
X136756000Y-115845000D01*
G75*
G02*
X136606000Y-115695000I0J150000D01*
G01*
X136606000Y-114045000D01*
G75*
G02*
X136756000Y-113895000I150000J0D01*
G01*
X137056000Y-113895000D01*
G75*
G02*
X137206000Y-114045000I0J-150000D01*
G01*
X137206000Y-115695000D01*
G75*
G02*
X137056000Y-115845000I-150000J0D01*
G01*
G37*
%TD.AperFunction*%
%TO.P,U5,2*%
%TO.N,Net-(R11-Pad2)*%
%TA.AperFunction,SMDPad,CuDef*%
G36*
G01*
X138326000Y-115845000D02*
X138026000Y-115845000D01*
G75*
G02*
X137876000Y-115695000I0J150000D01*
G01*
X137876000Y-114045000D01*
G75*
G02*
X138026000Y-113895000I150000J0D01*
G01*
X138326000Y-113895000D01*
G75*
G02*
X138476000Y-114045000I0J-150000D01*
G01*
X138476000Y-115695000D01*
G75*
G02*
X138326000Y-115845000I-150000J0D01*
G01*
G37*
%TD.AperFunction*%
%TO.P,U5,1*%
%TA.AperFunction,SMDPad,CuDef*%
G36*
G01*
X139596000Y-115845000D02*
X139296000Y-115845000D01*
G75*
G02*
X139146000Y-115695000I0J150000D01*
G01*
X139146000Y-114045000D01*
G75*
G02*
X139296000Y-113895000I150000J0D01*
G01*
X139596000Y-113895000D01*
G75*
G02*
X139746000Y-114045000I0J-150000D01*
G01*
X139746000Y-115695000D01*
G75*
G02*
X139596000Y-115845000I-150000J0D01*
G01*
G37*
%TD.AperFunction*%
%TD*%
%TO.P,U2,8*%
%TO.N,+3V3*%
%TA.AperFunction,SMDPad,CuDef*%
G36*
G01*
X160297000Y-110895000D02*
X159997000Y-110895000D01*
G75*
G02*
X159847000Y-110745000I0J150000D01*
G01*
X159847000Y-109095000D01*
G75*
G02*
X159997000Y-108945000I150000J0D01*
G01*
X160297000Y-108945000D01*
G75*
G02*
X160447000Y-109095000I0J-150000D01*
G01*
X160447000Y-110745000D01*
G75*
G02*
X160297000Y-110895000I-150000J0D01*
G01*
G37*
%TD.AperFunction*%
%TO.P,U2,7*%
%TO.N,/PeakDetector1/SIGNAL_INPUT*%
%TA.AperFunction,SMDPad,CuDef*%
G36*
G01*
X159027000Y-110895000D02*
X158727000Y-110895000D01*
G75*
G02*
X158577000Y-110745000I0J150000D01*
G01*
X158577000Y-109095000D01*
G75*
G02*
X158727000Y-108945000I150000J0D01*
G01*
X159027000Y-108945000D01*
G75*
G02*
X159177000Y-109095000I0J-150000D01*
G01*
X159177000Y-110745000D01*
G75*
G02*
X159027000Y-110895000I-150000J0D01*
G01*
G37*
%TD.AperFunction*%
%TO.P,U2,6*%
%TO.N,Net-(C14-Pad2)*%
%TA.AperFunction,SMDPad,CuDef*%
G36*
G01*
X157757000Y-110895000D02*
X157457000Y-110895000D01*
G75*
G02*
X157307000Y-110745000I0J150000D01*
G01*
X157307000Y-109095000D01*
G75*
G02*
X157457000Y-108945000I150000J0D01*
G01*
X157757000Y-108945000D01*
G75*
G02*
X157907000Y-109095000I0J-150000D01*
G01*
X157907000Y-110745000D01*
G75*
G02*
X157757000Y-110895000I-150000J0D01*
G01*
G37*
%TD.AperFunction*%
%TO.P,U2,5*%
%TO.N,VCOM*%
%TA.AperFunction,SMDPad,CuDef*%
G36*
G01*
X156487000Y-110895000D02*
X156187000Y-110895000D01*
G75*
G02*
X156037000Y-110745000I0J150000D01*
G01*
X156037000Y-109095000D01*
G75*
G02*
X156187000Y-108945000I150000J0D01*
G01*
X156487000Y-108945000D01*
G75*
G02*
X156637000Y-109095000I0J-150000D01*
G01*
X156637000Y-110745000D01*
G75*
G02*
X156487000Y-110895000I-150000J0D01*
G01*
G37*
%TD.AperFunction*%
%TO.P,U2,4*%
%TO.N,-3V3*%
%TA.AperFunction,SMDPad,CuDef*%
G36*
G01*
X156487000Y-115845000D02*
X156187000Y-115845000D01*
G75*
G02*
X156037000Y-115695000I0J150000D01*
G01*
X156037000Y-114045000D01*
G75*
G02*
X156187000Y-113895000I150000J0D01*
G01*
X156487000Y-113895000D01*
G75*
G02*
X156637000Y-114045000I0J-150000D01*
G01*
X156637000Y-115695000D01*
G75*
G02*
X156487000Y-115845000I-150000J0D01*
G01*
G37*
%TD.AperFunction*%
%TO.P,U2,3*%
%TO.N,/InputBuffer1/SIGNAL_INPUT*%
%TA.AperFunction,SMDPad,CuDef*%
G36*
G01*
X157757000Y-115845000D02*
X157457000Y-115845000D01*
G75*
G02*
X157307000Y-115695000I0J150000D01*
G01*
X157307000Y-114045000D01*
G75*
G02*
X157457000Y-113895000I150000J0D01*
G01*
X157757000Y-113895000D01*
G75*
G02*
X157907000Y-114045000I0J-150000D01*
G01*
X157907000Y-115695000D01*
G75*
G02*
X157757000Y-115845000I-150000J0D01*
G01*
G37*
%TD.AperFunction*%
%TO.P,U2,2*%
%TO.N,Net-(R5-Pad2)*%
%TA.AperFunction,SMDPad,CuDef*%
G36*
G01*
X159027000Y-115845000D02*
X158727000Y-115845000D01*
G75*
G02*
X158577000Y-115695000I0J150000D01*
G01*
X158577000Y-114045000D01*
G75*
G02*
X158727000Y-113895000I150000J0D01*
G01*
X159027000Y-113895000D01*
G75*
G02*
X159177000Y-114045000I0J-150000D01*
G01*
X159177000Y-115695000D01*
G75*
G02*
X159027000Y-115845000I-150000J0D01*
G01*
G37*
%TD.AperFunction*%
%TO.P,U2,1*%
%TA.AperFunction,SMDPad,CuDef*%
G36*
G01*
X160297000Y-115845000D02*
X159997000Y-115845000D01*
G75*
G02*
X159847000Y-115695000I0J150000D01*
G01*
X159847000Y-114045000D01*
G75*
G02*
X159997000Y-113895000I150000J0D01*
G01*
X160297000Y-113895000D01*
G75*
G02*
X160447000Y-114045000I0J-150000D01*
G01*
X160447000Y-115695000D01*
G75*
G02*
X160297000Y-115845000I-150000J0D01*
G01*
G37*
%TD.AperFunction*%
%TD*%
%TO.P,R24,2*%
%TO.N,Net-(R24-Pad2)*%
%TA.AperFunction,SMDPad,CuDef*%
G36*
G01*
X102812000Y-108908001D02*
X102812000Y-108007999D01*
G75*
G02*
X103061999Y-107758000I249999J0D01*
G01*
X103712001Y-107758000D01*
G75*
G02*
X103962000Y-108007999I0J-249999D01*
G01*
X103962000Y-108908001D01*
G75*
G02*
X103712001Y-109158000I-249999J0D01*
G01*
X103061999Y-109158000D01*
G75*
G02*
X102812000Y-108908001I0J249999D01*
G01*
G37*
%TD.AperFunction*%
%TO.P,R24,1*%
%TO.N,/sheet5F6AEF15/SIGNAL_INPUT*%
%TA.AperFunction,SMDPad,CuDef*%
G36*
G01*
X100762000Y-108908001D02*
X100762000Y-108007999D01*
G75*
G02*
X101011999Y-107758000I249999J0D01*
G01*
X101662001Y-107758000D01*
G75*
G02*
X101912000Y-108007999I0J-249999D01*
G01*
X101912000Y-108908001D01*
G75*
G02*
X101662001Y-109158000I-249999J0D01*
G01*
X101011999Y-109158000D01*
G75*
G02*
X100762000Y-108908001I0J249999D01*
G01*
G37*
%TD.AperFunction*%
%TD*%
%TO.P,R23,2*%
%TO.N,Net-(R23-Pad2)*%
%TA.AperFunction,SMDPad,CuDef*%
G36*
G01*
X101912000Y-114484999D02*
X101912000Y-115385001D01*
G75*
G02*
X101662001Y-115635000I-249999J0D01*
G01*
X101011999Y-115635000D01*
G75*
G02*
X100762000Y-115385001I0J249999D01*
G01*
X100762000Y-114484999D01*
G75*
G02*
X101011999Y-114235000I249999J0D01*
G01*
X101662001Y-114235000D01*
G75*
G02*
X101912000Y-114484999I0J-249999D01*
G01*
G37*
%TD.AperFunction*%
%TO.P,R23,1*%
%TO.N,Net-(C47-Pad2)*%
%TA.AperFunction,SMDPad,CuDef*%
G36*
G01*
X103962000Y-114484999D02*
X103962000Y-115385001D01*
G75*
G02*
X103712001Y-115635000I-249999J0D01*
G01*
X103061999Y-115635000D01*
G75*
G02*
X102812000Y-115385001I0J249999D01*
G01*
X102812000Y-114484999D01*
G75*
G02*
X103061999Y-114235000I249999J0D01*
G01*
X103712001Y-114235000D01*
G75*
G02*
X103962000Y-114484999I0J-249999D01*
G01*
G37*
%TD.AperFunction*%
%TD*%
%TO.P,R21,2*%
%TO.N,Net-(R21-Pad2)*%
%TA.AperFunction,SMDPad,CuDef*%
G36*
G01*
X105976000Y-92005999D02*
X105976000Y-92906001D01*
G75*
G02*
X105726001Y-93156000I-249999J0D01*
G01*
X105075999Y-93156000D01*
G75*
G02*
X104826000Y-92906001I0J249999D01*
G01*
X104826000Y-92005999D01*
G75*
G02*
X105075999Y-91756000I249999J0D01*
G01*
X105726001Y-91756000D01*
G75*
G02*
X105976000Y-92005999I0J-249999D01*
G01*
G37*
%TD.AperFunction*%
%TO.P,R21,1*%
%TO.N,Net-(D8-Pad2)*%
%TA.AperFunction,SMDPad,CuDef*%
G36*
G01*
X108026000Y-92005999D02*
X108026000Y-92906001D01*
G75*
G02*
X107776001Y-93156000I-249999J0D01*
G01*
X107125999Y-93156000D01*
G75*
G02*
X106876000Y-92906001I0J249999D01*
G01*
X106876000Y-92005999D01*
G75*
G02*
X107125999Y-91756000I249999J0D01*
G01*
X107776001Y-91756000D01*
G75*
G02*
X108026000Y-92005999I0J-249999D01*
G01*
G37*
%TD.AperFunction*%
%TD*%
%TO.P,R20,2*%
%TO.N,Net-(R20-Pad2)*%
%TA.AperFunction,SMDPad,CuDef*%
G36*
G01*
X94292000Y-100768999D02*
X94292000Y-101669001D01*
G75*
G02*
X94042001Y-101919000I-249999J0D01*
G01*
X93391999Y-101919000D01*
G75*
G02*
X93142000Y-101669001I0J249999D01*
G01*
X93142000Y-100768999D01*
G75*
G02*
X93391999Y-100519000I249999J0D01*
G01*
X94042001Y-100519000D01*
G75*
G02*
X94292000Y-100768999I0J-249999D01*
G01*
G37*
%TD.AperFunction*%
%TO.P,R20,1*%
%TO.N,Net-(R19-Pad2)*%
%TA.AperFunction,SMDPad,CuDef*%
G36*
G01*
X96342000Y-100768999D02*
X96342000Y-101669001D01*
G75*
G02*
X96092001Y-101919000I-249999J0D01*
G01*
X95441999Y-101919000D01*
G75*
G02*
X95192000Y-101669001I0J249999D01*
G01*
X95192000Y-100768999D01*
G75*
G02*
X95441999Y-100519000I249999J0D01*
G01*
X96092001Y-100519000D01*
G75*
G02*
X96342000Y-100768999I0J-249999D01*
G01*
G37*
%TD.AperFunction*%
%TD*%
%TO.P,R19,2*%
%TO.N,Net-(R19-Pad2)*%
%TA.AperFunction,SMDPad,CuDef*%
G36*
G01*
X95192000Y-104463001D02*
X95192000Y-103562999D01*
G75*
G02*
X95441999Y-103313000I249999J0D01*
G01*
X96092001Y-103313000D01*
G75*
G02*
X96342000Y-103562999I0J-249999D01*
G01*
X96342000Y-104463001D01*
G75*
G02*
X96092001Y-104713000I-249999J0D01*
G01*
X95441999Y-104713000D01*
G75*
G02*
X95192000Y-104463001I0J249999D01*
G01*
G37*
%TD.AperFunction*%
%TO.P,R19,1*%
%TO.N,VCOM*%
%TA.AperFunction,SMDPad,CuDef*%
G36*
G01*
X93142000Y-104463001D02*
X93142000Y-103562999D01*
G75*
G02*
X93391999Y-103313000I249999J0D01*
G01*
X94042001Y-103313000D01*
G75*
G02*
X94292000Y-103562999I0J-249999D01*
G01*
X94292000Y-104463001D01*
G75*
G02*
X94042001Y-104713000I-249999J0D01*
G01*
X93391999Y-104713000D01*
G75*
G02*
X93142000Y-104463001I0J249999D01*
G01*
G37*
%TD.AperFunction*%
%TD*%
%TO.P,R18,2*%
%TO.N,Net-(R18-Pad2)*%
%TA.AperFunction,SMDPad,CuDef*%
G36*
G01*
X123386000Y-109035001D02*
X123386000Y-108134999D01*
G75*
G02*
X123635999Y-107885000I249999J0D01*
G01*
X124286001Y-107885000D01*
G75*
G02*
X124536000Y-108134999I0J-249999D01*
G01*
X124536000Y-109035001D01*
G75*
G02*
X124286001Y-109285000I-249999J0D01*
G01*
X123635999Y-109285000D01*
G75*
G02*
X123386000Y-109035001I0J249999D01*
G01*
G37*
%TD.AperFunction*%
%TO.P,R18,1*%
%TO.N,/sheet5F6A444D/SIGNAL_INPUT*%
%TA.AperFunction,SMDPad,CuDef*%
G36*
G01*
X121336000Y-109035001D02*
X121336000Y-108134999D01*
G75*
G02*
X121585999Y-107885000I249999J0D01*
G01*
X122236001Y-107885000D01*
G75*
G02*
X122486000Y-108134999I0J-249999D01*
G01*
X122486000Y-109035001D01*
G75*
G02*
X122236001Y-109285000I-249999J0D01*
G01*
X121585999Y-109285000D01*
G75*
G02*
X121336000Y-109035001I0J249999D01*
G01*
G37*
%TD.AperFunction*%
%TD*%
%TO.P,R17,2*%
%TO.N,Net-(R17-Pad2)*%
%TA.AperFunction,SMDPad,CuDef*%
G36*
G01*
X122486000Y-114484999D02*
X122486000Y-115385001D01*
G75*
G02*
X122236001Y-115635000I-249999J0D01*
G01*
X121585999Y-115635000D01*
G75*
G02*
X121336000Y-115385001I0J249999D01*
G01*
X121336000Y-114484999D01*
G75*
G02*
X121585999Y-114235000I249999J0D01*
G01*
X122236001Y-114235000D01*
G75*
G02*
X122486000Y-114484999I0J-249999D01*
G01*
G37*
%TD.AperFunction*%
%TO.P,R17,1*%
%TO.N,Net-(C36-Pad2)*%
%TA.AperFunction,SMDPad,CuDef*%
G36*
G01*
X124536000Y-114484999D02*
X124536000Y-115385001D01*
G75*
G02*
X124286001Y-115635000I-249999J0D01*
G01*
X123635999Y-115635000D01*
G75*
G02*
X123386000Y-115385001I0J249999D01*
G01*
X123386000Y-114484999D01*
G75*
G02*
X123635999Y-114235000I249999J0D01*
G01*
X124286001Y-114235000D01*
G75*
G02*
X124536000Y-114484999I0J-249999D01*
G01*
G37*
%TD.AperFunction*%
%TD*%
%TO.P,R15,2*%
%TO.N,Net-(R15-Pad2)*%
%TA.AperFunction,SMDPad,CuDef*%
G36*
G01*
X126550000Y-91878999D02*
X126550000Y-92779001D01*
G75*
G02*
X126300001Y-93029000I-249999J0D01*
G01*
X125649999Y-93029000D01*
G75*
G02*
X125400000Y-92779001I0J249999D01*
G01*
X125400000Y-91878999D01*
G75*
G02*
X125649999Y-91629000I249999J0D01*
G01*
X126300001Y-91629000D01*
G75*
G02*
X126550000Y-91878999I0J-249999D01*
G01*
G37*
%TD.AperFunction*%
%TO.P,R15,1*%
%TO.N,Net-(D6-Pad2)*%
%TA.AperFunction,SMDPad,CuDef*%
G36*
G01*
X128600000Y-91878999D02*
X128600000Y-92779001D01*
G75*
G02*
X128350001Y-93029000I-249999J0D01*
G01*
X127699999Y-93029000D01*
G75*
G02*
X127450000Y-92779001I0J249999D01*
G01*
X127450000Y-91878999D01*
G75*
G02*
X127699999Y-91629000I249999J0D01*
G01*
X128350001Y-91629000D01*
G75*
G02*
X128600000Y-91878999I0J-249999D01*
G01*
G37*
%TD.AperFunction*%
%TD*%
%TO.P,R14,2*%
%TO.N,Net-(R14-Pad2)*%
%TA.AperFunction,SMDPad,CuDef*%
G36*
G01*
X114866000Y-100006999D02*
X114866000Y-100907001D01*
G75*
G02*
X114616001Y-101157000I-249999J0D01*
G01*
X113965999Y-101157000D01*
G75*
G02*
X113716000Y-100907001I0J249999D01*
G01*
X113716000Y-100006999D01*
G75*
G02*
X113965999Y-99757000I249999J0D01*
G01*
X114616001Y-99757000D01*
G75*
G02*
X114866000Y-100006999I0J-249999D01*
G01*
G37*
%TD.AperFunction*%
%TO.P,R14,1*%
%TO.N,Net-(R13-Pad2)*%
%TA.AperFunction,SMDPad,CuDef*%
G36*
G01*
X116916000Y-100006999D02*
X116916000Y-100907001D01*
G75*
G02*
X116666001Y-101157000I-249999J0D01*
G01*
X116015999Y-101157000D01*
G75*
G02*
X115766000Y-100907001I0J249999D01*
G01*
X115766000Y-100006999D01*
G75*
G02*
X116015999Y-99757000I249999J0D01*
G01*
X116666001Y-99757000D01*
G75*
G02*
X116916000Y-100006999I0J-249999D01*
G01*
G37*
%TD.AperFunction*%
%TD*%
%TO.P,R13,2*%
%TO.N,Net-(R13-Pad2)*%
%TA.AperFunction,SMDPad,CuDef*%
G36*
G01*
X115766000Y-103701001D02*
X115766000Y-102800999D01*
G75*
G02*
X116015999Y-102551000I249999J0D01*
G01*
X116666001Y-102551000D01*
G75*
G02*
X116916000Y-102800999I0J-249999D01*
G01*
X116916000Y-103701001D01*
G75*
G02*
X116666001Y-103951000I-249999J0D01*
G01*
X116015999Y-103951000D01*
G75*
G02*
X115766000Y-103701001I0J249999D01*
G01*
G37*
%TD.AperFunction*%
%TO.P,R13,1*%
%TO.N,VCOM*%
%TA.AperFunction,SMDPad,CuDef*%
G36*
G01*
X113716000Y-103701001D02*
X113716000Y-102800999D01*
G75*
G02*
X113965999Y-102551000I249999J0D01*
G01*
X114616001Y-102551000D01*
G75*
G02*
X114866000Y-102800999I0J-249999D01*
G01*
X114866000Y-103701001D01*
G75*
G02*
X114616001Y-103951000I-249999J0D01*
G01*
X113965999Y-103951000D01*
G75*
G02*
X113716000Y-103701001I0J249999D01*
G01*
G37*
%TD.AperFunction*%
%TD*%
%TO.P,R12,2*%
%TO.N,Net-(R12-Pad2)*%
%TA.AperFunction,SMDPad,CuDef*%
G36*
G01*
X143960000Y-109035001D02*
X143960000Y-108134999D01*
G75*
G02*
X144209999Y-107885000I249999J0D01*
G01*
X144860001Y-107885000D01*
G75*
G02*
X145110000Y-108134999I0J-249999D01*
G01*
X145110000Y-109035001D01*
G75*
G02*
X144860001Y-109285000I-249999J0D01*
G01*
X144209999Y-109285000D01*
G75*
G02*
X143960000Y-109035001I0J249999D01*
G01*
G37*
%TD.AperFunction*%
%TO.P,R12,1*%
%TO.N,/sheet5F6A30A3/SIGNAL_INPUT*%
%TA.AperFunction,SMDPad,CuDef*%
G36*
G01*
X141910000Y-109035001D02*
X141910000Y-108134999D01*
G75*
G02*
X142159999Y-107885000I249999J0D01*
G01*
X142810001Y-107885000D01*
G75*
G02*
X143060000Y-108134999I0J-249999D01*
G01*
X143060000Y-109035001D01*
G75*
G02*
X142810001Y-109285000I-249999J0D01*
G01*
X142159999Y-109285000D01*
G75*
G02*
X141910000Y-109035001I0J249999D01*
G01*
G37*
%TD.AperFunction*%
%TD*%
%TO.P,R11,2*%
%TO.N,Net-(R11-Pad2)*%
%TA.AperFunction,SMDPad,CuDef*%
G36*
G01*
X143060000Y-114484999D02*
X143060000Y-115385001D01*
G75*
G02*
X142810001Y-115635000I-249999J0D01*
G01*
X142159999Y-115635000D01*
G75*
G02*
X141910000Y-115385001I0J249999D01*
G01*
X141910000Y-114484999D01*
G75*
G02*
X142159999Y-114235000I249999J0D01*
G01*
X142810001Y-114235000D01*
G75*
G02*
X143060000Y-114484999I0J-249999D01*
G01*
G37*
%TD.AperFunction*%
%TO.P,R11,1*%
%TO.N,Net-(C25-Pad2)*%
%TA.AperFunction,SMDPad,CuDef*%
G36*
G01*
X145110000Y-114484999D02*
X145110000Y-115385001D01*
G75*
G02*
X144860001Y-115635000I-249999J0D01*
G01*
X144209999Y-115635000D01*
G75*
G02*
X143960000Y-115385001I0J249999D01*
G01*
X143960000Y-114484999D01*
G75*
G02*
X144209999Y-114235000I249999J0D01*
G01*
X144860001Y-114235000D01*
G75*
G02*
X145110000Y-114484999I0J-249999D01*
G01*
G37*
%TD.AperFunction*%
%TD*%
%TO.P,R9,2*%
%TO.N,Net-(R9-Pad2)*%
%TA.AperFunction,SMDPad,CuDef*%
G36*
G01*
X146362000Y-92005999D02*
X146362000Y-92906001D01*
G75*
G02*
X146112001Y-93156000I-249999J0D01*
G01*
X145461999Y-93156000D01*
G75*
G02*
X145212000Y-92906001I0J249999D01*
G01*
X145212000Y-92005999D01*
G75*
G02*
X145461999Y-91756000I249999J0D01*
G01*
X146112001Y-91756000D01*
G75*
G02*
X146362000Y-92005999I0J-249999D01*
G01*
G37*
%TD.AperFunction*%
%TO.P,R9,1*%
%TO.N,Net-(D4-Pad2)*%
%TA.AperFunction,SMDPad,CuDef*%
G36*
G01*
X148412000Y-92005999D02*
X148412000Y-92906001D01*
G75*
G02*
X148162001Y-93156000I-249999J0D01*
G01*
X147511999Y-93156000D01*
G75*
G02*
X147262000Y-92906001I0J249999D01*
G01*
X147262000Y-92005999D01*
G75*
G02*
X147511999Y-91756000I249999J0D01*
G01*
X148162001Y-91756000D01*
G75*
G02*
X148412000Y-92005999I0J-249999D01*
G01*
G37*
%TD.AperFunction*%
%TD*%
%TO.P,R8,2*%
%TO.N,Net-(R8-Pad2)*%
%TA.AperFunction,SMDPad,CuDef*%
G36*
G01*
X135440000Y-100133999D02*
X135440000Y-101034001D01*
G75*
G02*
X135190001Y-101284000I-249999J0D01*
G01*
X134539999Y-101284000D01*
G75*
G02*
X134290000Y-101034001I0J249999D01*
G01*
X134290000Y-100133999D01*
G75*
G02*
X134539999Y-99884000I249999J0D01*
G01*
X135190001Y-99884000D01*
G75*
G02*
X135440000Y-100133999I0J-249999D01*
G01*
G37*
%TD.AperFunction*%
%TO.P,R8,1*%
%TO.N,Net-(R7-Pad2)*%
%TA.AperFunction,SMDPad,CuDef*%
G36*
G01*
X137490000Y-100133999D02*
X137490000Y-101034001D01*
G75*
G02*
X137240001Y-101284000I-249999J0D01*
G01*
X136589999Y-101284000D01*
G75*
G02*
X136340000Y-101034001I0J249999D01*
G01*
X136340000Y-100133999D01*
G75*
G02*
X136589999Y-99884000I249999J0D01*
G01*
X137240001Y-99884000D01*
G75*
G02*
X137490000Y-100133999I0J-249999D01*
G01*
G37*
%TD.AperFunction*%
%TD*%
%TO.P,R7,2*%
%TO.N,Net-(R7-Pad2)*%
%TA.AperFunction,SMDPad,CuDef*%
G36*
G01*
X136340000Y-103828001D02*
X136340000Y-102927999D01*
G75*
G02*
X136589999Y-102678000I249999J0D01*
G01*
X137240001Y-102678000D01*
G75*
G02*
X137490000Y-102927999I0J-249999D01*
G01*
X137490000Y-103828001D01*
G75*
G02*
X137240001Y-104078000I-249999J0D01*
G01*
X136589999Y-104078000D01*
G75*
G02*
X136340000Y-103828001I0J249999D01*
G01*
G37*
%TD.AperFunction*%
%TO.P,R7,1*%
%TO.N,VCOM*%
%TA.AperFunction,SMDPad,CuDef*%
G36*
G01*
X134290000Y-103828001D02*
X134290000Y-102927999D01*
G75*
G02*
X134539999Y-102678000I249999J0D01*
G01*
X135190001Y-102678000D01*
G75*
G02*
X135440000Y-102927999I0J-249999D01*
G01*
X135440000Y-103828001D01*
G75*
G02*
X135190001Y-104078000I-249999J0D01*
G01*
X134539999Y-104078000D01*
G75*
G02*
X134290000Y-103828001I0J249999D01*
G01*
G37*
%TD.AperFunction*%
%TD*%
%TO.P,R6,2*%
%TO.N,Net-(R6-Pad2)*%
%TA.AperFunction,SMDPad,CuDef*%
G36*
G01*
X164534000Y-109162001D02*
X164534000Y-108261999D01*
G75*
G02*
X164783999Y-108012000I249999J0D01*
G01*
X165434001Y-108012000D01*
G75*
G02*
X165684000Y-108261999I0J-249999D01*
G01*
X165684000Y-109162001D01*
G75*
G02*
X165434001Y-109412000I-249999J0D01*
G01*
X164783999Y-109412000D01*
G75*
G02*
X164534000Y-109162001I0J249999D01*
G01*
G37*
%TD.AperFunction*%
%TO.P,R6,1*%
%TO.N,/PeakDetector1/SIGNAL_INPUT*%
%TA.AperFunction,SMDPad,CuDef*%
G36*
G01*
X162484000Y-109162001D02*
X162484000Y-108261999D01*
G75*
G02*
X162733999Y-108012000I249999J0D01*
G01*
X163384001Y-108012000D01*
G75*
G02*
X163634000Y-108261999I0J-249999D01*
G01*
X163634000Y-109162001D01*
G75*
G02*
X163384001Y-109412000I-249999J0D01*
G01*
X162733999Y-109412000D01*
G75*
G02*
X162484000Y-109162001I0J249999D01*
G01*
G37*
%TD.AperFunction*%
%TD*%
%TO.P,R5,2*%
%TO.N,Net-(R5-Pad2)*%
%TA.AperFunction,SMDPad,CuDef*%
G36*
G01*
X163634000Y-114484999D02*
X163634000Y-115385001D01*
G75*
G02*
X163384001Y-115635000I-249999J0D01*
G01*
X162733999Y-115635000D01*
G75*
G02*
X162484000Y-115385001I0J249999D01*
G01*
X162484000Y-114484999D01*
G75*
G02*
X162733999Y-114235000I249999J0D01*
G01*
X163384001Y-114235000D01*
G75*
G02*
X163634000Y-114484999I0J-249999D01*
G01*
G37*
%TD.AperFunction*%
%TO.P,R5,1*%
%TO.N,Net-(C14-Pad2)*%
%TA.AperFunction,SMDPad,CuDef*%
G36*
G01*
X165684000Y-114484999D02*
X165684000Y-115385001D01*
G75*
G02*
X165434001Y-115635000I-249999J0D01*
G01*
X164783999Y-115635000D01*
G75*
G02*
X164534000Y-115385001I0J249999D01*
G01*
X164534000Y-114484999D01*
G75*
G02*
X164783999Y-114235000I249999J0D01*
G01*
X165434001Y-114235000D01*
G75*
G02*
X165684000Y-114484999I0J-249999D01*
G01*
G37*
%TD.AperFunction*%
%TD*%
%TO.P,R3,2*%
%TO.N,Net-(R3-Pad2)*%
%TA.AperFunction,SMDPad,CuDef*%
G36*
G01*
X168206000Y-91751999D02*
X168206000Y-92652001D01*
G75*
G02*
X167956001Y-92902000I-249999J0D01*
G01*
X167305999Y-92902000D01*
G75*
G02*
X167056000Y-92652001I0J249999D01*
G01*
X167056000Y-91751999D01*
G75*
G02*
X167305999Y-91502000I249999J0D01*
G01*
X167956001Y-91502000D01*
G75*
G02*
X168206000Y-91751999I0J-249999D01*
G01*
G37*
%TD.AperFunction*%
%TO.P,R3,1*%
%TO.N,Net-(D2-Pad2)*%
%TA.AperFunction,SMDPad,CuDef*%
G36*
G01*
X170256000Y-91751999D02*
X170256000Y-92652001D01*
G75*
G02*
X170006001Y-92902000I-249999J0D01*
G01*
X169355999Y-92902000D01*
G75*
G02*
X169106000Y-92652001I0J249999D01*
G01*
X169106000Y-91751999D01*
G75*
G02*
X169355999Y-91502000I249999J0D01*
G01*
X170006001Y-91502000D01*
G75*
G02*
X170256000Y-91751999I0J-249999D01*
G01*
G37*
%TD.AperFunction*%
%TD*%
%TO.P,R2,2*%
%TO.N,Net-(R2-Pad2)*%
%TA.AperFunction,SMDPad,CuDef*%
G36*
G01*
X156014000Y-100514999D02*
X156014000Y-101415001D01*
G75*
G02*
X155764001Y-101665000I-249999J0D01*
G01*
X155113999Y-101665000D01*
G75*
G02*
X154864000Y-101415001I0J249999D01*
G01*
X154864000Y-100514999D01*
G75*
G02*
X155113999Y-100265000I249999J0D01*
G01*
X155764001Y-100265000D01*
G75*
G02*
X156014000Y-100514999I0J-249999D01*
G01*
G37*
%TD.AperFunction*%
%TO.P,R2,1*%
%TO.N,Net-(R1-Pad2)*%
%TA.AperFunction,SMDPad,CuDef*%
G36*
G01*
X158064000Y-100514999D02*
X158064000Y-101415001D01*
G75*
G02*
X157814001Y-101665000I-249999J0D01*
G01*
X157163999Y-101665000D01*
G75*
G02*
X156914000Y-101415001I0J249999D01*
G01*
X156914000Y-100514999D01*
G75*
G02*
X157163999Y-100265000I249999J0D01*
G01*
X157814001Y-100265000D01*
G75*
G02*
X158064000Y-100514999I0J-249999D01*
G01*
G37*
%TD.AperFunction*%
%TD*%
%TO.P,R1,2*%
%TO.N,Net-(R1-Pad2)*%
%TA.AperFunction,SMDPad,CuDef*%
G36*
G01*
X156914000Y-103955001D02*
X156914000Y-103054999D01*
G75*
G02*
X157163999Y-102805000I249999J0D01*
G01*
X157814001Y-102805000D01*
G75*
G02*
X158064000Y-103054999I0J-249999D01*
G01*
X158064000Y-103955001D01*
G75*
G02*
X157814001Y-104205000I-249999J0D01*
G01*
X157163999Y-104205000D01*
G75*
G02*
X156914000Y-103955001I0J249999D01*
G01*
G37*
%TD.AperFunction*%
%TO.P,R1,1*%
%TO.N,VCOM*%
%TA.AperFunction,SMDPad,CuDef*%
G36*
G01*
X154864000Y-103955001D02*
X154864000Y-103054999D01*
G75*
G02*
X155113999Y-102805000I249999J0D01*
G01*
X155764001Y-102805000D01*
G75*
G02*
X156014000Y-103054999I0J-249999D01*
G01*
X156014000Y-103955001D01*
G75*
G02*
X155764001Y-104205000I-249999J0D01*
G01*
X155113999Y-104205000D01*
G75*
G02*
X154864000Y-103955001I0J249999D01*
G01*
G37*
%TD.AperFunction*%
%TD*%
D17*
%TO.P,D8,2*%
%TO.N,Net-(D8-Pad2)*%
X105283000Y-52705000D03*
D18*
%TO.P,D8,1*%
%TO.N,VCOM*%
X105283000Y-55245000D03*
%TD*%
D17*
%TO.P,D6,2*%
%TO.N,Net-(D6-Pad2)*%
X125857000Y-52832000D03*
D18*
%TO.P,D6,1*%
%TO.N,VCOM*%
X125857000Y-55372000D03*
%TD*%
D17*
%TO.P,D4,2*%
%TO.N,Net-(D4-Pad2)*%
X146431000Y-52832000D03*
D18*
%TO.P,D4,1*%
%TO.N,VCOM*%
X146431000Y-55372000D03*
%TD*%
D12*
%TO.P,D9,2*%
%TO.N,/PowerSupply/+9V_IN*%
X181988000Y-74168000D03*
%TO.P,D9,1*%
%TO.N,/PowerSupply/+9V_POL*%
X184788000Y-74168000D03*
%TD*%
%TO.P,C47,2*%
%TO.N,Net-(C47-Pad2)*%
%TA.AperFunction,SMDPad,CuDef*%
G36*
G01*
X102812000Y-111575001D02*
X102812000Y-110674999D01*
G75*
G02*
X103061999Y-110425000I249999J0D01*
G01*
X103712001Y-110425000D01*
G75*
G02*
X103962000Y-110674999I0J-249999D01*
G01*
X103962000Y-111575001D01*
G75*
G02*
X103712001Y-111825000I-249999J0D01*
G01*
X103061999Y-111825000D01*
G75*
G02*
X102812000Y-111575001I0J249999D01*
G01*
G37*
%TD.AperFunction*%
%TO.P,C47,1*%
%TO.N,/sheet5F6AEF15/SIGNAL_INPUT*%
%TA.AperFunction,SMDPad,CuDef*%
G36*
G01*
X100762000Y-111575001D02*
X100762000Y-110674999D01*
G75*
G02*
X101011999Y-110425000I249999J0D01*
G01*
X101662001Y-110425000D01*
G75*
G02*
X101912000Y-110674999I0J-249999D01*
G01*
X101912000Y-111575001D01*
G75*
G02*
X101662001Y-111825000I-249999J0D01*
G01*
X101011999Y-111825000D01*
G75*
G02*
X100762000Y-111575001I0J249999D01*
G01*
G37*
%TD.AperFunction*%
%TD*%
%TO.P,C46,2*%
%TO.N,VCOM*%
%TA.AperFunction,SMDPad,CuDef*%
G36*
G01*
X102812000Y-106622001D02*
X102812000Y-105721999D01*
G75*
G02*
X103061999Y-105472000I249999J0D01*
G01*
X103712001Y-105472000D01*
G75*
G02*
X103962000Y-105721999I0J-249999D01*
G01*
X103962000Y-106622001D01*
G75*
G02*
X103712001Y-106872000I-249999J0D01*
G01*
X103061999Y-106872000D01*
G75*
G02*
X102812000Y-106622001I0J249999D01*
G01*
G37*
%TD.AperFunction*%
%TO.P,C46,1*%
%TO.N,+3V3*%
%TA.AperFunction,SMDPad,CuDef*%
G36*
G01*
X100762000Y-106622001D02*
X100762000Y-105721999D01*
G75*
G02*
X101011999Y-105472000I249999J0D01*
G01*
X101662001Y-105472000D01*
G75*
G02*
X101912000Y-105721999I0J-249999D01*
G01*
X101912000Y-106622001D01*
G75*
G02*
X101662001Y-106872000I-249999J0D01*
G01*
X101011999Y-106872000D01*
G75*
G02*
X100762000Y-106622001I0J249999D01*
G01*
G37*
%TD.AperFunction*%
%TD*%
%TO.P,C45,2*%
%TO.N,VCOM*%
%TA.AperFunction,SMDPad,CuDef*%
G36*
G01*
X92779001Y-113469000D02*
X91878999Y-113469000D01*
G75*
G02*
X91629000Y-113219001I0J249999D01*
G01*
X91629000Y-112568999D01*
G75*
G02*
X91878999Y-112319000I249999J0D01*
G01*
X92779001Y-112319000D01*
G75*
G02*
X93029000Y-112568999I0J-249999D01*
G01*
X93029000Y-113219001D01*
G75*
G02*
X92779001Y-113469000I-249999J0D01*
G01*
G37*
%TD.AperFunction*%
%TO.P,C45,1*%
%TO.N,-3V3*%
%TA.AperFunction,SMDPad,CuDef*%
G36*
G01*
X92779001Y-115519000D02*
X91878999Y-115519000D01*
G75*
G02*
X91629000Y-115269001I0J249999D01*
G01*
X91629000Y-114618999D01*
G75*
G02*
X91878999Y-114369000I249999J0D01*
G01*
X92779001Y-114369000D01*
G75*
G02*
X93029000Y-114618999I0J-249999D01*
G01*
X93029000Y-115269001D01*
G75*
G02*
X92779001Y-115519000I-249999J0D01*
G01*
G37*
%TD.AperFunction*%
%TD*%
%TO.P,C38,2*%
%TO.N,VCOM*%
%TA.AperFunction,SMDPad,CuDef*%
G36*
G01*
X98875001Y-84640000D02*
X97974999Y-84640000D01*
G75*
G02*
X97725000Y-84390001I0J249999D01*
G01*
X97725000Y-83739999D01*
G75*
G02*
X97974999Y-83490000I249999J0D01*
G01*
X98875001Y-83490000D01*
G75*
G02*
X99125000Y-83739999I0J-249999D01*
G01*
X99125000Y-84390001D01*
G75*
G02*
X98875001Y-84640000I-249999J0D01*
G01*
G37*
%TD.AperFunction*%
%TO.P,C38,1*%
%TO.N,-3V3*%
%TA.AperFunction,SMDPad,CuDef*%
G36*
G01*
X98875001Y-86690000D02*
X97974999Y-86690000D01*
G75*
G02*
X97725000Y-86440001I0J249999D01*
G01*
X97725000Y-85789999D01*
G75*
G02*
X97974999Y-85540000I249999J0D01*
G01*
X98875001Y-85540000D01*
G75*
G02*
X99125000Y-85789999I0J-249999D01*
G01*
X99125000Y-86440001D01*
G75*
G02*
X98875001Y-86690000I-249999J0D01*
G01*
G37*
%TD.AperFunction*%
%TD*%
%TO.P,C37,2*%
%TO.N,VCOM*%
%TA.AperFunction,SMDPad,CuDef*%
G36*
G01*
X102812000Y-103574001D02*
X102812000Y-102673999D01*
G75*
G02*
X103061999Y-102424000I249999J0D01*
G01*
X103712001Y-102424000D01*
G75*
G02*
X103962000Y-102673999I0J-249999D01*
G01*
X103962000Y-103574001D01*
G75*
G02*
X103712001Y-103824000I-249999J0D01*
G01*
X103061999Y-103824000D01*
G75*
G02*
X102812000Y-103574001I0J249999D01*
G01*
G37*
%TD.AperFunction*%
%TO.P,C37,1*%
%TO.N,+3V3*%
%TA.AperFunction,SMDPad,CuDef*%
G36*
G01*
X100762000Y-103574001D02*
X100762000Y-102673999D01*
G75*
G02*
X101011999Y-102424000I249999J0D01*
G01*
X101662001Y-102424000D01*
G75*
G02*
X101912000Y-102673999I0J-249999D01*
G01*
X101912000Y-103574001D01*
G75*
G02*
X101662001Y-103824000I-249999J0D01*
G01*
X101011999Y-103824000D01*
G75*
G02*
X100762000Y-103574001I0J249999D01*
G01*
G37*
%TD.AperFunction*%
%TD*%
%TO.P,C36,2*%
%TO.N,Net-(C36-Pad2)*%
%TA.AperFunction,SMDPad,CuDef*%
G36*
G01*
X123386000Y-111575001D02*
X123386000Y-110674999D01*
G75*
G02*
X123635999Y-110425000I249999J0D01*
G01*
X124286001Y-110425000D01*
G75*
G02*
X124536000Y-110674999I0J-249999D01*
G01*
X124536000Y-111575001D01*
G75*
G02*
X124286001Y-111825000I-249999J0D01*
G01*
X123635999Y-111825000D01*
G75*
G02*
X123386000Y-111575001I0J249999D01*
G01*
G37*
%TD.AperFunction*%
%TO.P,C36,1*%
%TO.N,/sheet5F6A444D/SIGNAL_INPUT*%
%TA.AperFunction,SMDPad,CuDef*%
G36*
G01*
X121336000Y-111575001D02*
X121336000Y-110674999D01*
G75*
G02*
X121585999Y-110425000I249999J0D01*
G01*
X122236001Y-110425000D01*
G75*
G02*
X122486000Y-110674999I0J-249999D01*
G01*
X122486000Y-111575001D01*
G75*
G02*
X122236001Y-111825000I-249999J0D01*
G01*
X121585999Y-111825000D01*
G75*
G02*
X121336000Y-111575001I0J249999D01*
G01*
G37*
%TD.AperFunction*%
%TD*%
%TO.P,C35,2*%
%TO.N,VCOM*%
%TA.AperFunction,SMDPad,CuDef*%
G36*
G01*
X123386000Y-106495001D02*
X123386000Y-105594999D01*
G75*
G02*
X123635999Y-105345000I249999J0D01*
G01*
X124286001Y-105345000D01*
G75*
G02*
X124536000Y-105594999I0J-249999D01*
G01*
X124536000Y-106495001D01*
G75*
G02*
X124286001Y-106745000I-249999J0D01*
G01*
X123635999Y-106745000D01*
G75*
G02*
X123386000Y-106495001I0J249999D01*
G01*
G37*
%TD.AperFunction*%
%TO.P,C35,1*%
%TO.N,+3V3*%
%TA.AperFunction,SMDPad,CuDef*%
G36*
G01*
X121336000Y-106495001D02*
X121336000Y-105594999D01*
G75*
G02*
X121585999Y-105345000I249999J0D01*
G01*
X122236001Y-105345000D01*
G75*
G02*
X122486000Y-105594999I0J-249999D01*
G01*
X122486000Y-106495001D01*
G75*
G02*
X122236001Y-106745000I-249999J0D01*
G01*
X121585999Y-106745000D01*
G75*
G02*
X121336000Y-106495001I0J249999D01*
G01*
G37*
%TD.AperFunction*%
%TD*%
%TO.P,C34,2*%
%TO.N,VCOM*%
%TA.AperFunction,SMDPad,CuDef*%
G36*
G01*
X113353001Y-113469000D02*
X112452999Y-113469000D01*
G75*
G02*
X112203000Y-113219001I0J249999D01*
G01*
X112203000Y-112568999D01*
G75*
G02*
X112452999Y-112319000I249999J0D01*
G01*
X113353001Y-112319000D01*
G75*
G02*
X113603000Y-112568999I0J-249999D01*
G01*
X113603000Y-113219001D01*
G75*
G02*
X113353001Y-113469000I-249999J0D01*
G01*
G37*
%TD.AperFunction*%
%TO.P,C34,1*%
%TO.N,-3V3*%
%TA.AperFunction,SMDPad,CuDef*%
G36*
G01*
X113353001Y-115519000D02*
X112452999Y-115519000D01*
G75*
G02*
X112203000Y-115269001I0J249999D01*
G01*
X112203000Y-114618999D01*
G75*
G02*
X112452999Y-114369000I249999J0D01*
G01*
X113353001Y-114369000D01*
G75*
G02*
X113603000Y-114618999I0J-249999D01*
G01*
X113603000Y-115269001D01*
G75*
G02*
X113353001Y-115519000I-249999J0D01*
G01*
G37*
%TD.AperFunction*%
%TD*%
%TO.P,C27,2*%
%TO.N,VCOM*%
%TA.AperFunction,SMDPad,CuDef*%
G36*
G01*
X119195001Y-84640000D02*
X118294999Y-84640000D01*
G75*
G02*
X118045000Y-84390001I0J249999D01*
G01*
X118045000Y-83739999D01*
G75*
G02*
X118294999Y-83490000I249999J0D01*
G01*
X119195001Y-83490000D01*
G75*
G02*
X119445000Y-83739999I0J-249999D01*
G01*
X119445000Y-84390001D01*
G75*
G02*
X119195001Y-84640000I-249999J0D01*
G01*
G37*
%TD.AperFunction*%
%TO.P,C27,1*%
%TO.N,-3V3*%
%TA.AperFunction,SMDPad,CuDef*%
G36*
G01*
X119195001Y-86690000D02*
X118294999Y-86690000D01*
G75*
G02*
X118045000Y-86440001I0J249999D01*
G01*
X118045000Y-85789999D01*
G75*
G02*
X118294999Y-85540000I249999J0D01*
G01*
X119195001Y-85540000D01*
G75*
G02*
X119445000Y-85789999I0J-249999D01*
G01*
X119445000Y-86440001D01*
G75*
G02*
X119195001Y-86690000I-249999J0D01*
G01*
G37*
%TD.AperFunction*%
%TD*%
%TO.P,C26,2*%
%TO.N,VCOM*%
%TA.AperFunction,SMDPad,CuDef*%
G36*
G01*
X123386000Y-103701001D02*
X123386000Y-102800999D01*
G75*
G02*
X123635999Y-102551000I249999J0D01*
G01*
X124286001Y-102551000D01*
G75*
G02*
X124536000Y-102800999I0J-249999D01*
G01*
X124536000Y-103701001D01*
G75*
G02*
X124286001Y-103951000I-249999J0D01*
G01*
X123635999Y-103951000D01*
G75*
G02*
X123386000Y-103701001I0J249999D01*
G01*
G37*
%TD.AperFunction*%
%TO.P,C26,1*%
%TO.N,+3V3*%
%TA.AperFunction,SMDPad,CuDef*%
G36*
G01*
X121336000Y-103701001D02*
X121336000Y-102800999D01*
G75*
G02*
X121585999Y-102551000I249999J0D01*
G01*
X122236001Y-102551000D01*
G75*
G02*
X122486000Y-102800999I0J-249999D01*
G01*
X122486000Y-103701001D01*
G75*
G02*
X122236001Y-103951000I-249999J0D01*
G01*
X121585999Y-103951000D01*
G75*
G02*
X121336000Y-103701001I0J249999D01*
G01*
G37*
%TD.AperFunction*%
%TD*%
%TO.P,C25,2*%
%TO.N,Net-(C25-Pad2)*%
%TA.AperFunction,SMDPad,CuDef*%
G36*
G01*
X143960000Y-111575001D02*
X143960000Y-110674999D01*
G75*
G02*
X144209999Y-110425000I249999J0D01*
G01*
X144860001Y-110425000D01*
G75*
G02*
X145110000Y-110674999I0J-249999D01*
G01*
X145110000Y-111575001D01*
G75*
G02*
X144860001Y-111825000I-249999J0D01*
G01*
X144209999Y-111825000D01*
G75*
G02*
X143960000Y-111575001I0J249999D01*
G01*
G37*
%TD.AperFunction*%
%TO.P,C25,1*%
%TO.N,/sheet5F6A30A3/SIGNAL_INPUT*%
%TA.AperFunction,SMDPad,CuDef*%
G36*
G01*
X141910000Y-111575001D02*
X141910000Y-110674999D01*
G75*
G02*
X142159999Y-110425000I249999J0D01*
G01*
X142810001Y-110425000D01*
G75*
G02*
X143060000Y-110674999I0J-249999D01*
G01*
X143060000Y-111575001D01*
G75*
G02*
X142810001Y-111825000I-249999J0D01*
G01*
X142159999Y-111825000D01*
G75*
G02*
X141910000Y-111575001I0J249999D01*
G01*
G37*
%TD.AperFunction*%
%TD*%
%TO.P,C24,2*%
%TO.N,VCOM*%
%TA.AperFunction,SMDPad,CuDef*%
G36*
G01*
X143960000Y-106495001D02*
X143960000Y-105594999D01*
G75*
G02*
X144209999Y-105345000I249999J0D01*
G01*
X144860001Y-105345000D01*
G75*
G02*
X145110000Y-105594999I0J-249999D01*
G01*
X145110000Y-106495001D01*
G75*
G02*
X144860001Y-106745000I-249999J0D01*
G01*
X144209999Y-106745000D01*
G75*
G02*
X143960000Y-106495001I0J249999D01*
G01*
G37*
%TD.AperFunction*%
%TO.P,C24,1*%
%TO.N,+3V3*%
%TA.AperFunction,SMDPad,CuDef*%
G36*
G01*
X141910000Y-106495001D02*
X141910000Y-105594999D01*
G75*
G02*
X142159999Y-105345000I249999J0D01*
G01*
X142810001Y-105345000D01*
G75*
G02*
X143060000Y-105594999I0J-249999D01*
G01*
X143060000Y-106495001D01*
G75*
G02*
X142810001Y-106745000I-249999J0D01*
G01*
X142159999Y-106745000D01*
G75*
G02*
X141910000Y-106495001I0J249999D01*
G01*
G37*
%TD.AperFunction*%
%TD*%
%TO.P,C23,2*%
%TO.N,VCOM*%
%TA.AperFunction,SMDPad,CuDef*%
G36*
G01*
X133927001Y-113469000D02*
X133026999Y-113469000D01*
G75*
G02*
X132777000Y-113219001I0J249999D01*
G01*
X132777000Y-112568999D01*
G75*
G02*
X133026999Y-112319000I249999J0D01*
G01*
X133927001Y-112319000D01*
G75*
G02*
X134177000Y-112568999I0J-249999D01*
G01*
X134177000Y-113219001D01*
G75*
G02*
X133927001Y-113469000I-249999J0D01*
G01*
G37*
%TD.AperFunction*%
%TO.P,C23,1*%
%TO.N,-3V3*%
%TA.AperFunction,SMDPad,CuDef*%
G36*
G01*
X133927001Y-115519000D02*
X133026999Y-115519000D01*
G75*
G02*
X132777000Y-115269001I0J249999D01*
G01*
X132777000Y-114618999D01*
G75*
G02*
X133026999Y-114369000I249999J0D01*
G01*
X133927001Y-114369000D01*
G75*
G02*
X134177000Y-114618999I0J-249999D01*
G01*
X134177000Y-115269001D01*
G75*
G02*
X133927001Y-115519000I-249999J0D01*
G01*
G37*
%TD.AperFunction*%
%TD*%
%TO.P,C16,2*%
%TO.N,VCOM*%
%TA.AperFunction,SMDPad,CuDef*%
G36*
G01*
X139896001Y-84640000D02*
X138995999Y-84640000D01*
G75*
G02*
X138746000Y-84390001I0J249999D01*
G01*
X138746000Y-83739999D01*
G75*
G02*
X138995999Y-83490000I249999J0D01*
G01*
X139896001Y-83490000D01*
G75*
G02*
X140146000Y-83739999I0J-249999D01*
G01*
X140146000Y-84390001D01*
G75*
G02*
X139896001Y-84640000I-249999J0D01*
G01*
G37*
%TD.AperFunction*%
%TO.P,C16,1*%
%TO.N,-3V3*%
%TA.AperFunction,SMDPad,CuDef*%
G36*
G01*
X139896001Y-86690000D02*
X138995999Y-86690000D01*
G75*
G02*
X138746000Y-86440001I0J249999D01*
G01*
X138746000Y-85789999D01*
G75*
G02*
X138995999Y-85540000I249999J0D01*
G01*
X139896001Y-85540000D01*
G75*
G02*
X140146000Y-85789999I0J-249999D01*
G01*
X140146000Y-86440001D01*
G75*
G02*
X139896001Y-86690000I-249999J0D01*
G01*
G37*
%TD.AperFunction*%
%TD*%
%TO.P,C15,2*%
%TO.N,VCOM*%
%TA.AperFunction,SMDPad,CuDef*%
G36*
G01*
X143960000Y-103828001D02*
X143960000Y-102927999D01*
G75*
G02*
X144209999Y-102678000I249999J0D01*
G01*
X144860001Y-102678000D01*
G75*
G02*
X145110000Y-102927999I0J-249999D01*
G01*
X145110000Y-103828001D01*
G75*
G02*
X144860001Y-104078000I-249999J0D01*
G01*
X144209999Y-104078000D01*
G75*
G02*
X143960000Y-103828001I0J249999D01*
G01*
G37*
%TD.AperFunction*%
%TO.P,C15,1*%
%TO.N,+3V3*%
%TA.AperFunction,SMDPad,CuDef*%
G36*
G01*
X141910000Y-103828001D02*
X141910000Y-102927999D01*
G75*
G02*
X142159999Y-102678000I249999J0D01*
G01*
X142810001Y-102678000D01*
G75*
G02*
X143060000Y-102927999I0J-249999D01*
G01*
X143060000Y-103828001D01*
G75*
G02*
X142810001Y-104078000I-249999J0D01*
G01*
X142159999Y-104078000D01*
G75*
G02*
X141910000Y-103828001I0J249999D01*
G01*
G37*
%TD.AperFunction*%
%TD*%
%TO.P,C14,2*%
%TO.N,Net-(C14-Pad2)*%
%TA.AperFunction,SMDPad,CuDef*%
G36*
G01*
X164534000Y-111575001D02*
X164534000Y-110674999D01*
G75*
G02*
X164783999Y-110425000I249999J0D01*
G01*
X165434001Y-110425000D01*
G75*
G02*
X165684000Y-110674999I0J-249999D01*
G01*
X165684000Y-111575001D01*
G75*
G02*
X165434001Y-111825000I-249999J0D01*
G01*
X164783999Y-111825000D01*
G75*
G02*
X164534000Y-111575001I0J249999D01*
G01*
G37*
%TD.AperFunction*%
%TO.P,C14,1*%
%TO.N,/PeakDetector1/SIGNAL_INPUT*%
%TA.AperFunction,SMDPad,CuDef*%
G36*
G01*
X162484000Y-111575001D02*
X162484000Y-110674999D01*
G75*
G02*
X162733999Y-110425000I249999J0D01*
G01*
X163384001Y-110425000D01*
G75*
G02*
X163634000Y-110674999I0J-249999D01*
G01*
X163634000Y-111575001D01*
G75*
G02*
X163384001Y-111825000I-249999J0D01*
G01*
X162733999Y-111825000D01*
G75*
G02*
X162484000Y-111575001I0J249999D01*
G01*
G37*
%TD.AperFunction*%
%TD*%
%TO.P,C13,2*%
%TO.N,VCOM*%
%TA.AperFunction,SMDPad,CuDef*%
G36*
G01*
X164534000Y-106749001D02*
X164534000Y-105848999D01*
G75*
G02*
X164783999Y-105599000I249999J0D01*
G01*
X165434001Y-105599000D01*
G75*
G02*
X165684000Y-105848999I0J-249999D01*
G01*
X165684000Y-106749001D01*
G75*
G02*
X165434001Y-106999000I-249999J0D01*
G01*
X164783999Y-106999000D01*
G75*
G02*
X164534000Y-106749001I0J249999D01*
G01*
G37*
%TD.AperFunction*%
%TO.P,C13,1*%
%TO.N,+3V3*%
%TA.AperFunction,SMDPad,CuDef*%
G36*
G01*
X162484000Y-106749001D02*
X162484000Y-105848999D01*
G75*
G02*
X162733999Y-105599000I249999J0D01*
G01*
X163384001Y-105599000D01*
G75*
G02*
X163634000Y-105848999I0J-249999D01*
G01*
X163634000Y-106749001D01*
G75*
G02*
X163384001Y-106999000I-249999J0D01*
G01*
X162733999Y-106999000D01*
G75*
G02*
X162484000Y-106749001I0J249999D01*
G01*
G37*
%TD.AperFunction*%
%TD*%
%TO.P,C12,2*%
%TO.N,VCOM*%
%TA.AperFunction,SMDPad,CuDef*%
G36*
G01*
X154501001Y-113342000D02*
X153600999Y-113342000D01*
G75*
G02*
X153351000Y-113092001I0J249999D01*
G01*
X153351000Y-112441999D01*
G75*
G02*
X153600999Y-112192000I249999J0D01*
G01*
X154501001Y-112192000D01*
G75*
G02*
X154751000Y-112441999I0J-249999D01*
G01*
X154751000Y-113092001D01*
G75*
G02*
X154501001Y-113342000I-249999J0D01*
G01*
G37*
%TD.AperFunction*%
%TO.P,C12,1*%
%TO.N,-3V3*%
%TA.AperFunction,SMDPad,CuDef*%
G36*
G01*
X154501001Y-115392000D02*
X153600999Y-115392000D01*
G75*
G02*
X153351000Y-115142001I0J249999D01*
G01*
X153351000Y-114491999D01*
G75*
G02*
X153600999Y-114242000I249999J0D01*
G01*
X154501001Y-114242000D01*
G75*
G02*
X154751000Y-114491999I0J-249999D01*
G01*
X154751000Y-115142001D01*
G75*
G02*
X154501001Y-115392000I-249999J0D01*
G01*
G37*
%TD.AperFunction*%
%TD*%
%TO.P,C5,2*%
%TO.N,VCOM*%
%TA.AperFunction,SMDPad,CuDef*%
G36*
G01*
X160724001Y-84640000D02*
X159823999Y-84640000D01*
G75*
G02*
X159574000Y-84390001I0J249999D01*
G01*
X159574000Y-83739999D01*
G75*
G02*
X159823999Y-83490000I249999J0D01*
G01*
X160724001Y-83490000D01*
G75*
G02*
X160974000Y-83739999I0J-249999D01*
G01*
X160974000Y-84390001D01*
G75*
G02*
X160724001Y-84640000I-249999J0D01*
G01*
G37*
%TD.AperFunction*%
%TO.P,C5,1*%
%TO.N,-3V3*%
%TA.AperFunction,SMDPad,CuDef*%
G36*
G01*
X160724001Y-86690000D02*
X159823999Y-86690000D01*
G75*
G02*
X159574000Y-86440001I0J249999D01*
G01*
X159574000Y-85789999D01*
G75*
G02*
X159823999Y-85540000I249999J0D01*
G01*
X160724001Y-85540000D01*
G75*
G02*
X160974000Y-85789999I0J-249999D01*
G01*
X160974000Y-86440001D01*
G75*
G02*
X160724001Y-86690000I-249999J0D01*
G01*
G37*
%TD.AperFunction*%
%TD*%
%TO.P,C4,2*%
%TO.N,VCOM*%
%TA.AperFunction,SMDPad,CuDef*%
G36*
G01*
X164534000Y-104209001D02*
X164534000Y-103308999D01*
G75*
G02*
X164783999Y-103059000I249999J0D01*
G01*
X165434001Y-103059000D01*
G75*
G02*
X165684000Y-103308999I0J-249999D01*
G01*
X165684000Y-104209001D01*
G75*
G02*
X165434001Y-104459000I-249999J0D01*
G01*
X164783999Y-104459000D01*
G75*
G02*
X164534000Y-104209001I0J249999D01*
G01*
G37*
%TD.AperFunction*%
%TO.P,C4,1*%
%TO.N,+3V3*%
%TA.AperFunction,SMDPad,CuDef*%
G36*
G01*
X162484000Y-104209001D02*
X162484000Y-103308999D01*
G75*
G02*
X162733999Y-103059000I249999J0D01*
G01*
X163384001Y-103059000D01*
G75*
G02*
X163634000Y-103308999I0J-249999D01*
G01*
X163634000Y-104209001D01*
G75*
G02*
X163384001Y-104459000I-249999J0D01*
G01*
X162733999Y-104459000D01*
G75*
G02*
X162484000Y-104209001I0J249999D01*
G01*
G37*
%TD.AperFunction*%
%TD*%
D19*
%TO.P,J6,1*%
%TO.N,/sheet5F6AEF15/SIGNAL_INPUT*%
X112496600Y-61595000D03*
%TO.P,J6,2*%
%TO.N,Net-(J6-Pad2)*%
X101066600Y-61595000D03*
%TO.P,J6,3*%
%TO.N,VCOM*%
X101066600Y-48895000D03*
%TO.P,J6,4*%
X112496600Y-48895000D03*
%TD*%
%TO.P,J5,1*%
%TO.N,/sheet5F6A444D/SIGNAL_INPUT*%
X133096000Y-61658500D03*
%TO.P,J5,2*%
%TO.N,Net-(J5-Pad2)*%
X121666000Y-61658500D03*
%TO.P,J5,3*%
%TO.N,VCOM*%
X121666000Y-48958500D03*
%TO.P,J5,4*%
X133096000Y-48958500D03*
%TD*%
%TO.P,J4,1*%
%TO.N,/sheet5F6A30A3/SIGNAL_INPUT*%
X153619200Y-61658500D03*
%TO.P,J4,2*%
%TO.N,Net-(J4-Pad2)*%
X142189200Y-61658500D03*
%TO.P,J4,3*%
%TO.N,VCOM*%
X142189200Y-48958500D03*
%TO.P,J4,4*%
X153619200Y-48958500D03*
%TD*%
%TO.P,J3,1*%
%TO.N,/PeakDetector1/SIGNAL_INPUT*%
X174218600Y-61645800D03*
%TO.P,J3,2*%
%TO.N,Net-(J3-Pad2)*%
X162788600Y-61645800D03*
%TO.P,J3,3*%
%TO.N,VCOM*%
X162788600Y-48945800D03*
%TO.P,J3,4*%
X174218600Y-48945800D03*
%TD*%
%TO.P,J1,1*%
%TO.N,/InputBuffer1/SIGNAL_INPUT*%
X175196500Y-121031000D03*
%TO.P,J1,2*%
%TO.N,VCOM*%
X175196500Y-109601000D03*
%TO.P,J1,3*%
X187896500Y-109601000D03*
%TO.P,J1,4*%
X187896500Y-121031000D03*
%TD*%
%TO.P,J2,3*%
%TO.N,N/C*%
%TA.AperFunction,ComponentPad*%
G36*
G01*
X186931500Y-63515000D02*
X186931500Y-65265000D01*
G75*
G02*
X186056500Y-66140000I-875000J0D01*
G01*
X184306500Y-66140000D01*
G75*
G02*
X183431500Y-65265000I0J875000D01*
G01*
X183431500Y-63515000D01*
G75*
G02*
X184306500Y-62640000I875000J0D01*
G01*
X186056500Y-62640000D01*
G75*
G02*
X186931500Y-63515000I0J-875000D01*
G01*
G37*
%TD.AperFunction*%
%TO.P,J2,2*%
%TO.N,/PowerSupply/+9V_IN*%
%TA.AperFunction,ComponentPad*%
G36*
G01*
X189681500Y-58690000D02*
X189681500Y-60690000D01*
G75*
G02*
X188931500Y-61440000I-750000J0D01*
G01*
X187431500Y-61440000D01*
G75*
G02*
X186681500Y-60690000I0J750000D01*
G01*
X186681500Y-58690000D01*
G75*
G02*
X187431500Y-57940000I750000J0D01*
G01*
X188931500Y-57940000D01*
G75*
G02*
X189681500Y-58690000I0J-750000D01*
G01*
G37*
%TD.AperFunction*%
D20*
%TO.P,J2,1*%
%TO.N,GNDS*%
X182181500Y-59690000D03*
%TD*%
D21*
%TO.N,Net-(D2-Pad2)*%
X169672000Y-89916000D03*
X173482000Y-89916000D03*
%TO.N,Net-(D4-Pad2)*%
X152019000Y-90297000D03*
X147828000Y-90306012D03*
%TO.N,/PowerSupply/+9V_IN*%
X181991000Y-71755000D03*
%TO.N,Net-(D6-Pad2)*%
X131572000Y-90043000D03*
X128016000Y-90043000D03*
%TO.N,Net-(D8-Pad2)*%
X107442000Y-90170000D03*
X110617000Y-90170000D03*
%TO.N,VCOM*%
X146558000Y-106045000D03*
X125984000Y-106045000D03*
X105664000Y-106299000D03*
X167132000Y-106299000D03*
X134874000Y-105410000D03*
X155439000Y-105537000D03*
X114300000Y-105410000D03*
X93726000Y-106172000D03*
X112903000Y-109920000D03*
X92329000Y-109920000D03*
X133477000Y-109920000D03*
X154051000Y-109855000D03*
X185928000Y-86106000D03*
X174244000Y-95631000D03*
X146304000Y-80518000D03*
X167640000Y-80010000D03*
X105918000Y-79756000D03*
X125857000Y-79502000D03*
X187579000Y-101727000D03*
X178752500Y-102362000D03*
%TO.N,+3V3*%
X160147000Y-104902000D03*
X139446000Y-104775000D03*
X118872000Y-104648000D03*
X98298000Y-104648000D03*
X174117000Y-101854000D03*
%TO.N,-3V3*%
X154051000Y-117602000D03*
X133477000Y-117602000D03*
X112776000Y-117602000D03*
X92329000Y-117602000D03*
X94615000Y-89535000D03*
X115570000Y-89535000D03*
X157062000Y-89826000D03*
X136144000Y-89662000D03*
X168148000Y-117602000D03*
%TD*%
D22*
%TO.N,GNDS*%
X178308000Y-79792500D02*
X178344500Y-79756000D01*
X189082500Y-79740000D02*
X185735000Y-79740000D01*
X191135000Y-79756000D02*
X189393500Y-79756000D01*
X187833000Y-68453000D02*
X191135000Y-71755000D01*
X189230000Y-79592500D02*
X189082500Y-79740000D01*
X191135000Y-71755000D02*
X191135000Y-79756000D01*
X179070000Y-68453000D02*
X187833000Y-68453000D01*
X179070000Y-74168000D02*
X179070000Y-68453000D01*
X178308000Y-74930000D02*
X179070000Y-74168000D01*
X189393500Y-79756000D02*
X189230000Y-79592500D01*
X178308000Y-79756000D02*
X178308000Y-74930000D01*
X179070000Y-59690000D02*
X182181500Y-59690000D01*
X179070000Y-68453000D02*
X179070000Y-59690000D01*
X178308000Y-80010000D02*
X178181000Y-79883000D01*
X178308000Y-83947000D02*
X178308000Y-80010000D01*
%TO.N,/PowerSupply/+9V_POL*%
X184782000Y-77737000D02*
X184785000Y-77740000D01*
X184782000Y-76832000D02*
X184782000Y-77737000D01*
X189230000Y-76617500D02*
X185202500Y-76617500D01*
X184785000Y-76829000D02*
X184782000Y-76832000D01*
X184785000Y-76200000D02*
X184785000Y-76829000D01*
X184782000Y-74168000D02*
X184782000Y-76832000D01*
D23*
%TO.N,Net-(D1-Pad2)*%
X165738000Y-97276000D02*
X165797000Y-97217000D01*
X165738000Y-100584000D02*
X165738000Y-97276000D01*
X164084000Y-97217000D02*
X165797000Y-97217000D01*
X170053000Y-96393000D02*
X170053000Y-94869000D01*
X165797000Y-97217000D02*
X169229000Y-97217000D01*
X169229000Y-97217000D02*
X170053000Y-96393000D01*
D24*
%TO.N,Net-(D2-Pad2)*%
X169672000Y-89916000D02*
X169672000Y-92329000D01*
X170561000Y-52705000D02*
X167132000Y-52705000D01*
X177292000Y-59436000D02*
X170561000Y-52705000D01*
X174752000Y-68580000D02*
X177292000Y-66040000D01*
X177292000Y-66040000D02*
X177292000Y-59436000D01*
X173482000Y-89916000D02*
X174752000Y-88646000D01*
X174752000Y-88646000D02*
X174752000Y-68580000D01*
%TO.N,Net-(D4-Pad2)*%
X157353000Y-60071000D02*
X150114000Y-52832000D01*
X153035000Y-86614000D02*
X153035000Y-75311000D01*
X157353000Y-70993000D02*
X157353000Y-60071000D01*
X153035000Y-75311000D02*
X157353000Y-70993000D01*
X152019000Y-87630000D02*
X153035000Y-86614000D01*
X150114000Y-52832000D02*
X146304000Y-52832000D01*
X152019000Y-90297000D02*
X152019000Y-87630000D01*
X147837000Y-90315012D02*
X147837000Y-92456000D01*
X147828000Y-90306012D02*
X147837000Y-90315012D01*
D22*
%TO.N,/PowerSupply/+9V_IN*%
X181991000Y-74165000D02*
X181988000Y-74168000D01*
X181991000Y-71755000D02*
X181991000Y-74165000D01*
D24*
%TO.N,Net-(D6-Pad2)*%
X129413000Y-52832000D02*
X125730000Y-52832000D01*
X137033000Y-70612000D02*
X137033000Y-60452000D01*
X131572000Y-90043000D02*
X131572000Y-87122000D01*
X131572000Y-87122000D02*
X132461000Y-86233000D01*
X137033000Y-60452000D02*
X129413000Y-52832000D01*
X132461000Y-75184000D02*
X137033000Y-70612000D01*
X132461000Y-86233000D02*
X132461000Y-75184000D01*
D23*
X128025000Y-90052000D02*
X128016000Y-90043000D01*
X128025000Y-92329000D02*
X128025000Y-90052000D01*
%TO.N,Net-(D8-Pad2)*%
X107442000Y-92211000D02*
X107197000Y-92456000D01*
X107442000Y-90170000D02*
X107442000Y-92211000D01*
D24*
X108839000Y-52705000D02*
X105410000Y-52705000D01*
X115570000Y-59436000D02*
X108839000Y-52705000D01*
X111870999Y-74438001D02*
X115570000Y-70739000D01*
X110617000Y-90170000D02*
X110744000Y-90043000D01*
X110744000Y-86614000D02*
X111870999Y-85487001D01*
X115570000Y-70739000D02*
X115570000Y-59436000D01*
X111870999Y-85487001D02*
X111870999Y-74438001D01*
X110744000Y-90043000D02*
X110744000Y-86614000D01*
%TO.N,Net-(R17-Pad2)*%
X121846000Y-114870000D02*
X121911000Y-114935000D01*
X117602000Y-114870000D02*
X121973000Y-114870000D01*
%TO.N,Net-(R18-Pad2)*%
X126619000Y-108585000D02*
X123961000Y-108585000D01*
X129794000Y-105410000D02*
X126619000Y-108585000D01*
X123952000Y-69469000D02*
X123952000Y-77216000D01*
X127508000Y-69469000D02*
X123952000Y-69469000D01*
X130810000Y-77216000D02*
X130810000Y-83185000D01*
X130810000Y-83185000D02*
X129794000Y-84201000D01*
X123952000Y-77216000D02*
X130810000Y-77216000D01*
X129794000Y-84201000D02*
X129794000Y-105410000D01*
%TO.N,Net-(R19-Pad2)*%
X95758000Y-103750000D02*
X95767000Y-103759000D01*
X95758000Y-97598000D02*
X95758000Y-103750000D01*
%TO.N,Net-(R20-Pad2)*%
X94488000Y-95504000D02*
X99568000Y-95504000D01*
X94488000Y-99187000D02*
X94488000Y-95504000D01*
X99568000Y-95504000D02*
X99568000Y-97598000D01*
X93717000Y-99958000D02*
X94488000Y-99187000D01*
X93717000Y-100965000D02*
X93717000Y-99958000D01*
%TO.N,Net-(R21-Pad2)*%
X100838000Y-92140000D02*
X105410000Y-92140000D01*
%TO.N,Net-(R23-Pad2)*%
X101272000Y-114870000D02*
X101337000Y-114935000D01*
X97028000Y-114870000D02*
X101399000Y-114870000D01*
%TO.N,Net-(C36-Pad2)*%
X123961000Y-114935000D02*
X123961000Y-111125000D01*
X116459000Y-112903000D02*
X116332000Y-112776000D01*
X116332000Y-112776000D02*
X116332000Y-109920000D01*
X123952000Y-112903000D02*
X116459000Y-112903000D01*
X127508000Y-127889000D02*
X127508000Y-116586000D01*
X125857000Y-114935000D02*
X123961000Y-114935000D01*
X127508000Y-116586000D02*
X125857000Y-114935000D01*
D23*
%TO.N,Net-(C39-Pad1)*%
X104518000Y-94996000D02*
X100584000Y-94996000D01*
X99568000Y-93980000D02*
X99568000Y-92267000D01*
X100584000Y-94996000D02*
X99568000Y-93980000D01*
X99568000Y-92267000D02*
X99568000Y-89154000D01*
X99568000Y-89154000D02*
X99822000Y-88900000D01*
X105918000Y-88900000D02*
X105918000Y-87212500D01*
X101854000Y-86115000D02*
X101854000Y-88900000D01*
X99822000Y-88900000D02*
X101854000Y-88900000D01*
X101854000Y-88900000D02*
X105918000Y-88900000D01*
%TO.N,Net-(R2-Pad2)*%
X155439000Y-98180000D02*
X155439000Y-100965000D01*
X155801000Y-97818000D02*
X155439000Y-98180000D01*
X156374000Y-97818000D02*
X155801000Y-97818000D01*
X156464000Y-95504000D02*
X156464000Y-97217000D01*
X156972000Y-94996000D02*
X156464000Y-95504000D01*
X161036000Y-94996000D02*
X156972000Y-94996000D01*
X161544000Y-97217000D02*
X161544000Y-95504000D01*
X161544000Y-95504000D02*
X161036000Y-94996000D01*
D24*
%TO.N,Net-(R12-Pad2)*%
X150114000Y-106172000D02*
X147701000Y-108585000D01*
X144526000Y-69469000D02*
X144526000Y-77470000D01*
X150114000Y-84582000D02*
X150114000Y-106172000D01*
X148082000Y-69469000D02*
X144526000Y-69469000D01*
X144526000Y-77470000D02*
X151257000Y-77470000D01*
X147701000Y-108585000D02*
X144535000Y-108585000D01*
X151257000Y-77470000D02*
X151257000Y-83439000D01*
X151257000Y-83439000D02*
X150114000Y-84582000D01*
%TO.N,Net-(R24-Pad2)*%
X103378000Y-108458000D02*
X107061000Y-108458000D01*
X103378000Y-77216000D02*
X103378000Y-69469000D01*
X103759000Y-77597000D02*
X103378000Y-77216000D01*
X109220000Y-84709000D02*
X110363000Y-83566000D01*
X103378000Y-69469000D02*
X106934000Y-69469000D01*
X107061000Y-108458000D02*
X109220000Y-106299000D01*
X109220000Y-106299000D02*
X109220000Y-84709000D01*
X110363000Y-77597000D02*
X103759000Y-77597000D01*
X110363000Y-83566000D02*
X110363000Y-77597000D01*
D23*
%TO.N,Net-(C6-Pad1)*%
X161544000Y-92267000D02*
X161544000Y-89334000D01*
X161544000Y-89334000D02*
X161888000Y-88990000D01*
X163576000Y-88900000D02*
X163666000Y-88990000D01*
X163576000Y-86115000D02*
X163576000Y-88900000D01*
X161888000Y-88990000D02*
X163666000Y-88990000D01*
X163666000Y-88990000D02*
X166788000Y-88990000D01*
X167640000Y-88138000D02*
X167640000Y-87085500D01*
X166788000Y-88990000D02*
X167640000Y-88138000D01*
X161544000Y-92267000D02*
X161544000Y-93599000D01*
X162814000Y-94869000D02*
X167256000Y-94869000D01*
X161544000Y-93599000D02*
X162814000Y-94869000D01*
%TO.N,Net-(C14-Pad2)*%
X165109000Y-114935000D02*
X165109000Y-111125000D01*
X157607000Y-112776000D02*
X157607000Y-109920000D01*
X157743000Y-112912000D02*
X157607000Y-112776000D01*
X165100000Y-112912000D02*
X157743000Y-112912000D01*
D24*
X165109000Y-121929000D02*
X165109000Y-114935000D01*
X168656000Y-127889000D02*
X168656000Y-125476000D01*
X168656000Y-125476000D02*
X165109000Y-121929000D01*
D23*
%TO.N,/PeakDetector1/SIGNAL_INPUT*%
X161798000Y-111125000D02*
X163059000Y-111125000D01*
X163059000Y-111125000D02*
X163059000Y-108585000D01*
X161163000Y-111760000D02*
X161798000Y-111125000D01*
X158877000Y-111760000D02*
X161163000Y-111760000D01*
X158877000Y-109920000D02*
X158877000Y-111760000D01*
D24*
X158914000Y-109855000D02*
X158914000Y-107479000D01*
X158914000Y-107479000D02*
X158914000Y-97818000D01*
X168732200Y-61645800D02*
X174218600Y-61645800D01*
X153924000Y-107479000D02*
X153924000Y-76454000D01*
X153924000Y-76454000D02*
X168732200Y-61645800D01*
X158914000Y-107479000D02*
X153924000Y-107479000D01*
%TO.N,Net-(C17-Pad1)*%
X140716000Y-92521000D02*
X140716000Y-90932000D01*
X142748000Y-88900000D02*
X142748000Y-86106000D01*
X140716000Y-90932000D02*
X142748000Y-88900000D01*
D23*
X142748000Y-88900000D02*
X146050000Y-88900000D01*
X146304000Y-88646000D02*
X146304000Y-87085500D01*
X146050000Y-88900000D02*
X146304000Y-88646000D01*
X140716000Y-92267000D02*
X140716000Y-93980000D01*
X141732000Y-94996000D02*
X145412000Y-94996000D01*
X140716000Y-93980000D02*
X141732000Y-94996000D01*
%TO.N,Net-(C25-Pad2)*%
X144535000Y-114935000D02*
X144535000Y-111125000D01*
X136906000Y-112776000D02*
X136906000Y-109920000D01*
X137042000Y-112912000D02*
X136906000Y-112776000D01*
X144526000Y-112912000D02*
X137042000Y-112912000D01*
D24*
X148082000Y-127889000D02*
X148082000Y-116840000D01*
X146177000Y-114935000D02*
X144535000Y-114935000D01*
X148082000Y-116840000D02*
X146177000Y-114935000D01*
D23*
%TO.N,/sheet5F6A30A3/SIGNAL_INPUT*%
X142485000Y-111125000D02*
X142485000Y-108585000D01*
X140843000Y-111887000D02*
X138176000Y-111887000D01*
X138176000Y-111887000D02*
X138176000Y-109920000D01*
X141605000Y-111125000D02*
X140843000Y-111887000D01*
X142494000Y-111125000D02*
X141605000Y-111125000D01*
D24*
X138176000Y-97471000D02*
X138176000Y-107442000D01*
X138176000Y-107442000D02*
X138176000Y-109855000D01*
X147764500Y-61658500D02*
X153619200Y-61658500D01*
X133350000Y-76073000D02*
X147764500Y-61658500D01*
X133350000Y-107442000D02*
X133350000Y-76073000D01*
X138176000Y-107442000D02*
X133350000Y-107442000D01*
D23*
%TO.N,Net-(C28-Pad1)*%
X120142000Y-92267000D02*
X120142000Y-93472000D01*
X121666000Y-94996000D02*
X125600000Y-94996000D01*
X120142000Y-93472000D02*
X121666000Y-94996000D01*
X120142000Y-92267000D02*
X120142000Y-89662000D01*
X120142000Y-89662000D02*
X120650000Y-89154000D01*
X125730000Y-87339500D02*
X125857000Y-87212500D01*
X125730000Y-89154000D02*
X125730000Y-87339500D01*
X121920000Y-88900000D02*
X122174000Y-89154000D01*
X121920000Y-86115000D02*
X121920000Y-88900000D01*
X120650000Y-89154000D02*
X122174000Y-89154000D01*
X122174000Y-89154000D02*
X125730000Y-89154000D01*
D24*
%TO.N,/sheet5F6A444D/SIGNAL_INPUT*%
X121911000Y-108585000D02*
X121911000Y-111125000D01*
X121911000Y-111125000D02*
X120904000Y-111125000D01*
X117729000Y-111887000D02*
X117602000Y-111760000D01*
X117602000Y-111760000D02*
X117602000Y-109920000D01*
X120142000Y-111887000D02*
X117729000Y-111887000D01*
X120904000Y-111125000D02*
X120142000Y-111887000D01*
X117602000Y-110236000D02*
X117602000Y-107442000D01*
X117602000Y-107442000D02*
X117602000Y-97344000D01*
X126555500Y-61658500D02*
X133096000Y-61658500D01*
X112776000Y-75438000D02*
X126555500Y-61658500D01*
X112776000Y-107442000D02*
X112776000Y-75438000D01*
X117602000Y-107442000D02*
X112776000Y-107442000D01*
%TO.N,Net-(C47-Pad2)*%
X103387000Y-114935000D02*
X103387000Y-111379000D01*
X103369000Y-112912000D02*
X103378000Y-112903000D01*
X95894000Y-112912000D02*
X103369000Y-112912000D01*
X95758000Y-112776000D02*
X95894000Y-112912000D01*
X95758000Y-109920000D02*
X95758000Y-112776000D01*
X106934000Y-127889000D02*
X106934000Y-117094000D01*
X104775000Y-114935000D02*
X103387000Y-114935000D01*
X106934000Y-117094000D02*
X104775000Y-114935000D01*
%TO.N,/sheet5F6AEF15/SIGNAL_INPUT*%
X101337000Y-111125000D02*
X101337000Y-108839000D01*
X101337000Y-111125000D02*
X100076000Y-111125000D01*
X100076000Y-111125000D02*
X99568000Y-111633000D01*
X97028000Y-111506000D02*
X97028000Y-109666000D01*
X97155000Y-111633000D02*
X97028000Y-111506000D01*
X99568000Y-111633000D02*
X97155000Y-111633000D01*
X97028000Y-107569000D02*
X92202000Y-107569000D01*
X97028000Y-109855000D02*
X97028000Y-107315000D01*
X97028000Y-107315000D02*
X97028000Y-97598000D01*
X92202000Y-107569000D02*
X92202000Y-75565000D01*
X106172000Y-61595000D02*
X112496600Y-61595000D01*
X92202000Y-75565000D02*
X106172000Y-61595000D01*
%TO.N,/InputBuffer1/SIGNAL_INPUT*%
X95758000Y-127762000D02*
X97917000Y-129921000D01*
X95758000Y-114870000D02*
X95758000Y-127762000D01*
X116332000Y-129794000D02*
X116459000Y-129921000D01*
X116332000Y-114870000D02*
X116332000Y-129794000D01*
X97917000Y-129921000D02*
X116459000Y-129921000D01*
X116459000Y-129921000D02*
X136779000Y-129921000D01*
X157607000Y-129794000D02*
X157734000Y-129921000D01*
X157607000Y-114870000D02*
X157607000Y-129794000D01*
X136779000Y-129921000D02*
X157734000Y-129921000D01*
X136906000Y-114870000D02*
X136906000Y-129794000D01*
X136906000Y-129794000D02*
X136779000Y-129921000D01*
X175196500Y-127698500D02*
X175196500Y-121031000D01*
X157734000Y-129921000D02*
X172974000Y-129921000D01*
X172974000Y-129921000D02*
X175196500Y-127698500D01*
D23*
%TO.N,Net-(R1-Pad2)*%
X157644000Y-100810000D02*
X157489000Y-100965000D01*
X157644000Y-97818000D02*
X157644000Y-100810000D01*
D24*
X157489000Y-103505000D02*
X157489000Y-100965000D01*
D23*
%TO.N,Net-(R3-Pad2)*%
X167566000Y-92267000D02*
X167631000Y-92202000D01*
X162814000Y-92267000D02*
X167566000Y-92267000D01*
%TO.N,Net-(R5-Pad2)*%
X162994000Y-114870000D02*
X163059000Y-114935000D01*
X158877000Y-114870000D02*
X163502000Y-114870000D01*
D24*
%TO.N,Net-(R6-Pad2)*%
X165252400Y-69469000D02*
X168656000Y-69469000D01*
X167005000Y-69469000D02*
X165252400Y-69469000D01*
X167005000Y-78105000D02*
X167005000Y-69469000D01*
X171577000Y-78105000D02*
X167005000Y-78105000D01*
X171577000Y-106553000D02*
X171577000Y-78105000D01*
X165109000Y-108712000D02*
X169418000Y-108712000D01*
X169418000Y-108712000D02*
X171577000Y-106553000D01*
%TO.N,Net-(R7-Pad2)*%
X136906000Y-103369000D02*
X136915000Y-103378000D01*
X136906000Y-97471000D02*
X136906000Y-103369000D01*
%TO.N,Net-(R8-Pad2)*%
X140716000Y-97471000D02*
X140716000Y-96012000D01*
X140716000Y-96012000D02*
X140208000Y-95504000D01*
X140208000Y-95504000D02*
X136144000Y-95504000D01*
X135636000Y-96012000D02*
X135636000Y-97471000D01*
X136144000Y-95504000D02*
X135636000Y-96012000D01*
X134865000Y-100584000D02*
X134865000Y-97799000D01*
X135193000Y-97471000D02*
X135636000Y-97471000D01*
X134865000Y-97799000D02*
X135193000Y-97471000D01*
%TO.N,Net-(R9-Pad2)*%
X142051000Y-92456000D02*
X141986000Y-92521000D01*
X145787000Y-92456000D02*
X142051000Y-92456000D01*
D23*
%TO.N,Net-(R11-Pad2)*%
X142420000Y-114870000D02*
X142485000Y-114935000D01*
X138176000Y-114870000D02*
X142801000Y-114870000D01*
D24*
%TO.N,Net-(R13-Pad2)*%
X116332000Y-103242000D02*
X116341000Y-103251000D01*
X116332000Y-97344000D02*
X116332000Y-103242000D01*
%TO.N,Net-(R14-Pad2)*%
X115062000Y-95631000D02*
X115062000Y-97344000D01*
X120142000Y-95631000D02*
X115062000Y-95631000D01*
X120142000Y-97344000D02*
X120142000Y-95631000D01*
X115062000Y-97344000D02*
X115062000Y-98661000D01*
X115062000Y-98661000D02*
X114291000Y-99432000D01*
X114291000Y-100457000D02*
X114291000Y-99432000D01*
%TO.N,Net-(R15-Pad2)*%
X122682000Y-92394000D02*
X125984000Y-92394000D01*
X121412000Y-92394000D02*
X122682000Y-92394000D01*
D22*
%TO.N,/PowerSupply/+5V_REG*%
X183819000Y-79756000D02*
X183835000Y-79740000D01*
X181319500Y-79756000D02*
X183819000Y-79756000D01*
X180848000Y-83947000D02*
X180848000Y-81915000D01*
X181319500Y-81443500D02*
X181319500Y-79756000D01*
X180848000Y-81915000D02*
X181319500Y-81443500D01*
D23*
%TO.N,VCOM*%
X144535000Y-106045000D02*
X146558000Y-106045000D01*
D24*
X123961000Y-106045000D02*
X125984000Y-106045000D01*
X103387000Y-106299000D02*
X105664000Y-106299000D01*
X165109000Y-103759000D02*
X165109000Y-106299000D01*
D23*
X165109000Y-106299000D02*
X167132000Y-106299000D01*
D24*
X144535000Y-106045000D02*
X144535000Y-103378000D01*
X123961000Y-103251000D02*
X123961000Y-106045000D01*
X103387000Y-103759000D02*
X103387000Y-106553000D01*
X134865000Y-105401000D02*
X134874000Y-105410000D01*
X134865000Y-103378000D02*
X134865000Y-105401000D01*
X155439000Y-103505000D02*
X155439000Y-105537000D01*
X114291000Y-104131000D02*
X114300000Y-104140000D01*
X114300000Y-104140000D02*
X114300000Y-105410000D01*
X114291000Y-103251000D02*
X114291000Y-104131000D01*
X93717000Y-103759000D02*
X93717000Y-105909000D01*
X93717000Y-105909000D02*
X93726000Y-105918000D01*
X112903000Y-109920000D02*
X115062000Y-109920000D01*
X112903000Y-112894000D02*
X112903000Y-109920000D01*
X92329000Y-109920000D02*
X94488000Y-109920000D01*
X92329000Y-112894000D02*
X92329000Y-109920000D01*
D23*
X133477000Y-109920000D02*
X135636000Y-109920000D01*
X133477000Y-112894000D02*
X133477000Y-109920000D01*
X156272000Y-109855000D02*
X156337000Y-109920000D01*
X154051000Y-109855000D02*
X156272000Y-109855000D01*
X154051000Y-112767000D02*
X154051000Y-109855000D01*
D22*
X185928000Y-83947000D02*
X185928000Y-86106000D01*
X181331000Y-99425000D02*
X181356000Y-99450000D01*
X178750000Y-99425000D02*
X181331000Y-99425000D01*
X183515000Y-99450000D02*
X181356000Y-99450000D01*
X190602000Y-99425000D02*
X190627000Y-99450000D01*
X187579000Y-99425000D02*
X190602000Y-99425000D01*
D23*
X98440000Y-84050000D02*
X98425000Y-84065000D01*
D24*
X105903000Y-84065000D02*
X105918000Y-84050000D01*
X125842000Y-84065000D02*
X125857000Y-84050000D01*
X167528000Y-83811000D02*
X167640000Y-83923000D01*
X146059000Y-84065000D02*
X146304000Y-83820000D01*
X139446000Y-84065000D02*
X146059000Y-84065000D01*
D22*
X146304000Y-83923000D02*
X146304000Y-80518000D01*
X167640000Y-80010000D02*
X167640000Y-83923000D01*
D24*
X160274000Y-84065000D02*
X167386000Y-84065000D01*
D22*
X105918000Y-84050000D02*
X105918000Y-79756000D01*
D24*
X105909000Y-84065000D02*
X105918000Y-84074000D01*
X98425000Y-84065000D02*
X105909000Y-84065000D01*
D22*
X125857000Y-84050000D02*
X125857000Y-79502000D01*
D23*
X125684500Y-84065000D02*
X125857000Y-84237500D01*
X118745000Y-84065000D02*
X125684500Y-84065000D01*
X125721000Y-55363000D02*
X125730000Y-55372000D01*
X146295000Y-55363000D02*
X146304000Y-55372000D01*
X105292000Y-55363000D02*
X105410000Y-55245000D01*
D22*
X187579000Y-99425000D02*
X187579000Y-101727000D01*
D23*
X181356000Y-99441000D02*
X181356000Y-104521000D01*
D22*
X174244000Y-97400000D02*
X174244000Y-95631000D01*
X178750000Y-102359500D02*
X178750000Y-99425000D01*
X178752500Y-102362000D02*
X178750000Y-102359500D01*
%TO.N,Net-(C3-Pad1)*%
X181331000Y-97425000D02*
X181356000Y-97400000D01*
X177800000Y-97425000D02*
X181331000Y-97425000D01*
X183134000Y-93091000D02*
X185928000Y-93091000D01*
X181356000Y-94869000D02*
X183134000Y-93091000D01*
X181356000Y-97425000D02*
X181356000Y-94869000D01*
D23*
%TO.N,+3V3*%
X160184000Y-109883000D02*
X160147000Y-109920000D01*
X162969000Y-103669000D02*
X163059000Y-103759000D01*
X160184000Y-103669000D02*
X162969000Y-103669000D01*
X160184000Y-97818000D02*
X160184000Y-103669000D01*
X160274000Y-106299000D02*
X160184000Y-106209000D01*
X163059000Y-106299000D02*
X160274000Y-106299000D01*
X160184000Y-106209000D02*
X160184000Y-109883000D01*
X160184000Y-104992000D02*
X160184000Y-104959000D01*
X160184000Y-103669000D02*
X160184000Y-104992000D01*
X160184000Y-104959000D02*
X160241000Y-104902000D01*
X160184000Y-104992000D02*
X160184000Y-106209000D01*
X139573000Y-103378000D02*
X139446000Y-103251000D01*
X142485000Y-103378000D02*
X139573000Y-103378000D01*
X139446000Y-103251000D02*
X139446000Y-97471000D01*
X142485000Y-106045000D02*
X139446000Y-106045000D01*
X139446000Y-109920000D02*
X139446000Y-106045000D01*
X139446000Y-104775000D02*
X139503000Y-104775000D01*
X139446000Y-106045000D02*
X139446000Y-104775000D01*
X139446000Y-104775000D02*
X139446000Y-103251000D01*
X121911000Y-103251000D02*
X118999000Y-103251000D01*
X118999000Y-103251000D02*
X118872000Y-103378000D01*
X118872000Y-103378000D02*
X118872000Y-97344000D01*
X121911000Y-106045000D02*
X118872000Y-106045000D01*
X118872000Y-109920000D02*
X118872000Y-106045000D01*
X118872000Y-104521000D02*
X118872000Y-104591000D01*
X118872000Y-104591000D02*
X118929000Y-104648000D01*
X118872000Y-106045000D02*
X118872000Y-104521000D01*
X118872000Y-104521000D02*
X118872000Y-103378000D01*
D22*
X174244000Y-99450000D02*
X176825000Y-99450000D01*
D23*
X101337000Y-103124000D02*
X98425000Y-103124000D01*
X98298000Y-97598000D02*
X98298000Y-103886000D01*
X101337000Y-106172000D02*
X98425000Y-106172000D01*
X98298000Y-106426000D02*
X98298000Y-109666000D01*
X98298000Y-103886000D02*
X98298000Y-105156000D01*
X98298000Y-105156000D02*
X98298000Y-106426000D01*
X174244000Y-104521000D02*
X174244000Y-101854000D01*
D22*
X174244000Y-101727000D02*
X174117000Y-101854000D01*
X174244000Y-99450000D02*
X174244000Y-101727000D01*
D23*
%TO.N,-3V3*%
X156284000Y-114817000D02*
X156337000Y-114870000D01*
X154051000Y-114817000D02*
X156284000Y-114817000D01*
D24*
X160147000Y-92905000D02*
X160184000Y-92868000D01*
X154051000Y-114808000D02*
X154051000Y-117602000D01*
D23*
X133551000Y-114870000D02*
X133477000Y-114944000D01*
X135636000Y-114870000D02*
X133551000Y-114870000D01*
D24*
X139446000Y-92521000D02*
X139446000Y-92075000D01*
X133468000Y-114935000D02*
X133477000Y-114944000D01*
X133477000Y-114935000D02*
X133477000Y-117602000D01*
X112977000Y-114870000D02*
X112903000Y-114944000D01*
X115062000Y-114870000D02*
X112977000Y-114870000D01*
X92403000Y-114870000D02*
X92329000Y-114944000D01*
X94488000Y-114870000D02*
X92403000Y-114870000D01*
X92320000Y-114935000D02*
X92329000Y-114944000D01*
D22*
X186613000Y-97409000D02*
X185166000Y-97409000D01*
X186629000Y-97425000D02*
X186613000Y-97409000D01*
X183524000Y-97409000D02*
X183515000Y-97400000D01*
X185166000Y-97409000D02*
X183524000Y-97409000D01*
D24*
X112776000Y-115062000D02*
X112776000Y-117602000D01*
X112903000Y-114935000D02*
X112776000Y-115062000D01*
X92329000Y-114944000D02*
X92329000Y-117474964D01*
X92329000Y-117474964D02*
X92201964Y-117602000D01*
X98298000Y-89535000D02*
X94615000Y-89535000D01*
X98298000Y-92648000D02*
X98298000Y-89535000D01*
X98298000Y-86242000D02*
X98425000Y-86115000D01*
X98298000Y-89535000D02*
X98298000Y-86242000D01*
X118872000Y-86242000D02*
X118745000Y-86115000D01*
X118872000Y-92394000D02*
X118872000Y-89662000D01*
X118872000Y-89662000D02*
X115697000Y-89662000D01*
X115697000Y-89662000D02*
X115570000Y-89535000D01*
X160184000Y-86205000D02*
X160274000Y-86115000D01*
X160184000Y-89826000D02*
X157062000Y-89826000D01*
X160184000Y-92868000D02*
X160184000Y-89826000D01*
X160184000Y-89826000D02*
X160184000Y-86205000D01*
X139446000Y-89662000D02*
X136144000Y-89662000D01*
X139446000Y-92521000D02*
X139446000Y-89662000D01*
X139446000Y-89662000D02*
X139446000Y-86106000D01*
X118872000Y-89662000D02*
X118872000Y-86242000D01*
D22*
X185166000Y-104394000D02*
X185166000Y-97409000D01*
X168148000Y-117602000D02*
X171958000Y-117602000D01*
X171958000Y-117602000D02*
X185166000Y-104394000D01*
D23*
X187579000Y-104394000D02*
X185166000Y-104394000D01*
D22*
%TO.N,Net-(C48-Pad2)*%
X188529000Y-84008000D02*
X188468000Y-83947000D01*
X188529000Y-97425000D02*
X188529000Y-84008000D01*
X188554000Y-97400000D02*
X188529000Y-97425000D01*
X190627000Y-97400000D02*
X188554000Y-97400000D01*
D23*
%TO.N,Net-(D11-Pad1)*%
X148212000Y-97152000D02*
X148212000Y-95504000D01*
X148147000Y-97217000D02*
X148212000Y-97152000D01*
X144656000Y-97282000D02*
X144591000Y-97217000D01*
X144656000Y-100584000D02*
X144656000Y-97282000D01*
X143256000Y-97217000D02*
X144591000Y-97217000D01*
X144591000Y-97217000D02*
X148147000Y-97217000D01*
%TO.N,Net-(D12-Pad1)*%
X128400000Y-96898000D02*
X128400000Y-94996000D01*
X128081000Y-97217000D02*
X128400000Y-96898000D01*
X124336000Y-100584000D02*
X124336000Y-97276000D01*
X124336000Y-97276000D02*
X124395000Y-97217000D01*
X122682000Y-97217000D02*
X124395000Y-97217000D01*
X124395000Y-97217000D02*
X128081000Y-97217000D01*
%TO.N,Net-(D13-Pad1)*%
X107318000Y-96898000D02*
X107318000Y-94996000D01*
X106999000Y-97217000D02*
X107318000Y-96898000D01*
X103762000Y-97406000D02*
X103951000Y-97217000D01*
X103762000Y-100584000D02*
X103762000Y-97406000D01*
X102108000Y-97217000D02*
X103951000Y-97217000D01*
X103951000Y-97217000D02*
X106999000Y-97217000D01*
%TO.N,Net-(D10-Pad2)*%
X162814000Y-100460000D02*
X162938000Y-100584000D01*
X162814000Y-97217000D02*
X162814000Y-100460000D01*
%TO.N,Net-(D11-Pad2)*%
X141986000Y-100454000D02*
X141856000Y-100584000D01*
X141986000Y-97217000D02*
X141986000Y-100454000D01*
%TO.N,Net-(D12-Pad2)*%
X121412000Y-100460000D02*
X121536000Y-100584000D01*
X121412000Y-97217000D02*
X121412000Y-100460000D01*
%TO.N,Net-(D13-Pad2)*%
X100838000Y-100460000D02*
X100962000Y-100584000D01*
X100838000Y-97217000D02*
X100838000Y-100460000D01*
%TO.N,Net-(J3-Pad2)*%
X162814000Y-61620400D02*
X162788600Y-61645800D01*
%TO.N,Net-(J4-Pad2)*%
X142240000Y-61607700D02*
X142189200Y-61658500D01*
%TD*%
M02*
