%TF.GenerationSoftware,KiCad,Pcbnew,5.1.6-c6e7f7d~87~ubuntu18.04.1*%
%TF.CreationDate,2020-09-21T19:35:09+01:00*%
%TF.ProjectId,ActiveSplitterPedal_SOIC14,41637469-7665-4537-906c-697474657250,rev?*%
%TF.SameCoordinates,Original*%
%TF.FileFunction,Soldermask,Top*%
%TF.FilePolarity,Negative*%
%FSLAX46Y46*%
G04 Gerber Fmt 4.6, Leading zero omitted, Abs format (unit mm)*
G04 Created by KiCad (PCBNEW 5.1.6-c6e7f7d~87~ubuntu18.04.1) date 2020-09-21 19:35:09*
%MOMM*%
%LPD*%
G01*
G04 APERTURE LIST*
%TA.AperFunction,Profile*%
%ADD10C,0.050000*%
%TD*%
%ADD11C,2.600000*%
%ADD12C,3.600000*%
%ADD13C,1.900000*%
%ADD14R,1.900000X1.900000*%
%ADD15C,3.100000*%
%ADD16C,2.100000*%
%ADD17R,3.600000X3.600000*%
G04 APERTURE END LIST*
D10*
X186309000Y-130429000D02*
X185674000Y-131064000D01*
X186309000Y-125349000D02*
X186309000Y-130429000D01*
X191770000Y-125349000D02*
X186309000Y-125349000D01*
X192405000Y-124714000D02*
X191770000Y-125349000D01*
X192405000Y-51054000D02*
X192405000Y-124714000D01*
X191770000Y-50419000D02*
X192405000Y-51054000D01*
X186309000Y-50419000D02*
X191770000Y-50419000D01*
X186309000Y-45275500D02*
X186309000Y-50419000D01*
X185674000Y-44640500D02*
X186309000Y-45275500D01*
X86614000Y-44640500D02*
X185674000Y-44640500D01*
X85979000Y-45275500D02*
X86614000Y-44640500D01*
X85979000Y-50419000D02*
X85979000Y-45275500D01*
X80518000Y-50419000D02*
X85979000Y-50419000D01*
X79883000Y-51054000D02*
X80518000Y-50419000D01*
X79883000Y-124777500D02*
X79883000Y-51054000D01*
X80518000Y-125412500D02*
X79883000Y-124777500D01*
X85979000Y-125412500D02*
X80518000Y-125412500D01*
X85979000Y-130429000D02*
X85979000Y-125412500D01*
X86614000Y-131064000D02*
X85979000Y-130429000D01*
X185674000Y-131064000D02*
X86614000Y-131064000D01*
%TO.C,R28*%
G36*
G01*
X95152738Y-67202000D02*
X96109262Y-67202000D01*
G75*
G02*
X96381000Y-67473738I0J-271738D01*
G01*
X96381000Y-68180262D01*
G75*
G02*
X96109262Y-68452000I-271738J0D01*
G01*
X95152738Y-68452000D01*
G75*
G02*
X94881000Y-68180262I0J271738D01*
G01*
X94881000Y-67473738D01*
G75*
G02*
X95152738Y-67202000I271738J0D01*
G01*
G37*
G36*
G01*
X95152738Y-65152000D02*
X96109262Y-65152000D01*
G75*
G02*
X96381000Y-65423738I0J-271738D01*
G01*
X96381000Y-66130262D01*
G75*
G02*
X96109262Y-66402000I-271738J0D01*
G01*
X95152738Y-66402000D01*
G75*
G02*
X94881000Y-66130262I0J271738D01*
G01*
X94881000Y-65423738D01*
G75*
G02*
X95152738Y-65152000I271738J0D01*
G01*
G37*
%TD*%
%TO.C,R27*%
G36*
G01*
X116615738Y-67202000D02*
X117572262Y-67202000D01*
G75*
G02*
X117844000Y-67473738I0J-271738D01*
G01*
X117844000Y-68180262D01*
G75*
G02*
X117572262Y-68452000I-271738J0D01*
G01*
X116615738Y-68452000D01*
G75*
G02*
X116344000Y-68180262I0J271738D01*
G01*
X116344000Y-67473738D01*
G75*
G02*
X116615738Y-67202000I271738J0D01*
G01*
G37*
G36*
G01*
X116615738Y-65152000D02*
X117572262Y-65152000D01*
G75*
G02*
X117844000Y-65423738I0J-271738D01*
G01*
X117844000Y-66130262D01*
G75*
G02*
X117572262Y-66402000I-271738J0D01*
G01*
X116615738Y-66402000D01*
G75*
G02*
X116344000Y-66130262I0J271738D01*
G01*
X116344000Y-65423738D01*
G75*
G02*
X116615738Y-65152000I271738J0D01*
G01*
G37*
%TD*%
%TO.C,R26*%
G36*
G01*
X136935738Y-67202000D02*
X137892262Y-67202000D01*
G75*
G02*
X138164000Y-67473738I0J-271738D01*
G01*
X138164000Y-68180262D01*
G75*
G02*
X137892262Y-68452000I-271738J0D01*
G01*
X136935738Y-68452000D01*
G75*
G02*
X136664000Y-68180262I0J271738D01*
G01*
X136664000Y-67473738D01*
G75*
G02*
X136935738Y-67202000I271738J0D01*
G01*
G37*
G36*
G01*
X136935738Y-65152000D02*
X137892262Y-65152000D01*
G75*
G02*
X138164000Y-65423738I0J-271738D01*
G01*
X138164000Y-66130262D01*
G75*
G02*
X137892262Y-66402000I-271738J0D01*
G01*
X136935738Y-66402000D01*
G75*
G02*
X136664000Y-66130262I0J271738D01*
G01*
X136664000Y-65423738D01*
G75*
G02*
X136935738Y-65152000I271738J0D01*
G01*
G37*
%TD*%
%TO.C,R25*%
G36*
G01*
X157255738Y-67202000D02*
X158212262Y-67202000D01*
G75*
G02*
X158484000Y-67473738I0J-271738D01*
G01*
X158484000Y-68180262D01*
G75*
G02*
X158212262Y-68452000I-271738J0D01*
G01*
X157255738Y-68452000D01*
G75*
G02*
X156984000Y-68180262I0J271738D01*
G01*
X156984000Y-67473738D01*
G75*
G02*
X157255738Y-67202000I271738J0D01*
G01*
G37*
G36*
G01*
X157255738Y-65152000D02*
X158212262Y-65152000D01*
G75*
G02*
X158484000Y-65423738I0J-271738D01*
G01*
X158484000Y-66130262D01*
G75*
G02*
X158212262Y-66402000I-271738J0D01*
G01*
X157255738Y-66402000D01*
G75*
G02*
X156984000Y-66130262I0J271738D01*
G01*
X156984000Y-65423738D01*
G75*
G02*
X157255738Y-65152000I271738J0D01*
G01*
G37*
%TD*%
D11*
%TO.C,RV1*%
X168757600Y-69469000D03*
X165252400Y-69469000D03*
X168757600Y-127965200D03*
D12*
X171196000Y-74803000D03*
X162839400Y-73609200D03*
X171196000Y-122605800D03*
X162814000Y-123825000D03*
%TD*%
D11*
%TO.C,RV2*%
X148183600Y-69469000D03*
X144678400Y-69469000D03*
X148183600Y-127965200D03*
D12*
X150622000Y-74803000D03*
X142265400Y-73609200D03*
X150622000Y-122605800D03*
X142240000Y-123825000D03*
%TD*%
D11*
%TO.C,RV3*%
X127584200Y-69519800D03*
X124079000Y-69519800D03*
X127584200Y-128016000D03*
D12*
X130022600Y-74853800D03*
X121666000Y-73660000D03*
X130022600Y-122656600D03*
X121640600Y-123875800D03*
%TD*%
D11*
%TO.C,RV4*%
X107010200Y-69469000D03*
X103505000Y-69469000D03*
X107010200Y-127965200D03*
D12*
X109448600Y-74803000D03*
X101092000Y-73609200D03*
X109448600Y-122605800D03*
X101066600Y-123825000D03*
%TD*%
D13*
%TO.C,D2*%
X167005000Y-52705000D03*
D14*
X167005000Y-55245000D03*
%TD*%
D13*
%TO.C,D8*%
X105283000Y-52705000D03*
D14*
X105283000Y-55245000D03*
%TD*%
D13*
%TO.C,D6*%
X125857000Y-52832000D03*
D14*
X125857000Y-55372000D03*
%TD*%
D13*
%TO.C,D4*%
X146431000Y-52832000D03*
D14*
X146431000Y-55372000D03*
%TD*%
D15*
%TO.C,J6*%
X112496600Y-61595000D03*
X101066600Y-61595000D03*
X101066600Y-48895000D03*
X112496600Y-48895000D03*
X110337600Y-58420000D03*
D16*
X112496600Y-52070000D03*
X101066600Y-52070000D03*
%TD*%
D15*
%TO.C,J5*%
X133096000Y-61658500D03*
X121666000Y-61658500D03*
X121666000Y-48958500D03*
X133096000Y-48958500D03*
X130937000Y-58483500D03*
D16*
X133096000Y-52133500D03*
X121666000Y-52133500D03*
%TD*%
D15*
%TO.C,J4*%
X153619200Y-61658500D03*
X142189200Y-61658500D03*
X142189200Y-48958500D03*
X153619200Y-48958500D03*
X151460200Y-58483500D03*
D16*
X153619200Y-52133500D03*
X142189200Y-52133500D03*
%TD*%
D15*
%TO.C,J3*%
X174218600Y-61645800D03*
X162788600Y-61645800D03*
X162788600Y-48945800D03*
X174218600Y-48945800D03*
X172059600Y-58470800D03*
D16*
X174218600Y-52120800D03*
X162788600Y-52120800D03*
%TD*%
D15*
%TO.C,J1*%
X175196500Y-121031000D03*
X175196500Y-109601000D03*
X187896500Y-109601000D03*
X187896500Y-121031000D03*
X178371500Y-118872000D03*
D16*
X184721500Y-121031000D03*
X184721500Y-109601000D03*
%TD*%
%TO.C,J2*%
G36*
G01*
X186981500Y-63490000D02*
X186981500Y-65290000D01*
G75*
G02*
X186081500Y-66190000I-900000J0D01*
G01*
X184281500Y-66190000D01*
G75*
G02*
X183381500Y-65290000I0J900000D01*
G01*
X183381500Y-63490000D01*
G75*
G02*
X184281500Y-62590000I900000J0D01*
G01*
X186081500Y-62590000D01*
G75*
G02*
X186981500Y-63490000I0J-900000D01*
G01*
G37*
G36*
G01*
X189731500Y-58665000D02*
X189731500Y-60715000D01*
G75*
G02*
X188956500Y-61490000I-775000J0D01*
G01*
X187406500Y-61490000D01*
G75*
G02*
X186631500Y-60715000I0J775000D01*
G01*
X186631500Y-58665000D01*
G75*
G02*
X187406500Y-57890000I775000J0D01*
G01*
X188956500Y-57890000D01*
G75*
G02*
X189731500Y-58665000I0J-775000D01*
G01*
G37*
D17*
X182181500Y-59690000D03*
%TD*%
M02*
