%TF.GenerationSoftware,KiCad,Pcbnew,5.1.6-c6e7f7d~87~ubuntu18.04.1*%
%TF.CreationDate,2020-09-13T23:59:10+01:00*%
%TF.ProjectId,ActiveSplitterPedal_SOIC14,41637469-7665-4537-906c-697474657250,rev?*%
%TF.SameCoordinates,Original*%
%TF.FileFunction,Legend,Top*%
%TF.FilePolarity,Positive*%
%FSLAX46Y46*%
G04 Gerber Fmt 4.6, Leading zero omitted, Abs format (unit mm)*
G04 Created by KiCad (PCBNEW 5.1.6-c6e7f7d~87~ubuntu18.04.1) date 2020-09-13 23:59:10*
%MOMM*%
%LPD*%
G01*
G04 APERTURE LIST*
%ADD10C,0.150000*%
%ADD11C,0.300000*%
%TA.AperFunction,Profile*%
%ADD12C,0.050000*%
%TD*%
%ADD13C,0.120000*%
G04 APERTURE END LIST*
D10*
X182054952Y-52772904D02*
X182207333Y-52772904D01*
X182283523Y-52734809D01*
X182321619Y-52696714D01*
X182397809Y-52582428D01*
X182435904Y-52430047D01*
X182435904Y-52125285D01*
X182397809Y-52049095D01*
X182359714Y-52011000D01*
X182283523Y-51972904D01*
X182131142Y-51972904D01*
X182054952Y-52011000D01*
X182016857Y-52049095D01*
X181978761Y-52125285D01*
X181978761Y-52315761D01*
X182016857Y-52391952D01*
X182054952Y-52430047D01*
X182131142Y-52468142D01*
X182283523Y-52468142D01*
X182359714Y-52430047D01*
X182397809Y-52391952D01*
X182435904Y-52315761D01*
X182664476Y-51972904D02*
X182931142Y-52772904D01*
X183197809Y-51972904D01*
X183464476Y-52772904D02*
X183464476Y-51972904D01*
X183654952Y-51972904D01*
X183769238Y-52011000D01*
X183845428Y-52087190D01*
X183883523Y-52163380D01*
X183921619Y-52315761D01*
X183921619Y-52430047D01*
X183883523Y-52582428D01*
X183845428Y-52658619D01*
X183769238Y-52734809D01*
X183654952Y-52772904D01*
X183464476Y-52772904D01*
X184721619Y-52696714D02*
X184683523Y-52734809D01*
X184569238Y-52772904D01*
X184493047Y-52772904D01*
X184378761Y-52734809D01*
X184302571Y-52658619D01*
X184264476Y-52582428D01*
X184226380Y-52430047D01*
X184226380Y-52315761D01*
X184264476Y-52163380D01*
X184302571Y-52087190D01*
X184378761Y-52011000D01*
X184493047Y-51972904D01*
X184569238Y-51972904D01*
X184683523Y-52011000D01*
X184721619Y-52049095D01*
X186093047Y-52772904D02*
X185635904Y-52772904D01*
X185864476Y-52772904D02*
X185864476Y-51972904D01*
X185788285Y-52087190D01*
X185712095Y-52163380D01*
X185635904Y-52201476D01*
X186816857Y-51972904D02*
X186435904Y-51972904D01*
X186397809Y-52353857D01*
X186435904Y-52315761D01*
X186512095Y-52277666D01*
X186702571Y-52277666D01*
X186778761Y-52315761D01*
X186816857Y-52353857D01*
X186854952Y-52430047D01*
X186854952Y-52620523D01*
X186816857Y-52696714D01*
X186778761Y-52734809D01*
X186702571Y-52772904D01*
X186512095Y-52772904D01*
X186435904Y-52734809D01*
X186397809Y-52696714D01*
X187350190Y-51972904D02*
X187426380Y-51972904D01*
X187502571Y-52011000D01*
X187540666Y-52049095D01*
X187578761Y-52125285D01*
X187616857Y-52277666D01*
X187616857Y-52468142D01*
X187578761Y-52620523D01*
X187540666Y-52696714D01*
X187502571Y-52734809D01*
X187426380Y-52772904D01*
X187350190Y-52772904D01*
X187274000Y-52734809D01*
X187235904Y-52696714D01*
X187197809Y-52620523D01*
X187159714Y-52468142D01*
X187159714Y-52277666D01*
X187197809Y-52125285D01*
X187235904Y-52049095D01*
X187274000Y-52011000D01*
X187350190Y-51972904D01*
X187959714Y-52772904D02*
X187959714Y-52239571D01*
X187959714Y-52315761D02*
X187997809Y-52277666D01*
X188074000Y-52239571D01*
X188188285Y-52239571D01*
X188264476Y-52277666D01*
X188302571Y-52353857D01*
X188302571Y-52772904D01*
X188302571Y-52353857D02*
X188340666Y-52277666D01*
X188416857Y-52239571D01*
X188531142Y-52239571D01*
X188607333Y-52277666D01*
X188645428Y-52353857D01*
X188645428Y-52772904D01*
X188988285Y-52544333D02*
X189369238Y-52544333D01*
X188912095Y-52772904D02*
X189178761Y-51972904D01*
X189445428Y-52772904D01*
X181350190Y-54046714D02*
X181312095Y-54084809D01*
X181197809Y-54122904D01*
X181121619Y-54122904D01*
X181007333Y-54084809D01*
X180931142Y-54008619D01*
X180893047Y-53932428D01*
X180854952Y-53780047D01*
X180854952Y-53665761D01*
X180893047Y-53513380D01*
X180931142Y-53437190D01*
X181007333Y-53361000D01*
X181121619Y-53322904D01*
X181197809Y-53322904D01*
X181312095Y-53361000D01*
X181350190Y-53399095D01*
X181997809Y-54084809D02*
X181921619Y-54122904D01*
X181769238Y-54122904D01*
X181693047Y-54084809D01*
X181654952Y-54008619D01*
X181654952Y-53703857D01*
X181693047Y-53627666D01*
X181769238Y-53589571D01*
X181921619Y-53589571D01*
X181997809Y-53627666D01*
X182035904Y-53703857D01*
X182035904Y-53780047D01*
X181654952Y-53856238D01*
X182378761Y-53589571D02*
X182378761Y-54122904D01*
X182378761Y-53665761D02*
X182416857Y-53627666D01*
X182493047Y-53589571D01*
X182607333Y-53589571D01*
X182683523Y-53627666D01*
X182721619Y-53703857D01*
X182721619Y-54122904D01*
X182988285Y-53589571D02*
X183293047Y-53589571D01*
X183102571Y-53322904D02*
X183102571Y-54008619D01*
X183140666Y-54084809D01*
X183216857Y-54122904D01*
X183293047Y-54122904D01*
X183864476Y-54084809D02*
X183788285Y-54122904D01*
X183635904Y-54122904D01*
X183559714Y-54084809D01*
X183521619Y-54008619D01*
X183521619Y-53703857D01*
X183559714Y-53627666D01*
X183635904Y-53589571D01*
X183788285Y-53589571D01*
X183864476Y-53627666D01*
X183902571Y-53703857D01*
X183902571Y-53780047D01*
X183521619Y-53856238D01*
X184245428Y-54122904D02*
X184245428Y-53589571D01*
X184245428Y-53741952D02*
X184283523Y-53665761D01*
X184321619Y-53627666D01*
X184397809Y-53589571D01*
X184474000Y-53589571D01*
X185350190Y-54122904D02*
X185350190Y-53322904D01*
X185807333Y-54122904D01*
X185807333Y-53322904D01*
X186493047Y-54084809D02*
X186416857Y-54122904D01*
X186264476Y-54122904D01*
X186188285Y-54084809D01*
X186150190Y-54008619D01*
X186150190Y-53703857D01*
X186188285Y-53627666D01*
X186264476Y-53589571D01*
X186416857Y-53589571D01*
X186493047Y-53627666D01*
X186531142Y-53703857D01*
X186531142Y-53780047D01*
X186150190Y-53856238D01*
X187216857Y-53589571D02*
X187216857Y-54237190D01*
X187178761Y-54313380D01*
X187140666Y-54351476D01*
X187064476Y-54389571D01*
X186950190Y-54389571D01*
X186874000Y-54351476D01*
X187216857Y-54084809D02*
X187140666Y-54122904D01*
X186988285Y-54122904D01*
X186912095Y-54084809D01*
X186874000Y-54046714D01*
X186835904Y-53970523D01*
X186835904Y-53741952D01*
X186874000Y-53665761D01*
X186912095Y-53627666D01*
X186988285Y-53589571D01*
X187140666Y-53589571D01*
X187216857Y-53627666D01*
X187940666Y-54122904D02*
X187940666Y-53703857D01*
X187902571Y-53627666D01*
X187826380Y-53589571D01*
X187674000Y-53589571D01*
X187597809Y-53627666D01*
X187940666Y-54084809D02*
X187864476Y-54122904D01*
X187674000Y-54122904D01*
X187597809Y-54084809D01*
X187559714Y-54008619D01*
X187559714Y-53932428D01*
X187597809Y-53856238D01*
X187674000Y-53818142D01*
X187864476Y-53818142D01*
X187940666Y-53780047D01*
X188207333Y-53589571D02*
X188512095Y-53589571D01*
X188321619Y-53322904D02*
X188321619Y-54008619D01*
X188359714Y-54084809D01*
X188435904Y-54122904D01*
X188512095Y-54122904D01*
X188778761Y-54122904D02*
X188778761Y-53589571D01*
X188778761Y-53322904D02*
X188740666Y-53361000D01*
X188778761Y-53399095D01*
X188816857Y-53361000D01*
X188778761Y-53322904D01*
X188778761Y-53399095D01*
X189083523Y-53589571D02*
X189274000Y-54122904D01*
X189464476Y-53589571D01*
X190074000Y-54084809D02*
X189997809Y-54122904D01*
X189845428Y-54122904D01*
X189769238Y-54084809D01*
X189731142Y-54008619D01*
X189731142Y-53703857D01*
X189769238Y-53627666D01*
X189845428Y-53589571D01*
X189997809Y-53589571D01*
X190074000Y-53627666D01*
X190112095Y-53703857D01*
X190112095Y-53780047D01*
X189731142Y-53856238D01*
X190454952Y-54046714D02*
X190493047Y-54084809D01*
X190454952Y-54122904D01*
X190416857Y-54084809D01*
X190454952Y-54046714D01*
X190454952Y-54122904D01*
X190454952Y-53818142D02*
X190416857Y-53361000D01*
X190454952Y-53322904D01*
X190493047Y-53361000D01*
X190454952Y-53818142D01*
X190454952Y-53322904D01*
D11*
X184404000Y-113817400D02*
X185420000Y-114833400D01*
X184404000Y-113817400D02*
X189484000Y-113817400D01*
X184404000Y-113817400D02*
X185420000Y-112801400D01*
X167005000Y-57404000D02*
X168021000Y-58420000D01*
X167005000Y-57404000D02*
X165989000Y-58420000D01*
X167005000Y-57404000D02*
X167005000Y-62484000D01*
X146380200Y-57404000D02*
X147396200Y-58420000D01*
X146380200Y-57404000D02*
X146380200Y-62484000D01*
X146380200Y-57404000D02*
X145364200Y-58420000D01*
X125857000Y-57404000D02*
X126873000Y-58420000D01*
X125857000Y-57404000D02*
X125857000Y-62484000D01*
X125857000Y-57404000D02*
X124841000Y-58420000D01*
X105257600Y-57404000D02*
X106273600Y-58420000D01*
X105257600Y-57404000D02*
X105257600Y-62484000D01*
X105257600Y-57404000D02*
X104241600Y-58420000D01*
D12*
X186309000Y-130429000D02*
X185674000Y-131064000D01*
X186309000Y-125349000D02*
X186309000Y-130429000D01*
X191770000Y-125349000D02*
X186309000Y-125349000D01*
X192405000Y-124714000D02*
X191770000Y-125349000D01*
X192405000Y-51054000D02*
X192405000Y-124714000D01*
X191770000Y-50419000D02*
X192405000Y-51054000D01*
X186309000Y-50419000D02*
X191770000Y-50419000D01*
X186309000Y-45275500D02*
X186309000Y-50419000D01*
X185674000Y-44640500D02*
X186309000Y-45275500D01*
X86614000Y-44640500D02*
X185674000Y-44640500D01*
X85979000Y-45275500D02*
X86614000Y-44640500D01*
X85979000Y-50419000D02*
X85979000Y-45275500D01*
X80518000Y-50419000D02*
X85979000Y-50419000D01*
X79883000Y-51054000D02*
X80518000Y-50419000D01*
X79883000Y-124777500D02*
X79883000Y-51054000D01*
X80518000Y-125412500D02*
X79883000Y-124777500D01*
X85979000Y-125412500D02*
X80518000Y-125412500D01*
X85979000Y-130429000D02*
X85979000Y-125412500D01*
X86614000Y-131064000D02*
X85979000Y-130429000D01*
X185674000Y-131064000D02*
X86614000Y-131064000D01*
D13*
%TO.C,R28*%
X96341000Y-66540748D02*
X96341000Y-67063252D01*
X94921000Y-66540748D02*
X94921000Y-67063252D01*
%TO.C,R27*%
X117804000Y-66540748D02*
X117804000Y-67063252D01*
X116384000Y-66540748D02*
X116384000Y-67063252D01*
%TO.C,R26*%
X138124000Y-66540748D02*
X138124000Y-67063252D01*
X136704000Y-66540748D02*
X136704000Y-67063252D01*
%TO.C,R25*%
X158444000Y-66540748D02*
X158444000Y-67063252D01*
X157024000Y-66540748D02*
X157024000Y-67063252D01*
%TO.C,RV1*%
X168122895Y-70688200D02*
G75*
G03*
X168122895Y-70688200I-1092495J0D01*
G01*
X168097495Y-126720600D02*
G75*
G03*
X168097495Y-126720600I-1092495J0D01*
G01*
X171450000Y-68605400D02*
X162560000Y-68605400D01*
X162560000Y-68605400D02*
X162560000Y-128803400D01*
X162560000Y-128803400D02*
X171450000Y-128803400D01*
X171450000Y-128803400D02*
X171450000Y-68605400D01*
X165785800Y-123748800D02*
X165785800Y-73533000D01*
X168275000Y-73533000D02*
X168275000Y-123748800D01*
X168275000Y-123748800D02*
X165785800Y-123748800D01*
X165785800Y-73533000D02*
X168275000Y-73533000D01*
%TO.C,RV2*%
X147548895Y-70688200D02*
G75*
G03*
X147548895Y-70688200I-1092495J0D01*
G01*
X147523495Y-126720600D02*
G75*
G03*
X147523495Y-126720600I-1092495J0D01*
G01*
X150876000Y-68605400D02*
X141986000Y-68605400D01*
X141986000Y-68605400D02*
X141986000Y-128803400D01*
X141986000Y-128803400D02*
X150876000Y-128803400D01*
X150876000Y-128803400D02*
X150876000Y-68605400D01*
X145211800Y-123748800D02*
X145211800Y-73533000D01*
X147701000Y-73533000D02*
X147701000Y-123748800D01*
X147701000Y-123748800D02*
X145211800Y-123748800D01*
X145211800Y-73533000D02*
X147701000Y-73533000D01*
%TO.C,RV3*%
X126949495Y-70739000D02*
G75*
G03*
X126949495Y-70739000I-1092495J0D01*
G01*
X126924095Y-126771400D02*
G75*
G03*
X126924095Y-126771400I-1092495J0D01*
G01*
X130276600Y-68656200D02*
X121386600Y-68656200D01*
X121386600Y-68656200D02*
X121386600Y-128854200D01*
X121386600Y-128854200D02*
X130276600Y-128854200D01*
X130276600Y-128854200D02*
X130276600Y-68656200D01*
X124612400Y-123799600D02*
X124612400Y-73583800D01*
X127101600Y-73583800D02*
X127101600Y-123799600D01*
X127101600Y-123799600D02*
X124612400Y-123799600D01*
X124612400Y-73583800D02*
X127101600Y-73583800D01*
%TO.C,RV4*%
X106375495Y-70688200D02*
G75*
G03*
X106375495Y-70688200I-1092495J0D01*
G01*
X106350095Y-126720600D02*
G75*
G03*
X106350095Y-126720600I-1092495J0D01*
G01*
X109702600Y-68605400D02*
X100812600Y-68605400D01*
X100812600Y-68605400D02*
X100812600Y-128803400D01*
X100812600Y-128803400D02*
X109702600Y-128803400D01*
X109702600Y-128803400D02*
X109702600Y-68605400D01*
X104038400Y-123748800D02*
X104038400Y-73533000D01*
X106527600Y-73533000D02*
X106527600Y-123748800D01*
X106527600Y-123748800D02*
X104038400Y-123748800D01*
X104038400Y-73533000D02*
X106527600Y-73533000D01*
%TO.C,D2*%
X165460000Y-56535000D02*
X168550000Y-56535000D01*
X169505000Y-53975000D02*
G75*
G03*
X169505000Y-53975000I-2500000J0D01*
G01*
X167004538Y-50985000D02*
G75*
G02*
X168549830Y-56535000I462J-2990000D01*
G01*
X167005462Y-50985000D02*
G75*
G03*
X165460170Y-56535000I-462J-2990000D01*
G01*
%TO.C,D8*%
X103738000Y-56535000D02*
X106828000Y-56535000D01*
X107783000Y-53975000D02*
G75*
G03*
X107783000Y-53975000I-2500000J0D01*
G01*
X105282538Y-50985000D02*
G75*
G02*
X106827830Y-56535000I462J-2990000D01*
G01*
X105283462Y-50985000D02*
G75*
G03*
X103738170Y-56535000I-462J-2990000D01*
G01*
%TO.C,D6*%
X124312000Y-56662000D02*
X127402000Y-56662000D01*
X128357000Y-54102000D02*
G75*
G03*
X128357000Y-54102000I-2500000J0D01*
G01*
X125856538Y-51112000D02*
G75*
G02*
X127401830Y-56662000I462J-2990000D01*
G01*
X125857462Y-51112000D02*
G75*
G03*
X124312170Y-56662000I-462J-2990000D01*
G01*
%TO.C,D4*%
X144886000Y-56662000D02*
X147976000Y-56662000D01*
X148931000Y-54102000D02*
G75*
G03*
X148931000Y-54102000I-2500000J0D01*
G01*
X146430538Y-51112000D02*
G75*
G02*
X147975830Y-56662000I462J-2990000D01*
G01*
X146431462Y-51112000D02*
G75*
G03*
X144886170Y-56662000I-462J-2990000D01*
G01*
%TD*%
M02*
