%TF.GenerationSoftware,KiCad,Pcbnew,5.1.6-c6e7f7d~87~ubuntu18.04.1*%
%TF.CreationDate,2020-09-13T23:59:10+01:00*%
%TF.ProjectId,ActiveSplitterPedal_SOIC14,41637469-7665-4537-906c-697474657250,rev?*%
%TF.SameCoordinates,Original*%
%TF.FileFunction,Copper,L1,Top*%
%TF.FilePolarity,Positive*%
%FSLAX46Y46*%
G04 Gerber Fmt 4.6, Leading zero omitted, Abs format (unit mm)*
G04 Created by KiCad (PCBNEW 5.1.6-c6e7f7d~87~ubuntu18.04.1) date 2020-09-13 23:59:10*
%MOMM*%
%LPD*%
G01*
G04 APERTURE LIST*
%TA.AperFunction,Profile*%
%ADD10C,0.050000*%
%TD*%
%TA.AperFunction,ComponentPad*%
%ADD11C,2.500000*%
%TD*%
%TA.AperFunction,ComponentPad*%
%ADD12C,3.500000*%
%TD*%
%TA.AperFunction,ComponentPad*%
%ADD13C,1.800000*%
%TD*%
%TA.AperFunction,ComponentPad*%
%ADD14R,1.800000X1.800000*%
%TD*%
%TA.AperFunction,ComponentPad*%
%ADD15C,3.000000*%
%TD*%
%TA.AperFunction,ComponentPad*%
%ADD16R,3.500000X3.500000*%
%TD*%
%TA.AperFunction,ViaPad*%
%ADD17C,0.800000*%
%TD*%
%TA.AperFunction,Conductor*%
%ADD18C,0.500000*%
%TD*%
%TA.AperFunction,Conductor*%
%ADD19C,1.000000*%
%TD*%
%TA.AperFunction,Conductor*%
%ADD20C,0.400000*%
%TD*%
%TA.AperFunction,Conductor*%
%ADD21C,0.254000*%
%TD*%
G04 APERTURE END LIST*
D10*
X186309000Y-130429000D02*
X185674000Y-131064000D01*
X186309000Y-125349000D02*
X186309000Y-130429000D01*
X191770000Y-125349000D02*
X186309000Y-125349000D01*
X192405000Y-124714000D02*
X191770000Y-125349000D01*
X192405000Y-51054000D02*
X192405000Y-124714000D01*
X191770000Y-50419000D02*
X192405000Y-51054000D01*
X186309000Y-50419000D02*
X191770000Y-50419000D01*
X186309000Y-45275500D02*
X186309000Y-50419000D01*
X185674000Y-44640500D02*
X186309000Y-45275500D01*
X86614000Y-44640500D02*
X185674000Y-44640500D01*
X85979000Y-45275500D02*
X86614000Y-44640500D01*
X85979000Y-50419000D02*
X85979000Y-45275500D01*
X80518000Y-50419000D02*
X85979000Y-50419000D01*
X79883000Y-51054000D02*
X80518000Y-50419000D01*
X79883000Y-124777500D02*
X79883000Y-51054000D01*
X80518000Y-125412500D02*
X79883000Y-124777500D01*
X85979000Y-125412500D02*
X80518000Y-125412500D01*
X85979000Y-130429000D02*
X85979000Y-125412500D01*
X86614000Y-131064000D02*
X85979000Y-130429000D01*
X185674000Y-131064000D02*
X86614000Y-131064000D01*
%TO.P,R28,2*%
%TO.N,VCOM*%
%TA.AperFunction,SMDPad,CuDef*%
G36*
G01*
X95180999Y-67252000D02*
X96081001Y-67252000D01*
G75*
G02*
X96331000Y-67501999I0J-249999D01*
G01*
X96331000Y-68152001D01*
G75*
G02*
X96081001Y-68402000I-249999J0D01*
G01*
X95180999Y-68402000D01*
G75*
G02*
X94931000Y-68152001I0J249999D01*
G01*
X94931000Y-67501999D01*
G75*
G02*
X95180999Y-67252000I249999J0D01*
G01*
G37*
%TD.AperFunction*%
%TO.P,R28,1*%
%TO.N,Net-(J6-Pad2)*%
%TA.AperFunction,SMDPad,CuDef*%
G36*
G01*
X95180999Y-65202000D02*
X96081001Y-65202000D01*
G75*
G02*
X96331000Y-65451999I0J-249999D01*
G01*
X96331000Y-66102001D01*
G75*
G02*
X96081001Y-66352000I-249999J0D01*
G01*
X95180999Y-66352000D01*
G75*
G02*
X94931000Y-66102001I0J249999D01*
G01*
X94931000Y-65451999D01*
G75*
G02*
X95180999Y-65202000I249999J0D01*
G01*
G37*
%TD.AperFunction*%
%TD*%
%TO.P,R27,2*%
%TO.N,VCOM*%
%TA.AperFunction,SMDPad,CuDef*%
G36*
G01*
X116643999Y-67252000D02*
X117544001Y-67252000D01*
G75*
G02*
X117794000Y-67501999I0J-249999D01*
G01*
X117794000Y-68152001D01*
G75*
G02*
X117544001Y-68402000I-249999J0D01*
G01*
X116643999Y-68402000D01*
G75*
G02*
X116394000Y-68152001I0J249999D01*
G01*
X116394000Y-67501999D01*
G75*
G02*
X116643999Y-67252000I249999J0D01*
G01*
G37*
%TD.AperFunction*%
%TO.P,R27,1*%
%TO.N,Net-(J5-Pad2)*%
%TA.AperFunction,SMDPad,CuDef*%
G36*
G01*
X116643999Y-65202000D02*
X117544001Y-65202000D01*
G75*
G02*
X117794000Y-65451999I0J-249999D01*
G01*
X117794000Y-66102001D01*
G75*
G02*
X117544001Y-66352000I-249999J0D01*
G01*
X116643999Y-66352000D01*
G75*
G02*
X116394000Y-66102001I0J249999D01*
G01*
X116394000Y-65451999D01*
G75*
G02*
X116643999Y-65202000I249999J0D01*
G01*
G37*
%TD.AperFunction*%
%TD*%
%TO.P,R26,2*%
%TO.N,VCOM*%
%TA.AperFunction,SMDPad,CuDef*%
G36*
G01*
X136963999Y-67252000D02*
X137864001Y-67252000D01*
G75*
G02*
X138114000Y-67501999I0J-249999D01*
G01*
X138114000Y-68152001D01*
G75*
G02*
X137864001Y-68402000I-249999J0D01*
G01*
X136963999Y-68402000D01*
G75*
G02*
X136714000Y-68152001I0J249999D01*
G01*
X136714000Y-67501999D01*
G75*
G02*
X136963999Y-67252000I249999J0D01*
G01*
G37*
%TD.AperFunction*%
%TO.P,R26,1*%
%TO.N,Net-(J4-Pad2)*%
%TA.AperFunction,SMDPad,CuDef*%
G36*
G01*
X136963999Y-65202000D02*
X137864001Y-65202000D01*
G75*
G02*
X138114000Y-65451999I0J-249999D01*
G01*
X138114000Y-66102001D01*
G75*
G02*
X137864001Y-66352000I-249999J0D01*
G01*
X136963999Y-66352000D01*
G75*
G02*
X136714000Y-66102001I0J249999D01*
G01*
X136714000Y-65451999D01*
G75*
G02*
X136963999Y-65202000I249999J0D01*
G01*
G37*
%TD.AperFunction*%
%TD*%
%TO.P,R25,2*%
%TO.N,VCOM*%
%TA.AperFunction,SMDPad,CuDef*%
G36*
G01*
X157283999Y-67252000D02*
X158184001Y-67252000D01*
G75*
G02*
X158434000Y-67501999I0J-249999D01*
G01*
X158434000Y-68152001D01*
G75*
G02*
X158184001Y-68402000I-249999J0D01*
G01*
X157283999Y-68402000D01*
G75*
G02*
X157034000Y-68152001I0J249999D01*
G01*
X157034000Y-67501999D01*
G75*
G02*
X157283999Y-67252000I249999J0D01*
G01*
G37*
%TD.AperFunction*%
%TO.P,R25,1*%
%TO.N,Net-(J3-Pad2)*%
%TA.AperFunction,SMDPad,CuDef*%
G36*
G01*
X157283999Y-65202000D02*
X158184001Y-65202000D01*
G75*
G02*
X158434000Y-65451999I0J-249999D01*
G01*
X158434000Y-66102001D01*
G75*
G02*
X158184001Y-66352000I-249999J0D01*
G01*
X157283999Y-66352000D01*
G75*
G02*
X157034000Y-66102001I0J249999D01*
G01*
X157034000Y-65451999D01*
G75*
G02*
X157283999Y-65202000I249999J0D01*
G01*
G37*
%TD.AperFunction*%
%TD*%
D11*
%TO.P,RV1,1*%
%TO.N,Net-(R6-Pad2)*%
X168757600Y-69469000D03*
%TO.P,RV1,2*%
X165252400Y-69469000D03*
%TO.P,RV1,3*%
%TO.N,Net-(C14-Pad2)*%
X168757600Y-127965200D03*
D12*
%TO.P,RV1,*%
%TO.N,*%
X171196000Y-74803000D03*
X162839400Y-73609200D03*
X171196000Y-122605800D03*
X162814000Y-123825000D03*
%TD*%
D11*
%TO.P,RV2,1*%
%TO.N,Net-(R12-Pad2)*%
X148183600Y-69469000D03*
%TO.P,RV2,2*%
X144678400Y-69469000D03*
%TO.P,RV2,3*%
%TO.N,Net-(C25-Pad2)*%
X148183600Y-127965200D03*
D12*
%TO.P,RV2,*%
%TO.N,*%
X150622000Y-74803000D03*
X142265400Y-73609200D03*
X150622000Y-122605800D03*
X142240000Y-123825000D03*
%TD*%
D11*
%TO.P,RV3,1*%
%TO.N,Net-(R18-Pad2)*%
X127584200Y-69519800D03*
%TO.P,RV3,2*%
X124079000Y-69519800D03*
%TO.P,RV3,3*%
%TO.N,Net-(C36-Pad2)*%
X127584200Y-128016000D03*
D12*
%TO.P,RV3,*%
%TO.N,*%
X130022600Y-74853800D03*
X121666000Y-73660000D03*
X130022600Y-122656600D03*
X121640600Y-123875800D03*
%TD*%
D11*
%TO.P,RV4,1*%
%TO.N,Net-(R24-Pad2)*%
X107010200Y-69469000D03*
%TO.P,RV4,2*%
X103505000Y-69469000D03*
%TO.P,RV4,3*%
%TO.N,Net-(C47-Pad2)*%
X107010200Y-127965200D03*
D12*
%TO.P,RV4,*%
%TO.N,*%
X109448600Y-74803000D03*
X101092000Y-73609200D03*
X109448600Y-122605800D03*
X101066600Y-123825000D03*
%TD*%
D13*
%TO.P,D2,2*%
%TO.N,Net-(D2-Pad2)*%
X167005000Y-52705000D03*
D14*
%TO.P,D2,1*%
%TO.N,VCOM*%
X167005000Y-55245000D03*
%TD*%
D13*
%TO.P,D8,2*%
%TO.N,Net-(D8-Pad2)*%
X105283000Y-52705000D03*
D14*
%TO.P,D8,1*%
%TO.N,VCOM*%
X105283000Y-55245000D03*
%TD*%
D13*
%TO.P,D6,2*%
%TO.N,Net-(D6-Pad2)*%
X125857000Y-52832000D03*
D14*
%TO.P,D6,1*%
%TO.N,VCOM*%
X125857000Y-55372000D03*
%TD*%
D13*
%TO.P,D4,2*%
%TO.N,Net-(D4-Pad2)*%
X146431000Y-52832000D03*
D14*
%TO.P,D4,1*%
%TO.N,VCOM*%
X146431000Y-55372000D03*
%TD*%
D15*
%TO.P,J6,1*%
%TO.N,/sheet5F6AEF15/SIGNAL_INPUT*%
X112496600Y-61595000D03*
%TO.P,J6,2*%
%TO.N,Net-(J6-Pad2)*%
X101066600Y-61595000D03*
%TO.P,J6,3*%
%TO.N,VCOM*%
X101066600Y-48895000D03*
%TO.P,J6,4*%
X112496600Y-48895000D03*
%TD*%
%TO.P,J5,1*%
%TO.N,/sheet5F6A444D/SIGNAL_INPUT*%
X133096000Y-61658500D03*
%TO.P,J5,2*%
%TO.N,Net-(J5-Pad2)*%
X121666000Y-61658500D03*
%TO.P,J5,3*%
%TO.N,VCOM*%
X121666000Y-48958500D03*
%TO.P,J5,4*%
X133096000Y-48958500D03*
%TD*%
%TO.P,J4,1*%
%TO.N,/sheet5F6A30A3/SIGNAL_INPUT*%
X153619200Y-61658500D03*
%TO.P,J4,2*%
%TO.N,Net-(J4-Pad2)*%
X142189200Y-61658500D03*
%TO.P,J4,3*%
%TO.N,VCOM*%
X142189200Y-48958500D03*
%TO.P,J4,4*%
X153619200Y-48958500D03*
%TD*%
%TO.P,J3,1*%
%TO.N,/PeakDetector1/SIGNAL_INPUT*%
X174218600Y-61645800D03*
%TO.P,J3,2*%
%TO.N,Net-(J3-Pad2)*%
X162788600Y-61645800D03*
%TO.P,J3,3*%
%TO.N,VCOM*%
X162788600Y-48945800D03*
%TO.P,J3,4*%
X174218600Y-48945800D03*
%TD*%
%TO.P,J1,1*%
%TO.N,/InputBuffer1/SIGNAL_INPUT*%
X175196500Y-121031000D03*
%TO.P,J1,2*%
%TO.N,VCOM*%
X175196500Y-109601000D03*
%TO.P,J1,3*%
X187896500Y-109601000D03*
%TO.P,J1,4*%
X187896500Y-121031000D03*
%TD*%
%TO.P,J2,3*%
%TO.N,N/C*%
%TA.AperFunction,ComponentPad*%
G36*
G01*
X186931500Y-63515000D02*
X186931500Y-65265000D01*
G75*
G02*
X186056500Y-66140000I-875000J0D01*
G01*
X184306500Y-66140000D01*
G75*
G02*
X183431500Y-65265000I0J875000D01*
G01*
X183431500Y-63515000D01*
G75*
G02*
X184306500Y-62640000I875000J0D01*
G01*
X186056500Y-62640000D01*
G75*
G02*
X186931500Y-63515000I0J-875000D01*
G01*
G37*
%TD.AperFunction*%
%TO.P,J2,2*%
%TO.N,/PowerSupply/+9V_IN*%
%TA.AperFunction,ComponentPad*%
G36*
G01*
X189681500Y-58690000D02*
X189681500Y-60690000D01*
G75*
G02*
X188931500Y-61440000I-750000J0D01*
G01*
X187431500Y-61440000D01*
G75*
G02*
X186681500Y-60690000I0J750000D01*
G01*
X186681500Y-58690000D01*
G75*
G02*
X187431500Y-57940000I750000J0D01*
G01*
X188931500Y-57940000D01*
G75*
G02*
X189681500Y-58690000I0J-750000D01*
G01*
G37*
%TD.AperFunction*%
D16*
%TO.P,J2,1*%
%TO.N,GNDS*%
X182181500Y-59690000D03*
%TD*%
D17*
%TO.N,Net-(D2-Pad2)*%
X169672000Y-89916000D03*
X173482000Y-89916000D03*
%TO.N,Net-(D4-Pad2)*%
X152019000Y-90297000D03*
X147828000Y-90306012D03*
%TO.N,/PowerSupply/+9V_IN*%
X181991000Y-71755000D03*
%TO.N,Net-(D6-Pad2)*%
X131572000Y-90043000D03*
X128016000Y-90043000D03*
%TO.N,Net-(D8-Pad2)*%
X107442000Y-90170000D03*
X110617000Y-90170000D03*
%TO.N,VCOM*%
X146558000Y-106045000D03*
X125984000Y-106045000D03*
X105664000Y-106299000D03*
X167132000Y-106299000D03*
X134874000Y-105410000D03*
X155439000Y-105537000D03*
X114300000Y-105410000D03*
X93726000Y-106172000D03*
X112903000Y-109920000D03*
X92329000Y-109920000D03*
X133477000Y-109920000D03*
X154051000Y-109855000D03*
X185928000Y-86106000D03*
X174244000Y-95631000D03*
X146304000Y-80518000D03*
X167640000Y-80010000D03*
X105918000Y-79756000D03*
X125857000Y-79502000D03*
X187579000Y-101727000D03*
X178752500Y-102362000D03*
%TO.N,+3V3*%
X160147000Y-104902000D03*
X139446000Y-104775000D03*
X118872000Y-104648000D03*
X98298000Y-104648000D03*
X174117000Y-101854000D03*
%TO.N,-3V3*%
X154051000Y-117602000D03*
X133477000Y-117602000D03*
X112776000Y-117602000D03*
X92329000Y-117602000D03*
X94615000Y-89535000D03*
X115570000Y-89535000D03*
X157062000Y-89826000D03*
X136144000Y-89662000D03*
X168148000Y-117602000D03*
%TD*%
D18*
%TO.N,Net-(D2-Pad2)*%
X173482000Y-89916000D02*
X169672000Y-89916000D01*
%TO.N,Net-(D4-Pad2)*%
X147828000Y-90306012D02*
X152009988Y-90306012D01*
X152009988Y-90306012D02*
X152019000Y-90297000D01*
D19*
%TO.N,/PowerSupply/+9V_IN*%
X186436000Y-71755000D02*
X181991000Y-71755000D01*
X188181500Y-70009500D02*
X186436000Y-71755000D01*
X188181500Y-59690000D02*
X188181500Y-70009500D01*
D20*
%TO.N,Net-(D6-Pad2)*%
X130937000Y-90043000D02*
X131572000Y-90043000D01*
D18*
X128016000Y-90043000D02*
X131572000Y-90043000D01*
%TO.N,Net-(D8-Pad2)*%
X107442000Y-90170000D02*
X110617000Y-90170000D01*
D19*
%TO.N,+3V3*%
X118929000Y-102165000D02*
X118618000Y-101854000D01*
X139700000Y-101854000D02*
X118618000Y-101854000D01*
X160147000Y-104902000D02*
X160147000Y-101854000D01*
X139503000Y-102051000D02*
X139700000Y-101854000D01*
X139446000Y-104775000D02*
X139446000Y-102051000D01*
X118872000Y-102108000D02*
X118618000Y-101854000D01*
X118872000Y-104648000D02*
X118872000Y-102108000D01*
X174117000Y-101854000D02*
X139700000Y-101854000D01*
X101092000Y-101854000D02*
X98298000Y-104648000D01*
X118618000Y-101854000D02*
X101092000Y-101854000D01*
%TO.N,-3V3*%
X154051000Y-117602000D02*
X133477000Y-117602000D01*
X133477000Y-117602000D02*
X132062787Y-117602000D01*
X132062787Y-117602000D02*
X112776000Y-117602000D01*
X112776000Y-117602000D02*
X92201964Y-117602000D01*
X92201964Y-117602000D02*
X90170000Y-117602000D01*
X90170000Y-117602000D02*
X88138000Y-115570000D01*
X88138000Y-115570000D02*
X88138000Y-87376000D01*
X88138000Y-87376000D02*
X89662000Y-85852000D01*
X94615000Y-85979000D02*
X94488000Y-85852000D01*
X94615000Y-89535000D02*
X94615000Y-85979000D01*
X89662000Y-85852000D02*
X94488000Y-85852000D01*
X115570000Y-86106000D02*
X115824000Y-85852000D01*
X115570000Y-89535000D02*
X115570000Y-86106000D01*
X94488000Y-85852000D02*
X115824000Y-85852000D01*
X136144000Y-86106000D02*
X136398000Y-85852000D01*
X136144000Y-89662000D02*
X136144000Y-86106000D01*
X115824000Y-85852000D02*
X136398000Y-85852000D01*
X156972000Y-85852000D02*
X136398000Y-85852000D01*
X157062000Y-85942000D02*
X156972000Y-85852000D01*
X157062000Y-89826000D02*
X157062000Y-85942000D01*
X168148000Y-117602000D02*
X154051000Y-117602000D01*
D18*
%TO.N,Net-(J3-Pad2)*%
X157734000Y-65777000D02*
X157734000Y-63500000D01*
X159588200Y-61645800D02*
X162788600Y-61645800D01*
X157734000Y-63500000D02*
X159588200Y-61645800D01*
%TO.N,Net-(J4-Pad2)*%
X139890500Y-61658500D02*
X142189200Y-61658500D01*
X137414000Y-65777000D02*
X137414000Y-64135000D01*
X137414000Y-64135000D02*
X139890500Y-61658500D01*
%TO.N,Net-(J5-Pad2)*%
X118935500Y-61658500D02*
X121666000Y-61658500D01*
X117094000Y-65777000D02*
X117094000Y-63500000D01*
X117094000Y-63500000D02*
X118935500Y-61658500D01*
%TO.N,Net-(J6-Pad2)*%
X98298000Y-61595000D02*
X101066600Y-61595000D01*
X95631000Y-65777000D02*
X95631000Y-64262000D01*
X95631000Y-64262000D02*
X98298000Y-61595000D01*
%TD*%
D21*
%TO.N,VCOM*%
G36*
X185649000Y-45548881D02*
G01*
X185649001Y-50386571D01*
X185645807Y-50419000D01*
X185658550Y-50548383D01*
X185696290Y-50672793D01*
X185757575Y-50787450D01*
X185840052Y-50887948D01*
X185940550Y-50970425D01*
X186055207Y-51031710D01*
X186179617Y-51069450D01*
X186276581Y-51079000D01*
X186309000Y-51082193D01*
X186341419Y-51079000D01*
X191496620Y-51079000D01*
X191745000Y-51327381D01*
X191745001Y-124440618D01*
X191496620Y-124689000D01*
X186341419Y-124689000D01*
X186309000Y-124685807D01*
X186276581Y-124689000D01*
X186179617Y-124698550D01*
X186055207Y-124736290D01*
X185940550Y-124797575D01*
X185840052Y-124880052D01*
X185757575Y-124980550D01*
X185696290Y-125095207D01*
X185658550Y-125219617D01*
X185645807Y-125349000D01*
X185649000Y-125381419D01*
X185649001Y-130155618D01*
X185400620Y-130404000D01*
X86887381Y-130404000D01*
X86639000Y-130155620D01*
X86639000Y-127779544D01*
X105125200Y-127779544D01*
X105125200Y-128150856D01*
X105197639Y-128515034D01*
X105339734Y-128858082D01*
X105546025Y-129166818D01*
X105808582Y-129429375D01*
X106117318Y-129635666D01*
X106460366Y-129777761D01*
X106824544Y-129850200D01*
X107195856Y-129850200D01*
X107560034Y-129777761D01*
X107903082Y-129635666D01*
X108211818Y-129429375D01*
X108474375Y-129166818D01*
X108680666Y-128858082D01*
X108822761Y-128515034D01*
X108895200Y-128150856D01*
X108895200Y-127830344D01*
X125699200Y-127830344D01*
X125699200Y-128201656D01*
X125771639Y-128565834D01*
X125913734Y-128908882D01*
X126120025Y-129217618D01*
X126382582Y-129480175D01*
X126691318Y-129686466D01*
X127034366Y-129828561D01*
X127398544Y-129901000D01*
X127769856Y-129901000D01*
X128134034Y-129828561D01*
X128477082Y-129686466D01*
X128785818Y-129480175D01*
X129048375Y-129217618D01*
X129254666Y-128908882D01*
X129396761Y-128565834D01*
X129469200Y-128201656D01*
X129469200Y-127830344D01*
X129459096Y-127779544D01*
X146298600Y-127779544D01*
X146298600Y-128150856D01*
X146371039Y-128515034D01*
X146513134Y-128858082D01*
X146719425Y-129166818D01*
X146981982Y-129429375D01*
X147290718Y-129635666D01*
X147633766Y-129777761D01*
X147997944Y-129850200D01*
X148369256Y-129850200D01*
X148733434Y-129777761D01*
X149076482Y-129635666D01*
X149385218Y-129429375D01*
X149647775Y-129166818D01*
X149854066Y-128858082D01*
X149996161Y-128515034D01*
X150068600Y-128150856D01*
X150068600Y-127779544D01*
X166872600Y-127779544D01*
X166872600Y-128150856D01*
X166945039Y-128515034D01*
X167087134Y-128858082D01*
X167293425Y-129166818D01*
X167555982Y-129429375D01*
X167864718Y-129635666D01*
X168207766Y-129777761D01*
X168571944Y-129850200D01*
X168943256Y-129850200D01*
X169307434Y-129777761D01*
X169650482Y-129635666D01*
X169959218Y-129429375D01*
X170221775Y-129166818D01*
X170428066Y-128858082D01*
X170570161Y-128515034D01*
X170642600Y-128150856D01*
X170642600Y-127779544D01*
X170570161Y-127415366D01*
X170428066Y-127072318D01*
X170221775Y-126763582D01*
X169959218Y-126501025D01*
X169650482Y-126294734D01*
X169307434Y-126152639D01*
X168943256Y-126080200D01*
X168571944Y-126080200D01*
X168207766Y-126152639D01*
X167864718Y-126294734D01*
X167555982Y-126501025D01*
X167293425Y-126763582D01*
X167087134Y-127072318D01*
X166945039Y-127415366D01*
X166872600Y-127779544D01*
X150068600Y-127779544D01*
X149996161Y-127415366D01*
X149854066Y-127072318D01*
X149647775Y-126763582D01*
X149385218Y-126501025D01*
X149076482Y-126294734D01*
X148733434Y-126152639D01*
X148369256Y-126080200D01*
X147997944Y-126080200D01*
X147633766Y-126152639D01*
X147290718Y-126294734D01*
X146981982Y-126501025D01*
X146719425Y-126763582D01*
X146513134Y-127072318D01*
X146371039Y-127415366D01*
X146298600Y-127779544D01*
X129459096Y-127779544D01*
X129396761Y-127466166D01*
X129254666Y-127123118D01*
X129048375Y-126814382D01*
X128785818Y-126551825D01*
X128477082Y-126345534D01*
X128134034Y-126203439D01*
X127769856Y-126131000D01*
X127398544Y-126131000D01*
X127034366Y-126203439D01*
X126691318Y-126345534D01*
X126382582Y-126551825D01*
X126120025Y-126814382D01*
X125913734Y-127123118D01*
X125771639Y-127466166D01*
X125699200Y-127830344D01*
X108895200Y-127830344D01*
X108895200Y-127779544D01*
X108822761Y-127415366D01*
X108680666Y-127072318D01*
X108474375Y-126763582D01*
X108211818Y-126501025D01*
X107903082Y-126294734D01*
X107560034Y-126152639D01*
X107195856Y-126080200D01*
X106824544Y-126080200D01*
X106460366Y-126152639D01*
X106117318Y-126294734D01*
X105808582Y-126501025D01*
X105546025Y-126763582D01*
X105339734Y-127072318D01*
X105197639Y-127415366D01*
X105125200Y-127779544D01*
X86639000Y-127779544D01*
X86639000Y-125444919D01*
X86642193Y-125412500D01*
X86629450Y-125283117D01*
X86591710Y-125158707D01*
X86530425Y-125044050D01*
X86447948Y-124943552D01*
X86347450Y-124861075D01*
X86232793Y-124799790D01*
X86108383Y-124762050D01*
X86011419Y-124752500D01*
X85979000Y-124749307D01*
X85946581Y-124752500D01*
X80791381Y-124752500D01*
X80543000Y-124504120D01*
X80543000Y-123590098D01*
X98681600Y-123590098D01*
X98681600Y-124059902D01*
X98773254Y-124520679D01*
X98953040Y-124954721D01*
X99214050Y-125345349D01*
X99546251Y-125677550D01*
X99936879Y-125938560D01*
X100370921Y-126118346D01*
X100831698Y-126210000D01*
X101301502Y-126210000D01*
X101762279Y-126118346D01*
X102196321Y-125938560D01*
X102586949Y-125677550D01*
X102919150Y-125345349D01*
X103180160Y-124954721D01*
X103359946Y-124520679D01*
X103451600Y-124059902D01*
X103451600Y-123590098D01*
X103359946Y-123129321D01*
X103180160Y-122695279D01*
X102963415Y-122370898D01*
X107063600Y-122370898D01*
X107063600Y-122840702D01*
X107155254Y-123301479D01*
X107335040Y-123735521D01*
X107596050Y-124126149D01*
X107928251Y-124458350D01*
X108318879Y-124719360D01*
X108752921Y-124899146D01*
X109213698Y-124990800D01*
X109683502Y-124990800D01*
X110144279Y-124899146D01*
X110578321Y-124719360D01*
X110968949Y-124458350D01*
X111301150Y-124126149D01*
X111562160Y-123735521D01*
X111601354Y-123640898D01*
X119255600Y-123640898D01*
X119255600Y-124110702D01*
X119347254Y-124571479D01*
X119527040Y-125005521D01*
X119788050Y-125396149D01*
X120120251Y-125728350D01*
X120510879Y-125989360D01*
X120944921Y-126169146D01*
X121405698Y-126260800D01*
X121875502Y-126260800D01*
X122336279Y-126169146D01*
X122770321Y-125989360D01*
X123160949Y-125728350D01*
X123493150Y-125396149D01*
X123754160Y-125005521D01*
X123933946Y-124571479D01*
X124025600Y-124110702D01*
X124025600Y-123640898D01*
X123933946Y-123180121D01*
X123754160Y-122746079D01*
X123537415Y-122421698D01*
X127637600Y-122421698D01*
X127637600Y-122891502D01*
X127729254Y-123352279D01*
X127909040Y-123786321D01*
X128170050Y-124176949D01*
X128502251Y-124509150D01*
X128892879Y-124770160D01*
X129326921Y-124949946D01*
X129787698Y-125041600D01*
X130257502Y-125041600D01*
X130718279Y-124949946D01*
X131152321Y-124770160D01*
X131542949Y-124509150D01*
X131875150Y-124176949D01*
X132136160Y-123786321D01*
X132217438Y-123590098D01*
X139855000Y-123590098D01*
X139855000Y-124059902D01*
X139946654Y-124520679D01*
X140126440Y-124954721D01*
X140387450Y-125345349D01*
X140719651Y-125677550D01*
X141110279Y-125938560D01*
X141544321Y-126118346D01*
X142005098Y-126210000D01*
X142474902Y-126210000D01*
X142935679Y-126118346D01*
X143369721Y-125938560D01*
X143760349Y-125677550D01*
X144092550Y-125345349D01*
X144353560Y-124954721D01*
X144533346Y-124520679D01*
X144625000Y-124059902D01*
X144625000Y-123590098D01*
X144533346Y-123129321D01*
X144353560Y-122695279D01*
X144136815Y-122370898D01*
X148237000Y-122370898D01*
X148237000Y-122840702D01*
X148328654Y-123301479D01*
X148508440Y-123735521D01*
X148769450Y-124126149D01*
X149101651Y-124458350D01*
X149492279Y-124719360D01*
X149926321Y-124899146D01*
X150387098Y-124990800D01*
X150856902Y-124990800D01*
X151317679Y-124899146D01*
X151751721Y-124719360D01*
X152142349Y-124458350D01*
X152474550Y-124126149D01*
X152735560Y-123735521D01*
X152795796Y-123590098D01*
X160429000Y-123590098D01*
X160429000Y-124059902D01*
X160520654Y-124520679D01*
X160700440Y-124954721D01*
X160961450Y-125345349D01*
X161293651Y-125677550D01*
X161684279Y-125938560D01*
X162118321Y-126118346D01*
X162579098Y-126210000D01*
X163048902Y-126210000D01*
X163509679Y-126118346D01*
X163943721Y-125938560D01*
X164334349Y-125677550D01*
X164666550Y-125345349D01*
X164927560Y-124954721D01*
X165107346Y-124520679D01*
X165199000Y-124059902D01*
X165199000Y-123590098D01*
X165107346Y-123129321D01*
X164927560Y-122695279D01*
X164710815Y-122370898D01*
X168811000Y-122370898D01*
X168811000Y-122840702D01*
X168902654Y-123301479D01*
X169082440Y-123735521D01*
X169343450Y-124126149D01*
X169675651Y-124458350D01*
X170066279Y-124719360D01*
X170500321Y-124899146D01*
X170961098Y-124990800D01*
X171430902Y-124990800D01*
X171891679Y-124899146D01*
X172325721Y-124719360D01*
X172716349Y-124458350D01*
X173048550Y-124126149D01*
X173309560Y-123735521D01*
X173489346Y-123301479D01*
X173581000Y-122840702D01*
X173581000Y-122434846D01*
X173835517Y-122689363D01*
X174185198Y-122923012D01*
X174573744Y-123083953D01*
X174986221Y-123166000D01*
X175406779Y-123166000D01*
X175819256Y-123083953D01*
X176207802Y-122923012D01*
X176557483Y-122689363D01*
X176854863Y-122391983D01*
X177088512Y-122042302D01*
X177249453Y-121653756D01*
X177331500Y-121241279D01*
X177331500Y-120820721D01*
X177314092Y-120733205D01*
X177360198Y-120764012D01*
X177748744Y-120924953D01*
X178161221Y-121007000D01*
X178581779Y-121007000D01*
X178994256Y-120924953D01*
X179127003Y-120869967D01*
X183086500Y-120869967D01*
X183086500Y-121192033D01*
X183149332Y-121507912D01*
X183272582Y-121805463D01*
X183451513Y-122073252D01*
X183679248Y-122300987D01*
X183947037Y-122479918D01*
X184244588Y-122603168D01*
X184560467Y-122666000D01*
X184882533Y-122666000D01*
X185198412Y-122603168D01*
X185495963Y-122479918D01*
X185763752Y-122300987D01*
X185991487Y-122073252D01*
X186170418Y-121805463D01*
X186293668Y-121507912D01*
X186356500Y-121192033D01*
X186356500Y-120869967D01*
X186293668Y-120554088D01*
X186170418Y-120256537D01*
X185991487Y-119988748D01*
X185763752Y-119761013D01*
X185495963Y-119582082D01*
X185198412Y-119458832D01*
X184882533Y-119396000D01*
X184560467Y-119396000D01*
X184244588Y-119458832D01*
X183947037Y-119582082D01*
X183679248Y-119761013D01*
X183451513Y-119988748D01*
X183272582Y-120256537D01*
X183149332Y-120554088D01*
X183086500Y-120869967D01*
X179127003Y-120869967D01*
X179382802Y-120764012D01*
X179732483Y-120530363D01*
X180029863Y-120232983D01*
X180263512Y-119883302D01*
X180424453Y-119494756D01*
X180506500Y-119082279D01*
X180506500Y-118661721D01*
X180424453Y-118249244D01*
X180263512Y-117860698D01*
X180029863Y-117511017D01*
X179732483Y-117213637D01*
X179382802Y-116979988D01*
X178994256Y-116819047D01*
X178581779Y-116737000D01*
X178161221Y-116737000D01*
X177748744Y-116819047D01*
X177360198Y-116979988D01*
X177010517Y-117213637D01*
X176713137Y-117511017D01*
X176479488Y-117860698D01*
X176318547Y-118249244D01*
X176236500Y-118661721D01*
X176236500Y-119082279D01*
X176253908Y-119169795D01*
X176207802Y-119138988D01*
X175819256Y-118978047D01*
X175406779Y-118896000D01*
X174986221Y-118896000D01*
X174573744Y-118978047D01*
X174185198Y-119138988D01*
X173835517Y-119372637D01*
X173538137Y-119670017D01*
X173304488Y-120019698D01*
X173143547Y-120408244D01*
X173061500Y-120820721D01*
X173061500Y-121104832D01*
X173048550Y-121085451D01*
X172716349Y-120753250D01*
X172325721Y-120492240D01*
X171891679Y-120312454D01*
X171430902Y-120220800D01*
X170961098Y-120220800D01*
X170500321Y-120312454D01*
X170066279Y-120492240D01*
X169675651Y-120753250D01*
X169343450Y-121085451D01*
X169082440Y-121476079D01*
X168902654Y-121910121D01*
X168811000Y-122370898D01*
X164710815Y-122370898D01*
X164666550Y-122304651D01*
X164334349Y-121972450D01*
X163943721Y-121711440D01*
X163509679Y-121531654D01*
X163048902Y-121440000D01*
X162579098Y-121440000D01*
X162118321Y-121531654D01*
X161684279Y-121711440D01*
X161293651Y-121972450D01*
X160961450Y-122304651D01*
X160700440Y-122695279D01*
X160520654Y-123129321D01*
X160429000Y-123590098D01*
X152795796Y-123590098D01*
X152915346Y-123301479D01*
X153007000Y-122840702D01*
X153007000Y-122370898D01*
X152915346Y-121910121D01*
X152735560Y-121476079D01*
X152474550Y-121085451D01*
X152142349Y-120753250D01*
X151751721Y-120492240D01*
X151317679Y-120312454D01*
X150856902Y-120220800D01*
X150387098Y-120220800D01*
X149926321Y-120312454D01*
X149492279Y-120492240D01*
X149101651Y-120753250D01*
X148769450Y-121085451D01*
X148508440Y-121476079D01*
X148328654Y-121910121D01*
X148237000Y-122370898D01*
X144136815Y-122370898D01*
X144092550Y-122304651D01*
X143760349Y-121972450D01*
X143369721Y-121711440D01*
X142935679Y-121531654D01*
X142474902Y-121440000D01*
X142005098Y-121440000D01*
X141544321Y-121531654D01*
X141110279Y-121711440D01*
X140719651Y-121972450D01*
X140387450Y-122304651D01*
X140126440Y-122695279D01*
X139946654Y-123129321D01*
X139855000Y-123590098D01*
X132217438Y-123590098D01*
X132315946Y-123352279D01*
X132407600Y-122891502D01*
X132407600Y-122421698D01*
X132315946Y-121960921D01*
X132136160Y-121526879D01*
X131875150Y-121136251D01*
X131542949Y-120804050D01*
X131152321Y-120543040D01*
X130718279Y-120363254D01*
X130257502Y-120271600D01*
X129787698Y-120271600D01*
X129326921Y-120363254D01*
X128892879Y-120543040D01*
X128502251Y-120804050D01*
X128170050Y-121136251D01*
X127909040Y-121526879D01*
X127729254Y-121960921D01*
X127637600Y-122421698D01*
X123537415Y-122421698D01*
X123493150Y-122355451D01*
X123160949Y-122023250D01*
X122770321Y-121762240D01*
X122336279Y-121582454D01*
X121875502Y-121490800D01*
X121405698Y-121490800D01*
X120944921Y-121582454D01*
X120510879Y-121762240D01*
X120120251Y-122023250D01*
X119788050Y-122355451D01*
X119527040Y-122746079D01*
X119347254Y-123180121D01*
X119255600Y-123640898D01*
X111601354Y-123640898D01*
X111741946Y-123301479D01*
X111833600Y-122840702D01*
X111833600Y-122370898D01*
X111741946Y-121910121D01*
X111562160Y-121476079D01*
X111301150Y-121085451D01*
X110968949Y-120753250D01*
X110578321Y-120492240D01*
X110144279Y-120312454D01*
X109683502Y-120220800D01*
X109213698Y-120220800D01*
X108752921Y-120312454D01*
X108318879Y-120492240D01*
X107928251Y-120753250D01*
X107596050Y-121085451D01*
X107335040Y-121476079D01*
X107155254Y-121910121D01*
X107063600Y-122370898D01*
X102963415Y-122370898D01*
X102919150Y-122304651D01*
X102586949Y-121972450D01*
X102196321Y-121711440D01*
X101762279Y-121531654D01*
X101301502Y-121440000D01*
X100831698Y-121440000D01*
X100370921Y-121531654D01*
X99936879Y-121711440D01*
X99546251Y-121972450D01*
X99214050Y-122304651D01*
X98953040Y-122695279D01*
X98773254Y-123129321D01*
X98681600Y-123590098D01*
X80543000Y-123590098D01*
X80543000Y-87376000D01*
X86997509Y-87376000D01*
X87003001Y-87431762D01*
X87003000Y-115514249D01*
X86997509Y-115570000D01*
X87003000Y-115625751D01*
X87019423Y-115792498D01*
X87084324Y-116006446D01*
X87189716Y-116203623D01*
X87331551Y-116376449D01*
X87374865Y-116411996D01*
X89328009Y-118365141D01*
X89363551Y-118408449D01*
X89536377Y-118550284D01*
X89733553Y-118655676D01*
X89947501Y-118720577D01*
X90170000Y-118742491D01*
X90225751Y-118737000D01*
X168203752Y-118737000D01*
X168370499Y-118720577D01*
X168584447Y-118655676D01*
X168781623Y-118550284D01*
X168954449Y-118408449D01*
X169096284Y-118235623D01*
X169201676Y-118038447D01*
X169266577Y-117824499D01*
X169288491Y-117602000D01*
X169266577Y-117379501D01*
X169201676Y-117165553D01*
X169096284Y-116968377D01*
X168954449Y-116795551D01*
X168781623Y-116653716D01*
X168584447Y-116548324D01*
X168370499Y-116483423D01*
X168203752Y-116467000D01*
X90640132Y-116467000D01*
X89273000Y-115099869D01*
X89273000Y-109439967D01*
X183086500Y-109439967D01*
X183086500Y-109762033D01*
X183149332Y-110077912D01*
X183272582Y-110375463D01*
X183451513Y-110643252D01*
X183679248Y-110870987D01*
X183947037Y-111049918D01*
X184244588Y-111173168D01*
X184560467Y-111236000D01*
X184882533Y-111236000D01*
X185198412Y-111173168D01*
X185495963Y-111049918D01*
X185763752Y-110870987D01*
X185991487Y-110643252D01*
X186170418Y-110375463D01*
X186293668Y-110077912D01*
X186356500Y-109762033D01*
X186356500Y-109439967D01*
X186293668Y-109124088D01*
X186170418Y-108826537D01*
X185991487Y-108558748D01*
X185763752Y-108331013D01*
X185495963Y-108152082D01*
X185198412Y-108028832D01*
X184882533Y-107966000D01*
X184560467Y-107966000D01*
X184244588Y-108028832D01*
X183947037Y-108152082D01*
X183679248Y-108331013D01*
X183451513Y-108558748D01*
X183272582Y-108826537D01*
X183149332Y-109124088D01*
X183086500Y-109439967D01*
X89273000Y-109439967D01*
X89273000Y-104648000D01*
X97157509Y-104648000D01*
X97179423Y-104870498D01*
X97244324Y-105084446D01*
X97349717Y-105281622D01*
X97491552Y-105454448D01*
X97664378Y-105596283D01*
X97861554Y-105701676D01*
X98075502Y-105766577D01*
X98298000Y-105788491D01*
X98520498Y-105766577D01*
X98734446Y-105701676D01*
X98931622Y-105596283D01*
X99061143Y-105489988D01*
X101562133Y-102989000D01*
X117737001Y-102989000D01*
X117737000Y-104703751D01*
X117753423Y-104870498D01*
X117818324Y-105084446D01*
X117923716Y-105281623D01*
X118065551Y-105454449D01*
X118238377Y-105596284D01*
X118435553Y-105701676D01*
X118649501Y-105766577D01*
X118872000Y-105788491D01*
X119094498Y-105766577D01*
X119308446Y-105701676D01*
X119505623Y-105596284D01*
X119678449Y-105454449D01*
X119820284Y-105281623D01*
X119925676Y-105084447D01*
X119990577Y-104870499D01*
X120007000Y-104703752D01*
X120007000Y-102989000D01*
X138311001Y-102989000D01*
X138311000Y-104830751D01*
X138327423Y-104997498D01*
X138392324Y-105211446D01*
X138497716Y-105408623D01*
X138639551Y-105581449D01*
X138812377Y-105723284D01*
X139009553Y-105828676D01*
X139223501Y-105893577D01*
X139446000Y-105915491D01*
X139668498Y-105893577D01*
X139882446Y-105828676D01*
X140079623Y-105723284D01*
X140252449Y-105581449D01*
X140394284Y-105408623D01*
X140499676Y-105211447D01*
X140564577Y-104997499D01*
X140581000Y-104830752D01*
X140581000Y-102989000D01*
X159012001Y-102989000D01*
X159012000Y-104957751D01*
X159028423Y-105124498D01*
X159093324Y-105338446D01*
X159198716Y-105535623D01*
X159340551Y-105708449D01*
X159513377Y-105850284D01*
X159710553Y-105955676D01*
X159924501Y-106020577D01*
X160147000Y-106042491D01*
X160369498Y-106020577D01*
X160583446Y-105955676D01*
X160780623Y-105850284D01*
X160953449Y-105708449D01*
X161095284Y-105535623D01*
X161200676Y-105338447D01*
X161265577Y-105124499D01*
X161282000Y-104957752D01*
X161282000Y-102989000D01*
X174172752Y-102989000D01*
X174339499Y-102972577D01*
X174553447Y-102907676D01*
X174750623Y-102802284D01*
X174923449Y-102660449D01*
X175065284Y-102487623D01*
X175170676Y-102290447D01*
X175235577Y-102076499D01*
X175257491Y-101854000D01*
X175235577Y-101631501D01*
X175170676Y-101417553D01*
X175065284Y-101220377D01*
X174923449Y-101047551D01*
X174750623Y-100905716D01*
X174553447Y-100800324D01*
X174339499Y-100735423D01*
X174172752Y-100719000D01*
X160202752Y-100719000D01*
X160147000Y-100713509D01*
X160091249Y-100719000D01*
X139755751Y-100719000D01*
X139699999Y-100713509D01*
X139644248Y-100719000D01*
X118673751Y-100719000D01*
X118618000Y-100713509D01*
X118562249Y-100719000D01*
X101147752Y-100719000D01*
X101092000Y-100713509D01*
X100869501Y-100735423D01*
X100655553Y-100800324D01*
X100458377Y-100905716D01*
X100328856Y-101012011D01*
X100328855Y-101012012D01*
X100285551Y-101047551D01*
X100250013Y-101090854D01*
X97456012Y-103884857D01*
X97349717Y-104014378D01*
X97244324Y-104211554D01*
X97179423Y-104425502D01*
X97157509Y-104648000D01*
X89273000Y-104648000D01*
X89273000Y-87846131D01*
X90132132Y-86987000D01*
X93480001Y-86987000D01*
X93480000Y-89590751D01*
X93496423Y-89757498D01*
X93561324Y-89971446D01*
X93666716Y-90168623D01*
X93808551Y-90341449D01*
X93981377Y-90483284D01*
X94178553Y-90588676D01*
X94392501Y-90653577D01*
X94615000Y-90675491D01*
X94837498Y-90653577D01*
X95051446Y-90588676D01*
X95248623Y-90483284D01*
X95421449Y-90341449D01*
X95563284Y-90168623D01*
X95617035Y-90068061D01*
X106407000Y-90068061D01*
X106407000Y-90271939D01*
X106446774Y-90471898D01*
X106524795Y-90660256D01*
X106638063Y-90829774D01*
X106782226Y-90973937D01*
X106951744Y-91087205D01*
X107140102Y-91165226D01*
X107340061Y-91205000D01*
X107543939Y-91205000D01*
X107743898Y-91165226D01*
X107932256Y-91087205D01*
X107980454Y-91055000D01*
X110078546Y-91055000D01*
X110126744Y-91087205D01*
X110315102Y-91165226D01*
X110515061Y-91205000D01*
X110718939Y-91205000D01*
X110918898Y-91165226D01*
X111107256Y-91087205D01*
X111276774Y-90973937D01*
X111420937Y-90829774D01*
X111534205Y-90660256D01*
X111612226Y-90471898D01*
X111652000Y-90271939D01*
X111652000Y-90068061D01*
X111612226Y-89868102D01*
X111534205Y-89679744D01*
X111420937Y-89510226D01*
X111276774Y-89366063D01*
X111107256Y-89252795D01*
X110918898Y-89174774D01*
X110718939Y-89135000D01*
X110515061Y-89135000D01*
X110315102Y-89174774D01*
X110126744Y-89252795D01*
X110078546Y-89285000D01*
X107980454Y-89285000D01*
X107932256Y-89252795D01*
X107743898Y-89174774D01*
X107543939Y-89135000D01*
X107340061Y-89135000D01*
X107140102Y-89174774D01*
X106951744Y-89252795D01*
X106782226Y-89366063D01*
X106638063Y-89510226D01*
X106524795Y-89679744D01*
X106446774Y-89868102D01*
X106407000Y-90068061D01*
X95617035Y-90068061D01*
X95668676Y-89971447D01*
X95733577Y-89757499D01*
X95750000Y-89590752D01*
X95750000Y-86987000D01*
X114435001Y-86987000D01*
X114435000Y-89590751D01*
X114451423Y-89757498D01*
X114516324Y-89971446D01*
X114621716Y-90168623D01*
X114763551Y-90341449D01*
X114936377Y-90483284D01*
X115133553Y-90588676D01*
X115347501Y-90653577D01*
X115570000Y-90675491D01*
X115792498Y-90653577D01*
X116006446Y-90588676D01*
X116203623Y-90483284D01*
X116376449Y-90341449D01*
X116518284Y-90168623D01*
X116623676Y-89971447D01*
X116632893Y-89941061D01*
X126981000Y-89941061D01*
X126981000Y-90144939D01*
X127020774Y-90344898D01*
X127098795Y-90533256D01*
X127212063Y-90702774D01*
X127356226Y-90846937D01*
X127525744Y-90960205D01*
X127714102Y-91038226D01*
X127914061Y-91078000D01*
X128117939Y-91078000D01*
X128317898Y-91038226D01*
X128506256Y-90960205D01*
X128554454Y-90928000D01*
X131033546Y-90928000D01*
X131081744Y-90960205D01*
X131270102Y-91038226D01*
X131470061Y-91078000D01*
X131673939Y-91078000D01*
X131873898Y-91038226D01*
X132062256Y-90960205D01*
X132231774Y-90846937D01*
X132375937Y-90702774D01*
X132489205Y-90533256D01*
X132567226Y-90344898D01*
X132607000Y-90144939D01*
X132607000Y-89941061D01*
X132567226Y-89741102D01*
X132489205Y-89552744D01*
X132375937Y-89383226D01*
X132231774Y-89239063D01*
X132062256Y-89125795D01*
X131873898Y-89047774D01*
X131673939Y-89008000D01*
X131470061Y-89008000D01*
X131270102Y-89047774D01*
X131081744Y-89125795D01*
X131033546Y-89158000D01*
X128554454Y-89158000D01*
X128506256Y-89125795D01*
X128317898Y-89047774D01*
X128117939Y-89008000D01*
X127914061Y-89008000D01*
X127714102Y-89047774D01*
X127525744Y-89125795D01*
X127356226Y-89239063D01*
X127212063Y-89383226D01*
X127098795Y-89552744D01*
X127020774Y-89741102D01*
X126981000Y-89941061D01*
X116632893Y-89941061D01*
X116688577Y-89757499D01*
X116705000Y-89590752D01*
X116705000Y-86987000D01*
X135009001Y-86987000D01*
X135009000Y-89717751D01*
X135025423Y-89884498D01*
X135090324Y-90098446D01*
X135195716Y-90295623D01*
X135337551Y-90468449D01*
X135510377Y-90610284D01*
X135707553Y-90715676D01*
X135921501Y-90780577D01*
X136144000Y-90802491D01*
X136366498Y-90780577D01*
X136580446Y-90715676D01*
X136777623Y-90610284D01*
X136950449Y-90468449D01*
X137092284Y-90295623D01*
X137141218Y-90204073D01*
X146793000Y-90204073D01*
X146793000Y-90407951D01*
X146832774Y-90607910D01*
X146910795Y-90796268D01*
X147024063Y-90965786D01*
X147168226Y-91109949D01*
X147337744Y-91223217D01*
X147526102Y-91301238D01*
X147726061Y-91341012D01*
X147929939Y-91341012D01*
X148129898Y-91301238D01*
X148318256Y-91223217D01*
X148366454Y-91191012D01*
X151494033Y-91191012D01*
X151528744Y-91214205D01*
X151717102Y-91292226D01*
X151917061Y-91332000D01*
X152120939Y-91332000D01*
X152320898Y-91292226D01*
X152509256Y-91214205D01*
X152678774Y-91100937D01*
X152822937Y-90956774D01*
X152936205Y-90787256D01*
X153014226Y-90598898D01*
X153054000Y-90398939D01*
X153054000Y-90195061D01*
X153014226Y-89995102D01*
X152936205Y-89806744D01*
X152822937Y-89637226D01*
X152678774Y-89493063D01*
X152509256Y-89379795D01*
X152320898Y-89301774D01*
X152120939Y-89262000D01*
X151917061Y-89262000D01*
X151717102Y-89301774D01*
X151528744Y-89379795D01*
X151467058Y-89421012D01*
X148366454Y-89421012D01*
X148318256Y-89388807D01*
X148129898Y-89310786D01*
X147929939Y-89271012D01*
X147726061Y-89271012D01*
X147526102Y-89310786D01*
X147337744Y-89388807D01*
X147168226Y-89502075D01*
X147024063Y-89646238D01*
X146910795Y-89815756D01*
X146832774Y-90004114D01*
X146793000Y-90204073D01*
X137141218Y-90204073D01*
X137197676Y-90098447D01*
X137262577Y-89884499D01*
X137279000Y-89717752D01*
X137279000Y-86987000D01*
X155927001Y-86987000D01*
X155927000Y-89881751D01*
X155943423Y-90048498D01*
X156008324Y-90262446D01*
X156113716Y-90459623D01*
X156255551Y-90632449D01*
X156428377Y-90774284D01*
X156625553Y-90879676D01*
X156839501Y-90944577D01*
X157062000Y-90966491D01*
X157284498Y-90944577D01*
X157498446Y-90879676D01*
X157695623Y-90774284D01*
X157868449Y-90632449D01*
X158010284Y-90459623D01*
X158115676Y-90262447D01*
X158180577Y-90048499D01*
X158197000Y-89881752D01*
X158197000Y-89814061D01*
X168637000Y-89814061D01*
X168637000Y-90017939D01*
X168676774Y-90217898D01*
X168754795Y-90406256D01*
X168868063Y-90575774D01*
X169012226Y-90719937D01*
X169181744Y-90833205D01*
X169370102Y-90911226D01*
X169570061Y-90951000D01*
X169773939Y-90951000D01*
X169973898Y-90911226D01*
X170162256Y-90833205D01*
X170210454Y-90801000D01*
X172943546Y-90801000D01*
X172991744Y-90833205D01*
X173180102Y-90911226D01*
X173380061Y-90951000D01*
X173583939Y-90951000D01*
X173783898Y-90911226D01*
X173972256Y-90833205D01*
X174141774Y-90719937D01*
X174285937Y-90575774D01*
X174399205Y-90406256D01*
X174477226Y-90217898D01*
X174517000Y-90017939D01*
X174517000Y-89814061D01*
X174477226Y-89614102D01*
X174399205Y-89425744D01*
X174285937Y-89256226D01*
X174141774Y-89112063D01*
X173972256Y-88998795D01*
X173783898Y-88920774D01*
X173583939Y-88881000D01*
X173380061Y-88881000D01*
X173180102Y-88920774D01*
X172991744Y-88998795D01*
X172943546Y-89031000D01*
X170210454Y-89031000D01*
X170162256Y-88998795D01*
X169973898Y-88920774D01*
X169773939Y-88881000D01*
X169570061Y-88881000D01*
X169370102Y-88920774D01*
X169181744Y-88998795D01*
X169012226Y-89112063D01*
X168868063Y-89256226D01*
X168754795Y-89425744D01*
X168676774Y-89614102D01*
X168637000Y-89814061D01*
X158197000Y-89814061D01*
X158197000Y-85997743D01*
X158202490Y-85941999D01*
X158197000Y-85886255D01*
X158197000Y-85886248D01*
X158180577Y-85719501D01*
X158115676Y-85505553D01*
X158010284Y-85308377D01*
X157868449Y-85135551D01*
X157825135Y-85100004D01*
X157813996Y-85088865D01*
X157778449Y-85045551D01*
X157605623Y-84903716D01*
X157408447Y-84798324D01*
X157194499Y-84733423D01*
X157027752Y-84717000D01*
X157027751Y-84717000D01*
X156972000Y-84711509D01*
X156916249Y-84717000D01*
X136453741Y-84717000D01*
X136397999Y-84711510D01*
X136342257Y-84717000D01*
X115879741Y-84717000D01*
X115823999Y-84711510D01*
X115768257Y-84717000D01*
X94543751Y-84717000D01*
X94488000Y-84711509D01*
X94432249Y-84717000D01*
X89717741Y-84717000D01*
X89661999Y-84711510D01*
X89606257Y-84717000D01*
X89606248Y-84717000D01*
X89439501Y-84733423D01*
X89225553Y-84798324D01*
X89028377Y-84903716D01*
X88855551Y-85045551D01*
X88820009Y-85088860D01*
X87374860Y-86534009D01*
X87331552Y-86569551D01*
X87189717Y-86742377D01*
X87147699Y-86820988D01*
X87084324Y-86939554D01*
X87019423Y-87153502D01*
X86997509Y-87376000D01*
X80543000Y-87376000D01*
X80543000Y-73374298D01*
X98707000Y-73374298D01*
X98707000Y-73844102D01*
X98798654Y-74304879D01*
X98978440Y-74738921D01*
X99239450Y-75129549D01*
X99571651Y-75461750D01*
X99962279Y-75722760D01*
X100396321Y-75902546D01*
X100857098Y-75994200D01*
X101326902Y-75994200D01*
X101787679Y-75902546D01*
X102221721Y-75722760D01*
X102612349Y-75461750D01*
X102944550Y-75129549D01*
X103205560Y-74738921D01*
X103276317Y-74568098D01*
X107063600Y-74568098D01*
X107063600Y-75037902D01*
X107155254Y-75498679D01*
X107335040Y-75932721D01*
X107596050Y-76323349D01*
X107928251Y-76655550D01*
X108318879Y-76916560D01*
X108752921Y-77096346D01*
X109213698Y-77188000D01*
X109683502Y-77188000D01*
X110144279Y-77096346D01*
X110578321Y-76916560D01*
X110968949Y-76655550D01*
X111301150Y-76323349D01*
X111562160Y-75932721D01*
X111741946Y-75498679D01*
X111833600Y-75037902D01*
X111833600Y-74568098D01*
X111741946Y-74107321D01*
X111562160Y-73673279D01*
X111396331Y-73425098D01*
X119281000Y-73425098D01*
X119281000Y-73894902D01*
X119372654Y-74355679D01*
X119552440Y-74789721D01*
X119813450Y-75180349D01*
X120145651Y-75512550D01*
X120536279Y-75773560D01*
X120970321Y-75953346D01*
X121431098Y-76045000D01*
X121900902Y-76045000D01*
X122361679Y-75953346D01*
X122795721Y-75773560D01*
X123186349Y-75512550D01*
X123518550Y-75180349D01*
X123779560Y-74789721D01*
X123850317Y-74618898D01*
X127637600Y-74618898D01*
X127637600Y-75088702D01*
X127729254Y-75549479D01*
X127909040Y-75983521D01*
X128170050Y-76374149D01*
X128502251Y-76706350D01*
X128892879Y-76967360D01*
X129326921Y-77147146D01*
X129787698Y-77238800D01*
X130257502Y-77238800D01*
X130718279Y-77147146D01*
X131152321Y-76967360D01*
X131542949Y-76706350D01*
X131875150Y-76374149D01*
X132136160Y-75983521D01*
X132315946Y-75549479D01*
X132407600Y-75088702D01*
X132407600Y-74618898D01*
X132315946Y-74158121D01*
X132136160Y-73724079D01*
X131902444Y-73374298D01*
X139880400Y-73374298D01*
X139880400Y-73844102D01*
X139972054Y-74304879D01*
X140151840Y-74738921D01*
X140412850Y-75129549D01*
X140745051Y-75461750D01*
X141135679Y-75722760D01*
X141569721Y-75902546D01*
X142030498Y-75994200D01*
X142500302Y-75994200D01*
X142961079Y-75902546D01*
X143395121Y-75722760D01*
X143785749Y-75461750D01*
X144117950Y-75129549D01*
X144378960Y-74738921D01*
X144449717Y-74568098D01*
X148237000Y-74568098D01*
X148237000Y-75037902D01*
X148328654Y-75498679D01*
X148508440Y-75932721D01*
X148769450Y-76323349D01*
X149101651Y-76655550D01*
X149492279Y-76916560D01*
X149926321Y-77096346D01*
X150387098Y-77188000D01*
X150856902Y-77188000D01*
X151317679Y-77096346D01*
X151751721Y-76916560D01*
X152142349Y-76655550D01*
X152474550Y-76323349D01*
X152735560Y-75932721D01*
X152915346Y-75498679D01*
X153007000Y-75037902D01*
X153007000Y-74568098D01*
X152915346Y-74107321D01*
X152735560Y-73673279D01*
X152535787Y-73374298D01*
X160454400Y-73374298D01*
X160454400Y-73844102D01*
X160546054Y-74304879D01*
X160725840Y-74738921D01*
X160986850Y-75129549D01*
X161319051Y-75461750D01*
X161709679Y-75722760D01*
X162143721Y-75902546D01*
X162604498Y-75994200D01*
X163074302Y-75994200D01*
X163535079Y-75902546D01*
X163969121Y-75722760D01*
X164359749Y-75461750D01*
X164691950Y-75129549D01*
X164952960Y-74738921D01*
X165023717Y-74568098D01*
X168811000Y-74568098D01*
X168811000Y-75037902D01*
X168902654Y-75498679D01*
X169082440Y-75932721D01*
X169343450Y-76323349D01*
X169675651Y-76655550D01*
X170066279Y-76916560D01*
X170500321Y-77096346D01*
X170961098Y-77188000D01*
X171430902Y-77188000D01*
X171891679Y-77096346D01*
X172325721Y-76916560D01*
X172716349Y-76655550D01*
X173048550Y-76323349D01*
X173309560Y-75932721D01*
X173489346Y-75498679D01*
X173581000Y-75037902D01*
X173581000Y-74568098D01*
X173489346Y-74107321D01*
X173309560Y-73673279D01*
X173048550Y-73282651D01*
X172716349Y-72950450D01*
X172325721Y-72689440D01*
X171891679Y-72509654D01*
X171430902Y-72418000D01*
X170961098Y-72418000D01*
X170500321Y-72509654D01*
X170066279Y-72689440D01*
X169675651Y-72950450D01*
X169343450Y-73282651D01*
X169082440Y-73673279D01*
X168902654Y-74107321D01*
X168811000Y-74568098D01*
X165023717Y-74568098D01*
X165132746Y-74304879D01*
X165224400Y-73844102D01*
X165224400Y-73374298D01*
X165132746Y-72913521D01*
X164952960Y-72479479D01*
X164691950Y-72088851D01*
X164359749Y-71756650D01*
X163969121Y-71495640D01*
X163535079Y-71315854D01*
X163074302Y-71224200D01*
X162604498Y-71224200D01*
X162143721Y-71315854D01*
X161709679Y-71495640D01*
X161319051Y-71756650D01*
X160986850Y-72088851D01*
X160725840Y-72479479D01*
X160546054Y-72913521D01*
X160454400Y-73374298D01*
X152535787Y-73374298D01*
X152474550Y-73282651D01*
X152142349Y-72950450D01*
X151751721Y-72689440D01*
X151317679Y-72509654D01*
X150856902Y-72418000D01*
X150387098Y-72418000D01*
X149926321Y-72509654D01*
X149492279Y-72689440D01*
X149101651Y-72950450D01*
X148769450Y-73282651D01*
X148508440Y-73673279D01*
X148328654Y-74107321D01*
X148237000Y-74568098D01*
X144449717Y-74568098D01*
X144558746Y-74304879D01*
X144650400Y-73844102D01*
X144650400Y-73374298D01*
X144558746Y-72913521D01*
X144378960Y-72479479D01*
X144117950Y-72088851D01*
X143785749Y-71756650D01*
X143395121Y-71495640D01*
X142961079Y-71315854D01*
X142500302Y-71224200D01*
X142030498Y-71224200D01*
X141569721Y-71315854D01*
X141135679Y-71495640D01*
X140745051Y-71756650D01*
X140412850Y-72088851D01*
X140151840Y-72479479D01*
X139972054Y-72913521D01*
X139880400Y-73374298D01*
X131902444Y-73374298D01*
X131875150Y-73333451D01*
X131542949Y-73001250D01*
X131152321Y-72740240D01*
X130718279Y-72560454D01*
X130257502Y-72468800D01*
X129787698Y-72468800D01*
X129326921Y-72560454D01*
X128892879Y-72740240D01*
X128502251Y-73001250D01*
X128170050Y-73333451D01*
X127909040Y-73724079D01*
X127729254Y-74158121D01*
X127637600Y-74618898D01*
X123850317Y-74618898D01*
X123959346Y-74355679D01*
X124051000Y-73894902D01*
X124051000Y-73425098D01*
X123959346Y-72964321D01*
X123779560Y-72530279D01*
X123518550Y-72139651D01*
X123186349Y-71807450D01*
X122795721Y-71546440D01*
X122361679Y-71366654D01*
X121900902Y-71275000D01*
X121431098Y-71275000D01*
X120970321Y-71366654D01*
X120536279Y-71546440D01*
X120145651Y-71807450D01*
X119813450Y-72139651D01*
X119552440Y-72530279D01*
X119372654Y-72964321D01*
X119281000Y-73425098D01*
X111396331Y-73425098D01*
X111301150Y-73282651D01*
X110968949Y-72950450D01*
X110578321Y-72689440D01*
X110144279Y-72509654D01*
X109683502Y-72418000D01*
X109213698Y-72418000D01*
X108752921Y-72509654D01*
X108318879Y-72689440D01*
X107928251Y-72950450D01*
X107596050Y-73282651D01*
X107335040Y-73673279D01*
X107155254Y-74107321D01*
X107063600Y-74568098D01*
X103276317Y-74568098D01*
X103385346Y-74304879D01*
X103477000Y-73844102D01*
X103477000Y-73374298D01*
X103385346Y-72913521D01*
X103205560Y-72479479D01*
X102944550Y-72088851D01*
X102612349Y-71756650D01*
X102221721Y-71495640D01*
X101787679Y-71315854D01*
X101326902Y-71224200D01*
X100857098Y-71224200D01*
X100396321Y-71315854D01*
X99962279Y-71495640D01*
X99571651Y-71756650D01*
X99239450Y-72088851D01*
X98978440Y-72479479D01*
X98798654Y-72913521D01*
X98707000Y-73374298D01*
X80543000Y-73374298D01*
X80543000Y-69283344D01*
X101620000Y-69283344D01*
X101620000Y-69654656D01*
X101692439Y-70018834D01*
X101834534Y-70361882D01*
X102040825Y-70670618D01*
X102303382Y-70933175D01*
X102612118Y-71139466D01*
X102955166Y-71281561D01*
X103319344Y-71354000D01*
X103690656Y-71354000D01*
X104054834Y-71281561D01*
X104397882Y-71139466D01*
X104706618Y-70933175D01*
X104969175Y-70670618D01*
X105175466Y-70361882D01*
X105257600Y-70163593D01*
X105339734Y-70361882D01*
X105546025Y-70670618D01*
X105808582Y-70933175D01*
X106117318Y-71139466D01*
X106460366Y-71281561D01*
X106824544Y-71354000D01*
X107195856Y-71354000D01*
X107560034Y-71281561D01*
X107903082Y-71139466D01*
X108211818Y-70933175D01*
X108474375Y-70670618D01*
X108680666Y-70361882D01*
X108822761Y-70018834D01*
X108895200Y-69654656D01*
X108895200Y-69334144D01*
X122194000Y-69334144D01*
X122194000Y-69705456D01*
X122266439Y-70069634D01*
X122408534Y-70412682D01*
X122614825Y-70721418D01*
X122877382Y-70983975D01*
X123186118Y-71190266D01*
X123529166Y-71332361D01*
X123893344Y-71404800D01*
X124264656Y-71404800D01*
X124628834Y-71332361D01*
X124971882Y-71190266D01*
X125280618Y-70983975D01*
X125543175Y-70721418D01*
X125749466Y-70412682D01*
X125831600Y-70214393D01*
X125913734Y-70412682D01*
X126120025Y-70721418D01*
X126382582Y-70983975D01*
X126691318Y-71190266D01*
X127034366Y-71332361D01*
X127398544Y-71404800D01*
X127769856Y-71404800D01*
X128134034Y-71332361D01*
X128477082Y-71190266D01*
X128785818Y-70983975D01*
X129048375Y-70721418D01*
X129254666Y-70412682D01*
X129396761Y-70069634D01*
X129469200Y-69705456D01*
X129469200Y-69334144D01*
X129459096Y-69283344D01*
X142793400Y-69283344D01*
X142793400Y-69654656D01*
X142865839Y-70018834D01*
X143007934Y-70361882D01*
X143214225Y-70670618D01*
X143476782Y-70933175D01*
X143785518Y-71139466D01*
X144128566Y-71281561D01*
X144492744Y-71354000D01*
X144864056Y-71354000D01*
X145228234Y-71281561D01*
X145571282Y-71139466D01*
X145880018Y-70933175D01*
X146142575Y-70670618D01*
X146348866Y-70361882D01*
X146431000Y-70163593D01*
X146513134Y-70361882D01*
X146719425Y-70670618D01*
X146981982Y-70933175D01*
X147290718Y-71139466D01*
X147633766Y-71281561D01*
X147997944Y-71354000D01*
X148369256Y-71354000D01*
X148733434Y-71281561D01*
X149076482Y-71139466D01*
X149385218Y-70933175D01*
X149647775Y-70670618D01*
X149854066Y-70361882D01*
X149996161Y-70018834D01*
X150068600Y-69654656D01*
X150068600Y-69283344D01*
X163367400Y-69283344D01*
X163367400Y-69654656D01*
X163439839Y-70018834D01*
X163581934Y-70361882D01*
X163788225Y-70670618D01*
X164050782Y-70933175D01*
X164359518Y-71139466D01*
X164702566Y-71281561D01*
X165066744Y-71354000D01*
X165438056Y-71354000D01*
X165802234Y-71281561D01*
X166145282Y-71139466D01*
X166454018Y-70933175D01*
X166716575Y-70670618D01*
X166922866Y-70361882D01*
X167005000Y-70163593D01*
X167087134Y-70361882D01*
X167293425Y-70670618D01*
X167555982Y-70933175D01*
X167864718Y-71139466D01*
X168207766Y-71281561D01*
X168571944Y-71354000D01*
X168943256Y-71354000D01*
X169307434Y-71281561D01*
X169650482Y-71139466D01*
X169959218Y-70933175D01*
X170221775Y-70670618D01*
X170428066Y-70361882D01*
X170570161Y-70018834D01*
X170642600Y-69654656D01*
X170642600Y-69283344D01*
X170570161Y-68919166D01*
X170428066Y-68576118D01*
X170221775Y-68267382D01*
X169959218Y-68004825D01*
X169650482Y-67798534D01*
X169307434Y-67656439D01*
X168943256Y-67584000D01*
X168571944Y-67584000D01*
X168207766Y-67656439D01*
X167864718Y-67798534D01*
X167555982Y-68004825D01*
X167293425Y-68267382D01*
X167087134Y-68576118D01*
X167005000Y-68774407D01*
X166922866Y-68576118D01*
X166716575Y-68267382D01*
X166454018Y-68004825D01*
X166145282Y-67798534D01*
X165802234Y-67656439D01*
X165438056Y-67584000D01*
X165066744Y-67584000D01*
X164702566Y-67656439D01*
X164359518Y-67798534D01*
X164050782Y-68004825D01*
X163788225Y-68267382D01*
X163581934Y-68576118D01*
X163439839Y-68919166D01*
X163367400Y-69283344D01*
X150068600Y-69283344D01*
X149996161Y-68919166D01*
X149854066Y-68576118D01*
X149647775Y-68267382D01*
X149385218Y-68004825D01*
X149076482Y-67798534D01*
X148733434Y-67656439D01*
X148369256Y-67584000D01*
X147997944Y-67584000D01*
X147633766Y-67656439D01*
X147290718Y-67798534D01*
X146981982Y-68004825D01*
X146719425Y-68267382D01*
X146513134Y-68576118D01*
X146431000Y-68774407D01*
X146348866Y-68576118D01*
X146142575Y-68267382D01*
X145880018Y-68004825D01*
X145571282Y-67798534D01*
X145228234Y-67656439D01*
X144864056Y-67584000D01*
X144492744Y-67584000D01*
X144128566Y-67656439D01*
X143785518Y-67798534D01*
X143476782Y-68004825D01*
X143214225Y-68267382D01*
X143007934Y-68576118D01*
X142865839Y-68919166D01*
X142793400Y-69283344D01*
X129459096Y-69283344D01*
X129396761Y-68969966D01*
X129254666Y-68626918D01*
X129048375Y-68318182D01*
X128785818Y-68055625D01*
X128477082Y-67849334D01*
X128134034Y-67707239D01*
X127769856Y-67634800D01*
X127398544Y-67634800D01*
X127034366Y-67707239D01*
X126691318Y-67849334D01*
X126382582Y-68055625D01*
X126120025Y-68318182D01*
X125913734Y-68626918D01*
X125831600Y-68825207D01*
X125749466Y-68626918D01*
X125543175Y-68318182D01*
X125280618Y-68055625D01*
X124971882Y-67849334D01*
X124628834Y-67707239D01*
X124264656Y-67634800D01*
X123893344Y-67634800D01*
X123529166Y-67707239D01*
X123186118Y-67849334D01*
X122877382Y-68055625D01*
X122614825Y-68318182D01*
X122408534Y-68626918D01*
X122266439Y-68969966D01*
X122194000Y-69334144D01*
X108895200Y-69334144D01*
X108895200Y-69283344D01*
X108822761Y-68919166D01*
X108680666Y-68576118D01*
X108474375Y-68267382D01*
X108211818Y-68004825D01*
X107903082Y-67798534D01*
X107560034Y-67656439D01*
X107195856Y-67584000D01*
X106824544Y-67584000D01*
X106460366Y-67656439D01*
X106117318Y-67798534D01*
X105808582Y-68004825D01*
X105546025Y-68267382D01*
X105339734Y-68576118D01*
X105257600Y-68774407D01*
X105175466Y-68576118D01*
X104969175Y-68267382D01*
X104706618Y-68004825D01*
X104397882Y-67798534D01*
X104054834Y-67656439D01*
X103690656Y-67584000D01*
X103319344Y-67584000D01*
X102955166Y-67656439D01*
X102612118Y-67798534D01*
X102303382Y-68004825D01*
X102040825Y-68267382D01*
X101834534Y-68576118D01*
X101692439Y-68919166D01*
X101620000Y-69283344D01*
X80543000Y-69283344D01*
X80543000Y-65451999D01*
X94292928Y-65451999D01*
X94292928Y-66102001D01*
X94309992Y-66275255D01*
X94360528Y-66441851D01*
X94442595Y-66595387D01*
X94553038Y-66729962D01*
X94687613Y-66840405D01*
X94841149Y-66922472D01*
X95007745Y-66973008D01*
X95180999Y-66990072D01*
X96081001Y-66990072D01*
X96254255Y-66973008D01*
X96420851Y-66922472D01*
X96574387Y-66840405D01*
X96708962Y-66729962D01*
X96819405Y-66595387D01*
X96901472Y-66441851D01*
X96952008Y-66275255D01*
X96969072Y-66102001D01*
X96969072Y-65451999D01*
X115755928Y-65451999D01*
X115755928Y-66102001D01*
X115772992Y-66275255D01*
X115823528Y-66441851D01*
X115905595Y-66595387D01*
X116016038Y-66729962D01*
X116150613Y-66840405D01*
X116304149Y-66922472D01*
X116470745Y-66973008D01*
X116643999Y-66990072D01*
X117544001Y-66990072D01*
X117717255Y-66973008D01*
X117883851Y-66922472D01*
X118037387Y-66840405D01*
X118171962Y-66729962D01*
X118282405Y-66595387D01*
X118364472Y-66441851D01*
X118415008Y-66275255D01*
X118432072Y-66102001D01*
X118432072Y-65451999D01*
X136075928Y-65451999D01*
X136075928Y-66102001D01*
X136092992Y-66275255D01*
X136143528Y-66441851D01*
X136225595Y-66595387D01*
X136336038Y-66729962D01*
X136470613Y-66840405D01*
X136624149Y-66922472D01*
X136790745Y-66973008D01*
X136963999Y-66990072D01*
X137864001Y-66990072D01*
X138037255Y-66973008D01*
X138203851Y-66922472D01*
X138357387Y-66840405D01*
X138491962Y-66729962D01*
X138602405Y-66595387D01*
X138684472Y-66441851D01*
X138735008Y-66275255D01*
X138752072Y-66102001D01*
X138752072Y-65451999D01*
X156395928Y-65451999D01*
X156395928Y-66102001D01*
X156412992Y-66275255D01*
X156463528Y-66441851D01*
X156545595Y-66595387D01*
X156656038Y-66729962D01*
X156790613Y-66840405D01*
X156944149Y-66922472D01*
X157110745Y-66973008D01*
X157283999Y-66990072D01*
X158184001Y-66990072D01*
X158357255Y-66973008D01*
X158523851Y-66922472D01*
X158677387Y-66840405D01*
X158811962Y-66729962D01*
X158922405Y-66595387D01*
X159004472Y-66441851D01*
X159055008Y-66275255D01*
X159072072Y-66102001D01*
X159072072Y-65451999D01*
X159055008Y-65278745D01*
X159004472Y-65112149D01*
X158922405Y-64958613D01*
X158811962Y-64824038D01*
X158677387Y-64713595D01*
X158619000Y-64682386D01*
X158619000Y-63866578D01*
X159954779Y-62530800D01*
X160844272Y-62530800D01*
X160896588Y-62657102D01*
X161130237Y-63006783D01*
X161427617Y-63304163D01*
X161777298Y-63537812D01*
X162165844Y-63698753D01*
X162578321Y-63780800D01*
X162998879Y-63780800D01*
X163411356Y-63698753D01*
X163799902Y-63537812D01*
X164149583Y-63304163D01*
X164446963Y-63006783D01*
X164680612Y-62657102D01*
X164841553Y-62268556D01*
X164923600Y-61856079D01*
X164923600Y-61435521D01*
X164841553Y-61023044D01*
X164680612Y-60634498D01*
X164446963Y-60284817D01*
X164149583Y-59987437D01*
X163799902Y-59753788D01*
X163411356Y-59592847D01*
X162998879Y-59510800D01*
X162578321Y-59510800D01*
X162165844Y-59592847D01*
X161777298Y-59753788D01*
X161427617Y-59987437D01*
X161130237Y-60284817D01*
X160896588Y-60634498D01*
X160844272Y-60760800D01*
X159631669Y-60760800D01*
X159588200Y-60756519D01*
X159544731Y-60760800D01*
X159544723Y-60760800D01*
X159414710Y-60773605D01*
X159247887Y-60824211D01*
X159094141Y-60906389D01*
X158993153Y-60989268D01*
X158993151Y-60989270D01*
X158959383Y-61016983D01*
X158931670Y-61050751D01*
X157138951Y-62843471D01*
X157105184Y-62871183D01*
X157077471Y-62904951D01*
X157077468Y-62904954D01*
X156994590Y-63005941D01*
X156912412Y-63159687D01*
X156861805Y-63326510D01*
X156844719Y-63500000D01*
X156849001Y-63543479D01*
X156849000Y-64682386D01*
X156790613Y-64713595D01*
X156656038Y-64824038D01*
X156545595Y-64958613D01*
X156463528Y-65112149D01*
X156412992Y-65278745D01*
X156395928Y-65451999D01*
X138752072Y-65451999D01*
X138735008Y-65278745D01*
X138684472Y-65112149D01*
X138602405Y-64958613D01*
X138491962Y-64824038D01*
X138357387Y-64713595D01*
X138299000Y-64682386D01*
X138299000Y-64501578D01*
X140248447Y-62552132D01*
X140297188Y-62669802D01*
X140530837Y-63019483D01*
X140828217Y-63316863D01*
X141177898Y-63550512D01*
X141566444Y-63711453D01*
X141978921Y-63793500D01*
X142399479Y-63793500D01*
X142811956Y-63711453D01*
X143200502Y-63550512D01*
X143550183Y-63316863D01*
X143847563Y-63019483D01*
X144081212Y-62669802D01*
X144242153Y-62281256D01*
X144324200Y-61868779D01*
X144324200Y-61448221D01*
X144242153Y-61035744D01*
X144081212Y-60647198D01*
X143847563Y-60297517D01*
X143550183Y-60000137D01*
X143200502Y-59766488D01*
X142811956Y-59605547D01*
X142399479Y-59523500D01*
X141978921Y-59523500D01*
X141566444Y-59605547D01*
X141177898Y-59766488D01*
X140828217Y-60000137D01*
X140530837Y-60297517D01*
X140297188Y-60647198D01*
X140244872Y-60773500D01*
X139933969Y-60773500D01*
X139890500Y-60769219D01*
X139847031Y-60773500D01*
X139847023Y-60773500D01*
X139717010Y-60786305D01*
X139550187Y-60836911D01*
X139515243Y-60855589D01*
X139396441Y-60919089D01*
X139295453Y-61001968D01*
X139295451Y-61001970D01*
X139261683Y-61029683D01*
X139233970Y-61063451D01*
X136818951Y-63478471D01*
X136785184Y-63506183D01*
X136757471Y-63539951D01*
X136757468Y-63539954D01*
X136674590Y-63640941D01*
X136592412Y-63794687D01*
X136541805Y-63961510D01*
X136524719Y-64135000D01*
X136529001Y-64178479D01*
X136529001Y-64682386D01*
X136470613Y-64713595D01*
X136336038Y-64824038D01*
X136225595Y-64958613D01*
X136143528Y-65112149D01*
X136092992Y-65278745D01*
X136075928Y-65451999D01*
X118432072Y-65451999D01*
X118415008Y-65278745D01*
X118364472Y-65112149D01*
X118282405Y-64958613D01*
X118171962Y-64824038D01*
X118037387Y-64713595D01*
X117979000Y-64682386D01*
X117979000Y-63866578D01*
X119302079Y-62543500D01*
X119721672Y-62543500D01*
X119773988Y-62669802D01*
X120007637Y-63019483D01*
X120305017Y-63316863D01*
X120654698Y-63550512D01*
X121043244Y-63711453D01*
X121455721Y-63793500D01*
X121876279Y-63793500D01*
X122288756Y-63711453D01*
X122677302Y-63550512D01*
X123026983Y-63316863D01*
X123324363Y-63019483D01*
X123558012Y-62669802D01*
X123718953Y-62281256D01*
X123801000Y-61868779D01*
X123801000Y-61448221D01*
X123718953Y-61035744D01*
X123558012Y-60647198D01*
X123324363Y-60297517D01*
X123026983Y-60000137D01*
X122677302Y-59766488D01*
X122288756Y-59605547D01*
X121876279Y-59523500D01*
X121455721Y-59523500D01*
X121043244Y-59605547D01*
X120654698Y-59766488D01*
X120305017Y-60000137D01*
X120007637Y-60297517D01*
X119773988Y-60647198D01*
X119721672Y-60773500D01*
X118978965Y-60773500D01*
X118935499Y-60769219D01*
X118892033Y-60773500D01*
X118892023Y-60773500D01*
X118762010Y-60786305D01*
X118595187Y-60836911D01*
X118441441Y-60919089D01*
X118441439Y-60919090D01*
X118441440Y-60919090D01*
X118340453Y-61001968D01*
X118340451Y-61001970D01*
X118306683Y-61029683D01*
X118278970Y-61063451D01*
X116498951Y-62843471D01*
X116465184Y-62871183D01*
X116437471Y-62904951D01*
X116437468Y-62904954D01*
X116354590Y-63005941D01*
X116272412Y-63159687D01*
X116221805Y-63326510D01*
X116204719Y-63500000D01*
X116209001Y-63543479D01*
X116209000Y-64682386D01*
X116150613Y-64713595D01*
X116016038Y-64824038D01*
X115905595Y-64958613D01*
X115823528Y-65112149D01*
X115772992Y-65278745D01*
X115755928Y-65451999D01*
X96969072Y-65451999D01*
X96952008Y-65278745D01*
X96901472Y-65112149D01*
X96819405Y-64958613D01*
X96708962Y-64824038D01*
X96574387Y-64713595D01*
X96516000Y-64682386D01*
X96516000Y-64628578D01*
X98664579Y-62480000D01*
X99122272Y-62480000D01*
X99174588Y-62606302D01*
X99408237Y-62955983D01*
X99705617Y-63253363D01*
X100055298Y-63487012D01*
X100443844Y-63647953D01*
X100856321Y-63730000D01*
X101276879Y-63730000D01*
X101689356Y-63647953D01*
X102077902Y-63487012D01*
X102427583Y-63253363D01*
X102724963Y-62955983D01*
X102958612Y-62606302D01*
X103119553Y-62217756D01*
X103201600Y-61805279D01*
X103201600Y-61384721D01*
X103119553Y-60972244D01*
X102958612Y-60583698D01*
X102724963Y-60234017D01*
X102427583Y-59936637D01*
X102077902Y-59702988D01*
X101689356Y-59542047D01*
X101276879Y-59460000D01*
X100856321Y-59460000D01*
X100443844Y-59542047D01*
X100055298Y-59702988D01*
X99705617Y-59936637D01*
X99408237Y-60234017D01*
X99174588Y-60583698D01*
X99122272Y-60710000D01*
X98341469Y-60710000D01*
X98298000Y-60705719D01*
X98254531Y-60710000D01*
X98254523Y-60710000D01*
X98124510Y-60722805D01*
X97957686Y-60773411D01*
X97803941Y-60855589D01*
X97702953Y-60938468D01*
X97702951Y-60938470D01*
X97669183Y-60966183D01*
X97641470Y-60999951D01*
X95035951Y-63605471D01*
X95002184Y-63633183D01*
X94974471Y-63666951D01*
X94974468Y-63666954D01*
X94891590Y-63767941D01*
X94809412Y-63921687D01*
X94758805Y-64088510D01*
X94741719Y-64262000D01*
X94746001Y-64305479D01*
X94746001Y-64682386D01*
X94687613Y-64713595D01*
X94553038Y-64824038D01*
X94442595Y-64958613D01*
X94360528Y-65112149D01*
X94309992Y-65278745D01*
X94292928Y-65451999D01*
X80543000Y-65451999D01*
X80543000Y-58209721D01*
X108202600Y-58209721D01*
X108202600Y-58630279D01*
X108284647Y-59042756D01*
X108445588Y-59431302D01*
X108679237Y-59780983D01*
X108976617Y-60078363D01*
X109326298Y-60312012D01*
X109714844Y-60472953D01*
X110127321Y-60555000D01*
X110547879Y-60555000D01*
X110635395Y-60537592D01*
X110604588Y-60583698D01*
X110443647Y-60972244D01*
X110361600Y-61384721D01*
X110361600Y-61805279D01*
X110443647Y-62217756D01*
X110604588Y-62606302D01*
X110838237Y-62955983D01*
X111135617Y-63253363D01*
X111485298Y-63487012D01*
X111873844Y-63647953D01*
X112286321Y-63730000D01*
X112706879Y-63730000D01*
X113119356Y-63647953D01*
X113507902Y-63487012D01*
X113857583Y-63253363D01*
X114154963Y-62955983D01*
X114388612Y-62606302D01*
X114549553Y-62217756D01*
X114631600Y-61805279D01*
X114631600Y-61384721D01*
X114549553Y-60972244D01*
X114388612Y-60583698D01*
X114154963Y-60234017D01*
X113857583Y-59936637D01*
X113507902Y-59702988D01*
X113119356Y-59542047D01*
X112706879Y-59460000D01*
X112286321Y-59460000D01*
X112198805Y-59477408D01*
X112229612Y-59431302D01*
X112390553Y-59042756D01*
X112472600Y-58630279D01*
X112472600Y-58273221D01*
X128802000Y-58273221D01*
X128802000Y-58693779D01*
X128884047Y-59106256D01*
X129044988Y-59494802D01*
X129278637Y-59844483D01*
X129576017Y-60141863D01*
X129925698Y-60375512D01*
X130314244Y-60536453D01*
X130726721Y-60618500D01*
X131147279Y-60618500D01*
X131234795Y-60601092D01*
X131203988Y-60647198D01*
X131043047Y-61035744D01*
X130961000Y-61448221D01*
X130961000Y-61868779D01*
X131043047Y-62281256D01*
X131203988Y-62669802D01*
X131437637Y-63019483D01*
X131735017Y-63316863D01*
X132084698Y-63550512D01*
X132473244Y-63711453D01*
X132885721Y-63793500D01*
X133306279Y-63793500D01*
X133718756Y-63711453D01*
X134107302Y-63550512D01*
X134456983Y-63316863D01*
X134754363Y-63019483D01*
X134988012Y-62669802D01*
X135148953Y-62281256D01*
X135231000Y-61868779D01*
X135231000Y-61448221D01*
X135148953Y-61035744D01*
X134988012Y-60647198D01*
X134754363Y-60297517D01*
X134456983Y-60000137D01*
X134107302Y-59766488D01*
X133718756Y-59605547D01*
X133306279Y-59523500D01*
X132885721Y-59523500D01*
X132798205Y-59540908D01*
X132829012Y-59494802D01*
X132989953Y-59106256D01*
X133072000Y-58693779D01*
X133072000Y-58273221D01*
X149325200Y-58273221D01*
X149325200Y-58693779D01*
X149407247Y-59106256D01*
X149568188Y-59494802D01*
X149801837Y-59844483D01*
X150099217Y-60141863D01*
X150448898Y-60375512D01*
X150837444Y-60536453D01*
X151249921Y-60618500D01*
X151670479Y-60618500D01*
X151757995Y-60601092D01*
X151727188Y-60647198D01*
X151566247Y-61035744D01*
X151484200Y-61448221D01*
X151484200Y-61868779D01*
X151566247Y-62281256D01*
X151727188Y-62669802D01*
X151960837Y-63019483D01*
X152258217Y-63316863D01*
X152607898Y-63550512D01*
X152996444Y-63711453D01*
X153408921Y-63793500D01*
X153829479Y-63793500D01*
X154241956Y-63711453D01*
X154630502Y-63550512D01*
X154980183Y-63316863D01*
X155277563Y-63019483D01*
X155511212Y-62669802D01*
X155672153Y-62281256D01*
X155754200Y-61868779D01*
X155754200Y-61448221D01*
X155672153Y-61035744D01*
X155511212Y-60647198D01*
X155277563Y-60297517D01*
X154980183Y-60000137D01*
X154630502Y-59766488D01*
X154241956Y-59605547D01*
X153829479Y-59523500D01*
X153408921Y-59523500D01*
X153321405Y-59540908D01*
X153352212Y-59494802D01*
X153513153Y-59106256D01*
X153595200Y-58693779D01*
X153595200Y-58273221D01*
X153592674Y-58260521D01*
X169924600Y-58260521D01*
X169924600Y-58681079D01*
X170006647Y-59093556D01*
X170167588Y-59482102D01*
X170401237Y-59831783D01*
X170698617Y-60129163D01*
X171048298Y-60362812D01*
X171436844Y-60523753D01*
X171849321Y-60605800D01*
X172269879Y-60605800D01*
X172357395Y-60588392D01*
X172326588Y-60634498D01*
X172165647Y-61023044D01*
X172083600Y-61435521D01*
X172083600Y-61856079D01*
X172165647Y-62268556D01*
X172326588Y-62657102D01*
X172560237Y-63006783D01*
X172857617Y-63304163D01*
X173207298Y-63537812D01*
X173595844Y-63698753D01*
X174008321Y-63780800D01*
X174428879Y-63780800D01*
X174841356Y-63698753D01*
X175229902Y-63537812D01*
X175579583Y-63304163D01*
X175876963Y-63006783D01*
X176110612Y-62657102D01*
X176271553Y-62268556D01*
X176353600Y-61856079D01*
X176353600Y-61435521D01*
X176271553Y-61023044D01*
X176110612Y-60634498D01*
X175876963Y-60284817D01*
X175579583Y-59987437D01*
X175229902Y-59753788D01*
X174841356Y-59592847D01*
X174428879Y-59510800D01*
X174008321Y-59510800D01*
X173920805Y-59528208D01*
X173951612Y-59482102D01*
X174112553Y-59093556D01*
X174194600Y-58681079D01*
X174194600Y-58260521D01*
X174130845Y-57940000D01*
X179793428Y-57940000D01*
X179793428Y-61440000D01*
X179805688Y-61564482D01*
X179841998Y-61684180D01*
X179900963Y-61794494D01*
X179980315Y-61891185D01*
X180077006Y-61970537D01*
X180187320Y-62029502D01*
X180307018Y-62065812D01*
X180431500Y-62078072D01*
X183856143Y-62078072D01*
X183727472Y-62117104D01*
X183465882Y-62256927D01*
X183236597Y-62445097D01*
X183048427Y-62674382D01*
X182908604Y-62935972D01*
X182822501Y-63219814D01*
X182793428Y-63515000D01*
X182793428Y-65265000D01*
X182822501Y-65560186D01*
X182908604Y-65844028D01*
X183048427Y-66105618D01*
X183236597Y-66334903D01*
X183465882Y-66523073D01*
X183727472Y-66662896D01*
X184011314Y-66748999D01*
X184306500Y-66778072D01*
X186056500Y-66778072D01*
X186351686Y-66748999D01*
X186635528Y-66662896D01*
X186897118Y-66523073D01*
X187046501Y-66400477D01*
X187046501Y-69539367D01*
X185965869Y-70620000D01*
X181935248Y-70620000D01*
X181768501Y-70636423D01*
X181554553Y-70701324D01*
X181357377Y-70806716D01*
X181184551Y-70948551D01*
X181042716Y-71121377D01*
X180937324Y-71318553D01*
X180872423Y-71532501D01*
X180850509Y-71755000D01*
X180872423Y-71977499D01*
X180937324Y-72191447D01*
X181042716Y-72388623D01*
X181184551Y-72561449D01*
X181357377Y-72703284D01*
X181554553Y-72808676D01*
X181768501Y-72873577D01*
X181935248Y-72890000D01*
X186380249Y-72890000D01*
X186436000Y-72895491D01*
X186491751Y-72890000D01*
X186491752Y-72890000D01*
X186658499Y-72873577D01*
X186872447Y-72808676D01*
X187069623Y-72703284D01*
X187242449Y-72561449D01*
X187277996Y-72518135D01*
X188944640Y-70851491D01*
X188987949Y-70815949D01*
X189129784Y-70643123D01*
X189235176Y-70445947D01*
X189300077Y-70231999D01*
X189316500Y-70065252D01*
X189321991Y-70009500D01*
X189316500Y-69953748D01*
X189316500Y-62016758D01*
X189462692Y-61972411D01*
X189702671Y-61844140D01*
X189913015Y-61671515D01*
X190085640Y-61461171D01*
X190213911Y-61221192D01*
X190292901Y-60960799D01*
X190319572Y-60690000D01*
X190319572Y-58690000D01*
X190292901Y-58419201D01*
X190213911Y-58158808D01*
X190085640Y-57918829D01*
X189913015Y-57708485D01*
X189702671Y-57535860D01*
X189462692Y-57407589D01*
X189202299Y-57328599D01*
X188931500Y-57301928D01*
X187431500Y-57301928D01*
X187160701Y-57328599D01*
X186900308Y-57407589D01*
X186660329Y-57535860D01*
X186449985Y-57708485D01*
X186277360Y-57918829D01*
X186149089Y-58158808D01*
X186070099Y-58419201D01*
X186043428Y-58690000D01*
X186043428Y-60690000D01*
X186070099Y-60960799D01*
X186149089Y-61221192D01*
X186277360Y-61461171D01*
X186449985Y-61671515D01*
X186660329Y-61844140D01*
X186900308Y-61972411D01*
X187046500Y-62016758D01*
X187046500Y-62379522D01*
X186897118Y-62256927D01*
X186635528Y-62117104D01*
X186351686Y-62031001D01*
X186056500Y-62001928D01*
X184306500Y-62001928D01*
X184209369Y-62011494D01*
X184285994Y-61970537D01*
X184382685Y-61891185D01*
X184462037Y-61794494D01*
X184521002Y-61684180D01*
X184557312Y-61564482D01*
X184569572Y-61440000D01*
X184569572Y-57940000D01*
X184557312Y-57815518D01*
X184521002Y-57695820D01*
X184462037Y-57585506D01*
X184382685Y-57488815D01*
X184285994Y-57409463D01*
X184175680Y-57350498D01*
X184055982Y-57314188D01*
X183931500Y-57301928D01*
X180431500Y-57301928D01*
X180307018Y-57314188D01*
X180187320Y-57350498D01*
X180077006Y-57409463D01*
X179980315Y-57488815D01*
X179900963Y-57585506D01*
X179841998Y-57695820D01*
X179805688Y-57815518D01*
X179793428Y-57940000D01*
X174130845Y-57940000D01*
X174112553Y-57848044D01*
X173951612Y-57459498D01*
X173717963Y-57109817D01*
X173420583Y-56812437D01*
X173070902Y-56578788D01*
X172682356Y-56417847D01*
X172269879Y-56335800D01*
X171849321Y-56335800D01*
X171436844Y-56417847D01*
X171048298Y-56578788D01*
X170698617Y-56812437D01*
X170401237Y-57109817D01*
X170167588Y-57459498D01*
X170006647Y-57848044D01*
X169924600Y-58260521D01*
X153592674Y-58260521D01*
X153513153Y-57860744D01*
X153352212Y-57472198D01*
X153118563Y-57122517D01*
X152821183Y-56825137D01*
X152471502Y-56591488D01*
X152082956Y-56430547D01*
X151670479Y-56348500D01*
X151249921Y-56348500D01*
X150837444Y-56430547D01*
X150448898Y-56591488D01*
X150099217Y-56825137D01*
X149801837Y-57122517D01*
X149568188Y-57472198D01*
X149407247Y-57860744D01*
X149325200Y-58273221D01*
X133072000Y-58273221D01*
X132989953Y-57860744D01*
X132829012Y-57472198D01*
X132595363Y-57122517D01*
X132297983Y-56825137D01*
X131948302Y-56591488D01*
X131559756Y-56430547D01*
X131147279Y-56348500D01*
X130726721Y-56348500D01*
X130314244Y-56430547D01*
X129925698Y-56591488D01*
X129576017Y-56825137D01*
X129278637Y-57122517D01*
X129044988Y-57472198D01*
X128884047Y-57860744D01*
X128802000Y-58273221D01*
X112472600Y-58273221D01*
X112472600Y-58209721D01*
X112390553Y-57797244D01*
X112229612Y-57408698D01*
X111995963Y-57059017D01*
X111698583Y-56761637D01*
X111348902Y-56527988D01*
X110960356Y-56367047D01*
X110547879Y-56285000D01*
X110127321Y-56285000D01*
X109714844Y-56367047D01*
X109326298Y-56527988D01*
X108976617Y-56761637D01*
X108679237Y-57059017D01*
X108445588Y-57408698D01*
X108284647Y-57797244D01*
X108202600Y-58209721D01*
X80543000Y-58209721D01*
X80543000Y-51908967D01*
X99431600Y-51908967D01*
X99431600Y-52231033D01*
X99494432Y-52546912D01*
X99617682Y-52844463D01*
X99796613Y-53112252D01*
X100024348Y-53339987D01*
X100292137Y-53518918D01*
X100589688Y-53642168D01*
X100905567Y-53705000D01*
X101227633Y-53705000D01*
X101543512Y-53642168D01*
X101841063Y-53518918D01*
X102108852Y-53339987D01*
X102336587Y-53112252D01*
X102515518Y-52844463D01*
X102635908Y-52553816D01*
X103748000Y-52553816D01*
X103748000Y-52856184D01*
X103806989Y-53152743D01*
X103922701Y-53432095D01*
X104090688Y-53683505D01*
X104304495Y-53897312D01*
X104555905Y-54065299D01*
X104835257Y-54181011D01*
X105131816Y-54240000D01*
X105434184Y-54240000D01*
X105730743Y-54181011D01*
X106010095Y-54065299D01*
X106261505Y-53897312D01*
X106475312Y-53683505D01*
X106643299Y-53432095D01*
X106759011Y-53152743D01*
X106818000Y-52856184D01*
X106818000Y-52553816D01*
X106759011Y-52257257D01*
X106643299Y-51977905D01*
X106597237Y-51908967D01*
X110861600Y-51908967D01*
X110861600Y-52231033D01*
X110924432Y-52546912D01*
X111047682Y-52844463D01*
X111226613Y-53112252D01*
X111454348Y-53339987D01*
X111722137Y-53518918D01*
X112019688Y-53642168D01*
X112335567Y-53705000D01*
X112657633Y-53705000D01*
X112973512Y-53642168D01*
X113271063Y-53518918D01*
X113538852Y-53339987D01*
X113766587Y-53112252D01*
X113945518Y-52844463D01*
X114068768Y-52546912D01*
X114131600Y-52231033D01*
X114131600Y-51972467D01*
X120031000Y-51972467D01*
X120031000Y-52294533D01*
X120093832Y-52610412D01*
X120217082Y-52907963D01*
X120396013Y-53175752D01*
X120623748Y-53403487D01*
X120891537Y-53582418D01*
X121189088Y-53705668D01*
X121504967Y-53768500D01*
X121827033Y-53768500D01*
X122142912Y-53705668D01*
X122440463Y-53582418D01*
X122708252Y-53403487D01*
X122935987Y-53175752D01*
X123114918Y-52907963D01*
X123209005Y-52680816D01*
X124322000Y-52680816D01*
X124322000Y-52983184D01*
X124380989Y-53279743D01*
X124496701Y-53559095D01*
X124664688Y-53810505D01*
X124878495Y-54024312D01*
X125129905Y-54192299D01*
X125409257Y-54308011D01*
X125705816Y-54367000D01*
X126008184Y-54367000D01*
X126304743Y-54308011D01*
X126584095Y-54192299D01*
X126835505Y-54024312D01*
X127049312Y-53810505D01*
X127217299Y-53559095D01*
X127333011Y-53279743D01*
X127392000Y-52983184D01*
X127392000Y-52680816D01*
X127333011Y-52384257D01*
X127217299Y-52104905D01*
X127128807Y-51972467D01*
X131461000Y-51972467D01*
X131461000Y-52294533D01*
X131523832Y-52610412D01*
X131647082Y-52907963D01*
X131826013Y-53175752D01*
X132053748Y-53403487D01*
X132321537Y-53582418D01*
X132619088Y-53705668D01*
X132934967Y-53768500D01*
X133257033Y-53768500D01*
X133572912Y-53705668D01*
X133870463Y-53582418D01*
X134138252Y-53403487D01*
X134365987Y-53175752D01*
X134544918Y-52907963D01*
X134668168Y-52610412D01*
X134731000Y-52294533D01*
X134731000Y-51972467D01*
X140554200Y-51972467D01*
X140554200Y-52294533D01*
X140617032Y-52610412D01*
X140740282Y-52907963D01*
X140919213Y-53175752D01*
X141146948Y-53403487D01*
X141414737Y-53582418D01*
X141712288Y-53705668D01*
X142028167Y-53768500D01*
X142350233Y-53768500D01*
X142666112Y-53705668D01*
X142963663Y-53582418D01*
X143231452Y-53403487D01*
X143459187Y-53175752D01*
X143638118Y-52907963D01*
X143732205Y-52680816D01*
X144896000Y-52680816D01*
X144896000Y-52983184D01*
X144954989Y-53279743D01*
X145070701Y-53559095D01*
X145238688Y-53810505D01*
X145452495Y-54024312D01*
X145703905Y-54192299D01*
X145983257Y-54308011D01*
X146279816Y-54367000D01*
X146582184Y-54367000D01*
X146878743Y-54308011D01*
X147158095Y-54192299D01*
X147409505Y-54024312D01*
X147623312Y-53810505D01*
X147791299Y-53559095D01*
X147907011Y-53279743D01*
X147966000Y-52983184D01*
X147966000Y-52680816D01*
X147907011Y-52384257D01*
X147791299Y-52104905D01*
X147702807Y-51972467D01*
X151984200Y-51972467D01*
X151984200Y-52294533D01*
X152047032Y-52610412D01*
X152170282Y-52907963D01*
X152349213Y-53175752D01*
X152576948Y-53403487D01*
X152844737Y-53582418D01*
X153142288Y-53705668D01*
X153458167Y-53768500D01*
X153780233Y-53768500D01*
X154096112Y-53705668D01*
X154393663Y-53582418D01*
X154661452Y-53403487D01*
X154889187Y-53175752D01*
X155068118Y-52907963D01*
X155191368Y-52610412D01*
X155254200Y-52294533D01*
X155254200Y-51972467D01*
X155251674Y-51959767D01*
X161153600Y-51959767D01*
X161153600Y-52281833D01*
X161216432Y-52597712D01*
X161339682Y-52895263D01*
X161518613Y-53163052D01*
X161746348Y-53390787D01*
X162014137Y-53569718D01*
X162311688Y-53692968D01*
X162627567Y-53755800D01*
X162949633Y-53755800D01*
X163265512Y-53692968D01*
X163563063Y-53569718D01*
X163830852Y-53390787D01*
X164058587Y-53163052D01*
X164237518Y-52895263D01*
X164360768Y-52597712D01*
X164369499Y-52553816D01*
X165470000Y-52553816D01*
X165470000Y-52856184D01*
X165528989Y-53152743D01*
X165644701Y-53432095D01*
X165812688Y-53683505D01*
X166026495Y-53897312D01*
X166277905Y-54065299D01*
X166557257Y-54181011D01*
X166853816Y-54240000D01*
X167156184Y-54240000D01*
X167452743Y-54181011D01*
X167732095Y-54065299D01*
X167983505Y-53897312D01*
X168197312Y-53683505D01*
X168365299Y-53432095D01*
X168481011Y-53152743D01*
X168540000Y-52856184D01*
X168540000Y-52553816D01*
X168481011Y-52257257D01*
X168365299Y-51977905D01*
X168353180Y-51959767D01*
X172583600Y-51959767D01*
X172583600Y-52281833D01*
X172646432Y-52597712D01*
X172769682Y-52895263D01*
X172948613Y-53163052D01*
X173176348Y-53390787D01*
X173444137Y-53569718D01*
X173741688Y-53692968D01*
X174057567Y-53755800D01*
X174379633Y-53755800D01*
X174695512Y-53692968D01*
X174993063Y-53569718D01*
X175260852Y-53390787D01*
X175488587Y-53163052D01*
X175667518Y-52895263D01*
X175790768Y-52597712D01*
X175853600Y-52281833D01*
X175853600Y-51959767D01*
X175790768Y-51643888D01*
X175667518Y-51346337D01*
X175488587Y-51078548D01*
X175260852Y-50850813D01*
X174993063Y-50671882D01*
X174695512Y-50548632D01*
X174379633Y-50485800D01*
X174057567Y-50485800D01*
X173741688Y-50548632D01*
X173444137Y-50671882D01*
X173176348Y-50850813D01*
X172948613Y-51078548D01*
X172769682Y-51346337D01*
X172646432Y-51643888D01*
X172583600Y-51959767D01*
X168353180Y-51959767D01*
X168197312Y-51726495D01*
X167983505Y-51512688D01*
X167732095Y-51344701D01*
X167452743Y-51228989D01*
X167156184Y-51170000D01*
X166853816Y-51170000D01*
X166557257Y-51228989D01*
X166277905Y-51344701D01*
X166026495Y-51512688D01*
X165812688Y-51726495D01*
X165644701Y-51977905D01*
X165528989Y-52257257D01*
X165470000Y-52553816D01*
X164369499Y-52553816D01*
X164423600Y-52281833D01*
X164423600Y-51959767D01*
X164360768Y-51643888D01*
X164237518Y-51346337D01*
X164058587Y-51078548D01*
X163830852Y-50850813D01*
X163563063Y-50671882D01*
X163265512Y-50548632D01*
X162949633Y-50485800D01*
X162627567Y-50485800D01*
X162311688Y-50548632D01*
X162014137Y-50671882D01*
X161746348Y-50850813D01*
X161518613Y-51078548D01*
X161339682Y-51346337D01*
X161216432Y-51643888D01*
X161153600Y-51959767D01*
X155251674Y-51959767D01*
X155191368Y-51656588D01*
X155068118Y-51359037D01*
X154889187Y-51091248D01*
X154661452Y-50863513D01*
X154393663Y-50684582D01*
X154096112Y-50561332D01*
X153780233Y-50498500D01*
X153458167Y-50498500D01*
X153142288Y-50561332D01*
X152844737Y-50684582D01*
X152576948Y-50863513D01*
X152349213Y-51091248D01*
X152170282Y-51359037D01*
X152047032Y-51656588D01*
X151984200Y-51972467D01*
X147702807Y-51972467D01*
X147623312Y-51853495D01*
X147409505Y-51639688D01*
X147158095Y-51471701D01*
X146878743Y-51355989D01*
X146582184Y-51297000D01*
X146279816Y-51297000D01*
X145983257Y-51355989D01*
X145703905Y-51471701D01*
X145452495Y-51639688D01*
X145238688Y-51853495D01*
X145070701Y-52104905D01*
X144954989Y-52384257D01*
X144896000Y-52680816D01*
X143732205Y-52680816D01*
X143761368Y-52610412D01*
X143824200Y-52294533D01*
X143824200Y-51972467D01*
X143761368Y-51656588D01*
X143638118Y-51359037D01*
X143459187Y-51091248D01*
X143231452Y-50863513D01*
X142963663Y-50684582D01*
X142666112Y-50561332D01*
X142350233Y-50498500D01*
X142028167Y-50498500D01*
X141712288Y-50561332D01*
X141414737Y-50684582D01*
X141146948Y-50863513D01*
X140919213Y-51091248D01*
X140740282Y-51359037D01*
X140617032Y-51656588D01*
X140554200Y-51972467D01*
X134731000Y-51972467D01*
X134668168Y-51656588D01*
X134544918Y-51359037D01*
X134365987Y-51091248D01*
X134138252Y-50863513D01*
X133870463Y-50684582D01*
X133572912Y-50561332D01*
X133257033Y-50498500D01*
X132934967Y-50498500D01*
X132619088Y-50561332D01*
X132321537Y-50684582D01*
X132053748Y-50863513D01*
X131826013Y-51091248D01*
X131647082Y-51359037D01*
X131523832Y-51656588D01*
X131461000Y-51972467D01*
X127128807Y-51972467D01*
X127049312Y-51853495D01*
X126835505Y-51639688D01*
X126584095Y-51471701D01*
X126304743Y-51355989D01*
X126008184Y-51297000D01*
X125705816Y-51297000D01*
X125409257Y-51355989D01*
X125129905Y-51471701D01*
X124878495Y-51639688D01*
X124664688Y-51853495D01*
X124496701Y-52104905D01*
X124380989Y-52384257D01*
X124322000Y-52680816D01*
X123209005Y-52680816D01*
X123238168Y-52610412D01*
X123301000Y-52294533D01*
X123301000Y-51972467D01*
X123238168Y-51656588D01*
X123114918Y-51359037D01*
X122935987Y-51091248D01*
X122708252Y-50863513D01*
X122440463Y-50684582D01*
X122142912Y-50561332D01*
X121827033Y-50498500D01*
X121504967Y-50498500D01*
X121189088Y-50561332D01*
X120891537Y-50684582D01*
X120623748Y-50863513D01*
X120396013Y-51091248D01*
X120217082Y-51359037D01*
X120093832Y-51656588D01*
X120031000Y-51972467D01*
X114131600Y-51972467D01*
X114131600Y-51908967D01*
X114068768Y-51593088D01*
X113945518Y-51295537D01*
X113766587Y-51027748D01*
X113538852Y-50800013D01*
X113271063Y-50621082D01*
X112973512Y-50497832D01*
X112657633Y-50435000D01*
X112335567Y-50435000D01*
X112019688Y-50497832D01*
X111722137Y-50621082D01*
X111454348Y-50800013D01*
X111226613Y-51027748D01*
X111047682Y-51295537D01*
X110924432Y-51593088D01*
X110861600Y-51908967D01*
X106597237Y-51908967D01*
X106475312Y-51726495D01*
X106261505Y-51512688D01*
X106010095Y-51344701D01*
X105730743Y-51228989D01*
X105434184Y-51170000D01*
X105131816Y-51170000D01*
X104835257Y-51228989D01*
X104555905Y-51344701D01*
X104304495Y-51512688D01*
X104090688Y-51726495D01*
X103922701Y-51977905D01*
X103806989Y-52257257D01*
X103748000Y-52553816D01*
X102635908Y-52553816D01*
X102638768Y-52546912D01*
X102701600Y-52231033D01*
X102701600Y-51908967D01*
X102638768Y-51593088D01*
X102515518Y-51295537D01*
X102336587Y-51027748D01*
X102108852Y-50800013D01*
X101841063Y-50621082D01*
X101543512Y-50497832D01*
X101227633Y-50435000D01*
X100905567Y-50435000D01*
X100589688Y-50497832D01*
X100292137Y-50621082D01*
X100024348Y-50800013D01*
X99796613Y-51027748D01*
X99617682Y-51295537D01*
X99494432Y-51593088D01*
X99431600Y-51908967D01*
X80543000Y-51908967D01*
X80543000Y-51327380D01*
X80791381Y-51079000D01*
X85946581Y-51079000D01*
X85979000Y-51082193D01*
X86011419Y-51079000D01*
X86108383Y-51069450D01*
X86232793Y-51031710D01*
X86347450Y-50970425D01*
X86447948Y-50887948D01*
X86530425Y-50787450D01*
X86591710Y-50672793D01*
X86629450Y-50548383D01*
X86642193Y-50419000D01*
X86639000Y-50386581D01*
X86639000Y-45548880D01*
X86887381Y-45300500D01*
X185400620Y-45300500D01*
X185649000Y-45548881D01*
G37*
X185649000Y-45548881D02*
X185649001Y-50386571D01*
X185645807Y-50419000D01*
X185658550Y-50548383D01*
X185696290Y-50672793D01*
X185757575Y-50787450D01*
X185840052Y-50887948D01*
X185940550Y-50970425D01*
X186055207Y-51031710D01*
X186179617Y-51069450D01*
X186276581Y-51079000D01*
X186309000Y-51082193D01*
X186341419Y-51079000D01*
X191496620Y-51079000D01*
X191745000Y-51327381D01*
X191745001Y-124440618D01*
X191496620Y-124689000D01*
X186341419Y-124689000D01*
X186309000Y-124685807D01*
X186276581Y-124689000D01*
X186179617Y-124698550D01*
X186055207Y-124736290D01*
X185940550Y-124797575D01*
X185840052Y-124880052D01*
X185757575Y-124980550D01*
X185696290Y-125095207D01*
X185658550Y-125219617D01*
X185645807Y-125349000D01*
X185649000Y-125381419D01*
X185649001Y-130155618D01*
X185400620Y-130404000D01*
X86887381Y-130404000D01*
X86639000Y-130155620D01*
X86639000Y-127779544D01*
X105125200Y-127779544D01*
X105125200Y-128150856D01*
X105197639Y-128515034D01*
X105339734Y-128858082D01*
X105546025Y-129166818D01*
X105808582Y-129429375D01*
X106117318Y-129635666D01*
X106460366Y-129777761D01*
X106824544Y-129850200D01*
X107195856Y-129850200D01*
X107560034Y-129777761D01*
X107903082Y-129635666D01*
X108211818Y-129429375D01*
X108474375Y-129166818D01*
X108680666Y-128858082D01*
X108822761Y-128515034D01*
X108895200Y-128150856D01*
X108895200Y-127830344D01*
X125699200Y-127830344D01*
X125699200Y-128201656D01*
X125771639Y-128565834D01*
X125913734Y-128908882D01*
X126120025Y-129217618D01*
X126382582Y-129480175D01*
X126691318Y-129686466D01*
X127034366Y-129828561D01*
X127398544Y-129901000D01*
X127769856Y-129901000D01*
X128134034Y-129828561D01*
X128477082Y-129686466D01*
X128785818Y-129480175D01*
X129048375Y-129217618D01*
X129254666Y-128908882D01*
X129396761Y-128565834D01*
X129469200Y-128201656D01*
X129469200Y-127830344D01*
X129459096Y-127779544D01*
X146298600Y-127779544D01*
X146298600Y-128150856D01*
X146371039Y-128515034D01*
X146513134Y-128858082D01*
X146719425Y-129166818D01*
X146981982Y-129429375D01*
X147290718Y-129635666D01*
X147633766Y-129777761D01*
X147997944Y-129850200D01*
X148369256Y-129850200D01*
X148733434Y-129777761D01*
X149076482Y-129635666D01*
X149385218Y-129429375D01*
X149647775Y-129166818D01*
X149854066Y-128858082D01*
X149996161Y-128515034D01*
X150068600Y-128150856D01*
X150068600Y-127779544D01*
X166872600Y-127779544D01*
X166872600Y-128150856D01*
X166945039Y-128515034D01*
X167087134Y-128858082D01*
X167293425Y-129166818D01*
X167555982Y-129429375D01*
X167864718Y-129635666D01*
X168207766Y-129777761D01*
X168571944Y-129850200D01*
X168943256Y-129850200D01*
X169307434Y-129777761D01*
X169650482Y-129635666D01*
X169959218Y-129429375D01*
X170221775Y-129166818D01*
X170428066Y-128858082D01*
X170570161Y-128515034D01*
X170642600Y-128150856D01*
X170642600Y-127779544D01*
X170570161Y-127415366D01*
X170428066Y-127072318D01*
X170221775Y-126763582D01*
X169959218Y-126501025D01*
X169650482Y-126294734D01*
X169307434Y-126152639D01*
X168943256Y-126080200D01*
X168571944Y-126080200D01*
X168207766Y-126152639D01*
X167864718Y-126294734D01*
X167555982Y-126501025D01*
X167293425Y-126763582D01*
X167087134Y-127072318D01*
X166945039Y-127415366D01*
X166872600Y-127779544D01*
X150068600Y-127779544D01*
X149996161Y-127415366D01*
X149854066Y-127072318D01*
X149647775Y-126763582D01*
X149385218Y-126501025D01*
X149076482Y-126294734D01*
X148733434Y-126152639D01*
X148369256Y-126080200D01*
X147997944Y-126080200D01*
X147633766Y-126152639D01*
X147290718Y-126294734D01*
X146981982Y-126501025D01*
X146719425Y-126763582D01*
X146513134Y-127072318D01*
X146371039Y-127415366D01*
X146298600Y-127779544D01*
X129459096Y-127779544D01*
X129396761Y-127466166D01*
X129254666Y-127123118D01*
X129048375Y-126814382D01*
X128785818Y-126551825D01*
X128477082Y-126345534D01*
X128134034Y-126203439D01*
X127769856Y-126131000D01*
X127398544Y-126131000D01*
X127034366Y-126203439D01*
X126691318Y-126345534D01*
X126382582Y-126551825D01*
X126120025Y-126814382D01*
X125913734Y-127123118D01*
X125771639Y-127466166D01*
X125699200Y-127830344D01*
X108895200Y-127830344D01*
X108895200Y-127779544D01*
X108822761Y-127415366D01*
X108680666Y-127072318D01*
X108474375Y-126763582D01*
X108211818Y-126501025D01*
X107903082Y-126294734D01*
X107560034Y-126152639D01*
X107195856Y-126080200D01*
X106824544Y-126080200D01*
X106460366Y-126152639D01*
X106117318Y-126294734D01*
X105808582Y-126501025D01*
X105546025Y-126763582D01*
X105339734Y-127072318D01*
X105197639Y-127415366D01*
X105125200Y-127779544D01*
X86639000Y-127779544D01*
X86639000Y-125444919D01*
X86642193Y-125412500D01*
X86629450Y-125283117D01*
X86591710Y-125158707D01*
X86530425Y-125044050D01*
X86447948Y-124943552D01*
X86347450Y-124861075D01*
X86232793Y-124799790D01*
X86108383Y-124762050D01*
X86011419Y-124752500D01*
X85979000Y-124749307D01*
X85946581Y-124752500D01*
X80791381Y-124752500D01*
X80543000Y-124504120D01*
X80543000Y-123590098D01*
X98681600Y-123590098D01*
X98681600Y-124059902D01*
X98773254Y-124520679D01*
X98953040Y-124954721D01*
X99214050Y-125345349D01*
X99546251Y-125677550D01*
X99936879Y-125938560D01*
X100370921Y-126118346D01*
X100831698Y-126210000D01*
X101301502Y-126210000D01*
X101762279Y-126118346D01*
X102196321Y-125938560D01*
X102586949Y-125677550D01*
X102919150Y-125345349D01*
X103180160Y-124954721D01*
X103359946Y-124520679D01*
X103451600Y-124059902D01*
X103451600Y-123590098D01*
X103359946Y-123129321D01*
X103180160Y-122695279D01*
X102963415Y-122370898D01*
X107063600Y-122370898D01*
X107063600Y-122840702D01*
X107155254Y-123301479D01*
X107335040Y-123735521D01*
X107596050Y-124126149D01*
X107928251Y-124458350D01*
X108318879Y-124719360D01*
X108752921Y-124899146D01*
X109213698Y-124990800D01*
X109683502Y-124990800D01*
X110144279Y-124899146D01*
X110578321Y-124719360D01*
X110968949Y-124458350D01*
X111301150Y-124126149D01*
X111562160Y-123735521D01*
X111601354Y-123640898D01*
X119255600Y-123640898D01*
X119255600Y-124110702D01*
X119347254Y-124571479D01*
X119527040Y-125005521D01*
X119788050Y-125396149D01*
X120120251Y-125728350D01*
X120510879Y-125989360D01*
X120944921Y-126169146D01*
X121405698Y-126260800D01*
X121875502Y-126260800D01*
X122336279Y-126169146D01*
X122770321Y-125989360D01*
X123160949Y-125728350D01*
X123493150Y-125396149D01*
X123754160Y-125005521D01*
X123933946Y-124571479D01*
X124025600Y-124110702D01*
X124025600Y-123640898D01*
X123933946Y-123180121D01*
X123754160Y-122746079D01*
X123537415Y-122421698D01*
X127637600Y-122421698D01*
X127637600Y-122891502D01*
X127729254Y-123352279D01*
X127909040Y-123786321D01*
X128170050Y-124176949D01*
X128502251Y-124509150D01*
X128892879Y-124770160D01*
X129326921Y-124949946D01*
X129787698Y-125041600D01*
X130257502Y-125041600D01*
X130718279Y-124949946D01*
X131152321Y-124770160D01*
X131542949Y-124509150D01*
X131875150Y-124176949D01*
X132136160Y-123786321D01*
X132217438Y-123590098D01*
X139855000Y-123590098D01*
X139855000Y-124059902D01*
X139946654Y-124520679D01*
X140126440Y-124954721D01*
X140387450Y-125345349D01*
X140719651Y-125677550D01*
X141110279Y-125938560D01*
X141544321Y-126118346D01*
X142005098Y-126210000D01*
X142474902Y-126210000D01*
X142935679Y-126118346D01*
X143369721Y-125938560D01*
X143760349Y-125677550D01*
X144092550Y-125345349D01*
X144353560Y-124954721D01*
X144533346Y-124520679D01*
X144625000Y-124059902D01*
X144625000Y-123590098D01*
X144533346Y-123129321D01*
X144353560Y-122695279D01*
X144136815Y-122370898D01*
X148237000Y-122370898D01*
X148237000Y-122840702D01*
X148328654Y-123301479D01*
X148508440Y-123735521D01*
X148769450Y-124126149D01*
X149101651Y-124458350D01*
X149492279Y-124719360D01*
X149926321Y-124899146D01*
X150387098Y-124990800D01*
X150856902Y-124990800D01*
X151317679Y-124899146D01*
X151751721Y-124719360D01*
X152142349Y-124458350D01*
X152474550Y-124126149D01*
X152735560Y-123735521D01*
X152795796Y-123590098D01*
X160429000Y-123590098D01*
X160429000Y-124059902D01*
X160520654Y-124520679D01*
X160700440Y-124954721D01*
X160961450Y-125345349D01*
X161293651Y-125677550D01*
X161684279Y-125938560D01*
X162118321Y-126118346D01*
X162579098Y-126210000D01*
X163048902Y-126210000D01*
X163509679Y-126118346D01*
X163943721Y-125938560D01*
X164334349Y-125677550D01*
X164666550Y-125345349D01*
X164927560Y-124954721D01*
X165107346Y-124520679D01*
X165199000Y-124059902D01*
X165199000Y-123590098D01*
X165107346Y-123129321D01*
X164927560Y-122695279D01*
X164710815Y-122370898D01*
X168811000Y-122370898D01*
X168811000Y-122840702D01*
X168902654Y-123301479D01*
X169082440Y-123735521D01*
X169343450Y-124126149D01*
X169675651Y-124458350D01*
X170066279Y-124719360D01*
X170500321Y-124899146D01*
X170961098Y-124990800D01*
X171430902Y-124990800D01*
X171891679Y-124899146D01*
X172325721Y-124719360D01*
X172716349Y-124458350D01*
X173048550Y-124126149D01*
X173309560Y-123735521D01*
X173489346Y-123301479D01*
X173581000Y-122840702D01*
X173581000Y-122434846D01*
X173835517Y-122689363D01*
X174185198Y-122923012D01*
X174573744Y-123083953D01*
X174986221Y-123166000D01*
X175406779Y-123166000D01*
X175819256Y-123083953D01*
X176207802Y-122923012D01*
X176557483Y-122689363D01*
X176854863Y-122391983D01*
X177088512Y-122042302D01*
X177249453Y-121653756D01*
X177331500Y-121241279D01*
X177331500Y-120820721D01*
X177314092Y-120733205D01*
X177360198Y-120764012D01*
X177748744Y-120924953D01*
X178161221Y-121007000D01*
X178581779Y-121007000D01*
X178994256Y-120924953D01*
X179127003Y-120869967D01*
X183086500Y-120869967D01*
X183086500Y-121192033D01*
X183149332Y-121507912D01*
X183272582Y-121805463D01*
X183451513Y-122073252D01*
X183679248Y-122300987D01*
X183947037Y-122479918D01*
X184244588Y-122603168D01*
X184560467Y-122666000D01*
X184882533Y-122666000D01*
X185198412Y-122603168D01*
X185495963Y-122479918D01*
X185763752Y-122300987D01*
X185991487Y-122073252D01*
X186170418Y-121805463D01*
X186293668Y-121507912D01*
X186356500Y-121192033D01*
X186356500Y-120869967D01*
X186293668Y-120554088D01*
X186170418Y-120256537D01*
X185991487Y-119988748D01*
X185763752Y-119761013D01*
X185495963Y-119582082D01*
X185198412Y-119458832D01*
X184882533Y-119396000D01*
X184560467Y-119396000D01*
X184244588Y-119458832D01*
X183947037Y-119582082D01*
X183679248Y-119761013D01*
X183451513Y-119988748D01*
X183272582Y-120256537D01*
X183149332Y-120554088D01*
X183086500Y-120869967D01*
X179127003Y-120869967D01*
X179382802Y-120764012D01*
X179732483Y-120530363D01*
X180029863Y-120232983D01*
X180263512Y-119883302D01*
X180424453Y-119494756D01*
X180506500Y-119082279D01*
X180506500Y-118661721D01*
X180424453Y-118249244D01*
X180263512Y-117860698D01*
X180029863Y-117511017D01*
X179732483Y-117213637D01*
X179382802Y-116979988D01*
X178994256Y-116819047D01*
X178581779Y-116737000D01*
X178161221Y-116737000D01*
X177748744Y-116819047D01*
X177360198Y-116979988D01*
X177010517Y-117213637D01*
X176713137Y-117511017D01*
X176479488Y-117860698D01*
X176318547Y-118249244D01*
X176236500Y-118661721D01*
X176236500Y-119082279D01*
X176253908Y-119169795D01*
X176207802Y-119138988D01*
X175819256Y-118978047D01*
X175406779Y-118896000D01*
X174986221Y-118896000D01*
X174573744Y-118978047D01*
X174185198Y-119138988D01*
X173835517Y-119372637D01*
X173538137Y-119670017D01*
X173304488Y-120019698D01*
X173143547Y-120408244D01*
X173061500Y-120820721D01*
X173061500Y-121104832D01*
X173048550Y-121085451D01*
X172716349Y-120753250D01*
X172325721Y-120492240D01*
X171891679Y-120312454D01*
X171430902Y-120220800D01*
X170961098Y-120220800D01*
X170500321Y-120312454D01*
X170066279Y-120492240D01*
X169675651Y-120753250D01*
X169343450Y-121085451D01*
X169082440Y-121476079D01*
X168902654Y-121910121D01*
X168811000Y-122370898D01*
X164710815Y-122370898D01*
X164666550Y-122304651D01*
X164334349Y-121972450D01*
X163943721Y-121711440D01*
X163509679Y-121531654D01*
X163048902Y-121440000D01*
X162579098Y-121440000D01*
X162118321Y-121531654D01*
X161684279Y-121711440D01*
X161293651Y-121972450D01*
X160961450Y-122304651D01*
X160700440Y-122695279D01*
X160520654Y-123129321D01*
X160429000Y-123590098D01*
X152795796Y-123590098D01*
X152915346Y-123301479D01*
X153007000Y-122840702D01*
X153007000Y-122370898D01*
X152915346Y-121910121D01*
X152735560Y-121476079D01*
X152474550Y-121085451D01*
X152142349Y-120753250D01*
X151751721Y-120492240D01*
X151317679Y-120312454D01*
X150856902Y-120220800D01*
X150387098Y-120220800D01*
X149926321Y-120312454D01*
X149492279Y-120492240D01*
X149101651Y-120753250D01*
X148769450Y-121085451D01*
X148508440Y-121476079D01*
X148328654Y-121910121D01*
X148237000Y-122370898D01*
X144136815Y-122370898D01*
X144092550Y-122304651D01*
X143760349Y-121972450D01*
X143369721Y-121711440D01*
X142935679Y-121531654D01*
X142474902Y-121440000D01*
X142005098Y-121440000D01*
X141544321Y-121531654D01*
X141110279Y-121711440D01*
X140719651Y-121972450D01*
X140387450Y-122304651D01*
X140126440Y-122695279D01*
X139946654Y-123129321D01*
X139855000Y-123590098D01*
X132217438Y-123590098D01*
X132315946Y-123352279D01*
X132407600Y-122891502D01*
X132407600Y-122421698D01*
X132315946Y-121960921D01*
X132136160Y-121526879D01*
X131875150Y-121136251D01*
X131542949Y-120804050D01*
X131152321Y-120543040D01*
X130718279Y-120363254D01*
X130257502Y-120271600D01*
X129787698Y-120271600D01*
X129326921Y-120363254D01*
X128892879Y-120543040D01*
X128502251Y-120804050D01*
X128170050Y-121136251D01*
X127909040Y-121526879D01*
X127729254Y-121960921D01*
X127637600Y-122421698D01*
X123537415Y-122421698D01*
X123493150Y-122355451D01*
X123160949Y-122023250D01*
X122770321Y-121762240D01*
X122336279Y-121582454D01*
X121875502Y-121490800D01*
X121405698Y-121490800D01*
X120944921Y-121582454D01*
X120510879Y-121762240D01*
X120120251Y-122023250D01*
X119788050Y-122355451D01*
X119527040Y-122746079D01*
X119347254Y-123180121D01*
X119255600Y-123640898D01*
X111601354Y-123640898D01*
X111741946Y-123301479D01*
X111833600Y-122840702D01*
X111833600Y-122370898D01*
X111741946Y-121910121D01*
X111562160Y-121476079D01*
X111301150Y-121085451D01*
X110968949Y-120753250D01*
X110578321Y-120492240D01*
X110144279Y-120312454D01*
X109683502Y-120220800D01*
X109213698Y-120220800D01*
X108752921Y-120312454D01*
X108318879Y-120492240D01*
X107928251Y-120753250D01*
X107596050Y-121085451D01*
X107335040Y-121476079D01*
X107155254Y-121910121D01*
X107063600Y-122370898D01*
X102963415Y-122370898D01*
X102919150Y-122304651D01*
X102586949Y-121972450D01*
X102196321Y-121711440D01*
X101762279Y-121531654D01*
X101301502Y-121440000D01*
X100831698Y-121440000D01*
X100370921Y-121531654D01*
X99936879Y-121711440D01*
X99546251Y-121972450D01*
X99214050Y-122304651D01*
X98953040Y-122695279D01*
X98773254Y-123129321D01*
X98681600Y-123590098D01*
X80543000Y-123590098D01*
X80543000Y-87376000D01*
X86997509Y-87376000D01*
X87003001Y-87431762D01*
X87003000Y-115514249D01*
X86997509Y-115570000D01*
X87003000Y-115625751D01*
X87019423Y-115792498D01*
X87084324Y-116006446D01*
X87189716Y-116203623D01*
X87331551Y-116376449D01*
X87374865Y-116411996D01*
X89328009Y-118365141D01*
X89363551Y-118408449D01*
X89536377Y-118550284D01*
X89733553Y-118655676D01*
X89947501Y-118720577D01*
X90170000Y-118742491D01*
X90225751Y-118737000D01*
X168203752Y-118737000D01*
X168370499Y-118720577D01*
X168584447Y-118655676D01*
X168781623Y-118550284D01*
X168954449Y-118408449D01*
X169096284Y-118235623D01*
X169201676Y-118038447D01*
X169266577Y-117824499D01*
X169288491Y-117602000D01*
X169266577Y-117379501D01*
X169201676Y-117165553D01*
X169096284Y-116968377D01*
X168954449Y-116795551D01*
X168781623Y-116653716D01*
X168584447Y-116548324D01*
X168370499Y-116483423D01*
X168203752Y-116467000D01*
X90640132Y-116467000D01*
X89273000Y-115099869D01*
X89273000Y-109439967D01*
X183086500Y-109439967D01*
X183086500Y-109762033D01*
X183149332Y-110077912D01*
X183272582Y-110375463D01*
X183451513Y-110643252D01*
X183679248Y-110870987D01*
X183947037Y-111049918D01*
X184244588Y-111173168D01*
X184560467Y-111236000D01*
X184882533Y-111236000D01*
X185198412Y-111173168D01*
X185495963Y-111049918D01*
X185763752Y-110870987D01*
X185991487Y-110643252D01*
X186170418Y-110375463D01*
X186293668Y-110077912D01*
X186356500Y-109762033D01*
X186356500Y-109439967D01*
X186293668Y-109124088D01*
X186170418Y-108826537D01*
X185991487Y-108558748D01*
X185763752Y-108331013D01*
X185495963Y-108152082D01*
X185198412Y-108028832D01*
X184882533Y-107966000D01*
X184560467Y-107966000D01*
X184244588Y-108028832D01*
X183947037Y-108152082D01*
X183679248Y-108331013D01*
X183451513Y-108558748D01*
X183272582Y-108826537D01*
X183149332Y-109124088D01*
X183086500Y-109439967D01*
X89273000Y-109439967D01*
X89273000Y-104648000D01*
X97157509Y-104648000D01*
X97179423Y-104870498D01*
X97244324Y-105084446D01*
X97349717Y-105281622D01*
X97491552Y-105454448D01*
X97664378Y-105596283D01*
X97861554Y-105701676D01*
X98075502Y-105766577D01*
X98298000Y-105788491D01*
X98520498Y-105766577D01*
X98734446Y-105701676D01*
X98931622Y-105596283D01*
X99061143Y-105489988D01*
X101562133Y-102989000D01*
X117737001Y-102989000D01*
X117737000Y-104703751D01*
X117753423Y-104870498D01*
X117818324Y-105084446D01*
X117923716Y-105281623D01*
X118065551Y-105454449D01*
X118238377Y-105596284D01*
X118435553Y-105701676D01*
X118649501Y-105766577D01*
X118872000Y-105788491D01*
X119094498Y-105766577D01*
X119308446Y-105701676D01*
X119505623Y-105596284D01*
X119678449Y-105454449D01*
X119820284Y-105281623D01*
X119925676Y-105084447D01*
X119990577Y-104870499D01*
X120007000Y-104703752D01*
X120007000Y-102989000D01*
X138311001Y-102989000D01*
X138311000Y-104830751D01*
X138327423Y-104997498D01*
X138392324Y-105211446D01*
X138497716Y-105408623D01*
X138639551Y-105581449D01*
X138812377Y-105723284D01*
X139009553Y-105828676D01*
X139223501Y-105893577D01*
X139446000Y-105915491D01*
X139668498Y-105893577D01*
X139882446Y-105828676D01*
X140079623Y-105723284D01*
X140252449Y-105581449D01*
X140394284Y-105408623D01*
X140499676Y-105211447D01*
X140564577Y-104997499D01*
X140581000Y-104830752D01*
X140581000Y-102989000D01*
X159012001Y-102989000D01*
X159012000Y-104957751D01*
X159028423Y-105124498D01*
X159093324Y-105338446D01*
X159198716Y-105535623D01*
X159340551Y-105708449D01*
X159513377Y-105850284D01*
X159710553Y-105955676D01*
X159924501Y-106020577D01*
X160147000Y-106042491D01*
X160369498Y-106020577D01*
X160583446Y-105955676D01*
X160780623Y-105850284D01*
X160953449Y-105708449D01*
X161095284Y-105535623D01*
X161200676Y-105338447D01*
X161265577Y-105124499D01*
X161282000Y-104957752D01*
X161282000Y-102989000D01*
X174172752Y-102989000D01*
X174339499Y-102972577D01*
X174553447Y-102907676D01*
X174750623Y-102802284D01*
X174923449Y-102660449D01*
X175065284Y-102487623D01*
X175170676Y-102290447D01*
X175235577Y-102076499D01*
X175257491Y-101854000D01*
X175235577Y-101631501D01*
X175170676Y-101417553D01*
X175065284Y-101220377D01*
X174923449Y-101047551D01*
X174750623Y-100905716D01*
X174553447Y-100800324D01*
X174339499Y-100735423D01*
X174172752Y-100719000D01*
X160202752Y-100719000D01*
X160147000Y-100713509D01*
X160091249Y-100719000D01*
X139755751Y-100719000D01*
X139699999Y-100713509D01*
X139644248Y-100719000D01*
X118673751Y-100719000D01*
X118618000Y-100713509D01*
X118562249Y-100719000D01*
X101147752Y-100719000D01*
X101092000Y-100713509D01*
X100869501Y-100735423D01*
X100655553Y-100800324D01*
X100458377Y-100905716D01*
X100328856Y-101012011D01*
X100328855Y-101012012D01*
X100285551Y-101047551D01*
X100250013Y-101090854D01*
X97456012Y-103884857D01*
X97349717Y-104014378D01*
X97244324Y-104211554D01*
X97179423Y-104425502D01*
X97157509Y-104648000D01*
X89273000Y-104648000D01*
X89273000Y-87846131D01*
X90132132Y-86987000D01*
X93480001Y-86987000D01*
X93480000Y-89590751D01*
X93496423Y-89757498D01*
X93561324Y-89971446D01*
X93666716Y-90168623D01*
X93808551Y-90341449D01*
X93981377Y-90483284D01*
X94178553Y-90588676D01*
X94392501Y-90653577D01*
X94615000Y-90675491D01*
X94837498Y-90653577D01*
X95051446Y-90588676D01*
X95248623Y-90483284D01*
X95421449Y-90341449D01*
X95563284Y-90168623D01*
X95617035Y-90068061D01*
X106407000Y-90068061D01*
X106407000Y-90271939D01*
X106446774Y-90471898D01*
X106524795Y-90660256D01*
X106638063Y-90829774D01*
X106782226Y-90973937D01*
X106951744Y-91087205D01*
X107140102Y-91165226D01*
X107340061Y-91205000D01*
X107543939Y-91205000D01*
X107743898Y-91165226D01*
X107932256Y-91087205D01*
X107980454Y-91055000D01*
X110078546Y-91055000D01*
X110126744Y-91087205D01*
X110315102Y-91165226D01*
X110515061Y-91205000D01*
X110718939Y-91205000D01*
X110918898Y-91165226D01*
X111107256Y-91087205D01*
X111276774Y-90973937D01*
X111420937Y-90829774D01*
X111534205Y-90660256D01*
X111612226Y-90471898D01*
X111652000Y-90271939D01*
X111652000Y-90068061D01*
X111612226Y-89868102D01*
X111534205Y-89679744D01*
X111420937Y-89510226D01*
X111276774Y-89366063D01*
X111107256Y-89252795D01*
X110918898Y-89174774D01*
X110718939Y-89135000D01*
X110515061Y-89135000D01*
X110315102Y-89174774D01*
X110126744Y-89252795D01*
X110078546Y-89285000D01*
X107980454Y-89285000D01*
X107932256Y-89252795D01*
X107743898Y-89174774D01*
X107543939Y-89135000D01*
X107340061Y-89135000D01*
X107140102Y-89174774D01*
X106951744Y-89252795D01*
X106782226Y-89366063D01*
X106638063Y-89510226D01*
X106524795Y-89679744D01*
X106446774Y-89868102D01*
X106407000Y-90068061D01*
X95617035Y-90068061D01*
X95668676Y-89971447D01*
X95733577Y-89757499D01*
X95750000Y-89590752D01*
X95750000Y-86987000D01*
X114435001Y-86987000D01*
X114435000Y-89590751D01*
X114451423Y-89757498D01*
X114516324Y-89971446D01*
X114621716Y-90168623D01*
X114763551Y-90341449D01*
X114936377Y-90483284D01*
X115133553Y-90588676D01*
X115347501Y-90653577D01*
X115570000Y-90675491D01*
X115792498Y-90653577D01*
X116006446Y-90588676D01*
X116203623Y-90483284D01*
X116376449Y-90341449D01*
X116518284Y-90168623D01*
X116623676Y-89971447D01*
X116632893Y-89941061D01*
X126981000Y-89941061D01*
X126981000Y-90144939D01*
X127020774Y-90344898D01*
X127098795Y-90533256D01*
X127212063Y-90702774D01*
X127356226Y-90846937D01*
X127525744Y-90960205D01*
X127714102Y-91038226D01*
X127914061Y-91078000D01*
X128117939Y-91078000D01*
X128317898Y-91038226D01*
X128506256Y-90960205D01*
X128554454Y-90928000D01*
X131033546Y-90928000D01*
X131081744Y-90960205D01*
X131270102Y-91038226D01*
X131470061Y-91078000D01*
X131673939Y-91078000D01*
X131873898Y-91038226D01*
X132062256Y-90960205D01*
X132231774Y-90846937D01*
X132375937Y-90702774D01*
X132489205Y-90533256D01*
X132567226Y-90344898D01*
X132607000Y-90144939D01*
X132607000Y-89941061D01*
X132567226Y-89741102D01*
X132489205Y-89552744D01*
X132375937Y-89383226D01*
X132231774Y-89239063D01*
X132062256Y-89125795D01*
X131873898Y-89047774D01*
X131673939Y-89008000D01*
X131470061Y-89008000D01*
X131270102Y-89047774D01*
X131081744Y-89125795D01*
X131033546Y-89158000D01*
X128554454Y-89158000D01*
X128506256Y-89125795D01*
X128317898Y-89047774D01*
X128117939Y-89008000D01*
X127914061Y-89008000D01*
X127714102Y-89047774D01*
X127525744Y-89125795D01*
X127356226Y-89239063D01*
X127212063Y-89383226D01*
X127098795Y-89552744D01*
X127020774Y-89741102D01*
X126981000Y-89941061D01*
X116632893Y-89941061D01*
X116688577Y-89757499D01*
X116705000Y-89590752D01*
X116705000Y-86987000D01*
X135009001Y-86987000D01*
X135009000Y-89717751D01*
X135025423Y-89884498D01*
X135090324Y-90098446D01*
X135195716Y-90295623D01*
X135337551Y-90468449D01*
X135510377Y-90610284D01*
X135707553Y-90715676D01*
X135921501Y-90780577D01*
X136144000Y-90802491D01*
X136366498Y-90780577D01*
X136580446Y-90715676D01*
X136777623Y-90610284D01*
X136950449Y-90468449D01*
X137092284Y-90295623D01*
X137141218Y-90204073D01*
X146793000Y-90204073D01*
X146793000Y-90407951D01*
X146832774Y-90607910D01*
X146910795Y-90796268D01*
X147024063Y-90965786D01*
X147168226Y-91109949D01*
X147337744Y-91223217D01*
X147526102Y-91301238D01*
X147726061Y-91341012D01*
X147929939Y-91341012D01*
X148129898Y-91301238D01*
X148318256Y-91223217D01*
X148366454Y-91191012D01*
X151494033Y-91191012D01*
X151528744Y-91214205D01*
X151717102Y-91292226D01*
X151917061Y-91332000D01*
X152120939Y-91332000D01*
X152320898Y-91292226D01*
X152509256Y-91214205D01*
X152678774Y-91100937D01*
X152822937Y-90956774D01*
X152936205Y-90787256D01*
X153014226Y-90598898D01*
X153054000Y-90398939D01*
X153054000Y-90195061D01*
X153014226Y-89995102D01*
X152936205Y-89806744D01*
X152822937Y-89637226D01*
X152678774Y-89493063D01*
X152509256Y-89379795D01*
X152320898Y-89301774D01*
X152120939Y-89262000D01*
X151917061Y-89262000D01*
X151717102Y-89301774D01*
X151528744Y-89379795D01*
X151467058Y-89421012D01*
X148366454Y-89421012D01*
X148318256Y-89388807D01*
X148129898Y-89310786D01*
X147929939Y-89271012D01*
X147726061Y-89271012D01*
X147526102Y-89310786D01*
X147337744Y-89388807D01*
X147168226Y-89502075D01*
X147024063Y-89646238D01*
X146910795Y-89815756D01*
X146832774Y-90004114D01*
X146793000Y-90204073D01*
X137141218Y-90204073D01*
X137197676Y-90098447D01*
X137262577Y-89884499D01*
X137279000Y-89717752D01*
X137279000Y-86987000D01*
X155927001Y-86987000D01*
X155927000Y-89881751D01*
X155943423Y-90048498D01*
X156008324Y-90262446D01*
X156113716Y-90459623D01*
X156255551Y-90632449D01*
X156428377Y-90774284D01*
X156625553Y-90879676D01*
X156839501Y-90944577D01*
X157062000Y-90966491D01*
X157284498Y-90944577D01*
X157498446Y-90879676D01*
X157695623Y-90774284D01*
X157868449Y-90632449D01*
X158010284Y-90459623D01*
X158115676Y-90262447D01*
X158180577Y-90048499D01*
X158197000Y-89881752D01*
X158197000Y-89814061D01*
X168637000Y-89814061D01*
X168637000Y-90017939D01*
X168676774Y-90217898D01*
X168754795Y-90406256D01*
X168868063Y-90575774D01*
X169012226Y-90719937D01*
X169181744Y-90833205D01*
X169370102Y-90911226D01*
X169570061Y-90951000D01*
X169773939Y-90951000D01*
X169973898Y-90911226D01*
X170162256Y-90833205D01*
X170210454Y-90801000D01*
X172943546Y-90801000D01*
X172991744Y-90833205D01*
X173180102Y-90911226D01*
X173380061Y-90951000D01*
X173583939Y-90951000D01*
X173783898Y-90911226D01*
X173972256Y-90833205D01*
X174141774Y-90719937D01*
X174285937Y-90575774D01*
X174399205Y-90406256D01*
X174477226Y-90217898D01*
X174517000Y-90017939D01*
X174517000Y-89814061D01*
X174477226Y-89614102D01*
X174399205Y-89425744D01*
X174285937Y-89256226D01*
X174141774Y-89112063D01*
X173972256Y-88998795D01*
X173783898Y-88920774D01*
X173583939Y-88881000D01*
X173380061Y-88881000D01*
X173180102Y-88920774D01*
X172991744Y-88998795D01*
X172943546Y-89031000D01*
X170210454Y-89031000D01*
X170162256Y-88998795D01*
X169973898Y-88920774D01*
X169773939Y-88881000D01*
X169570061Y-88881000D01*
X169370102Y-88920774D01*
X169181744Y-88998795D01*
X169012226Y-89112063D01*
X168868063Y-89256226D01*
X168754795Y-89425744D01*
X168676774Y-89614102D01*
X168637000Y-89814061D01*
X158197000Y-89814061D01*
X158197000Y-85997743D01*
X158202490Y-85941999D01*
X158197000Y-85886255D01*
X158197000Y-85886248D01*
X158180577Y-85719501D01*
X158115676Y-85505553D01*
X158010284Y-85308377D01*
X157868449Y-85135551D01*
X157825135Y-85100004D01*
X157813996Y-85088865D01*
X157778449Y-85045551D01*
X157605623Y-84903716D01*
X157408447Y-84798324D01*
X157194499Y-84733423D01*
X157027752Y-84717000D01*
X157027751Y-84717000D01*
X156972000Y-84711509D01*
X156916249Y-84717000D01*
X136453741Y-84717000D01*
X136397999Y-84711510D01*
X136342257Y-84717000D01*
X115879741Y-84717000D01*
X115823999Y-84711510D01*
X115768257Y-84717000D01*
X94543751Y-84717000D01*
X94488000Y-84711509D01*
X94432249Y-84717000D01*
X89717741Y-84717000D01*
X89661999Y-84711510D01*
X89606257Y-84717000D01*
X89606248Y-84717000D01*
X89439501Y-84733423D01*
X89225553Y-84798324D01*
X89028377Y-84903716D01*
X88855551Y-85045551D01*
X88820009Y-85088860D01*
X87374860Y-86534009D01*
X87331552Y-86569551D01*
X87189717Y-86742377D01*
X87147699Y-86820988D01*
X87084324Y-86939554D01*
X87019423Y-87153502D01*
X86997509Y-87376000D01*
X80543000Y-87376000D01*
X80543000Y-73374298D01*
X98707000Y-73374298D01*
X98707000Y-73844102D01*
X98798654Y-74304879D01*
X98978440Y-74738921D01*
X99239450Y-75129549D01*
X99571651Y-75461750D01*
X99962279Y-75722760D01*
X100396321Y-75902546D01*
X100857098Y-75994200D01*
X101326902Y-75994200D01*
X101787679Y-75902546D01*
X102221721Y-75722760D01*
X102612349Y-75461750D01*
X102944550Y-75129549D01*
X103205560Y-74738921D01*
X103276317Y-74568098D01*
X107063600Y-74568098D01*
X107063600Y-75037902D01*
X107155254Y-75498679D01*
X107335040Y-75932721D01*
X107596050Y-76323349D01*
X107928251Y-76655550D01*
X108318879Y-76916560D01*
X108752921Y-77096346D01*
X109213698Y-77188000D01*
X109683502Y-77188000D01*
X110144279Y-77096346D01*
X110578321Y-76916560D01*
X110968949Y-76655550D01*
X111301150Y-76323349D01*
X111562160Y-75932721D01*
X111741946Y-75498679D01*
X111833600Y-75037902D01*
X111833600Y-74568098D01*
X111741946Y-74107321D01*
X111562160Y-73673279D01*
X111396331Y-73425098D01*
X119281000Y-73425098D01*
X119281000Y-73894902D01*
X119372654Y-74355679D01*
X119552440Y-74789721D01*
X119813450Y-75180349D01*
X120145651Y-75512550D01*
X120536279Y-75773560D01*
X120970321Y-75953346D01*
X121431098Y-76045000D01*
X121900902Y-76045000D01*
X122361679Y-75953346D01*
X122795721Y-75773560D01*
X123186349Y-75512550D01*
X123518550Y-75180349D01*
X123779560Y-74789721D01*
X123850317Y-74618898D01*
X127637600Y-74618898D01*
X127637600Y-75088702D01*
X127729254Y-75549479D01*
X127909040Y-75983521D01*
X128170050Y-76374149D01*
X128502251Y-76706350D01*
X128892879Y-76967360D01*
X129326921Y-77147146D01*
X129787698Y-77238800D01*
X130257502Y-77238800D01*
X130718279Y-77147146D01*
X131152321Y-76967360D01*
X131542949Y-76706350D01*
X131875150Y-76374149D01*
X132136160Y-75983521D01*
X132315946Y-75549479D01*
X132407600Y-75088702D01*
X132407600Y-74618898D01*
X132315946Y-74158121D01*
X132136160Y-73724079D01*
X131902444Y-73374298D01*
X139880400Y-73374298D01*
X139880400Y-73844102D01*
X139972054Y-74304879D01*
X140151840Y-74738921D01*
X140412850Y-75129549D01*
X140745051Y-75461750D01*
X141135679Y-75722760D01*
X141569721Y-75902546D01*
X142030498Y-75994200D01*
X142500302Y-75994200D01*
X142961079Y-75902546D01*
X143395121Y-75722760D01*
X143785749Y-75461750D01*
X144117950Y-75129549D01*
X144378960Y-74738921D01*
X144449717Y-74568098D01*
X148237000Y-74568098D01*
X148237000Y-75037902D01*
X148328654Y-75498679D01*
X148508440Y-75932721D01*
X148769450Y-76323349D01*
X149101651Y-76655550D01*
X149492279Y-76916560D01*
X149926321Y-77096346D01*
X150387098Y-77188000D01*
X150856902Y-77188000D01*
X151317679Y-77096346D01*
X151751721Y-76916560D01*
X152142349Y-76655550D01*
X152474550Y-76323349D01*
X152735560Y-75932721D01*
X152915346Y-75498679D01*
X153007000Y-75037902D01*
X153007000Y-74568098D01*
X152915346Y-74107321D01*
X152735560Y-73673279D01*
X152535787Y-73374298D01*
X160454400Y-73374298D01*
X160454400Y-73844102D01*
X160546054Y-74304879D01*
X160725840Y-74738921D01*
X160986850Y-75129549D01*
X161319051Y-75461750D01*
X161709679Y-75722760D01*
X162143721Y-75902546D01*
X162604498Y-75994200D01*
X163074302Y-75994200D01*
X163535079Y-75902546D01*
X163969121Y-75722760D01*
X164359749Y-75461750D01*
X164691950Y-75129549D01*
X164952960Y-74738921D01*
X165023717Y-74568098D01*
X168811000Y-74568098D01*
X168811000Y-75037902D01*
X168902654Y-75498679D01*
X169082440Y-75932721D01*
X169343450Y-76323349D01*
X169675651Y-76655550D01*
X170066279Y-76916560D01*
X170500321Y-77096346D01*
X170961098Y-77188000D01*
X171430902Y-77188000D01*
X171891679Y-77096346D01*
X172325721Y-76916560D01*
X172716349Y-76655550D01*
X173048550Y-76323349D01*
X173309560Y-75932721D01*
X173489346Y-75498679D01*
X173581000Y-75037902D01*
X173581000Y-74568098D01*
X173489346Y-74107321D01*
X173309560Y-73673279D01*
X173048550Y-73282651D01*
X172716349Y-72950450D01*
X172325721Y-72689440D01*
X171891679Y-72509654D01*
X171430902Y-72418000D01*
X170961098Y-72418000D01*
X170500321Y-72509654D01*
X170066279Y-72689440D01*
X169675651Y-72950450D01*
X169343450Y-73282651D01*
X169082440Y-73673279D01*
X168902654Y-74107321D01*
X168811000Y-74568098D01*
X165023717Y-74568098D01*
X165132746Y-74304879D01*
X165224400Y-73844102D01*
X165224400Y-73374298D01*
X165132746Y-72913521D01*
X164952960Y-72479479D01*
X164691950Y-72088851D01*
X164359749Y-71756650D01*
X163969121Y-71495640D01*
X163535079Y-71315854D01*
X163074302Y-71224200D01*
X162604498Y-71224200D01*
X162143721Y-71315854D01*
X161709679Y-71495640D01*
X161319051Y-71756650D01*
X160986850Y-72088851D01*
X160725840Y-72479479D01*
X160546054Y-72913521D01*
X160454400Y-73374298D01*
X152535787Y-73374298D01*
X152474550Y-73282651D01*
X152142349Y-72950450D01*
X151751721Y-72689440D01*
X151317679Y-72509654D01*
X150856902Y-72418000D01*
X150387098Y-72418000D01*
X149926321Y-72509654D01*
X149492279Y-72689440D01*
X149101651Y-72950450D01*
X148769450Y-73282651D01*
X148508440Y-73673279D01*
X148328654Y-74107321D01*
X148237000Y-74568098D01*
X144449717Y-74568098D01*
X144558746Y-74304879D01*
X144650400Y-73844102D01*
X144650400Y-73374298D01*
X144558746Y-72913521D01*
X144378960Y-72479479D01*
X144117950Y-72088851D01*
X143785749Y-71756650D01*
X143395121Y-71495640D01*
X142961079Y-71315854D01*
X142500302Y-71224200D01*
X142030498Y-71224200D01*
X141569721Y-71315854D01*
X141135679Y-71495640D01*
X140745051Y-71756650D01*
X140412850Y-72088851D01*
X140151840Y-72479479D01*
X139972054Y-72913521D01*
X139880400Y-73374298D01*
X131902444Y-73374298D01*
X131875150Y-73333451D01*
X131542949Y-73001250D01*
X131152321Y-72740240D01*
X130718279Y-72560454D01*
X130257502Y-72468800D01*
X129787698Y-72468800D01*
X129326921Y-72560454D01*
X128892879Y-72740240D01*
X128502251Y-73001250D01*
X128170050Y-73333451D01*
X127909040Y-73724079D01*
X127729254Y-74158121D01*
X127637600Y-74618898D01*
X123850317Y-74618898D01*
X123959346Y-74355679D01*
X124051000Y-73894902D01*
X124051000Y-73425098D01*
X123959346Y-72964321D01*
X123779560Y-72530279D01*
X123518550Y-72139651D01*
X123186349Y-71807450D01*
X122795721Y-71546440D01*
X122361679Y-71366654D01*
X121900902Y-71275000D01*
X121431098Y-71275000D01*
X120970321Y-71366654D01*
X120536279Y-71546440D01*
X120145651Y-71807450D01*
X119813450Y-72139651D01*
X119552440Y-72530279D01*
X119372654Y-72964321D01*
X119281000Y-73425098D01*
X111396331Y-73425098D01*
X111301150Y-73282651D01*
X110968949Y-72950450D01*
X110578321Y-72689440D01*
X110144279Y-72509654D01*
X109683502Y-72418000D01*
X109213698Y-72418000D01*
X108752921Y-72509654D01*
X108318879Y-72689440D01*
X107928251Y-72950450D01*
X107596050Y-73282651D01*
X107335040Y-73673279D01*
X107155254Y-74107321D01*
X107063600Y-74568098D01*
X103276317Y-74568098D01*
X103385346Y-74304879D01*
X103477000Y-73844102D01*
X103477000Y-73374298D01*
X103385346Y-72913521D01*
X103205560Y-72479479D01*
X102944550Y-72088851D01*
X102612349Y-71756650D01*
X102221721Y-71495640D01*
X101787679Y-71315854D01*
X101326902Y-71224200D01*
X100857098Y-71224200D01*
X100396321Y-71315854D01*
X99962279Y-71495640D01*
X99571651Y-71756650D01*
X99239450Y-72088851D01*
X98978440Y-72479479D01*
X98798654Y-72913521D01*
X98707000Y-73374298D01*
X80543000Y-73374298D01*
X80543000Y-69283344D01*
X101620000Y-69283344D01*
X101620000Y-69654656D01*
X101692439Y-70018834D01*
X101834534Y-70361882D01*
X102040825Y-70670618D01*
X102303382Y-70933175D01*
X102612118Y-71139466D01*
X102955166Y-71281561D01*
X103319344Y-71354000D01*
X103690656Y-71354000D01*
X104054834Y-71281561D01*
X104397882Y-71139466D01*
X104706618Y-70933175D01*
X104969175Y-70670618D01*
X105175466Y-70361882D01*
X105257600Y-70163593D01*
X105339734Y-70361882D01*
X105546025Y-70670618D01*
X105808582Y-70933175D01*
X106117318Y-71139466D01*
X106460366Y-71281561D01*
X106824544Y-71354000D01*
X107195856Y-71354000D01*
X107560034Y-71281561D01*
X107903082Y-71139466D01*
X108211818Y-70933175D01*
X108474375Y-70670618D01*
X108680666Y-70361882D01*
X108822761Y-70018834D01*
X108895200Y-69654656D01*
X108895200Y-69334144D01*
X122194000Y-69334144D01*
X122194000Y-69705456D01*
X122266439Y-70069634D01*
X122408534Y-70412682D01*
X122614825Y-70721418D01*
X122877382Y-70983975D01*
X123186118Y-71190266D01*
X123529166Y-71332361D01*
X123893344Y-71404800D01*
X124264656Y-71404800D01*
X124628834Y-71332361D01*
X124971882Y-71190266D01*
X125280618Y-70983975D01*
X125543175Y-70721418D01*
X125749466Y-70412682D01*
X125831600Y-70214393D01*
X125913734Y-70412682D01*
X126120025Y-70721418D01*
X126382582Y-70983975D01*
X126691318Y-71190266D01*
X127034366Y-71332361D01*
X127398544Y-71404800D01*
X127769856Y-71404800D01*
X128134034Y-71332361D01*
X128477082Y-71190266D01*
X128785818Y-70983975D01*
X129048375Y-70721418D01*
X129254666Y-70412682D01*
X129396761Y-70069634D01*
X129469200Y-69705456D01*
X129469200Y-69334144D01*
X129459096Y-69283344D01*
X142793400Y-69283344D01*
X142793400Y-69654656D01*
X142865839Y-70018834D01*
X143007934Y-70361882D01*
X143214225Y-70670618D01*
X143476782Y-70933175D01*
X143785518Y-71139466D01*
X144128566Y-71281561D01*
X144492744Y-71354000D01*
X144864056Y-71354000D01*
X145228234Y-71281561D01*
X145571282Y-71139466D01*
X145880018Y-70933175D01*
X146142575Y-70670618D01*
X146348866Y-70361882D01*
X146431000Y-70163593D01*
X146513134Y-70361882D01*
X146719425Y-70670618D01*
X146981982Y-70933175D01*
X147290718Y-71139466D01*
X147633766Y-71281561D01*
X147997944Y-71354000D01*
X148369256Y-71354000D01*
X148733434Y-71281561D01*
X149076482Y-71139466D01*
X149385218Y-70933175D01*
X149647775Y-70670618D01*
X149854066Y-70361882D01*
X149996161Y-70018834D01*
X150068600Y-69654656D01*
X150068600Y-69283344D01*
X163367400Y-69283344D01*
X163367400Y-69654656D01*
X163439839Y-70018834D01*
X163581934Y-70361882D01*
X163788225Y-70670618D01*
X164050782Y-70933175D01*
X164359518Y-71139466D01*
X164702566Y-71281561D01*
X165066744Y-71354000D01*
X165438056Y-71354000D01*
X165802234Y-71281561D01*
X166145282Y-71139466D01*
X166454018Y-70933175D01*
X166716575Y-70670618D01*
X166922866Y-70361882D01*
X167005000Y-70163593D01*
X167087134Y-70361882D01*
X167293425Y-70670618D01*
X167555982Y-70933175D01*
X167864718Y-71139466D01*
X168207766Y-71281561D01*
X168571944Y-71354000D01*
X168943256Y-71354000D01*
X169307434Y-71281561D01*
X169650482Y-71139466D01*
X169959218Y-70933175D01*
X170221775Y-70670618D01*
X170428066Y-70361882D01*
X170570161Y-70018834D01*
X170642600Y-69654656D01*
X170642600Y-69283344D01*
X170570161Y-68919166D01*
X170428066Y-68576118D01*
X170221775Y-68267382D01*
X169959218Y-68004825D01*
X169650482Y-67798534D01*
X169307434Y-67656439D01*
X168943256Y-67584000D01*
X168571944Y-67584000D01*
X168207766Y-67656439D01*
X167864718Y-67798534D01*
X167555982Y-68004825D01*
X167293425Y-68267382D01*
X167087134Y-68576118D01*
X167005000Y-68774407D01*
X166922866Y-68576118D01*
X166716575Y-68267382D01*
X166454018Y-68004825D01*
X166145282Y-67798534D01*
X165802234Y-67656439D01*
X165438056Y-67584000D01*
X165066744Y-67584000D01*
X164702566Y-67656439D01*
X164359518Y-67798534D01*
X164050782Y-68004825D01*
X163788225Y-68267382D01*
X163581934Y-68576118D01*
X163439839Y-68919166D01*
X163367400Y-69283344D01*
X150068600Y-69283344D01*
X149996161Y-68919166D01*
X149854066Y-68576118D01*
X149647775Y-68267382D01*
X149385218Y-68004825D01*
X149076482Y-67798534D01*
X148733434Y-67656439D01*
X148369256Y-67584000D01*
X147997944Y-67584000D01*
X147633766Y-67656439D01*
X147290718Y-67798534D01*
X146981982Y-68004825D01*
X146719425Y-68267382D01*
X146513134Y-68576118D01*
X146431000Y-68774407D01*
X146348866Y-68576118D01*
X146142575Y-68267382D01*
X145880018Y-68004825D01*
X145571282Y-67798534D01*
X145228234Y-67656439D01*
X144864056Y-67584000D01*
X144492744Y-67584000D01*
X144128566Y-67656439D01*
X143785518Y-67798534D01*
X143476782Y-68004825D01*
X143214225Y-68267382D01*
X143007934Y-68576118D01*
X142865839Y-68919166D01*
X142793400Y-69283344D01*
X129459096Y-69283344D01*
X129396761Y-68969966D01*
X129254666Y-68626918D01*
X129048375Y-68318182D01*
X128785818Y-68055625D01*
X128477082Y-67849334D01*
X128134034Y-67707239D01*
X127769856Y-67634800D01*
X127398544Y-67634800D01*
X127034366Y-67707239D01*
X126691318Y-67849334D01*
X126382582Y-68055625D01*
X126120025Y-68318182D01*
X125913734Y-68626918D01*
X125831600Y-68825207D01*
X125749466Y-68626918D01*
X125543175Y-68318182D01*
X125280618Y-68055625D01*
X124971882Y-67849334D01*
X124628834Y-67707239D01*
X124264656Y-67634800D01*
X123893344Y-67634800D01*
X123529166Y-67707239D01*
X123186118Y-67849334D01*
X122877382Y-68055625D01*
X122614825Y-68318182D01*
X122408534Y-68626918D01*
X122266439Y-68969966D01*
X122194000Y-69334144D01*
X108895200Y-69334144D01*
X108895200Y-69283344D01*
X108822761Y-68919166D01*
X108680666Y-68576118D01*
X108474375Y-68267382D01*
X108211818Y-68004825D01*
X107903082Y-67798534D01*
X107560034Y-67656439D01*
X107195856Y-67584000D01*
X106824544Y-67584000D01*
X106460366Y-67656439D01*
X106117318Y-67798534D01*
X105808582Y-68004825D01*
X105546025Y-68267382D01*
X105339734Y-68576118D01*
X105257600Y-68774407D01*
X105175466Y-68576118D01*
X104969175Y-68267382D01*
X104706618Y-68004825D01*
X104397882Y-67798534D01*
X104054834Y-67656439D01*
X103690656Y-67584000D01*
X103319344Y-67584000D01*
X102955166Y-67656439D01*
X102612118Y-67798534D01*
X102303382Y-68004825D01*
X102040825Y-68267382D01*
X101834534Y-68576118D01*
X101692439Y-68919166D01*
X101620000Y-69283344D01*
X80543000Y-69283344D01*
X80543000Y-65451999D01*
X94292928Y-65451999D01*
X94292928Y-66102001D01*
X94309992Y-66275255D01*
X94360528Y-66441851D01*
X94442595Y-66595387D01*
X94553038Y-66729962D01*
X94687613Y-66840405D01*
X94841149Y-66922472D01*
X95007745Y-66973008D01*
X95180999Y-66990072D01*
X96081001Y-66990072D01*
X96254255Y-66973008D01*
X96420851Y-66922472D01*
X96574387Y-66840405D01*
X96708962Y-66729962D01*
X96819405Y-66595387D01*
X96901472Y-66441851D01*
X96952008Y-66275255D01*
X96969072Y-66102001D01*
X96969072Y-65451999D01*
X115755928Y-65451999D01*
X115755928Y-66102001D01*
X115772992Y-66275255D01*
X115823528Y-66441851D01*
X115905595Y-66595387D01*
X116016038Y-66729962D01*
X116150613Y-66840405D01*
X116304149Y-66922472D01*
X116470745Y-66973008D01*
X116643999Y-66990072D01*
X117544001Y-66990072D01*
X117717255Y-66973008D01*
X117883851Y-66922472D01*
X118037387Y-66840405D01*
X118171962Y-66729962D01*
X118282405Y-66595387D01*
X118364472Y-66441851D01*
X118415008Y-66275255D01*
X118432072Y-66102001D01*
X118432072Y-65451999D01*
X136075928Y-65451999D01*
X136075928Y-66102001D01*
X136092992Y-66275255D01*
X136143528Y-66441851D01*
X136225595Y-66595387D01*
X136336038Y-66729962D01*
X136470613Y-66840405D01*
X136624149Y-66922472D01*
X136790745Y-66973008D01*
X136963999Y-66990072D01*
X137864001Y-66990072D01*
X138037255Y-66973008D01*
X138203851Y-66922472D01*
X138357387Y-66840405D01*
X138491962Y-66729962D01*
X138602405Y-66595387D01*
X138684472Y-66441851D01*
X138735008Y-66275255D01*
X138752072Y-66102001D01*
X138752072Y-65451999D01*
X156395928Y-65451999D01*
X156395928Y-66102001D01*
X156412992Y-66275255D01*
X156463528Y-66441851D01*
X156545595Y-66595387D01*
X156656038Y-66729962D01*
X156790613Y-66840405D01*
X156944149Y-66922472D01*
X157110745Y-66973008D01*
X157283999Y-66990072D01*
X158184001Y-66990072D01*
X158357255Y-66973008D01*
X158523851Y-66922472D01*
X158677387Y-66840405D01*
X158811962Y-66729962D01*
X158922405Y-66595387D01*
X159004472Y-66441851D01*
X159055008Y-66275255D01*
X159072072Y-66102001D01*
X159072072Y-65451999D01*
X159055008Y-65278745D01*
X159004472Y-65112149D01*
X158922405Y-64958613D01*
X158811962Y-64824038D01*
X158677387Y-64713595D01*
X158619000Y-64682386D01*
X158619000Y-63866578D01*
X159954779Y-62530800D01*
X160844272Y-62530800D01*
X160896588Y-62657102D01*
X161130237Y-63006783D01*
X161427617Y-63304163D01*
X161777298Y-63537812D01*
X162165844Y-63698753D01*
X162578321Y-63780800D01*
X162998879Y-63780800D01*
X163411356Y-63698753D01*
X163799902Y-63537812D01*
X164149583Y-63304163D01*
X164446963Y-63006783D01*
X164680612Y-62657102D01*
X164841553Y-62268556D01*
X164923600Y-61856079D01*
X164923600Y-61435521D01*
X164841553Y-61023044D01*
X164680612Y-60634498D01*
X164446963Y-60284817D01*
X164149583Y-59987437D01*
X163799902Y-59753788D01*
X163411356Y-59592847D01*
X162998879Y-59510800D01*
X162578321Y-59510800D01*
X162165844Y-59592847D01*
X161777298Y-59753788D01*
X161427617Y-59987437D01*
X161130237Y-60284817D01*
X160896588Y-60634498D01*
X160844272Y-60760800D01*
X159631669Y-60760800D01*
X159588200Y-60756519D01*
X159544731Y-60760800D01*
X159544723Y-60760800D01*
X159414710Y-60773605D01*
X159247887Y-60824211D01*
X159094141Y-60906389D01*
X158993153Y-60989268D01*
X158993151Y-60989270D01*
X158959383Y-61016983D01*
X158931670Y-61050751D01*
X157138951Y-62843471D01*
X157105184Y-62871183D01*
X157077471Y-62904951D01*
X157077468Y-62904954D01*
X156994590Y-63005941D01*
X156912412Y-63159687D01*
X156861805Y-63326510D01*
X156844719Y-63500000D01*
X156849001Y-63543479D01*
X156849000Y-64682386D01*
X156790613Y-64713595D01*
X156656038Y-64824038D01*
X156545595Y-64958613D01*
X156463528Y-65112149D01*
X156412992Y-65278745D01*
X156395928Y-65451999D01*
X138752072Y-65451999D01*
X138735008Y-65278745D01*
X138684472Y-65112149D01*
X138602405Y-64958613D01*
X138491962Y-64824038D01*
X138357387Y-64713595D01*
X138299000Y-64682386D01*
X138299000Y-64501578D01*
X140248447Y-62552132D01*
X140297188Y-62669802D01*
X140530837Y-63019483D01*
X140828217Y-63316863D01*
X141177898Y-63550512D01*
X141566444Y-63711453D01*
X141978921Y-63793500D01*
X142399479Y-63793500D01*
X142811956Y-63711453D01*
X143200502Y-63550512D01*
X143550183Y-63316863D01*
X143847563Y-63019483D01*
X144081212Y-62669802D01*
X144242153Y-62281256D01*
X144324200Y-61868779D01*
X144324200Y-61448221D01*
X144242153Y-61035744D01*
X144081212Y-60647198D01*
X143847563Y-60297517D01*
X143550183Y-60000137D01*
X143200502Y-59766488D01*
X142811956Y-59605547D01*
X142399479Y-59523500D01*
X141978921Y-59523500D01*
X141566444Y-59605547D01*
X141177898Y-59766488D01*
X140828217Y-60000137D01*
X140530837Y-60297517D01*
X140297188Y-60647198D01*
X140244872Y-60773500D01*
X139933969Y-60773500D01*
X139890500Y-60769219D01*
X139847031Y-60773500D01*
X139847023Y-60773500D01*
X139717010Y-60786305D01*
X139550187Y-60836911D01*
X139515243Y-60855589D01*
X139396441Y-60919089D01*
X139295453Y-61001968D01*
X139295451Y-61001970D01*
X139261683Y-61029683D01*
X139233970Y-61063451D01*
X136818951Y-63478471D01*
X136785184Y-63506183D01*
X136757471Y-63539951D01*
X136757468Y-63539954D01*
X136674590Y-63640941D01*
X136592412Y-63794687D01*
X136541805Y-63961510D01*
X136524719Y-64135000D01*
X136529001Y-64178479D01*
X136529001Y-64682386D01*
X136470613Y-64713595D01*
X136336038Y-64824038D01*
X136225595Y-64958613D01*
X136143528Y-65112149D01*
X136092992Y-65278745D01*
X136075928Y-65451999D01*
X118432072Y-65451999D01*
X118415008Y-65278745D01*
X118364472Y-65112149D01*
X118282405Y-64958613D01*
X118171962Y-64824038D01*
X118037387Y-64713595D01*
X117979000Y-64682386D01*
X117979000Y-63866578D01*
X119302079Y-62543500D01*
X119721672Y-62543500D01*
X119773988Y-62669802D01*
X120007637Y-63019483D01*
X120305017Y-63316863D01*
X120654698Y-63550512D01*
X121043244Y-63711453D01*
X121455721Y-63793500D01*
X121876279Y-63793500D01*
X122288756Y-63711453D01*
X122677302Y-63550512D01*
X123026983Y-63316863D01*
X123324363Y-63019483D01*
X123558012Y-62669802D01*
X123718953Y-62281256D01*
X123801000Y-61868779D01*
X123801000Y-61448221D01*
X123718953Y-61035744D01*
X123558012Y-60647198D01*
X123324363Y-60297517D01*
X123026983Y-60000137D01*
X122677302Y-59766488D01*
X122288756Y-59605547D01*
X121876279Y-59523500D01*
X121455721Y-59523500D01*
X121043244Y-59605547D01*
X120654698Y-59766488D01*
X120305017Y-60000137D01*
X120007637Y-60297517D01*
X119773988Y-60647198D01*
X119721672Y-60773500D01*
X118978965Y-60773500D01*
X118935499Y-60769219D01*
X118892033Y-60773500D01*
X118892023Y-60773500D01*
X118762010Y-60786305D01*
X118595187Y-60836911D01*
X118441441Y-60919089D01*
X118441439Y-60919090D01*
X118441440Y-60919090D01*
X118340453Y-61001968D01*
X118340451Y-61001970D01*
X118306683Y-61029683D01*
X118278970Y-61063451D01*
X116498951Y-62843471D01*
X116465184Y-62871183D01*
X116437471Y-62904951D01*
X116437468Y-62904954D01*
X116354590Y-63005941D01*
X116272412Y-63159687D01*
X116221805Y-63326510D01*
X116204719Y-63500000D01*
X116209001Y-63543479D01*
X116209000Y-64682386D01*
X116150613Y-64713595D01*
X116016038Y-64824038D01*
X115905595Y-64958613D01*
X115823528Y-65112149D01*
X115772992Y-65278745D01*
X115755928Y-65451999D01*
X96969072Y-65451999D01*
X96952008Y-65278745D01*
X96901472Y-65112149D01*
X96819405Y-64958613D01*
X96708962Y-64824038D01*
X96574387Y-64713595D01*
X96516000Y-64682386D01*
X96516000Y-64628578D01*
X98664579Y-62480000D01*
X99122272Y-62480000D01*
X99174588Y-62606302D01*
X99408237Y-62955983D01*
X99705617Y-63253363D01*
X100055298Y-63487012D01*
X100443844Y-63647953D01*
X100856321Y-63730000D01*
X101276879Y-63730000D01*
X101689356Y-63647953D01*
X102077902Y-63487012D01*
X102427583Y-63253363D01*
X102724963Y-62955983D01*
X102958612Y-62606302D01*
X103119553Y-62217756D01*
X103201600Y-61805279D01*
X103201600Y-61384721D01*
X103119553Y-60972244D01*
X102958612Y-60583698D01*
X102724963Y-60234017D01*
X102427583Y-59936637D01*
X102077902Y-59702988D01*
X101689356Y-59542047D01*
X101276879Y-59460000D01*
X100856321Y-59460000D01*
X100443844Y-59542047D01*
X100055298Y-59702988D01*
X99705617Y-59936637D01*
X99408237Y-60234017D01*
X99174588Y-60583698D01*
X99122272Y-60710000D01*
X98341469Y-60710000D01*
X98298000Y-60705719D01*
X98254531Y-60710000D01*
X98254523Y-60710000D01*
X98124510Y-60722805D01*
X97957686Y-60773411D01*
X97803941Y-60855589D01*
X97702953Y-60938468D01*
X97702951Y-60938470D01*
X97669183Y-60966183D01*
X97641470Y-60999951D01*
X95035951Y-63605471D01*
X95002184Y-63633183D01*
X94974471Y-63666951D01*
X94974468Y-63666954D01*
X94891590Y-63767941D01*
X94809412Y-63921687D01*
X94758805Y-64088510D01*
X94741719Y-64262000D01*
X94746001Y-64305479D01*
X94746001Y-64682386D01*
X94687613Y-64713595D01*
X94553038Y-64824038D01*
X94442595Y-64958613D01*
X94360528Y-65112149D01*
X94309992Y-65278745D01*
X94292928Y-65451999D01*
X80543000Y-65451999D01*
X80543000Y-58209721D01*
X108202600Y-58209721D01*
X108202600Y-58630279D01*
X108284647Y-59042756D01*
X108445588Y-59431302D01*
X108679237Y-59780983D01*
X108976617Y-60078363D01*
X109326298Y-60312012D01*
X109714844Y-60472953D01*
X110127321Y-60555000D01*
X110547879Y-60555000D01*
X110635395Y-60537592D01*
X110604588Y-60583698D01*
X110443647Y-60972244D01*
X110361600Y-61384721D01*
X110361600Y-61805279D01*
X110443647Y-62217756D01*
X110604588Y-62606302D01*
X110838237Y-62955983D01*
X111135617Y-63253363D01*
X111485298Y-63487012D01*
X111873844Y-63647953D01*
X112286321Y-63730000D01*
X112706879Y-63730000D01*
X113119356Y-63647953D01*
X113507902Y-63487012D01*
X113857583Y-63253363D01*
X114154963Y-62955983D01*
X114388612Y-62606302D01*
X114549553Y-62217756D01*
X114631600Y-61805279D01*
X114631600Y-61384721D01*
X114549553Y-60972244D01*
X114388612Y-60583698D01*
X114154963Y-60234017D01*
X113857583Y-59936637D01*
X113507902Y-59702988D01*
X113119356Y-59542047D01*
X112706879Y-59460000D01*
X112286321Y-59460000D01*
X112198805Y-59477408D01*
X112229612Y-59431302D01*
X112390553Y-59042756D01*
X112472600Y-58630279D01*
X112472600Y-58273221D01*
X128802000Y-58273221D01*
X128802000Y-58693779D01*
X128884047Y-59106256D01*
X129044988Y-59494802D01*
X129278637Y-59844483D01*
X129576017Y-60141863D01*
X129925698Y-60375512D01*
X130314244Y-60536453D01*
X130726721Y-60618500D01*
X131147279Y-60618500D01*
X131234795Y-60601092D01*
X131203988Y-60647198D01*
X131043047Y-61035744D01*
X130961000Y-61448221D01*
X130961000Y-61868779D01*
X131043047Y-62281256D01*
X131203988Y-62669802D01*
X131437637Y-63019483D01*
X131735017Y-63316863D01*
X132084698Y-63550512D01*
X132473244Y-63711453D01*
X132885721Y-63793500D01*
X133306279Y-63793500D01*
X133718756Y-63711453D01*
X134107302Y-63550512D01*
X134456983Y-63316863D01*
X134754363Y-63019483D01*
X134988012Y-62669802D01*
X135148953Y-62281256D01*
X135231000Y-61868779D01*
X135231000Y-61448221D01*
X135148953Y-61035744D01*
X134988012Y-60647198D01*
X134754363Y-60297517D01*
X134456983Y-60000137D01*
X134107302Y-59766488D01*
X133718756Y-59605547D01*
X133306279Y-59523500D01*
X132885721Y-59523500D01*
X132798205Y-59540908D01*
X132829012Y-59494802D01*
X132989953Y-59106256D01*
X133072000Y-58693779D01*
X133072000Y-58273221D01*
X149325200Y-58273221D01*
X149325200Y-58693779D01*
X149407247Y-59106256D01*
X149568188Y-59494802D01*
X149801837Y-59844483D01*
X150099217Y-60141863D01*
X150448898Y-60375512D01*
X150837444Y-60536453D01*
X151249921Y-60618500D01*
X151670479Y-60618500D01*
X151757995Y-60601092D01*
X151727188Y-60647198D01*
X151566247Y-61035744D01*
X151484200Y-61448221D01*
X151484200Y-61868779D01*
X151566247Y-62281256D01*
X151727188Y-62669802D01*
X151960837Y-63019483D01*
X152258217Y-63316863D01*
X152607898Y-63550512D01*
X152996444Y-63711453D01*
X153408921Y-63793500D01*
X153829479Y-63793500D01*
X154241956Y-63711453D01*
X154630502Y-63550512D01*
X154980183Y-63316863D01*
X155277563Y-63019483D01*
X155511212Y-62669802D01*
X155672153Y-62281256D01*
X155754200Y-61868779D01*
X155754200Y-61448221D01*
X155672153Y-61035744D01*
X155511212Y-60647198D01*
X155277563Y-60297517D01*
X154980183Y-60000137D01*
X154630502Y-59766488D01*
X154241956Y-59605547D01*
X153829479Y-59523500D01*
X153408921Y-59523500D01*
X153321405Y-59540908D01*
X153352212Y-59494802D01*
X153513153Y-59106256D01*
X153595200Y-58693779D01*
X153595200Y-58273221D01*
X153592674Y-58260521D01*
X169924600Y-58260521D01*
X169924600Y-58681079D01*
X170006647Y-59093556D01*
X170167588Y-59482102D01*
X170401237Y-59831783D01*
X170698617Y-60129163D01*
X171048298Y-60362812D01*
X171436844Y-60523753D01*
X171849321Y-60605800D01*
X172269879Y-60605800D01*
X172357395Y-60588392D01*
X172326588Y-60634498D01*
X172165647Y-61023044D01*
X172083600Y-61435521D01*
X172083600Y-61856079D01*
X172165647Y-62268556D01*
X172326588Y-62657102D01*
X172560237Y-63006783D01*
X172857617Y-63304163D01*
X173207298Y-63537812D01*
X173595844Y-63698753D01*
X174008321Y-63780800D01*
X174428879Y-63780800D01*
X174841356Y-63698753D01*
X175229902Y-63537812D01*
X175579583Y-63304163D01*
X175876963Y-63006783D01*
X176110612Y-62657102D01*
X176271553Y-62268556D01*
X176353600Y-61856079D01*
X176353600Y-61435521D01*
X176271553Y-61023044D01*
X176110612Y-60634498D01*
X175876963Y-60284817D01*
X175579583Y-59987437D01*
X175229902Y-59753788D01*
X174841356Y-59592847D01*
X174428879Y-59510800D01*
X174008321Y-59510800D01*
X173920805Y-59528208D01*
X173951612Y-59482102D01*
X174112553Y-59093556D01*
X174194600Y-58681079D01*
X174194600Y-58260521D01*
X174130845Y-57940000D01*
X179793428Y-57940000D01*
X179793428Y-61440000D01*
X179805688Y-61564482D01*
X179841998Y-61684180D01*
X179900963Y-61794494D01*
X179980315Y-61891185D01*
X180077006Y-61970537D01*
X180187320Y-62029502D01*
X180307018Y-62065812D01*
X180431500Y-62078072D01*
X183856143Y-62078072D01*
X183727472Y-62117104D01*
X183465882Y-62256927D01*
X183236597Y-62445097D01*
X183048427Y-62674382D01*
X182908604Y-62935972D01*
X182822501Y-63219814D01*
X182793428Y-63515000D01*
X182793428Y-65265000D01*
X182822501Y-65560186D01*
X182908604Y-65844028D01*
X183048427Y-66105618D01*
X183236597Y-66334903D01*
X183465882Y-66523073D01*
X183727472Y-66662896D01*
X184011314Y-66748999D01*
X184306500Y-66778072D01*
X186056500Y-66778072D01*
X186351686Y-66748999D01*
X186635528Y-66662896D01*
X186897118Y-66523073D01*
X187046501Y-66400477D01*
X187046501Y-69539367D01*
X185965869Y-70620000D01*
X181935248Y-70620000D01*
X181768501Y-70636423D01*
X181554553Y-70701324D01*
X181357377Y-70806716D01*
X181184551Y-70948551D01*
X181042716Y-71121377D01*
X180937324Y-71318553D01*
X180872423Y-71532501D01*
X180850509Y-71755000D01*
X180872423Y-71977499D01*
X180937324Y-72191447D01*
X181042716Y-72388623D01*
X181184551Y-72561449D01*
X181357377Y-72703284D01*
X181554553Y-72808676D01*
X181768501Y-72873577D01*
X181935248Y-72890000D01*
X186380249Y-72890000D01*
X186436000Y-72895491D01*
X186491751Y-72890000D01*
X186491752Y-72890000D01*
X186658499Y-72873577D01*
X186872447Y-72808676D01*
X187069623Y-72703284D01*
X187242449Y-72561449D01*
X187277996Y-72518135D01*
X188944640Y-70851491D01*
X188987949Y-70815949D01*
X189129784Y-70643123D01*
X189235176Y-70445947D01*
X189300077Y-70231999D01*
X189316500Y-70065252D01*
X189321991Y-70009500D01*
X189316500Y-69953748D01*
X189316500Y-62016758D01*
X189462692Y-61972411D01*
X189702671Y-61844140D01*
X189913015Y-61671515D01*
X190085640Y-61461171D01*
X190213911Y-61221192D01*
X190292901Y-60960799D01*
X190319572Y-60690000D01*
X190319572Y-58690000D01*
X190292901Y-58419201D01*
X190213911Y-58158808D01*
X190085640Y-57918829D01*
X189913015Y-57708485D01*
X189702671Y-57535860D01*
X189462692Y-57407589D01*
X189202299Y-57328599D01*
X188931500Y-57301928D01*
X187431500Y-57301928D01*
X187160701Y-57328599D01*
X186900308Y-57407589D01*
X186660329Y-57535860D01*
X186449985Y-57708485D01*
X186277360Y-57918829D01*
X186149089Y-58158808D01*
X186070099Y-58419201D01*
X186043428Y-58690000D01*
X186043428Y-60690000D01*
X186070099Y-60960799D01*
X186149089Y-61221192D01*
X186277360Y-61461171D01*
X186449985Y-61671515D01*
X186660329Y-61844140D01*
X186900308Y-61972411D01*
X187046500Y-62016758D01*
X187046500Y-62379522D01*
X186897118Y-62256927D01*
X186635528Y-62117104D01*
X186351686Y-62031001D01*
X186056500Y-62001928D01*
X184306500Y-62001928D01*
X184209369Y-62011494D01*
X184285994Y-61970537D01*
X184382685Y-61891185D01*
X184462037Y-61794494D01*
X184521002Y-61684180D01*
X184557312Y-61564482D01*
X184569572Y-61440000D01*
X184569572Y-57940000D01*
X184557312Y-57815518D01*
X184521002Y-57695820D01*
X184462037Y-57585506D01*
X184382685Y-57488815D01*
X184285994Y-57409463D01*
X184175680Y-57350498D01*
X184055982Y-57314188D01*
X183931500Y-57301928D01*
X180431500Y-57301928D01*
X180307018Y-57314188D01*
X180187320Y-57350498D01*
X180077006Y-57409463D01*
X179980315Y-57488815D01*
X179900963Y-57585506D01*
X179841998Y-57695820D01*
X179805688Y-57815518D01*
X179793428Y-57940000D01*
X174130845Y-57940000D01*
X174112553Y-57848044D01*
X173951612Y-57459498D01*
X173717963Y-57109817D01*
X173420583Y-56812437D01*
X173070902Y-56578788D01*
X172682356Y-56417847D01*
X172269879Y-56335800D01*
X171849321Y-56335800D01*
X171436844Y-56417847D01*
X171048298Y-56578788D01*
X170698617Y-56812437D01*
X170401237Y-57109817D01*
X170167588Y-57459498D01*
X170006647Y-57848044D01*
X169924600Y-58260521D01*
X153592674Y-58260521D01*
X153513153Y-57860744D01*
X153352212Y-57472198D01*
X153118563Y-57122517D01*
X152821183Y-56825137D01*
X152471502Y-56591488D01*
X152082956Y-56430547D01*
X151670479Y-56348500D01*
X151249921Y-56348500D01*
X150837444Y-56430547D01*
X150448898Y-56591488D01*
X150099217Y-56825137D01*
X149801837Y-57122517D01*
X149568188Y-57472198D01*
X149407247Y-57860744D01*
X149325200Y-58273221D01*
X133072000Y-58273221D01*
X132989953Y-57860744D01*
X132829012Y-57472198D01*
X132595363Y-57122517D01*
X132297983Y-56825137D01*
X131948302Y-56591488D01*
X131559756Y-56430547D01*
X131147279Y-56348500D01*
X130726721Y-56348500D01*
X130314244Y-56430547D01*
X129925698Y-56591488D01*
X129576017Y-56825137D01*
X129278637Y-57122517D01*
X129044988Y-57472198D01*
X128884047Y-57860744D01*
X128802000Y-58273221D01*
X112472600Y-58273221D01*
X112472600Y-58209721D01*
X112390553Y-57797244D01*
X112229612Y-57408698D01*
X111995963Y-57059017D01*
X111698583Y-56761637D01*
X111348902Y-56527988D01*
X110960356Y-56367047D01*
X110547879Y-56285000D01*
X110127321Y-56285000D01*
X109714844Y-56367047D01*
X109326298Y-56527988D01*
X108976617Y-56761637D01*
X108679237Y-57059017D01*
X108445588Y-57408698D01*
X108284647Y-57797244D01*
X108202600Y-58209721D01*
X80543000Y-58209721D01*
X80543000Y-51908967D01*
X99431600Y-51908967D01*
X99431600Y-52231033D01*
X99494432Y-52546912D01*
X99617682Y-52844463D01*
X99796613Y-53112252D01*
X100024348Y-53339987D01*
X100292137Y-53518918D01*
X100589688Y-53642168D01*
X100905567Y-53705000D01*
X101227633Y-53705000D01*
X101543512Y-53642168D01*
X101841063Y-53518918D01*
X102108852Y-53339987D01*
X102336587Y-53112252D01*
X102515518Y-52844463D01*
X102635908Y-52553816D01*
X103748000Y-52553816D01*
X103748000Y-52856184D01*
X103806989Y-53152743D01*
X103922701Y-53432095D01*
X104090688Y-53683505D01*
X104304495Y-53897312D01*
X104555905Y-54065299D01*
X104835257Y-54181011D01*
X105131816Y-54240000D01*
X105434184Y-54240000D01*
X105730743Y-54181011D01*
X106010095Y-54065299D01*
X106261505Y-53897312D01*
X106475312Y-53683505D01*
X106643299Y-53432095D01*
X106759011Y-53152743D01*
X106818000Y-52856184D01*
X106818000Y-52553816D01*
X106759011Y-52257257D01*
X106643299Y-51977905D01*
X106597237Y-51908967D01*
X110861600Y-51908967D01*
X110861600Y-52231033D01*
X110924432Y-52546912D01*
X111047682Y-52844463D01*
X111226613Y-53112252D01*
X111454348Y-53339987D01*
X111722137Y-53518918D01*
X112019688Y-53642168D01*
X112335567Y-53705000D01*
X112657633Y-53705000D01*
X112973512Y-53642168D01*
X113271063Y-53518918D01*
X113538852Y-53339987D01*
X113766587Y-53112252D01*
X113945518Y-52844463D01*
X114068768Y-52546912D01*
X114131600Y-52231033D01*
X114131600Y-51972467D01*
X120031000Y-51972467D01*
X120031000Y-52294533D01*
X120093832Y-52610412D01*
X120217082Y-52907963D01*
X120396013Y-53175752D01*
X120623748Y-53403487D01*
X120891537Y-53582418D01*
X121189088Y-53705668D01*
X121504967Y-53768500D01*
X121827033Y-53768500D01*
X122142912Y-53705668D01*
X122440463Y-53582418D01*
X122708252Y-53403487D01*
X122935987Y-53175752D01*
X123114918Y-52907963D01*
X123209005Y-52680816D01*
X124322000Y-52680816D01*
X124322000Y-52983184D01*
X124380989Y-53279743D01*
X124496701Y-53559095D01*
X124664688Y-53810505D01*
X124878495Y-54024312D01*
X125129905Y-54192299D01*
X125409257Y-54308011D01*
X125705816Y-54367000D01*
X126008184Y-54367000D01*
X126304743Y-54308011D01*
X126584095Y-54192299D01*
X126835505Y-54024312D01*
X127049312Y-53810505D01*
X127217299Y-53559095D01*
X127333011Y-53279743D01*
X127392000Y-52983184D01*
X127392000Y-52680816D01*
X127333011Y-52384257D01*
X127217299Y-52104905D01*
X127128807Y-51972467D01*
X131461000Y-51972467D01*
X131461000Y-52294533D01*
X131523832Y-52610412D01*
X131647082Y-52907963D01*
X131826013Y-53175752D01*
X132053748Y-53403487D01*
X132321537Y-53582418D01*
X132619088Y-53705668D01*
X132934967Y-53768500D01*
X133257033Y-53768500D01*
X133572912Y-53705668D01*
X133870463Y-53582418D01*
X134138252Y-53403487D01*
X134365987Y-53175752D01*
X134544918Y-52907963D01*
X134668168Y-52610412D01*
X134731000Y-52294533D01*
X134731000Y-51972467D01*
X140554200Y-51972467D01*
X140554200Y-52294533D01*
X140617032Y-52610412D01*
X140740282Y-52907963D01*
X140919213Y-53175752D01*
X141146948Y-53403487D01*
X141414737Y-53582418D01*
X141712288Y-53705668D01*
X142028167Y-53768500D01*
X142350233Y-53768500D01*
X142666112Y-53705668D01*
X142963663Y-53582418D01*
X143231452Y-53403487D01*
X143459187Y-53175752D01*
X143638118Y-52907963D01*
X143732205Y-52680816D01*
X144896000Y-52680816D01*
X144896000Y-52983184D01*
X144954989Y-53279743D01*
X145070701Y-53559095D01*
X145238688Y-53810505D01*
X145452495Y-54024312D01*
X145703905Y-54192299D01*
X145983257Y-54308011D01*
X146279816Y-54367000D01*
X146582184Y-54367000D01*
X146878743Y-54308011D01*
X147158095Y-54192299D01*
X147409505Y-54024312D01*
X147623312Y-53810505D01*
X147791299Y-53559095D01*
X147907011Y-53279743D01*
X147966000Y-52983184D01*
X147966000Y-52680816D01*
X147907011Y-52384257D01*
X147791299Y-52104905D01*
X147702807Y-51972467D01*
X151984200Y-51972467D01*
X151984200Y-52294533D01*
X152047032Y-52610412D01*
X152170282Y-52907963D01*
X152349213Y-53175752D01*
X152576948Y-53403487D01*
X152844737Y-53582418D01*
X153142288Y-53705668D01*
X153458167Y-53768500D01*
X153780233Y-53768500D01*
X154096112Y-53705668D01*
X154393663Y-53582418D01*
X154661452Y-53403487D01*
X154889187Y-53175752D01*
X155068118Y-52907963D01*
X155191368Y-52610412D01*
X155254200Y-52294533D01*
X155254200Y-51972467D01*
X155251674Y-51959767D01*
X161153600Y-51959767D01*
X161153600Y-52281833D01*
X161216432Y-52597712D01*
X161339682Y-52895263D01*
X161518613Y-53163052D01*
X161746348Y-53390787D01*
X162014137Y-53569718D01*
X162311688Y-53692968D01*
X162627567Y-53755800D01*
X162949633Y-53755800D01*
X163265512Y-53692968D01*
X163563063Y-53569718D01*
X163830852Y-53390787D01*
X164058587Y-53163052D01*
X164237518Y-52895263D01*
X164360768Y-52597712D01*
X164369499Y-52553816D01*
X165470000Y-52553816D01*
X165470000Y-52856184D01*
X165528989Y-53152743D01*
X165644701Y-53432095D01*
X165812688Y-53683505D01*
X166026495Y-53897312D01*
X166277905Y-54065299D01*
X166557257Y-54181011D01*
X166853816Y-54240000D01*
X167156184Y-54240000D01*
X167452743Y-54181011D01*
X167732095Y-54065299D01*
X167983505Y-53897312D01*
X168197312Y-53683505D01*
X168365299Y-53432095D01*
X168481011Y-53152743D01*
X168540000Y-52856184D01*
X168540000Y-52553816D01*
X168481011Y-52257257D01*
X168365299Y-51977905D01*
X168353180Y-51959767D01*
X172583600Y-51959767D01*
X172583600Y-52281833D01*
X172646432Y-52597712D01*
X172769682Y-52895263D01*
X172948613Y-53163052D01*
X173176348Y-53390787D01*
X173444137Y-53569718D01*
X173741688Y-53692968D01*
X174057567Y-53755800D01*
X174379633Y-53755800D01*
X174695512Y-53692968D01*
X174993063Y-53569718D01*
X175260852Y-53390787D01*
X175488587Y-53163052D01*
X175667518Y-52895263D01*
X175790768Y-52597712D01*
X175853600Y-52281833D01*
X175853600Y-51959767D01*
X175790768Y-51643888D01*
X175667518Y-51346337D01*
X175488587Y-51078548D01*
X175260852Y-50850813D01*
X174993063Y-50671882D01*
X174695512Y-50548632D01*
X174379633Y-50485800D01*
X174057567Y-50485800D01*
X173741688Y-50548632D01*
X173444137Y-50671882D01*
X173176348Y-50850813D01*
X172948613Y-51078548D01*
X172769682Y-51346337D01*
X172646432Y-51643888D01*
X172583600Y-51959767D01*
X168353180Y-51959767D01*
X168197312Y-51726495D01*
X167983505Y-51512688D01*
X167732095Y-51344701D01*
X167452743Y-51228989D01*
X167156184Y-51170000D01*
X166853816Y-51170000D01*
X166557257Y-51228989D01*
X166277905Y-51344701D01*
X166026495Y-51512688D01*
X165812688Y-51726495D01*
X165644701Y-51977905D01*
X165528989Y-52257257D01*
X165470000Y-52553816D01*
X164369499Y-52553816D01*
X164423600Y-52281833D01*
X164423600Y-51959767D01*
X164360768Y-51643888D01*
X164237518Y-51346337D01*
X164058587Y-51078548D01*
X163830852Y-50850813D01*
X163563063Y-50671882D01*
X163265512Y-50548632D01*
X162949633Y-50485800D01*
X162627567Y-50485800D01*
X162311688Y-50548632D01*
X162014137Y-50671882D01*
X161746348Y-50850813D01*
X161518613Y-51078548D01*
X161339682Y-51346337D01*
X161216432Y-51643888D01*
X161153600Y-51959767D01*
X155251674Y-51959767D01*
X155191368Y-51656588D01*
X155068118Y-51359037D01*
X154889187Y-51091248D01*
X154661452Y-50863513D01*
X154393663Y-50684582D01*
X154096112Y-50561332D01*
X153780233Y-50498500D01*
X153458167Y-50498500D01*
X153142288Y-50561332D01*
X152844737Y-50684582D01*
X152576948Y-50863513D01*
X152349213Y-51091248D01*
X152170282Y-51359037D01*
X152047032Y-51656588D01*
X151984200Y-51972467D01*
X147702807Y-51972467D01*
X147623312Y-51853495D01*
X147409505Y-51639688D01*
X147158095Y-51471701D01*
X146878743Y-51355989D01*
X146582184Y-51297000D01*
X146279816Y-51297000D01*
X145983257Y-51355989D01*
X145703905Y-51471701D01*
X145452495Y-51639688D01*
X145238688Y-51853495D01*
X145070701Y-52104905D01*
X144954989Y-52384257D01*
X144896000Y-52680816D01*
X143732205Y-52680816D01*
X143761368Y-52610412D01*
X143824200Y-52294533D01*
X143824200Y-51972467D01*
X143761368Y-51656588D01*
X143638118Y-51359037D01*
X143459187Y-51091248D01*
X143231452Y-50863513D01*
X142963663Y-50684582D01*
X142666112Y-50561332D01*
X142350233Y-50498500D01*
X142028167Y-50498500D01*
X141712288Y-50561332D01*
X141414737Y-50684582D01*
X141146948Y-50863513D01*
X140919213Y-51091248D01*
X140740282Y-51359037D01*
X140617032Y-51656588D01*
X140554200Y-51972467D01*
X134731000Y-51972467D01*
X134668168Y-51656588D01*
X134544918Y-51359037D01*
X134365987Y-51091248D01*
X134138252Y-50863513D01*
X133870463Y-50684582D01*
X133572912Y-50561332D01*
X133257033Y-50498500D01*
X132934967Y-50498500D01*
X132619088Y-50561332D01*
X132321537Y-50684582D01*
X132053748Y-50863513D01*
X131826013Y-51091248D01*
X131647082Y-51359037D01*
X131523832Y-51656588D01*
X131461000Y-51972467D01*
X127128807Y-51972467D01*
X127049312Y-51853495D01*
X126835505Y-51639688D01*
X126584095Y-51471701D01*
X126304743Y-51355989D01*
X126008184Y-51297000D01*
X125705816Y-51297000D01*
X125409257Y-51355989D01*
X125129905Y-51471701D01*
X124878495Y-51639688D01*
X124664688Y-51853495D01*
X124496701Y-52104905D01*
X124380989Y-52384257D01*
X124322000Y-52680816D01*
X123209005Y-52680816D01*
X123238168Y-52610412D01*
X123301000Y-52294533D01*
X123301000Y-51972467D01*
X123238168Y-51656588D01*
X123114918Y-51359037D01*
X122935987Y-51091248D01*
X122708252Y-50863513D01*
X122440463Y-50684582D01*
X122142912Y-50561332D01*
X121827033Y-50498500D01*
X121504967Y-50498500D01*
X121189088Y-50561332D01*
X120891537Y-50684582D01*
X120623748Y-50863513D01*
X120396013Y-51091248D01*
X120217082Y-51359037D01*
X120093832Y-51656588D01*
X120031000Y-51972467D01*
X114131600Y-51972467D01*
X114131600Y-51908967D01*
X114068768Y-51593088D01*
X113945518Y-51295537D01*
X113766587Y-51027748D01*
X113538852Y-50800013D01*
X113271063Y-50621082D01*
X112973512Y-50497832D01*
X112657633Y-50435000D01*
X112335567Y-50435000D01*
X112019688Y-50497832D01*
X111722137Y-50621082D01*
X111454348Y-50800013D01*
X111226613Y-51027748D01*
X111047682Y-51295537D01*
X110924432Y-51593088D01*
X110861600Y-51908967D01*
X106597237Y-51908967D01*
X106475312Y-51726495D01*
X106261505Y-51512688D01*
X106010095Y-51344701D01*
X105730743Y-51228989D01*
X105434184Y-51170000D01*
X105131816Y-51170000D01*
X104835257Y-51228989D01*
X104555905Y-51344701D01*
X104304495Y-51512688D01*
X104090688Y-51726495D01*
X103922701Y-51977905D01*
X103806989Y-52257257D01*
X103748000Y-52553816D01*
X102635908Y-52553816D01*
X102638768Y-52546912D01*
X102701600Y-52231033D01*
X102701600Y-51908967D01*
X102638768Y-51593088D01*
X102515518Y-51295537D01*
X102336587Y-51027748D01*
X102108852Y-50800013D01*
X101841063Y-50621082D01*
X101543512Y-50497832D01*
X101227633Y-50435000D01*
X100905567Y-50435000D01*
X100589688Y-50497832D01*
X100292137Y-50621082D01*
X100024348Y-50800013D01*
X99796613Y-51027748D01*
X99617682Y-51295537D01*
X99494432Y-51593088D01*
X99431600Y-51908967D01*
X80543000Y-51908967D01*
X80543000Y-51327380D01*
X80791381Y-51079000D01*
X85946581Y-51079000D01*
X85979000Y-51082193D01*
X86011419Y-51079000D01*
X86108383Y-51069450D01*
X86232793Y-51031710D01*
X86347450Y-50970425D01*
X86447948Y-50887948D01*
X86530425Y-50787450D01*
X86591710Y-50672793D01*
X86629450Y-50548383D01*
X86642193Y-50419000D01*
X86639000Y-50386581D01*
X86639000Y-45548880D01*
X86887381Y-45300500D01*
X185400620Y-45300500D01*
X185649000Y-45548881D01*
%TD*%
M02*
