%TF.GenerationSoftware,KiCad,Pcbnew,5.1.6-c6e7f7d~87~ubuntu18.04.1*%
%TF.CreationDate,2020-09-21T19:35:09+01:00*%
%TF.ProjectId,ActiveSplitterPedal_SOIC14,41637469-7665-4537-906c-697474657250,rev?*%
%TF.SameCoordinates,Original*%
%TF.FileFunction,Legend,Top*%
%TF.FilePolarity,Positive*%
%FSLAX46Y46*%
G04 Gerber Fmt 4.6, Leading zero omitted, Abs format (unit mm)*
G04 Created by KiCad (PCBNEW 5.1.6-c6e7f7d~87~ubuntu18.04.1) date 2020-09-21 19:35:09*
%MOMM*%
%LPD*%
G01*
G04 APERTURE LIST*
%ADD10C,0.150000*%
%ADD11C,0.300000*%
%TA.AperFunction,Profile*%
%ADD12C,0.050000*%
%TD*%
%ADD13C,0.120000*%
G04 APERTURE END LIST*
D10*
X182054952Y-52772904D02*
X182207333Y-52772904D01*
X182283523Y-52734809D01*
X182321619Y-52696714D01*
X182397809Y-52582428D01*
X182435904Y-52430047D01*
X182435904Y-52125285D01*
X182397809Y-52049095D01*
X182359714Y-52011000D01*
X182283523Y-51972904D01*
X182131142Y-51972904D01*
X182054952Y-52011000D01*
X182016857Y-52049095D01*
X181978761Y-52125285D01*
X181978761Y-52315761D01*
X182016857Y-52391952D01*
X182054952Y-52430047D01*
X182131142Y-52468142D01*
X182283523Y-52468142D01*
X182359714Y-52430047D01*
X182397809Y-52391952D01*
X182435904Y-52315761D01*
X182664476Y-51972904D02*
X182931142Y-52772904D01*
X183197809Y-51972904D01*
X183464476Y-52772904D02*
X183464476Y-51972904D01*
X183654952Y-51972904D01*
X183769238Y-52011000D01*
X183845428Y-52087190D01*
X183883523Y-52163380D01*
X183921619Y-52315761D01*
X183921619Y-52430047D01*
X183883523Y-52582428D01*
X183845428Y-52658619D01*
X183769238Y-52734809D01*
X183654952Y-52772904D01*
X183464476Y-52772904D01*
X184721619Y-52696714D02*
X184683523Y-52734809D01*
X184569238Y-52772904D01*
X184493047Y-52772904D01*
X184378761Y-52734809D01*
X184302571Y-52658619D01*
X184264476Y-52582428D01*
X184226380Y-52430047D01*
X184226380Y-52315761D01*
X184264476Y-52163380D01*
X184302571Y-52087190D01*
X184378761Y-52011000D01*
X184493047Y-51972904D01*
X184569238Y-51972904D01*
X184683523Y-52011000D01*
X184721619Y-52049095D01*
X186093047Y-52772904D02*
X185635904Y-52772904D01*
X185864476Y-52772904D02*
X185864476Y-51972904D01*
X185788285Y-52087190D01*
X185712095Y-52163380D01*
X185635904Y-52201476D01*
X186816857Y-51972904D02*
X186435904Y-51972904D01*
X186397809Y-52353857D01*
X186435904Y-52315761D01*
X186512095Y-52277666D01*
X186702571Y-52277666D01*
X186778761Y-52315761D01*
X186816857Y-52353857D01*
X186854952Y-52430047D01*
X186854952Y-52620523D01*
X186816857Y-52696714D01*
X186778761Y-52734809D01*
X186702571Y-52772904D01*
X186512095Y-52772904D01*
X186435904Y-52734809D01*
X186397809Y-52696714D01*
X187350190Y-51972904D02*
X187426380Y-51972904D01*
X187502571Y-52011000D01*
X187540666Y-52049095D01*
X187578761Y-52125285D01*
X187616857Y-52277666D01*
X187616857Y-52468142D01*
X187578761Y-52620523D01*
X187540666Y-52696714D01*
X187502571Y-52734809D01*
X187426380Y-52772904D01*
X187350190Y-52772904D01*
X187274000Y-52734809D01*
X187235904Y-52696714D01*
X187197809Y-52620523D01*
X187159714Y-52468142D01*
X187159714Y-52277666D01*
X187197809Y-52125285D01*
X187235904Y-52049095D01*
X187274000Y-52011000D01*
X187350190Y-51972904D01*
X187959714Y-52772904D02*
X187959714Y-52239571D01*
X187959714Y-52315761D02*
X187997809Y-52277666D01*
X188074000Y-52239571D01*
X188188285Y-52239571D01*
X188264476Y-52277666D01*
X188302571Y-52353857D01*
X188302571Y-52772904D01*
X188302571Y-52353857D02*
X188340666Y-52277666D01*
X188416857Y-52239571D01*
X188531142Y-52239571D01*
X188607333Y-52277666D01*
X188645428Y-52353857D01*
X188645428Y-52772904D01*
X188988285Y-52544333D02*
X189369238Y-52544333D01*
X188912095Y-52772904D02*
X189178761Y-51972904D01*
X189445428Y-52772904D01*
X181350190Y-54046714D02*
X181312095Y-54084809D01*
X181197809Y-54122904D01*
X181121619Y-54122904D01*
X181007333Y-54084809D01*
X180931142Y-54008619D01*
X180893047Y-53932428D01*
X180854952Y-53780047D01*
X180854952Y-53665761D01*
X180893047Y-53513380D01*
X180931142Y-53437190D01*
X181007333Y-53361000D01*
X181121619Y-53322904D01*
X181197809Y-53322904D01*
X181312095Y-53361000D01*
X181350190Y-53399095D01*
X181997809Y-54084809D02*
X181921619Y-54122904D01*
X181769238Y-54122904D01*
X181693047Y-54084809D01*
X181654952Y-54008619D01*
X181654952Y-53703857D01*
X181693047Y-53627666D01*
X181769238Y-53589571D01*
X181921619Y-53589571D01*
X181997809Y-53627666D01*
X182035904Y-53703857D01*
X182035904Y-53780047D01*
X181654952Y-53856238D01*
X182378761Y-53589571D02*
X182378761Y-54122904D01*
X182378761Y-53665761D02*
X182416857Y-53627666D01*
X182493047Y-53589571D01*
X182607333Y-53589571D01*
X182683523Y-53627666D01*
X182721619Y-53703857D01*
X182721619Y-54122904D01*
X182988285Y-53589571D02*
X183293047Y-53589571D01*
X183102571Y-53322904D02*
X183102571Y-54008619D01*
X183140666Y-54084809D01*
X183216857Y-54122904D01*
X183293047Y-54122904D01*
X183864476Y-54084809D02*
X183788285Y-54122904D01*
X183635904Y-54122904D01*
X183559714Y-54084809D01*
X183521619Y-54008619D01*
X183521619Y-53703857D01*
X183559714Y-53627666D01*
X183635904Y-53589571D01*
X183788285Y-53589571D01*
X183864476Y-53627666D01*
X183902571Y-53703857D01*
X183902571Y-53780047D01*
X183521619Y-53856238D01*
X184245428Y-54122904D02*
X184245428Y-53589571D01*
X184245428Y-53741952D02*
X184283523Y-53665761D01*
X184321619Y-53627666D01*
X184397809Y-53589571D01*
X184474000Y-53589571D01*
X185350190Y-54122904D02*
X185350190Y-53322904D01*
X185807333Y-54122904D01*
X185807333Y-53322904D01*
X186493047Y-54084809D02*
X186416857Y-54122904D01*
X186264476Y-54122904D01*
X186188285Y-54084809D01*
X186150190Y-54008619D01*
X186150190Y-53703857D01*
X186188285Y-53627666D01*
X186264476Y-53589571D01*
X186416857Y-53589571D01*
X186493047Y-53627666D01*
X186531142Y-53703857D01*
X186531142Y-53780047D01*
X186150190Y-53856238D01*
X187216857Y-53589571D02*
X187216857Y-54237190D01*
X187178761Y-54313380D01*
X187140666Y-54351476D01*
X187064476Y-54389571D01*
X186950190Y-54389571D01*
X186874000Y-54351476D01*
X187216857Y-54084809D02*
X187140666Y-54122904D01*
X186988285Y-54122904D01*
X186912095Y-54084809D01*
X186874000Y-54046714D01*
X186835904Y-53970523D01*
X186835904Y-53741952D01*
X186874000Y-53665761D01*
X186912095Y-53627666D01*
X186988285Y-53589571D01*
X187140666Y-53589571D01*
X187216857Y-53627666D01*
X187940666Y-54122904D02*
X187940666Y-53703857D01*
X187902571Y-53627666D01*
X187826380Y-53589571D01*
X187674000Y-53589571D01*
X187597809Y-53627666D01*
X187940666Y-54084809D02*
X187864476Y-54122904D01*
X187674000Y-54122904D01*
X187597809Y-54084809D01*
X187559714Y-54008619D01*
X187559714Y-53932428D01*
X187597809Y-53856238D01*
X187674000Y-53818142D01*
X187864476Y-53818142D01*
X187940666Y-53780047D01*
X188207333Y-53589571D02*
X188512095Y-53589571D01*
X188321619Y-53322904D02*
X188321619Y-54008619D01*
X188359714Y-54084809D01*
X188435904Y-54122904D01*
X188512095Y-54122904D01*
X188778761Y-54122904D02*
X188778761Y-53589571D01*
X188778761Y-53322904D02*
X188740666Y-53361000D01*
X188778761Y-53399095D01*
X188816857Y-53361000D01*
X188778761Y-53322904D01*
X188778761Y-53399095D01*
X189083523Y-53589571D02*
X189274000Y-54122904D01*
X189464476Y-53589571D01*
X190074000Y-54084809D02*
X189997809Y-54122904D01*
X189845428Y-54122904D01*
X189769238Y-54084809D01*
X189731142Y-54008619D01*
X189731142Y-53703857D01*
X189769238Y-53627666D01*
X189845428Y-53589571D01*
X189997809Y-53589571D01*
X190074000Y-53627666D01*
X190112095Y-53703857D01*
X190112095Y-53780047D01*
X189731142Y-53856238D01*
X190454952Y-54046714D02*
X190493047Y-54084809D01*
X190454952Y-54122904D01*
X190416857Y-54084809D01*
X190454952Y-54046714D01*
X190454952Y-54122904D01*
X190454952Y-53818142D02*
X190416857Y-53361000D01*
X190454952Y-53322904D01*
X190493047Y-53361000D01*
X190454952Y-53818142D01*
X190454952Y-53322904D01*
D11*
X184404000Y-113817400D02*
X185420000Y-114833400D01*
X184404000Y-113817400D02*
X189484000Y-113817400D01*
X184404000Y-113817400D02*
X185420000Y-112801400D01*
X167005000Y-57404000D02*
X168021000Y-58420000D01*
X167005000Y-57404000D02*
X165989000Y-58420000D01*
X167005000Y-57404000D02*
X167005000Y-62484000D01*
X146380200Y-57404000D02*
X147396200Y-58420000D01*
X146380200Y-57404000D02*
X146380200Y-62484000D01*
X146380200Y-57404000D02*
X145364200Y-58420000D01*
X125857000Y-57404000D02*
X126873000Y-58420000D01*
X125857000Y-57404000D02*
X125857000Y-62484000D01*
X125857000Y-57404000D02*
X124841000Y-58420000D01*
X105257600Y-57404000D02*
X106273600Y-58420000D01*
X105257600Y-57404000D02*
X105257600Y-62484000D01*
X105257600Y-57404000D02*
X104241600Y-58420000D01*
D12*
X186309000Y-130429000D02*
X185674000Y-131064000D01*
X186309000Y-125349000D02*
X186309000Y-130429000D01*
X191770000Y-125349000D02*
X186309000Y-125349000D01*
X192405000Y-124714000D02*
X191770000Y-125349000D01*
X192405000Y-51054000D02*
X192405000Y-124714000D01*
X191770000Y-50419000D02*
X192405000Y-51054000D01*
X186309000Y-50419000D02*
X191770000Y-50419000D01*
X186309000Y-45275500D02*
X186309000Y-50419000D01*
X185674000Y-44640500D02*
X186309000Y-45275500D01*
X86614000Y-44640500D02*
X185674000Y-44640500D01*
X85979000Y-45275500D02*
X86614000Y-44640500D01*
X85979000Y-50419000D02*
X85979000Y-45275500D01*
X80518000Y-50419000D02*
X85979000Y-50419000D01*
X79883000Y-51054000D02*
X80518000Y-50419000D01*
X79883000Y-124777500D02*
X79883000Y-51054000D01*
X80518000Y-125412500D02*
X79883000Y-124777500D01*
X85979000Y-125412500D02*
X80518000Y-125412500D01*
X85979000Y-130429000D02*
X85979000Y-125412500D01*
X86614000Y-131064000D02*
X85979000Y-130429000D01*
X185674000Y-131064000D02*
X86614000Y-131064000D01*
D13*
%TO.C,R28*%
X94921000Y-66540748D02*
X94921000Y-67063252D01*
X96341000Y-66540748D02*
X96341000Y-67063252D01*
%TO.C,R27*%
X116384000Y-66540748D02*
X116384000Y-67063252D01*
X117804000Y-66540748D02*
X117804000Y-67063252D01*
%TO.C,R26*%
X136704000Y-66540748D02*
X136704000Y-67063252D01*
X138124000Y-66540748D02*
X138124000Y-67063252D01*
%TO.C,R25*%
X157024000Y-66540748D02*
X157024000Y-67063252D01*
X158444000Y-66540748D02*
X158444000Y-67063252D01*
%TO.C,RV1*%
X165785800Y-73533000D02*
X168275000Y-73533000D01*
X168275000Y-123748800D02*
X165785800Y-123748800D01*
X168275000Y-73533000D02*
X168275000Y-123748800D01*
X165785800Y-123748800D02*
X165785800Y-73533000D01*
X171450000Y-128803400D02*
X171450000Y-68605400D01*
X162560000Y-128803400D02*
X171450000Y-128803400D01*
X162560000Y-68605400D02*
X162560000Y-128803400D01*
X171450000Y-68605400D02*
X162560000Y-68605400D01*
X168097495Y-126720600D02*
G75*
G03*
X168097495Y-126720600I-1092495J0D01*
G01*
X168122895Y-70688200D02*
G75*
G03*
X168122895Y-70688200I-1092495J0D01*
G01*
%TO.C,RV2*%
X145211800Y-73533000D02*
X147701000Y-73533000D01*
X147701000Y-123748800D02*
X145211800Y-123748800D01*
X147701000Y-73533000D02*
X147701000Y-123748800D01*
X145211800Y-123748800D02*
X145211800Y-73533000D01*
X150876000Y-128803400D02*
X150876000Y-68605400D01*
X141986000Y-128803400D02*
X150876000Y-128803400D01*
X141986000Y-68605400D02*
X141986000Y-128803400D01*
X150876000Y-68605400D02*
X141986000Y-68605400D01*
X147523495Y-126720600D02*
G75*
G03*
X147523495Y-126720600I-1092495J0D01*
G01*
X147548895Y-70688200D02*
G75*
G03*
X147548895Y-70688200I-1092495J0D01*
G01*
%TO.C,RV3*%
X124612400Y-73583800D02*
X127101600Y-73583800D01*
X127101600Y-123799600D02*
X124612400Y-123799600D01*
X127101600Y-73583800D02*
X127101600Y-123799600D01*
X124612400Y-123799600D02*
X124612400Y-73583800D01*
X130276600Y-128854200D02*
X130276600Y-68656200D01*
X121386600Y-128854200D02*
X130276600Y-128854200D01*
X121386600Y-68656200D02*
X121386600Y-128854200D01*
X130276600Y-68656200D02*
X121386600Y-68656200D01*
X126924095Y-126771400D02*
G75*
G03*
X126924095Y-126771400I-1092495J0D01*
G01*
X126949495Y-70739000D02*
G75*
G03*
X126949495Y-70739000I-1092495J0D01*
G01*
%TO.C,RV4*%
X104038400Y-73533000D02*
X106527600Y-73533000D01*
X106527600Y-123748800D02*
X104038400Y-123748800D01*
X106527600Y-73533000D02*
X106527600Y-123748800D01*
X104038400Y-123748800D02*
X104038400Y-73533000D01*
X109702600Y-128803400D02*
X109702600Y-68605400D01*
X100812600Y-128803400D02*
X109702600Y-128803400D01*
X100812600Y-68605400D02*
X100812600Y-128803400D01*
X109702600Y-68605400D02*
X100812600Y-68605400D01*
X106350095Y-126720600D02*
G75*
G03*
X106350095Y-126720600I-1092495J0D01*
G01*
X106375495Y-70688200D02*
G75*
G03*
X106375495Y-70688200I-1092495J0D01*
G01*
%TO.C,D2*%
X169505000Y-53975000D02*
G75*
G03*
X169505000Y-53975000I-2500000J0D01*
G01*
X165460000Y-56535000D02*
X168550000Y-56535000D01*
X167004538Y-50985000D02*
G75*
G02*
X168549830Y-56535000I462J-2990000D01*
G01*
X167005462Y-50985000D02*
G75*
G03*
X165460170Y-56535000I-462J-2990000D01*
G01*
%TO.C,D8*%
X107783000Y-53975000D02*
G75*
G03*
X107783000Y-53975000I-2500000J0D01*
G01*
X103738000Y-56535000D02*
X106828000Y-56535000D01*
X105282538Y-50985000D02*
G75*
G02*
X106827830Y-56535000I462J-2990000D01*
G01*
X105283462Y-50985000D02*
G75*
G03*
X103738170Y-56535000I-462J-2990000D01*
G01*
%TO.C,D6*%
X128357000Y-54102000D02*
G75*
G03*
X128357000Y-54102000I-2500000J0D01*
G01*
X124312000Y-56662000D02*
X127402000Y-56662000D01*
X125856538Y-51112000D02*
G75*
G02*
X127401830Y-56662000I462J-2990000D01*
G01*
X125857462Y-51112000D02*
G75*
G03*
X124312170Y-56662000I-462J-2990000D01*
G01*
%TO.C,D4*%
X148931000Y-54102000D02*
G75*
G03*
X148931000Y-54102000I-2500000J0D01*
G01*
X144886000Y-56662000D02*
X147976000Y-56662000D01*
X146430538Y-51112000D02*
G75*
G02*
X147975830Y-56662000I462J-2990000D01*
G01*
X146431462Y-51112000D02*
G75*
G03*
X144886170Y-56662000I-462J-2990000D01*
G01*
%TD*%
%TO.C,R28*%
D10*
X97733380Y-67444857D02*
X97257190Y-67778190D01*
X97733380Y-68016285D02*
X96733380Y-68016285D01*
X96733380Y-67635333D01*
X96781000Y-67540095D01*
X96828619Y-67492476D01*
X96923857Y-67444857D01*
X97066714Y-67444857D01*
X97161952Y-67492476D01*
X97209571Y-67540095D01*
X97257190Y-67635333D01*
X97257190Y-68016285D01*
X96828619Y-67063904D02*
X96781000Y-67016285D01*
X96733380Y-66921047D01*
X96733380Y-66682952D01*
X96781000Y-66587714D01*
X96828619Y-66540095D01*
X96923857Y-66492476D01*
X97019095Y-66492476D01*
X97161952Y-66540095D01*
X97733380Y-67111523D01*
X97733380Y-66492476D01*
X97161952Y-65921047D02*
X97114333Y-66016285D01*
X97066714Y-66063904D01*
X96971476Y-66111523D01*
X96923857Y-66111523D01*
X96828619Y-66063904D01*
X96781000Y-66016285D01*
X96733380Y-65921047D01*
X96733380Y-65730571D01*
X96781000Y-65635333D01*
X96828619Y-65587714D01*
X96923857Y-65540095D01*
X96971476Y-65540095D01*
X97066714Y-65587714D01*
X97114333Y-65635333D01*
X97161952Y-65730571D01*
X97161952Y-65921047D01*
X97209571Y-66016285D01*
X97257190Y-66063904D01*
X97352428Y-66111523D01*
X97542904Y-66111523D01*
X97638142Y-66063904D01*
X97685761Y-66016285D01*
X97733380Y-65921047D01*
X97733380Y-65730571D01*
X97685761Y-65635333D01*
X97638142Y-65587714D01*
X97542904Y-65540095D01*
X97352428Y-65540095D01*
X97257190Y-65587714D01*
X97209571Y-65635333D01*
X97161952Y-65730571D01*
%TO.C,R27*%
X119196380Y-67444857D02*
X118720190Y-67778190D01*
X119196380Y-68016285D02*
X118196380Y-68016285D01*
X118196380Y-67635333D01*
X118244000Y-67540095D01*
X118291619Y-67492476D01*
X118386857Y-67444857D01*
X118529714Y-67444857D01*
X118624952Y-67492476D01*
X118672571Y-67540095D01*
X118720190Y-67635333D01*
X118720190Y-68016285D01*
X118291619Y-67063904D02*
X118244000Y-67016285D01*
X118196380Y-66921047D01*
X118196380Y-66682952D01*
X118244000Y-66587714D01*
X118291619Y-66540095D01*
X118386857Y-66492476D01*
X118482095Y-66492476D01*
X118624952Y-66540095D01*
X119196380Y-67111523D01*
X119196380Y-66492476D01*
X118196380Y-66159142D02*
X118196380Y-65492476D01*
X119196380Y-65921047D01*
%TO.C,R26*%
X139516380Y-67444857D02*
X139040190Y-67778190D01*
X139516380Y-68016285D02*
X138516380Y-68016285D01*
X138516380Y-67635333D01*
X138564000Y-67540095D01*
X138611619Y-67492476D01*
X138706857Y-67444857D01*
X138849714Y-67444857D01*
X138944952Y-67492476D01*
X138992571Y-67540095D01*
X139040190Y-67635333D01*
X139040190Y-68016285D01*
X138611619Y-67063904D02*
X138564000Y-67016285D01*
X138516380Y-66921047D01*
X138516380Y-66682952D01*
X138564000Y-66587714D01*
X138611619Y-66540095D01*
X138706857Y-66492476D01*
X138802095Y-66492476D01*
X138944952Y-66540095D01*
X139516380Y-67111523D01*
X139516380Y-66492476D01*
X138516380Y-65635333D02*
X138516380Y-65825809D01*
X138564000Y-65921047D01*
X138611619Y-65968666D01*
X138754476Y-66063904D01*
X138944952Y-66111523D01*
X139325904Y-66111523D01*
X139421142Y-66063904D01*
X139468761Y-66016285D01*
X139516380Y-65921047D01*
X139516380Y-65730571D01*
X139468761Y-65635333D01*
X139421142Y-65587714D01*
X139325904Y-65540095D01*
X139087809Y-65540095D01*
X138992571Y-65587714D01*
X138944952Y-65635333D01*
X138897333Y-65730571D01*
X138897333Y-65921047D01*
X138944952Y-66016285D01*
X138992571Y-66063904D01*
X139087809Y-66111523D01*
%TO.C,R25*%
X159836380Y-67444857D02*
X159360190Y-67778190D01*
X159836380Y-68016285D02*
X158836380Y-68016285D01*
X158836380Y-67635333D01*
X158884000Y-67540095D01*
X158931619Y-67492476D01*
X159026857Y-67444857D01*
X159169714Y-67444857D01*
X159264952Y-67492476D01*
X159312571Y-67540095D01*
X159360190Y-67635333D01*
X159360190Y-68016285D01*
X158931619Y-67063904D02*
X158884000Y-67016285D01*
X158836380Y-66921047D01*
X158836380Y-66682952D01*
X158884000Y-66587714D01*
X158931619Y-66540095D01*
X159026857Y-66492476D01*
X159122095Y-66492476D01*
X159264952Y-66540095D01*
X159836380Y-67111523D01*
X159836380Y-66492476D01*
X158836380Y-65587714D02*
X158836380Y-66063904D01*
X159312571Y-66111523D01*
X159264952Y-66063904D01*
X159217333Y-65968666D01*
X159217333Y-65730571D01*
X159264952Y-65635333D01*
X159312571Y-65587714D01*
X159407809Y-65540095D01*
X159645904Y-65540095D01*
X159741142Y-65587714D01*
X159788761Y-65635333D01*
X159836380Y-65730571D01*
X159836380Y-65968666D01*
X159788761Y-66063904D01*
X159741142Y-66111523D01*
%TO.C,RV1*%
X175077380Y-99299638D02*
X174601190Y-99632971D01*
X175077380Y-99871066D02*
X174077380Y-99871066D01*
X174077380Y-99490114D01*
X174125000Y-99394876D01*
X174172619Y-99347257D01*
X174267857Y-99299638D01*
X174410714Y-99299638D01*
X174505952Y-99347257D01*
X174553571Y-99394876D01*
X174601190Y-99490114D01*
X174601190Y-99871066D01*
X174077380Y-99013923D02*
X175077380Y-98680590D01*
X174077380Y-98347257D01*
X175077380Y-97490114D02*
X175077380Y-98061542D01*
X175077380Y-97775828D02*
X174077380Y-97775828D01*
X174220238Y-97871066D01*
X174315476Y-97966304D01*
X174363095Y-98061542D01*
%TO.C,RV2*%
X154503380Y-99299638D02*
X154027190Y-99632971D01*
X154503380Y-99871066D02*
X153503380Y-99871066D01*
X153503380Y-99490114D01*
X153551000Y-99394876D01*
X153598619Y-99347257D01*
X153693857Y-99299638D01*
X153836714Y-99299638D01*
X153931952Y-99347257D01*
X153979571Y-99394876D01*
X154027190Y-99490114D01*
X154027190Y-99871066D01*
X153503380Y-99013923D02*
X154503380Y-98680590D01*
X153503380Y-98347257D01*
X153598619Y-98061542D02*
X153551000Y-98013923D01*
X153503380Y-97918685D01*
X153503380Y-97680590D01*
X153551000Y-97585352D01*
X153598619Y-97537733D01*
X153693857Y-97490114D01*
X153789095Y-97490114D01*
X153931952Y-97537733D01*
X154503380Y-98109161D01*
X154503380Y-97490114D01*
%TO.C,RV3*%
X133903980Y-99350438D02*
X133427790Y-99683771D01*
X133903980Y-99921866D02*
X132903980Y-99921866D01*
X132903980Y-99540914D01*
X132951600Y-99445676D01*
X132999219Y-99398057D01*
X133094457Y-99350438D01*
X133237314Y-99350438D01*
X133332552Y-99398057D01*
X133380171Y-99445676D01*
X133427790Y-99540914D01*
X133427790Y-99921866D01*
X132903980Y-99064723D02*
X133903980Y-98731390D01*
X132903980Y-98398057D01*
X132903980Y-98159961D02*
X132903980Y-97540914D01*
X133284933Y-97874247D01*
X133284933Y-97731390D01*
X133332552Y-97636152D01*
X133380171Y-97588533D01*
X133475409Y-97540914D01*
X133713504Y-97540914D01*
X133808742Y-97588533D01*
X133856361Y-97636152D01*
X133903980Y-97731390D01*
X133903980Y-98017104D01*
X133856361Y-98112342D01*
X133808742Y-98159961D01*
%TO.C,RV4*%
X113329980Y-99299638D02*
X112853790Y-99632971D01*
X113329980Y-99871066D02*
X112329980Y-99871066D01*
X112329980Y-99490114D01*
X112377600Y-99394876D01*
X112425219Y-99347257D01*
X112520457Y-99299638D01*
X112663314Y-99299638D01*
X112758552Y-99347257D01*
X112806171Y-99394876D01*
X112853790Y-99490114D01*
X112853790Y-99871066D01*
X112329980Y-99013923D02*
X113329980Y-98680590D01*
X112329980Y-98347257D01*
X112663314Y-97585352D02*
X113329980Y-97585352D01*
X112282361Y-97823447D02*
X112996647Y-98061542D01*
X112996647Y-97442495D01*
%TO.C,D2*%
X166139904Y-50172880D02*
X166139904Y-49172880D01*
X166378000Y-49172880D01*
X166520857Y-49220500D01*
X166616095Y-49315738D01*
X166663714Y-49410976D01*
X166711333Y-49601452D01*
X166711333Y-49744309D01*
X166663714Y-49934785D01*
X166616095Y-50030023D01*
X166520857Y-50125261D01*
X166378000Y-50172880D01*
X166139904Y-50172880D01*
X167092285Y-49268119D02*
X167139904Y-49220500D01*
X167235142Y-49172880D01*
X167473238Y-49172880D01*
X167568476Y-49220500D01*
X167616095Y-49268119D01*
X167663714Y-49363357D01*
X167663714Y-49458595D01*
X167616095Y-49601452D01*
X167044666Y-50172880D01*
X167663714Y-50172880D01*
%TO.C,D8*%
X104544904Y-50236380D02*
X104544904Y-49236380D01*
X104783000Y-49236380D01*
X104925857Y-49284000D01*
X105021095Y-49379238D01*
X105068714Y-49474476D01*
X105116333Y-49664952D01*
X105116333Y-49807809D01*
X105068714Y-49998285D01*
X105021095Y-50093523D01*
X104925857Y-50188761D01*
X104783000Y-50236380D01*
X104544904Y-50236380D01*
X105687761Y-49664952D02*
X105592523Y-49617333D01*
X105544904Y-49569714D01*
X105497285Y-49474476D01*
X105497285Y-49426857D01*
X105544904Y-49331619D01*
X105592523Y-49284000D01*
X105687761Y-49236380D01*
X105878238Y-49236380D01*
X105973476Y-49284000D01*
X106021095Y-49331619D01*
X106068714Y-49426857D01*
X106068714Y-49474476D01*
X106021095Y-49569714D01*
X105973476Y-49617333D01*
X105878238Y-49664952D01*
X105687761Y-49664952D01*
X105592523Y-49712571D01*
X105544904Y-49760190D01*
X105497285Y-49855428D01*
X105497285Y-50045904D01*
X105544904Y-50141142D01*
X105592523Y-50188761D01*
X105687761Y-50236380D01*
X105878238Y-50236380D01*
X105973476Y-50188761D01*
X106021095Y-50141142D01*
X106068714Y-50045904D01*
X106068714Y-49855428D01*
X106021095Y-49760190D01*
X105973476Y-49712571D01*
X105878238Y-49664952D01*
%TO.C,D6*%
X125182404Y-50426880D02*
X125182404Y-49426880D01*
X125420500Y-49426880D01*
X125563357Y-49474500D01*
X125658595Y-49569738D01*
X125706214Y-49664976D01*
X125753833Y-49855452D01*
X125753833Y-49998309D01*
X125706214Y-50188785D01*
X125658595Y-50284023D01*
X125563357Y-50379261D01*
X125420500Y-50426880D01*
X125182404Y-50426880D01*
X126610976Y-49426880D02*
X126420500Y-49426880D01*
X126325261Y-49474500D01*
X126277642Y-49522119D01*
X126182404Y-49664976D01*
X126134785Y-49855452D01*
X126134785Y-50236404D01*
X126182404Y-50331642D01*
X126230023Y-50379261D01*
X126325261Y-50426880D01*
X126515738Y-50426880D01*
X126610976Y-50379261D01*
X126658595Y-50331642D01*
X126706214Y-50236404D01*
X126706214Y-49998309D01*
X126658595Y-49903071D01*
X126610976Y-49855452D01*
X126515738Y-49807833D01*
X126325261Y-49807833D01*
X126230023Y-49855452D01*
X126182404Y-49903071D01*
X126134785Y-49998309D01*
%TO.C,D4*%
X145692904Y-50299880D02*
X145692904Y-49299880D01*
X145931000Y-49299880D01*
X146073857Y-49347500D01*
X146169095Y-49442738D01*
X146216714Y-49537976D01*
X146264333Y-49728452D01*
X146264333Y-49871309D01*
X146216714Y-50061785D01*
X146169095Y-50157023D01*
X146073857Y-50252261D01*
X145931000Y-50299880D01*
X145692904Y-50299880D01*
X147121476Y-49633214D02*
X147121476Y-50299880D01*
X146883380Y-49252261D02*
X146645285Y-49966547D01*
X147264333Y-49966547D01*
%TD*%
M02*
