M48
; DRILL file {KiCad 5.1.6-c6e7f7d~87~ubuntu18.04.1} date Mon Sep 21 19:35:58 2020
; FORMAT={-:-/ absolute / inch / decimal}
; #@! TF.CreationDate,2020-09-21T19:35:58+01:00
; #@! TF.GenerationSoftware,Kicad,Pcbnew,5.1.6-c6e7f7d~87~ubuntu18.04.1
; #@! TF.FileFunction,Plated,1,2,PTH
FMAT,2
INCH
T1C0.0157
T2C0.0354
T3C0.0394
T4C0.0472
T5C0.0787
%
G90
G05
T1
X3.635Y-4.3276
X3.635Y-4.63
X3.69Y-4.18
X3.725Y-3.525
X3.87Y-4.12
X4.16Y-4.185
X4.17Y-3.14
X4.23Y-3.55
X4.355Y-3.55
X4.44Y-4.63
X4.445Y-4.3276
X4.5Y-4.15
X4.55Y-3.525
X4.68Y-4.12
X4.955Y-3.13
X4.96Y-4.175
X5.04Y-3.545
X5.18Y-3.545
X5.255Y-4.3276
X5.255Y-4.63
X5.31Y-4.15
X5.36Y-3.53
X5.49Y-4.125
X5.76Y-3.17
X5.77Y-4.175
X5.82Y-3.5554
X5.985Y-3.555
X6.065Y-4.325
X6.065Y-4.63
X6.1196Y-4.155
X6.1835Y-3.5365
X6.305Y-4.13
X6.58Y-4.185
X6.6Y-3.15
X6.62Y-4.63
X6.68Y-3.54
X6.83Y-3.54
X6.855Y-4.01
X6.86Y-3.765
X7.0375Y-4.03
X7.165Y-2.825
X7.32Y-3.39
X7.385Y-4.005
T2
X4.145Y-2.075
X4.145Y-2.175
X4.955Y-2.08
X4.955Y-2.18
X6.575Y-2.075
X6.575Y-2.175
X5.765Y-2.08
X5.765Y-2.18
T4
X4.885Y-2.737
X5.023Y-2.737
X5.023Y-5.04
X4.075Y-2.735
X4.213Y-2.735
X4.213Y-5.038
X6.506Y-2.735
X6.644Y-2.735
X6.644Y-5.038
X5.696Y-2.735
X5.834Y-2.735
X5.834Y-5.038
T5
X5.6Y-4.875
X5.601Y-2.898
X5.93Y-2.945
X5.93Y-4.827
X5.598Y-1.9275
X5.598Y-2.4275
X6.048Y-1.9275
X6.048Y-2.4275
X3.979Y-1.925
X3.979Y-2.425
X4.429Y-1.925
X4.429Y-2.425
X4.789Y-4.877
X4.79Y-2.9
X5.119Y-2.947
X5.119Y-4.829
X3.979Y-4.875
X3.98Y-2.898
X4.309Y-2.945
X4.309Y-4.827
X4.79Y-1.9275
X4.79Y-2.4275
X5.24Y-1.9275
X5.24Y-2.4275
X6.41Y-4.875
X6.411Y-2.898
X6.74Y-2.945
X6.74Y-4.827
X6.8975Y-4.315
X6.8975Y-4.765
X7.3975Y-4.315
X7.3975Y-4.765
X6.409Y-1.927
X6.409Y-2.427
X6.859Y-1.927
X6.859Y-2.427
T3
G00X7.1725Y-2.3894
M15
G01X7.1725Y-2.3106
M16
G05
G00X7.33Y-2.535
M15
G01X7.2512Y-2.535
M16
G05
G00X7.4087Y-2.3894
M15
G01X7.4087Y-2.3106
M16
G05
T0
M30
