%TF.GenerationSoftware,KiCad,Pcbnew,5.1.6-c6e7f7d~87~ubuntu18.04.1*%
%TF.CreationDate,2020-09-21T19:35:09+01:00*%
%TF.ProjectId,ActiveSplitterPedal_SOIC14,41637469-7665-4537-906c-697474657250,rev?*%
%TF.SameCoordinates,Original*%
%TF.FileFunction,Soldermask,Bot*%
%TF.FilePolarity,Negative*%
%FSLAX46Y46*%
G04 Gerber Fmt 4.6, Leading zero omitted, Abs format (unit mm)*
G04 Created by KiCad (PCBNEW 5.1.6-c6e7f7d~87~ubuntu18.04.1) date 2020-09-21 19:35:09*
%MOMM*%
%LPD*%
G01*
G04 APERTURE LIST*
%TA.AperFunction,Profile*%
%ADD10C,0.050000*%
%TD*%
%ADD11R,1.100000X1.100000*%
%ADD12R,1.200000X1.200000*%
%ADD13R,1.100000X3.100000*%
%ADD14C,2.600000*%
%ADD15C,3.600000*%
%ADD16R,0.900000X1.000000*%
%ADD17C,1.900000*%
%ADD18R,1.900000X1.900000*%
%ADD19C,3.100000*%
%ADD20C,2.100000*%
%ADD21R,3.600000X3.600000*%
G04 APERTURE END LIST*
D10*
X186309000Y-130429000D02*
X185674000Y-131064000D01*
X186309000Y-125349000D02*
X186309000Y-130429000D01*
X191770000Y-125349000D02*
X186309000Y-125349000D01*
X192405000Y-124714000D02*
X191770000Y-125349000D01*
X192405000Y-51054000D02*
X192405000Y-124714000D01*
X191770000Y-50419000D02*
X192405000Y-51054000D01*
X186309000Y-50419000D02*
X191770000Y-50419000D01*
X186309000Y-45275500D02*
X186309000Y-50419000D01*
X185674000Y-44640500D02*
X186309000Y-45275500D01*
X86614000Y-44640500D02*
X185674000Y-44640500D01*
X85979000Y-45275500D02*
X86614000Y-44640500D01*
X85979000Y-50419000D02*
X85979000Y-45275500D01*
X80518000Y-50419000D02*
X85979000Y-50419000D01*
X79883000Y-51054000D02*
X80518000Y-50419000D01*
X79883000Y-124777500D02*
X79883000Y-51054000D01*
X80518000Y-125412500D02*
X79883000Y-124777500D01*
X85979000Y-125412500D02*
X80518000Y-125412500D01*
X85979000Y-130429000D02*
X85979000Y-125412500D01*
X86614000Y-131064000D02*
X85979000Y-130429000D01*
X185674000Y-131064000D02*
X86614000Y-131064000D01*
D11*
%TO.C,TP3*%
X187579000Y-104521000D03*
%TD*%
%TO.C,TP2*%
X181356000Y-104521000D03*
%TD*%
%TO.C,TP1*%
X174244000Y-104521000D03*
%TD*%
%TO.C,U12*%
G36*
G01*
X102283000Y-93292000D02*
X101933000Y-93292000D01*
G75*
G02*
X101758000Y-93117000I0J175000D01*
G01*
X101758000Y-91417000D01*
G75*
G02*
X101933000Y-91242000I175000J0D01*
G01*
X102283000Y-91242000D01*
G75*
G02*
X102458000Y-91417000I0J-175000D01*
G01*
X102458000Y-93117000D01*
G75*
G02*
X102283000Y-93292000I-175000J0D01*
G01*
G37*
G36*
G01*
X101013000Y-93292000D02*
X100663000Y-93292000D01*
G75*
G02*
X100488000Y-93117000I0J175000D01*
G01*
X100488000Y-91417000D01*
G75*
G02*
X100663000Y-91242000I175000J0D01*
G01*
X101013000Y-91242000D01*
G75*
G02*
X101188000Y-91417000I0J-175000D01*
G01*
X101188000Y-93117000D01*
G75*
G02*
X101013000Y-93292000I-175000J0D01*
G01*
G37*
G36*
G01*
X99743000Y-93292000D02*
X99393000Y-93292000D01*
G75*
G02*
X99218000Y-93117000I0J175000D01*
G01*
X99218000Y-91417000D01*
G75*
G02*
X99393000Y-91242000I175000J0D01*
G01*
X99743000Y-91242000D01*
G75*
G02*
X99918000Y-91417000I0J-175000D01*
G01*
X99918000Y-93117000D01*
G75*
G02*
X99743000Y-93292000I-175000J0D01*
G01*
G37*
G36*
G01*
X98473000Y-93292000D02*
X98123000Y-93292000D01*
G75*
G02*
X97948000Y-93117000I0J175000D01*
G01*
X97948000Y-91417000D01*
G75*
G02*
X98123000Y-91242000I175000J0D01*
G01*
X98473000Y-91242000D01*
G75*
G02*
X98648000Y-91417000I0J-175000D01*
G01*
X98648000Y-93117000D01*
G75*
G02*
X98473000Y-93292000I-175000J0D01*
G01*
G37*
G36*
G01*
X97203000Y-93292000D02*
X96853000Y-93292000D01*
G75*
G02*
X96678000Y-93117000I0J175000D01*
G01*
X96678000Y-91417000D01*
G75*
G02*
X96853000Y-91242000I175000J0D01*
G01*
X97203000Y-91242000D01*
G75*
G02*
X97378000Y-91417000I0J-175000D01*
G01*
X97378000Y-93117000D01*
G75*
G02*
X97203000Y-93292000I-175000J0D01*
G01*
G37*
G36*
G01*
X95933000Y-93292000D02*
X95583000Y-93292000D01*
G75*
G02*
X95408000Y-93117000I0J175000D01*
G01*
X95408000Y-91417000D01*
G75*
G02*
X95583000Y-91242000I175000J0D01*
G01*
X95933000Y-91242000D01*
G75*
G02*
X96108000Y-91417000I0J-175000D01*
G01*
X96108000Y-93117000D01*
G75*
G02*
X95933000Y-93292000I-175000J0D01*
G01*
G37*
G36*
G01*
X94663000Y-93292000D02*
X94313000Y-93292000D01*
G75*
G02*
X94138000Y-93117000I0J175000D01*
G01*
X94138000Y-91417000D01*
G75*
G02*
X94313000Y-91242000I175000J0D01*
G01*
X94663000Y-91242000D01*
G75*
G02*
X94838000Y-91417000I0J-175000D01*
G01*
X94838000Y-93117000D01*
G75*
G02*
X94663000Y-93292000I-175000J0D01*
G01*
G37*
G36*
G01*
X94663000Y-98242000D02*
X94313000Y-98242000D01*
G75*
G02*
X94138000Y-98067000I0J175000D01*
G01*
X94138000Y-96367000D01*
G75*
G02*
X94313000Y-96192000I175000J0D01*
G01*
X94663000Y-96192000D01*
G75*
G02*
X94838000Y-96367000I0J-175000D01*
G01*
X94838000Y-98067000D01*
G75*
G02*
X94663000Y-98242000I-175000J0D01*
G01*
G37*
G36*
G01*
X95933000Y-98242000D02*
X95583000Y-98242000D01*
G75*
G02*
X95408000Y-98067000I0J175000D01*
G01*
X95408000Y-96367000D01*
G75*
G02*
X95583000Y-96192000I175000J0D01*
G01*
X95933000Y-96192000D01*
G75*
G02*
X96108000Y-96367000I0J-175000D01*
G01*
X96108000Y-98067000D01*
G75*
G02*
X95933000Y-98242000I-175000J0D01*
G01*
G37*
G36*
G01*
X97203000Y-98242000D02*
X96853000Y-98242000D01*
G75*
G02*
X96678000Y-98067000I0J175000D01*
G01*
X96678000Y-96367000D01*
G75*
G02*
X96853000Y-96192000I175000J0D01*
G01*
X97203000Y-96192000D01*
G75*
G02*
X97378000Y-96367000I0J-175000D01*
G01*
X97378000Y-98067000D01*
G75*
G02*
X97203000Y-98242000I-175000J0D01*
G01*
G37*
G36*
G01*
X98473000Y-98242000D02*
X98123000Y-98242000D01*
G75*
G02*
X97948000Y-98067000I0J175000D01*
G01*
X97948000Y-96367000D01*
G75*
G02*
X98123000Y-96192000I175000J0D01*
G01*
X98473000Y-96192000D01*
G75*
G02*
X98648000Y-96367000I0J-175000D01*
G01*
X98648000Y-98067000D01*
G75*
G02*
X98473000Y-98242000I-175000J0D01*
G01*
G37*
G36*
G01*
X99743000Y-98242000D02*
X99393000Y-98242000D01*
G75*
G02*
X99218000Y-98067000I0J175000D01*
G01*
X99218000Y-96367000D01*
G75*
G02*
X99393000Y-96192000I175000J0D01*
G01*
X99743000Y-96192000D01*
G75*
G02*
X99918000Y-96367000I0J-175000D01*
G01*
X99918000Y-98067000D01*
G75*
G02*
X99743000Y-98242000I-175000J0D01*
G01*
G37*
G36*
G01*
X101013000Y-98242000D02*
X100663000Y-98242000D01*
G75*
G02*
X100488000Y-98067000I0J175000D01*
G01*
X100488000Y-96367000D01*
G75*
G02*
X100663000Y-96192000I175000J0D01*
G01*
X101013000Y-96192000D01*
G75*
G02*
X101188000Y-96367000I0J-175000D01*
G01*
X101188000Y-98067000D01*
G75*
G02*
X101013000Y-98242000I-175000J0D01*
G01*
G37*
G36*
G01*
X102283000Y-98242000D02*
X101933000Y-98242000D01*
G75*
G02*
X101758000Y-98067000I0J175000D01*
G01*
X101758000Y-96367000D01*
G75*
G02*
X101933000Y-96192000I175000J0D01*
G01*
X102283000Y-96192000D01*
G75*
G02*
X102458000Y-96367000I0J-175000D01*
G01*
X102458000Y-98067000D01*
G75*
G02*
X102283000Y-98242000I-175000J0D01*
G01*
G37*
%TD*%
%TO.C,U9*%
G36*
G01*
X122857000Y-93292000D02*
X122507000Y-93292000D01*
G75*
G02*
X122332000Y-93117000I0J175000D01*
G01*
X122332000Y-91417000D01*
G75*
G02*
X122507000Y-91242000I175000J0D01*
G01*
X122857000Y-91242000D01*
G75*
G02*
X123032000Y-91417000I0J-175000D01*
G01*
X123032000Y-93117000D01*
G75*
G02*
X122857000Y-93292000I-175000J0D01*
G01*
G37*
G36*
G01*
X121587000Y-93292000D02*
X121237000Y-93292000D01*
G75*
G02*
X121062000Y-93117000I0J175000D01*
G01*
X121062000Y-91417000D01*
G75*
G02*
X121237000Y-91242000I175000J0D01*
G01*
X121587000Y-91242000D01*
G75*
G02*
X121762000Y-91417000I0J-175000D01*
G01*
X121762000Y-93117000D01*
G75*
G02*
X121587000Y-93292000I-175000J0D01*
G01*
G37*
G36*
G01*
X120317000Y-93292000D02*
X119967000Y-93292000D01*
G75*
G02*
X119792000Y-93117000I0J175000D01*
G01*
X119792000Y-91417000D01*
G75*
G02*
X119967000Y-91242000I175000J0D01*
G01*
X120317000Y-91242000D01*
G75*
G02*
X120492000Y-91417000I0J-175000D01*
G01*
X120492000Y-93117000D01*
G75*
G02*
X120317000Y-93292000I-175000J0D01*
G01*
G37*
G36*
G01*
X119047000Y-93292000D02*
X118697000Y-93292000D01*
G75*
G02*
X118522000Y-93117000I0J175000D01*
G01*
X118522000Y-91417000D01*
G75*
G02*
X118697000Y-91242000I175000J0D01*
G01*
X119047000Y-91242000D01*
G75*
G02*
X119222000Y-91417000I0J-175000D01*
G01*
X119222000Y-93117000D01*
G75*
G02*
X119047000Y-93292000I-175000J0D01*
G01*
G37*
G36*
G01*
X117777000Y-93292000D02*
X117427000Y-93292000D01*
G75*
G02*
X117252000Y-93117000I0J175000D01*
G01*
X117252000Y-91417000D01*
G75*
G02*
X117427000Y-91242000I175000J0D01*
G01*
X117777000Y-91242000D01*
G75*
G02*
X117952000Y-91417000I0J-175000D01*
G01*
X117952000Y-93117000D01*
G75*
G02*
X117777000Y-93292000I-175000J0D01*
G01*
G37*
G36*
G01*
X116507000Y-93292000D02*
X116157000Y-93292000D01*
G75*
G02*
X115982000Y-93117000I0J175000D01*
G01*
X115982000Y-91417000D01*
G75*
G02*
X116157000Y-91242000I175000J0D01*
G01*
X116507000Y-91242000D01*
G75*
G02*
X116682000Y-91417000I0J-175000D01*
G01*
X116682000Y-93117000D01*
G75*
G02*
X116507000Y-93292000I-175000J0D01*
G01*
G37*
G36*
G01*
X115237000Y-93292000D02*
X114887000Y-93292000D01*
G75*
G02*
X114712000Y-93117000I0J175000D01*
G01*
X114712000Y-91417000D01*
G75*
G02*
X114887000Y-91242000I175000J0D01*
G01*
X115237000Y-91242000D01*
G75*
G02*
X115412000Y-91417000I0J-175000D01*
G01*
X115412000Y-93117000D01*
G75*
G02*
X115237000Y-93292000I-175000J0D01*
G01*
G37*
G36*
G01*
X115237000Y-98242000D02*
X114887000Y-98242000D01*
G75*
G02*
X114712000Y-98067000I0J175000D01*
G01*
X114712000Y-96367000D01*
G75*
G02*
X114887000Y-96192000I175000J0D01*
G01*
X115237000Y-96192000D01*
G75*
G02*
X115412000Y-96367000I0J-175000D01*
G01*
X115412000Y-98067000D01*
G75*
G02*
X115237000Y-98242000I-175000J0D01*
G01*
G37*
G36*
G01*
X116507000Y-98242000D02*
X116157000Y-98242000D01*
G75*
G02*
X115982000Y-98067000I0J175000D01*
G01*
X115982000Y-96367000D01*
G75*
G02*
X116157000Y-96192000I175000J0D01*
G01*
X116507000Y-96192000D01*
G75*
G02*
X116682000Y-96367000I0J-175000D01*
G01*
X116682000Y-98067000D01*
G75*
G02*
X116507000Y-98242000I-175000J0D01*
G01*
G37*
G36*
G01*
X117777000Y-98242000D02*
X117427000Y-98242000D01*
G75*
G02*
X117252000Y-98067000I0J175000D01*
G01*
X117252000Y-96367000D01*
G75*
G02*
X117427000Y-96192000I175000J0D01*
G01*
X117777000Y-96192000D01*
G75*
G02*
X117952000Y-96367000I0J-175000D01*
G01*
X117952000Y-98067000D01*
G75*
G02*
X117777000Y-98242000I-175000J0D01*
G01*
G37*
G36*
G01*
X119047000Y-98242000D02*
X118697000Y-98242000D01*
G75*
G02*
X118522000Y-98067000I0J175000D01*
G01*
X118522000Y-96367000D01*
G75*
G02*
X118697000Y-96192000I175000J0D01*
G01*
X119047000Y-96192000D01*
G75*
G02*
X119222000Y-96367000I0J-175000D01*
G01*
X119222000Y-98067000D01*
G75*
G02*
X119047000Y-98242000I-175000J0D01*
G01*
G37*
G36*
G01*
X120317000Y-98242000D02*
X119967000Y-98242000D01*
G75*
G02*
X119792000Y-98067000I0J175000D01*
G01*
X119792000Y-96367000D01*
G75*
G02*
X119967000Y-96192000I175000J0D01*
G01*
X120317000Y-96192000D01*
G75*
G02*
X120492000Y-96367000I0J-175000D01*
G01*
X120492000Y-98067000D01*
G75*
G02*
X120317000Y-98242000I-175000J0D01*
G01*
G37*
G36*
G01*
X121587000Y-98242000D02*
X121237000Y-98242000D01*
G75*
G02*
X121062000Y-98067000I0J175000D01*
G01*
X121062000Y-96367000D01*
G75*
G02*
X121237000Y-96192000I175000J0D01*
G01*
X121587000Y-96192000D01*
G75*
G02*
X121762000Y-96367000I0J-175000D01*
G01*
X121762000Y-98067000D01*
G75*
G02*
X121587000Y-98242000I-175000J0D01*
G01*
G37*
G36*
G01*
X122857000Y-98242000D02*
X122507000Y-98242000D01*
G75*
G02*
X122332000Y-98067000I0J175000D01*
G01*
X122332000Y-96367000D01*
G75*
G02*
X122507000Y-96192000I175000J0D01*
G01*
X122857000Y-96192000D01*
G75*
G02*
X123032000Y-96367000I0J-175000D01*
G01*
X123032000Y-98067000D01*
G75*
G02*
X122857000Y-98242000I-175000J0D01*
G01*
G37*
%TD*%
%TO.C,U6*%
G36*
G01*
X143431000Y-93292000D02*
X143081000Y-93292000D01*
G75*
G02*
X142906000Y-93117000I0J175000D01*
G01*
X142906000Y-91417000D01*
G75*
G02*
X143081000Y-91242000I175000J0D01*
G01*
X143431000Y-91242000D01*
G75*
G02*
X143606000Y-91417000I0J-175000D01*
G01*
X143606000Y-93117000D01*
G75*
G02*
X143431000Y-93292000I-175000J0D01*
G01*
G37*
G36*
G01*
X142161000Y-93292000D02*
X141811000Y-93292000D01*
G75*
G02*
X141636000Y-93117000I0J175000D01*
G01*
X141636000Y-91417000D01*
G75*
G02*
X141811000Y-91242000I175000J0D01*
G01*
X142161000Y-91242000D01*
G75*
G02*
X142336000Y-91417000I0J-175000D01*
G01*
X142336000Y-93117000D01*
G75*
G02*
X142161000Y-93292000I-175000J0D01*
G01*
G37*
G36*
G01*
X140891000Y-93292000D02*
X140541000Y-93292000D01*
G75*
G02*
X140366000Y-93117000I0J175000D01*
G01*
X140366000Y-91417000D01*
G75*
G02*
X140541000Y-91242000I175000J0D01*
G01*
X140891000Y-91242000D01*
G75*
G02*
X141066000Y-91417000I0J-175000D01*
G01*
X141066000Y-93117000D01*
G75*
G02*
X140891000Y-93292000I-175000J0D01*
G01*
G37*
G36*
G01*
X139621000Y-93292000D02*
X139271000Y-93292000D01*
G75*
G02*
X139096000Y-93117000I0J175000D01*
G01*
X139096000Y-91417000D01*
G75*
G02*
X139271000Y-91242000I175000J0D01*
G01*
X139621000Y-91242000D01*
G75*
G02*
X139796000Y-91417000I0J-175000D01*
G01*
X139796000Y-93117000D01*
G75*
G02*
X139621000Y-93292000I-175000J0D01*
G01*
G37*
G36*
G01*
X138351000Y-93292000D02*
X138001000Y-93292000D01*
G75*
G02*
X137826000Y-93117000I0J175000D01*
G01*
X137826000Y-91417000D01*
G75*
G02*
X138001000Y-91242000I175000J0D01*
G01*
X138351000Y-91242000D01*
G75*
G02*
X138526000Y-91417000I0J-175000D01*
G01*
X138526000Y-93117000D01*
G75*
G02*
X138351000Y-93292000I-175000J0D01*
G01*
G37*
G36*
G01*
X137081000Y-93292000D02*
X136731000Y-93292000D01*
G75*
G02*
X136556000Y-93117000I0J175000D01*
G01*
X136556000Y-91417000D01*
G75*
G02*
X136731000Y-91242000I175000J0D01*
G01*
X137081000Y-91242000D01*
G75*
G02*
X137256000Y-91417000I0J-175000D01*
G01*
X137256000Y-93117000D01*
G75*
G02*
X137081000Y-93292000I-175000J0D01*
G01*
G37*
G36*
G01*
X135811000Y-93292000D02*
X135461000Y-93292000D01*
G75*
G02*
X135286000Y-93117000I0J175000D01*
G01*
X135286000Y-91417000D01*
G75*
G02*
X135461000Y-91242000I175000J0D01*
G01*
X135811000Y-91242000D01*
G75*
G02*
X135986000Y-91417000I0J-175000D01*
G01*
X135986000Y-93117000D01*
G75*
G02*
X135811000Y-93292000I-175000J0D01*
G01*
G37*
G36*
G01*
X135811000Y-98242000D02*
X135461000Y-98242000D01*
G75*
G02*
X135286000Y-98067000I0J175000D01*
G01*
X135286000Y-96367000D01*
G75*
G02*
X135461000Y-96192000I175000J0D01*
G01*
X135811000Y-96192000D01*
G75*
G02*
X135986000Y-96367000I0J-175000D01*
G01*
X135986000Y-98067000D01*
G75*
G02*
X135811000Y-98242000I-175000J0D01*
G01*
G37*
G36*
G01*
X137081000Y-98242000D02*
X136731000Y-98242000D01*
G75*
G02*
X136556000Y-98067000I0J175000D01*
G01*
X136556000Y-96367000D01*
G75*
G02*
X136731000Y-96192000I175000J0D01*
G01*
X137081000Y-96192000D01*
G75*
G02*
X137256000Y-96367000I0J-175000D01*
G01*
X137256000Y-98067000D01*
G75*
G02*
X137081000Y-98242000I-175000J0D01*
G01*
G37*
G36*
G01*
X138351000Y-98242000D02*
X138001000Y-98242000D01*
G75*
G02*
X137826000Y-98067000I0J175000D01*
G01*
X137826000Y-96367000D01*
G75*
G02*
X138001000Y-96192000I175000J0D01*
G01*
X138351000Y-96192000D01*
G75*
G02*
X138526000Y-96367000I0J-175000D01*
G01*
X138526000Y-98067000D01*
G75*
G02*
X138351000Y-98242000I-175000J0D01*
G01*
G37*
G36*
G01*
X139621000Y-98242000D02*
X139271000Y-98242000D01*
G75*
G02*
X139096000Y-98067000I0J175000D01*
G01*
X139096000Y-96367000D01*
G75*
G02*
X139271000Y-96192000I175000J0D01*
G01*
X139621000Y-96192000D01*
G75*
G02*
X139796000Y-96367000I0J-175000D01*
G01*
X139796000Y-98067000D01*
G75*
G02*
X139621000Y-98242000I-175000J0D01*
G01*
G37*
G36*
G01*
X140891000Y-98242000D02*
X140541000Y-98242000D01*
G75*
G02*
X140366000Y-98067000I0J175000D01*
G01*
X140366000Y-96367000D01*
G75*
G02*
X140541000Y-96192000I175000J0D01*
G01*
X140891000Y-96192000D01*
G75*
G02*
X141066000Y-96367000I0J-175000D01*
G01*
X141066000Y-98067000D01*
G75*
G02*
X140891000Y-98242000I-175000J0D01*
G01*
G37*
G36*
G01*
X142161000Y-98242000D02*
X141811000Y-98242000D01*
G75*
G02*
X141636000Y-98067000I0J175000D01*
G01*
X141636000Y-96367000D01*
G75*
G02*
X141811000Y-96192000I175000J0D01*
G01*
X142161000Y-96192000D01*
G75*
G02*
X142336000Y-96367000I0J-175000D01*
G01*
X142336000Y-98067000D01*
G75*
G02*
X142161000Y-98242000I-175000J0D01*
G01*
G37*
G36*
G01*
X143431000Y-98242000D02*
X143081000Y-98242000D01*
G75*
G02*
X142906000Y-98067000I0J175000D01*
G01*
X142906000Y-96367000D01*
G75*
G02*
X143081000Y-96192000I175000J0D01*
G01*
X143431000Y-96192000D01*
G75*
G02*
X143606000Y-96367000I0J-175000D01*
G01*
X143606000Y-98067000D01*
G75*
G02*
X143431000Y-98242000I-175000J0D01*
G01*
G37*
%TD*%
%TO.C,U3*%
G36*
G01*
X164259000Y-93292000D02*
X163909000Y-93292000D01*
G75*
G02*
X163734000Y-93117000I0J175000D01*
G01*
X163734000Y-91417000D01*
G75*
G02*
X163909000Y-91242000I175000J0D01*
G01*
X164259000Y-91242000D01*
G75*
G02*
X164434000Y-91417000I0J-175000D01*
G01*
X164434000Y-93117000D01*
G75*
G02*
X164259000Y-93292000I-175000J0D01*
G01*
G37*
G36*
G01*
X162989000Y-93292000D02*
X162639000Y-93292000D01*
G75*
G02*
X162464000Y-93117000I0J175000D01*
G01*
X162464000Y-91417000D01*
G75*
G02*
X162639000Y-91242000I175000J0D01*
G01*
X162989000Y-91242000D01*
G75*
G02*
X163164000Y-91417000I0J-175000D01*
G01*
X163164000Y-93117000D01*
G75*
G02*
X162989000Y-93292000I-175000J0D01*
G01*
G37*
G36*
G01*
X161719000Y-93292000D02*
X161369000Y-93292000D01*
G75*
G02*
X161194000Y-93117000I0J175000D01*
G01*
X161194000Y-91417000D01*
G75*
G02*
X161369000Y-91242000I175000J0D01*
G01*
X161719000Y-91242000D01*
G75*
G02*
X161894000Y-91417000I0J-175000D01*
G01*
X161894000Y-93117000D01*
G75*
G02*
X161719000Y-93292000I-175000J0D01*
G01*
G37*
G36*
G01*
X160449000Y-93292000D02*
X160099000Y-93292000D01*
G75*
G02*
X159924000Y-93117000I0J175000D01*
G01*
X159924000Y-91417000D01*
G75*
G02*
X160099000Y-91242000I175000J0D01*
G01*
X160449000Y-91242000D01*
G75*
G02*
X160624000Y-91417000I0J-175000D01*
G01*
X160624000Y-93117000D01*
G75*
G02*
X160449000Y-93292000I-175000J0D01*
G01*
G37*
G36*
G01*
X159179000Y-93292000D02*
X158829000Y-93292000D01*
G75*
G02*
X158654000Y-93117000I0J175000D01*
G01*
X158654000Y-91417000D01*
G75*
G02*
X158829000Y-91242000I175000J0D01*
G01*
X159179000Y-91242000D01*
G75*
G02*
X159354000Y-91417000I0J-175000D01*
G01*
X159354000Y-93117000D01*
G75*
G02*
X159179000Y-93292000I-175000J0D01*
G01*
G37*
G36*
G01*
X157909000Y-93292000D02*
X157559000Y-93292000D01*
G75*
G02*
X157384000Y-93117000I0J175000D01*
G01*
X157384000Y-91417000D01*
G75*
G02*
X157559000Y-91242000I175000J0D01*
G01*
X157909000Y-91242000D01*
G75*
G02*
X158084000Y-91417000I0J-175000D01*
G01*
X158084000Y-93117000D01*
G75*
G02*
X157909000Y-93292000I-175000J0D01*
G01*
G37*
G36*
G01*
X156639000Y-93292000D02*
X156289000Y-93292000D01*
G75*
G02*
X156114000Y-93117000I0J175000D01*
G01*
X156114000Y-91417000D01*
G75*
G02*
X156289000Y-91242000I175000J0D01*
G01*
X156639000Y-91242000D01*
G75*
G02*
X156814000Y-91417000I0J-175000D01*
G01*
X156814000Y-93117000D01*
G75*
G02*
X156639000Y-93292000I-175000J0D01*
G01*
G37*
G36*
G01*
X156639000Y-98242000D02*
X156289000Y-98242000D01*
G75*
G02*
X156114000Y-98067000I0J175000D01*
G01*
X156114000Y-96367000D01*
G75*
G02*
X156289000Y-96192000I175000J0D01*
G01*
X156639000Y-96192000D01*
G75*
G02*
X156814000Y-96367000I0J-175000D01*
G01*
X156814000Y-98067000D01*
G75*
G02*
X156639000Y-98242000I-175000J0D01*
G01*
G37*
G36*
G01*
X157909000Y-98242000D02*
X157559000Y-98242000D01*
G75*
G02*
X157384000Y-98067000I0J175000D01*
G01*
X157384000Y-96367000D01*
G75*
G02*
X157559000Y-96192000I175000J0D01*
G01*
X157909000Y-96192000D01*
G75*
G02*
X158084000Y-96367000I0J-175000D01*
G01*
X158084000Y-98067000D01*
G75*
G02*
X157909000Y-98242000I-175000J0D01*
G01*
G37*
G36*
G01*
X159179000Y-98242000D02*
X158829000Y-98242000D01*
G75*
G02*
X158654000Y-98067000I0J175000D01*
G01*
X158654000Y-96367000D01*
G75*
G02*
X158829000Y-96192000I175000J0D01*
G01*
X159179000Y-96192000D01*
G75*
G02*
X159354000Y-96367000I0J-175000D01*
G01*
X159354000Y-98067000D01*
G75*
G02*
X159179000Y-98242000I-175000J0D01*
G01*
G37*
G36*
G01*
X160449000Y-98242000D02*
X160099000Y-98242000D01*
G75*
G02*
X159924000Y-98067000I0J175000D01*
G01*
X159924000Y-96367000D01*
G75*
G02*
X160099000Y-96192000I175000J0D01*
G01*
X160449000Y-96192000D01*
G75*
G02*
X160624000Y-96367000I0J-175000D01*
G01*
X160624000Y-98067000D01*
G75*
G02*
X160449000Y-98242000I-175000J0D01*
G01*
G37*
G36*
G01*
X161719000Y-98242000D02*
X161369000Y-98242000D01*
G75*
G02*
X161194000Y-98067000I0J175000D01*
G01*
X161194000Y-96367000D01*
G75*
G02*
X161369000Y-96192000I175000J0D01*
G01*
X161719000Y-96192000D01*
G75*
G02*
X161894000Y-96367000I0J-175000D01*
G01*
X161894000Y-98067000D01*
G75*
G02*
X161719000Y-98242000I-175000J0D01*
G01*
G37*
G36*
G01*
X162989000Y-98242000D02*
X162639000Y-98242000D01*
G75*
G02*
X162464000Y-98067000I0J175000D01*
G01*
X162464000Y-96367000D01*
G75*
G02*
X162639000Y-96192000I175000J0D01*
G01*
X162989000Y-96192000D01*
G75*
G02*
X163164000Y-96367000I0J-175000D01*
G01*
X163164000Y-98067000D01*
G75*
G02*
X162989000Y-98242000I-175000J0D01*
G01*
G37*
G36*
G01*
X164259000Y-98242000D02*
X163909000Y-98242000D01*
G75*
G02*
X163734000Y-98067000I0J175000D01*
G01*
X163734000Y-96367000D01*
G75*
G02*
X163909000Y-96192000I175000J0D01*
G01*
X164259000Y-96192000D01*
G75*
G02*
X164434000Y-96367000I0J-175000D01*
G01*
X164434000Y-98067000D01*
G75*
G02*
X164259000Y-98242000I-175000J0D01*
G01*
G37*
%TD*%
%TO.C,R22*%
G36*
G01*
X101375738Y-85490000D02*
X102332262Y-85490000D01*
G75*
G02*
X102604000Y-85761738I0J-271738D01*
G01*
X102604000Y-86468262D01*
G75*
G02*
X102332262Y-86740000I-271738J0D01*
G01*
X101375738Y-86740000D01*
G75*
G02*
X101104000Y-86468262I0J271738D01*
G01*
X101104000Y-85761738D01*
G75*
G02*
X101375738Y-85490000I271738J0D01*
G01*
G37*
G36*
G01*
X101375738Y-83440000D02*
X102332262Y-83440000D01*
G75*
G02*
X102604000Y-83711738I0J-271738D01*
G01*
X102604000Y-84418262D01*
G75*
G02*
X102332262Y-84690000I-271738J0D01*
G01*
X101375738Y-84690000D01*
G75*
G02*
X101104000Y-84418262I0J271738D01*
G01*
X101104000Y-83711738D01*
G75*
G02*
X101375738Y-83440000I271738J0D01*
G01*
G37*
%TD*%
%TO.C,R16*%
G36*
G01*
X121441738Y-85490000D02*
X122398262Y-85490000D01*
G75*
G02*
X122670000Y-85761738I0J-271738D01*
G01*
X122670000Y-86468262D01*
G75*
G02*
X122398262Y-86740000I-271738J0D01*
G01*
X121441738Y-86740000D01*
G75*
G02*
X121170000Y-86468262I0J271738D01*
G01*
X121170000Y-85761738D01*
G75*
G02*
X121441738Y-85490000I271738J0D01*
G01*
G37*
G36*
G01*
X121441738Y-83440000D02*
X122398262Y-83440000D01*
G75*
G02*
X122670000Y-83711738I0J-271738D01*
G01*
X122670000Y-84418262D01*
G75*
G02*
X122398262Y-84690000I-271738J0D01*
G01*
X121441738Y-84690000D01*
G75*
G02*
X121170000Y-84418262I0J271738D01*
G01*
X121170000Y-83711738D01*
G75*
G02*
X121441738Y-83440000I271738J0D01*
G01*
G37*
%TD*%
%TO.C,R10*%
G36*
G01*
X142269738Y-85490000D02*
X143226262Y-85490000D01*
G75*
G02*
X143498000Y-85761738I0J-271738D01*
G01*
X143498000Y-86468262D01*
G75*
G02*
X143226262Y-86740000I-271738J0D01*
G01*
X142269738Y-86740000D01*
G75*
G02*
X141998000Y-86468262I0J271738D01*
G01*
X141998000Y-85761738D01*
G75*
G02*
X142269738Y-85490000I271738J0D01*
G01*
G37*
G36*
G01*
X142269738Y-83440000D02*
X143226262Y-83440000D01*
G75*
G02*
X143498000Y-83711738I0J-271738D01*
G01*
X143498000Y-84418262D01*
G75*
G02*
X143226262Y-84690000I-271738J0D01*
G01*
X142269738Y-84690000D01*
G75*
G02*
X141998000Y-84418262I0J271738D01*
G01*
X141998000Y-83711738D01*
G75*
G02*
X142269738Y-83440000I271738J0D01*
G01*
G37*
%TD*%
%TO.C,R4*%
G36*
G01*
X163097738Y-85490000D02*
X164054262Y-85490000D01*
G75*
G02*
X164326000Y-85761738I0J-271738D01*
G01*
X164326000Y-86468262D01*
G75*
G02*
X164054262Y-86740000I-271738J0D01*
G01*
X163097738Y-86740000D01*
G75*
G02*
X162826000Y-86468262I0J271738D01*
G01*
X162826000Y-85761738D01*
G75*
G02*
X163097738Y-85490000I271738J0D01*
G01*
G37*
G36*
G01*
X163097738Y-83440000D02*
X164054262Y-83440000D01*
G75*
G02*
X164326000Y-83711738I0J-271738D01*
G01*
X164326000Y-84418262D01*
G75*
G02*
X164054262Y-84690000I-271738J0D01*
G01*
X163097738Y-84690000D01*
G75*
G02*
X162826000Y-84418262I0J271738D01*
G01*
X162826000Y-83711738D01*
G75*
G02*
X163097738Y-83440000I271738J0D01*
G01*
G37*
%TD*%
D12*
%TO.C,D13*%
X100962000Y-100584000D03*
X103762000Y-100584000D03*
%TD*%
%TO.C,D12*%
X121536000Y-100584000D03*
X124336000Y-100584000D03*
%TD*%
%TO.C,D11*%
X142110000Y-100584000D03*
X144910000Y-100584000D03*
%TD*%
%TO.C,D10*%
X162938000Y-100584000D03*
X165738000Y-100584000D03*
%TD*%
%TO.C,C39*%
G36*
G01*
X107025456Y-85000000D02*
X104810544Y-85000000D01*
G75*
G02*
X104543000Y-84732456I0J267544D01*
G01*
X104543000Y-83742544D01*
G75*
G02*
X104810544Y-83475000I267544J0D01*
G01*
X107025456Y-83475000D01*
G75*
G02*
X107293000Y-83742544I0J-267544D01*
G01*
X107293000Y-84732456D01*
G75*
G02*
X107025456Y-85000000I-267544J0D01*
G01*
G37*
G36*
G01*
X107025456Y-87975000D02*
X104810544Y-87975000D01*
G75*
G02*
X104543000Y-87707456I0J267544D01*
G01*
X104543000Y-86717544D01*
G75*
G02*
X104810544Y-86450000I267544J0D01*
G01*
X107025456Y-86450000D01*
G75*
G02*
X107293000Y-86717544I0J-267544D01*
G01*
X107293000Y-87707456D01*
G75*
G02*
X107025456Y-87975000I-267544J0D01*
G01*
G37*
%TD*%
%TO.C,C28*%
G36*
G01*
X126964456Y-85000000D02*
X124749544Y-85000000D01*
G75*
G02*
X124482000Y-84732456I0J267544D01*
G01*
X124482000Y-83742544D01*
G75*
G02*
X124749544Y-83475000I267544J0D01*
G01*
X126964456Y-83475000D01*
G75*
G02*
X127232000Y-83742544I0J-267544D01*
G01*
X127232000Y-84732456D01*
G75*
G02*
X126964456Y-85000000I-267544J0D01*
G01*
G37*
G36*
G01*
X126964456Y-87975000D02*
X124749544Y-87975000D01*
G75*
G02*
X124482000Y-87707456I0J267544D01*
G01*
X124482000Y-86717544D01*
G75*
G02*
X124749544Y-86450000I267544J0D01*
G01*
X126964456Y-86450000D01*
G75*
G02*
X127232000Y-86717544I0J-267544D01*
G01*
X127232000Y-87707456D01*
G75*
G02*
X126964456Y-87975000I-267544J0D01*
G01*
G37*
%TD*%
%TO.C,C17*%
G36*
G01*
X147411456Y-84873000D02*
X145196544Y-84873000D01*
G75*
G02*
X144929000Y-84605456I0J267544D01*
G01*
X144929000Y-83615544D01*
G75*
G02*
X145196544Y-83348000I267544J0D01*
G01*
X147411456Y-83348000D01*
G75*
G02*
X147679000Y-83615544I0J-267544D01*
G01*
X147679000Y-84605456D01*
G75*
G02*
X147411456Y-84873000I-267544J0D01*
G01*
G37*
G36*
G01*
X147411456Y-87848000D02*
X145196544Y-87848000D01*
G75*
G02*
X144929000Y-87580456I0J267544D01*
G01*
X144929000Y-86590544D01*
G75*
G02*
X145196544Y-86323000I267544J0D01*
G01*
X147411456Y-86323000D01*
G75*
G02*
X147679000Y-86590544I0J-267544D01*
G01*
X147679000Y-87580456D01*
G75*
G02*
X147411456Y-87848000I-267544J0D01*
G01*
G37*
%TD*%
%TO.C,C6*%
G36*
G01*
X168747456Y-84873000D02*
X166532544Y-84873000D01*
G75*
G02*
X166265000Y-84605456I0J267544D01*
G01*
X166265000Y-83615544D01*
G75*
G02*
X166532544Y-83348000I267544J0D01*
G01*
X168747456Y-83348000D01*
G75*
G02*
X169015000Y-83615544I0J-267544D01*
G01*
X169015000Y-84605456D01*
G75*
G02*
X168747456Y-84873000I-267544J0D01*
G01*
G37*
G36*
G01*
X168747456Y-87848000D02*
X166532544Y-87848000D01*
G75*
G02*
X166265000Y-87580456I0J267544D01*
G01*
X166265000Y-86590544D01*
G75*
G02*
X166532544Y-86323000I267544J0D01*
G01*
X168747456Y-86323000D01*
G75*
G02*
X169015000Y-86590544I0J-267544D01*
G01*
X169015000Y-87580456D01*
G75*
G02*
X168747456Y-87848000I-267544J0D01*
G01*
G37*
%TD*%
%TO.C,D7*%
X107318000Y-94996000D03*
X104518000Y-94996000D03*
%TD*%
%TO.C,D5*%
X128400000Y-94996000D03*
X125600000Y-94996000D03*
%TD*%
%TO.C,D3*%
X148212000Y-94996000D03*
X145412000Y-94996000D03*
%TD*%
%TO.C,D1*%
X170056000Y-94869000D03*
X167256000Y-94869000D03*
%TD*%
D13*
%TO.C,U14*%
X185928000Y-93599000D03*
X178308000Y-93599000D03*
X188468000Y-83439000D03*
X185928000Y-83439000D03*
X180848000Y-83439000D03*
X178308000Y-83439000D03*
%TD*%
D14*
%TO.C,RV1*%
X168757600Y-69469000D03*
X165252400Y-69469000D03*
X168757600Y-127965200D03*
D15*
X171196000Y-74803000D03*
X162839400Y-73609200D03*
X171196000Y-122605800D03*
X162814000Y-123825000D03*
%TD*%
D14*
%TO.C,RV2*%
X148183600Y-69469000D03*
X144678400Y-69469000D03*
X148183600Y-127965200D03*
D15*
X150622000Y-74803000D03*
X142265400Y-73609200D03*
X150622000Y-122605800D03*
X142240000Y-123825000D03*
%TD*%
D14*
%TO.C,RV3*%
X127584200Y-69519800D03*
X124079000Y-69519800D03*
X127584200Y-128016000D03*
D15*
X130022600Y-74853800D03*
X121666000Y-73660000D03*
X130022600Y-122656600D03*
X121640600Y-123875800D03*
%TD*%
D14*
%TO.C,RV4*%
X107010200Y-69469000D03*
X103505000Y-69469000D03*
X107010200Y-127965200D03*
D15*
X109448600Y-74803000D03*
X101092000Y-73609200D03*
X109448600Y-122605800D03*
X101066600Y-123825000D03*
%TD*%
D16*
%TO.C,U1*%
X184785000Y-77740000D03*
X183835000Y-79740000D03*
X185735000Y-79740000D03*
%TD*%
%TO.C,C2*%
G36*
G01*
X179107000Y-79098544D02*
X179107000Y-80413456D01*
G75*
G02*
X178839456Y-80681000I-267544J0D01*
G01*
X177849544Y-80681000D01*
G75*
G02*
X177582000Y-80413456I0J267544D01*
G01*
X177582000Y-79098544D01*
G75*
G02*
X177849544Y-78831000I267544J0D01*
G01*
X178839456Y-78831000D01*
G75*
G02*
X179107000Y-79098544I0J-267544D01*
G01*
G37*
G36*
G01*
X182082000Y-79098544D02*
X182082000Y-80413456D01*
G75*
G02*
X181814456Y-80681000I-267544J0D01*
G01*
X180824544Y-80681000D01*
G75*
G02*
X180557000Y-80413456I0J267544D01*
G01*
X180557000Y-79098544D01*
G75*
G02*
X180824544Y-78831000I267544J0D01*
G01*
X181814456Y-78831000D01*
G75*
G02*
X182082000Y-79098544I0J-267544D01*
G01*
G37*
%TD*%
%TO.C,C1*%
G36*
G01*
X188191544Y-78830000D02*
X189506456Y-78830000D01*
G75*
G02*
X189774000Y-79097544I0J-267544D01*
G01*
X189774000Y-80087456D01*
G75*
G02*
X189506456Y-80355000I-267544J0D01*
G01*
X188191544Y-80355000D01*
G75*
G02*
X187924000Y-80087456I0J267544D01*
G01*
X187924000Y-79097544D01*
G75*
G02*
X188191544Y-78830000I267544J0D01*
G01*
G37*
G36*
G01*
X188191544Y-75855000D02*
X189506456Y-75855000D01*
G75*
G02*
X189774000Y-76122544I0J-267544D01*
G01*
X189774000Y-77112456D01*
G75*
G02*
X189506456Y-77380000I-267544J0D01*
G01*
X188191544Y-77380000D01*
G75*
G02*
X187924000Y-77112456I0J267544D01*
G01*
X187924000Y-76122544D01*
G75*
G02*
X188191544Y-75855000I267544J0D01*
G01*
G37*
%TD*%
%TO.C,U16*%
X187579000Y-99425000D03*
X188529000Y-97425000D03*
X186629000Y-97425000D03*
%TD*%
%TO.C,U15*%
X177800000Y-97425000D03*
X176850000Y-99425000D03*
X178750000Y-99425000D03*
%TD*%
%TO.C,C50*%
G36*
G01*
X183993262Y-98025000D02*
X183036738Y-98025000D01*
G75*
G02*
X182765000Y-97753262I0J271738D01*
G01*
X182765000Y-97046738D01*
G75*
G02*
X183036738Y-96775000I271738J0D01*
G01*
X183993262Y-96775000D01*
G75*
G02*
X184265000Y-97046738I0J-271738D01*
G01*
X184265000Y-97753262D01*
G75*
G02*
X183993262Y-98025000I-271738J0D01*
G01*
G37*
G36*
G01*
X183993262Y-100075000D02*
X183036738Y-100075000D01*
G75*
G02*
X182765000Y-99803262I0J271738D01*
G01*
X182765000Y-99096738D01*
G75*
G02*
X183036738Y-98825000I271738J0D01*
G01*
X183993262Y-98825000D01*
G75*
G02*
X184265000Y-99096738I0J-271738D01*
G01*
X184265000Y-99803262D01*
G75*
G02*
X183993262Y-100075000I-271738J0D01*
G01*
G37*
%TD*%
%TO.C,C49*%
G36*
G01*
X174722262Y-98025000D02*
X173765738Y-98025000D01*
G75*
G02*
X173494000Y-97753262I0J271738D01*
G01*
X173494000Y-97046738D01*
G75*
G02*
X173765738Y-96775000I271738J0D01*
G01*
X174722262Y-96775000D01*
G75*
G02*
X174994000Y-97046738I0J-271738D01*
G01*
X174994000Y-97753262D01*
G75*
G02*
X174722262Y-98025000I-271738J0D01*
G01*
G37*
G36*
G01*
X174722262Y-100075000D02*
X173765738Y-100075000D01*
G75*
G02*
X173494000Y-99803262I0J271738D01*
G01*
X173494000Y-99096738D01*
G75*
G02*
X173765738Y-98825000I271738J0D01*
G01*
X174722262Y-98825000D01*
G75*
G02*
X174994000Y-99096738I0J-271738D01*
G01*
X174994000Y-99803262D01*
G75*
G02*
X174722262Y-100075000I-271738J0D01*
G01*
G37*
%TD*%
%TO.C,C48*%
G36*
G01*
X191105262Y-98025000D02*
X190148738Y-98025000D01*
G75*
G02*
X189877000Y-97753262I0J271738D01*
G01*
X189877000Y-97046738D01*
G75*
G02*
X190148738Y-96775000I271738J0D01*
G01*
X191105262Y-96775000D01*
G75*
G02*
X191377000Y-97046738I0J-271738D01*
G01*
X191377000Y-97753262D01*
G75*
G02*
X191105262Y-98025000I-271738J0D01*
G01*
G37*
G36*
G01*
X191105262Y-100075000D02*
X190148738Y-100075000D01*
G75*
G02*
X189877000Y-99803262I0J271738D01*
G01*
X189877000Y-99096738D01*
G75*
G02*
X190148738Y-98825000I271738J0D01*
G01*
X191105262Y-98825000D01*
G75*
G02*
X191377000Y-99096738I0J-271738D01*
G01*
X191377000Y-99803262D01*
G75*
G02*
X191105262Y-100075000I-271738J0D01*
G01*
G37*
%TD*%
%TO.C,C3*%
G36*
G01*
X180877738Y-98825000D02*
X181834262Y-98825000D01*
G75*
G02*
X182106000Y-99096738I0J-271738D01*
G01*
X182106000Y-99803262D01*
G75*
G02*
X181834262Y-100075000I-271738J0D01*
G01*
X180877738Y-100075000D01*
G75*
G02*
X180606000Y-99803262I0J271738D01*
G01*
X180606000Y-99096738D01*
G75*
G02*
X180877738Y-98825000I271738J0D01*
G01*
G37*
G36*
G01*
X180877738Y-96775000D02*
X181834262Y-96775000D01*
G75*
G02*
X182106000Y-97046738I0J-271738D01*
G01*
X182106000Y-97753262D01*
G75*
G02*
X181834262Y-98025000I-271738J0D01*
G01*
X180877738Y-98025000D01*
G75*
G02*
X180606000Y-97753262I0J271738D01*
G01*
X180606000Y-97046738D01*
G75*
G02*
X180877738Y-96775000I271738J0D01*
G01*
G37*
%TD*%
D17*
%TO.C,D2*%
X167005000Y-52705000D03*
D18*
X167005000Y-55245000D03*
%TD*%
%TO.C,U11*%
G36*
G01*
X98473000Y-110945000D02*
X98123000Y-110945000D01*
G75*
G02*
X97948000Y-110770000I0J175000D01*
G01*
X97948000Y-109070000D01*
G75*
G02*
X98123000Y-108895000I175000J0D01*
G01*
X98473000Y-108895000D01*
G75*
G02*
X98648000Y-109070000I0J-175000D01*
G01*
X98648000Y-110770000D01*
G75*
G02*
X98473000Y-110945000I-175000J0D01*
G01*
G37*
G36*
G01*
X97203000Y-110945000D02*
X96853000Y-110945000D01*
G75*
G02*
X96678000Y-110770000I0J175000D01*
G01*
X96678000Y-109070000D01*
G75*
G02*
X96853000Y-108895000I175000J0D01*
G01*
X97203000Y-108895000D01*
G75*
G02*
X97378000Y-109070000I0J-175000D01*
G01*
X97378000Y-110770000D01*
G75*
G02*
X97203000Y-110945000I-175000J0D01*
G01*
G37*
G36*
G01*
X95933000Y-110945000D02*
X95583000Y-110945000D01*
G75*
G02*
X95408000Y-110770000I0J175000D01*
G01*
X95408000Y-109070000D01*
G75*
G02*
X95583000Y-108895000I175000J0D01*
G01*
X95933000Y-108895000D01*
G75*
G02*
X96108000Y-109070000I0J-175000D01*
G01*
X96108000Y-110770000D01*
G75*
G02*
X95933000Y-110945000I-175000J0D01*
G01*
G37*
G36*
G01*
X94663000Y-110945000D02*
X94313000Y-110945000D01*
G75*
G02*
X94138000Y-110770000I0J175000D01*
G01*
X94138000Y-109070000D01*
G75*
G02*
X94313000Y-108895000I175000J0D01*
G01*
X94663000Y-108895000D01*
G75*
G02*
X94838000Y-109070000I0J-175000D01*
G01*
X94838000Y-110770000D01*
G75*
G02*
X94663000Y-110945000I-175000J0D01*
G01*
G37*
G36*
G01*
X94663000Y-115895000D02*
X94313000Y-115895000D01*
G75*
G02*
X94138000Y-115720000I0J175000D01*
G01*
X94138000Y-114020000D01*
G75*
G02*
X94313000Y-113845000I175000J0D01*
G01*
X94663000Y-113845000D01*
G75*
G02*
X94838000Y-114020000I0J-175000D01*
G01*
X94838000Y-115720000D01*
G75*
G02*
X94663000Y-115895000I-175000J0D01*
G01*
G37*
G36*
G01*
X95933000Y-115895000D02*
X95583000Y-115895000D01*
G75*
G02*
X95408000Y-115720000I0J175000D01*
G01*
X95408000Y-114020000D01*
G75*
G02*
X95583000Y-113845000I175000J0D01*
G01*
X95933000Y-113845000D01*
G75*
G02*
X96108000Y-114020000I0J-175000D01*
G01*
X96108000Y-115720000D01*
G75*
G02*
X95933000Y-115895000I-175000J0D01*
G01*
G37*
G36*
G01*
X97203000Y-115895000D02*
X96853000Y-115895000D01*
G75*
G02*
X96678000Y-115720000I0J175000D01*
G01*
X96678000Y-114020000D01*
G75*
G02*
X96853000Y-113845000I175000J0D01*
G01*
X97203000Y-113845000D01*
G75*
G02*
X97378000Y-114020000I0J-175000D01*
G01*
X97378000Y-115720000D01*
G75*
G02*
X97203000Y-115895000I-175000J0D01*
G01*
G37*
G36*
G01*
X98473000Y-115895000D02*
X98123000Y-115895000D01*
G75*
G02*
X97948000Y-115720000I0J175000D01*
G01*
X97948000Y-114020000D01*
G75*
G02*
X98123000Y-113845000I175000J0D01*
G01*
X98473000Y-113845000D01*
G75*
G02*
X98648000Y-114020000I0J-175000D01*
G01*
X98648000Y-115720000D01*
G75*
G02*
X98473000Y-115895000I-175000J0D01*
G01*
G37*
%TD*%
%TO.C,U8*%
G36*
G01*
X119047000Y-110945000D02*
X118697000Y-110945000D01*
G75*
G02*
X118522000Y-110770000I0J175000D01*
G01*
X118522000Y-109070000D01*
G75*
G02*
X118697000Y-108895000I175000J0D01*
G01*
X119047000Y-108895000D01*
G75*
G02*
X119222000Y-109070000I0J-175000D01*
G01*
X119222000Y-110770000D01*
G75*
G02*
X119047000Y-110945000I-175000J0D01*
G01*
G37*
G36*
G01*
X117777000Y-110945000D02*
X117427000Y-110945000D01*
G75*
G02*
X117252000Y-110770000I0J175000D01*
G01*
X117252000Y-109070000D01*
G75*
G02*
X117427000Y-108895000I175000J0D01*
G01*
X117777000Y-108895000D01*
G75*
G02*
X117952000Y-109070000I0J-175000D01*
G01*
X117952000Y-110770000D01*
G75*
G02*
X117777000Y-110945000I-175000J0D01*
G01*
G37*
G36*
G01*
X116507000Y-110945000D02*
X116157000Y-110945000D01*
G75*
G02*
X115982000Y-110770000I0J175000D01*
G01*
X115982000Y-109070000D01*
G75*
G02*
X116157000Y-108895000I175000J0D01*
G01*
X116507000Y-108895000D01*
G75*
G02*
X116682000Y-109070000I0J-175000D01*
G01*
X116682000Y-110770000D01*
G75*
G02*
X116507000Y-110945000I-175000J0D01*
G01*
G37*
G36*
G01*
X115237000Y-110945000D02*
X114887000Y-110945000D01*
G75*
G02*
X114712000Y-110770000I0J175000D01*
G01*
X114712000Y-109070000D01*
G75*
G02*
X114887000Y-108895000I175000J0D01*
G01*
X115237000Y-108895000D01*
G75*
G02*
X115412000Y-109070000I0J-175000D01*
G01*
X115412000Y-110770000D01*
G75*
G02*
X115237000Y-110945000I-175000J0D01*
G01*
G37*
G36*
G01*
X115237000Y-115895000D02*
X114887000Y-115895000D01*
G75*
G02*
X114712000Y-115720000I0J175000D01*
G01*
X114712000Y-114020000D01*
G75*
G02*
X114887000Y-113845000I175000J0D01*
G01*
X115237000Y-113845000D01*
G75*
G02*
X115412000Y-114020000I0J-175000D01*
G01*
X115412000Y-115720000D01*
G75*
G02*
X115237000Y-115895000I-175000J0D01*
G01*
G37*
G36*
G01*
X116507000Y-115895000D02*
X116157000Y-115895000D01*
G75*
G02*
X115982000Y-115720000I0J175000D01*
G01*
X115982000Y-114020000D01*
G75*
G02*
X116157000Y-113845000I175000J0D01*
G01*
X116507000Y-113845000D01*
G75*
G02*
X116682000Y-114020000I0J-175000D01*
G01*
X116682000Y-115720000D01*
G75*
G02*
X116507000Y-115895000I-175000J0D01*
G01*
G37*
G36*
G01*
X117777000Y-115895000D02*
X117427000Y-115895000D01*
G75*
G02*
X117252000Y-115720000I0J175000D01*
G01*
X117252000Y-114020000D01*
G75*
G02*
X117427000Y-113845000I175000J0D01*
G01*
X117777000Y-113845000D01*
G75*
G02*
X117952000Y-114020000I0J-175000D01*
G01*
X117952000Y-115720000D01*
G75*
G02*
X117777000Y-115895000I-175000J0D01*
G01*
G37*
G36*
G01*
X119047000Y-115895000D02*
X118697000Y-115895000D01*
G75*
G02*
X118522000Y-115720000I0J175000D01*
G01*
X118522000Y-114020000D01*
G75*
G02*
X118697000Y-113845000I175000J0D01*
G01*
X119047000Y-113845000D01*
G75*
G02*
X119222000Y-114020000I0J-175000D01*
G01*
X119222000Y-115720000D01*
G75*
G02*
X119047000Y-115895000I-175000J0D01*
G01*
G37*
%TD*%
%TO.C,U5*%
G36*
G01*
X139621000Y-110945000D02*
X139271000Y-110945000D01*
G75*
G02*
X139096000Y-110770000I0J175000D01*
G01*
X139096000Y-109070000D01*
G75*
G02*
X139271000Y-108895000I175000J0D01*
G01*
X139621000Y-108895000D01*
G75*
G02*
X139796000Y-109070000I0J-175000D01*
G01*
X139796000Y-110770000D01*
G75*
G02*
X139621000Y-110945000I-175000J0D01*
G01*
G37*
G36*
G01*
X138351000Y-110945000D02*
X138001000Y-110945000D01*
G75*
G02*
X137826000Y-110770000I0J175000D01*
G01*
X137826000Y-109070000D01*
G75*
G02*
X138001000Y-108895000I175000J0D01*
G01*
X138351000Y-108895000D01*
G75*
G02*
X138526000Y-109070000I0J-175000D01*
G01*
X138526000Y-110770000D01*
G75*
G02*
X138351000Y-110945000I-175000J0D01*
G01*
G37*
G36*
G01*
X137081000Y-110945000D02*
X136731000Y-110945000D01*
G75*
G02*
X136556000Y-110770000I0J175000D01*
G01*
X136556000Y-109070000D01*
G75*
G02*
X136731000Y-108895000I175000J0D01*
G01*
X137081000Y-108895000D01*
G75*
G02*
X137256000Y-109070000I0J-175000D01*
G01*
X137256000Y-110770000D01*
G75*
G02*
X137081000Y-110945000I-175000J0D01*
G01*
G37*
G36*
G01*
X135811000Y-110945000D02*
X135461000Y-110945000D01*
G75*
G02*
X135286000Y-110770000I0J175000D01*
G01*
X135286000Y-109070000D01*
G75*
G02*
X135461000Y-108895000I175000J0D01*
G01*
X135811000Y-108895000D01*
G75*
G02*
X135986000Y-109070000I0J-175000D01*
G01*
X135986000Y-110770000D01*
G75*
G02*
X135811000Y-110945000I-175000J0D01*
G01*
G37*
G36*
G01*
X135811000Y-115895000D02*
X135461000Y-115895000D01*
G75*
G02*
X135286000Y-115720000I0J175000D01*
G01*
X135286000Y-114020000D01*
G75*
G02*
X135461000Y-113845000I175000J0D01*
G01*
X135811000Y-113845000D01*
G75*
G02*
X135986000Y-114020000I0J-175000D01*
G01*
X135986000Y-115720000D01*
G75*
G02*
X135811000Y-115895000I-175000J0D01*
G01*
G37*
G36*
G01*
X137081000Y-115895000D02*
X136731000Y-115895000D01*
G75*
G02*
X136556000Y-115720000I0J175000D01*
G01*
X136556000Y-114020000D01*
G75*
G02*
X136731000Y-113845000I175000J0D01*
G01*
X137081000Y-113845000D01*
G75*
G02*
X137256000Y-114020000I0J-175000D01*
G01*
X137256000Y-115720000D01*
G75*
G02*
X137081000Y-115895000I-175000J0D01*
G01*
G37*
G36*
G01*
X138351000Y-115895000D02*
X138001000Y-115895000D01*
G75*
G02*
X137826000Y-115720000I0J175000D01*
G01*
X137826000Y-114020000D01*
G75*
G02*
X138001000Y-113845000I175000J0D01*
G01*
X138351000Y-113845000D01*
G75*
G02*
X138526000Y-114020000I0J-175000D01*
G01*
X138526000Y-115720000D01*
G75*
G02*
X138351000Y-115895000I-175000J0D01*
G01*
G37*
G36*
G01*
X139621000Y-115895000D02*
X139271000Y-115895000D01*
G75*
G02*
X139096000Y-115720000I0J175000D01*
G01*
X139096000Y-114020000D01*
G75*
G02*
X139271000Y-113845000I175000J0D01*
G01*
X139621000Y-113845000D01*
G75*
G02*
X139796000Y-114020000I0J-175000D01*
G01*
X139796000Y-115720000D01*
G75*
G02*
X139621000Y-115895000I-175000J0D01*
G01*
G37*
%TD*%
%TO.C,U2*%
G36*
G01*
X160322000Y-110945000D02*
X159972000Y-110945000D01*
G75*
G02*
X159797000Y-110770000I0J175000D01*
G01*
X159797000Y-109070000D01*
G75*
G02*
X159972000Y-108895000I175000J0D01*
G01*
X160322000Y-108895000D01*
G75*
G02*
X160497000Y-109070000I0J-175000D01*
G01*
X160497000Y-110770000D01*
G75*
G02*
X160322000Y-110945000I-175000J0D01*
G01*
G37*
G36*
G01*
X159052000Y-110945000D02*
X158702000Y-110945000D01*
G75*
G02*
X158527000Y-110770000I0J175000D01*
G01*
X158527000Y-109070000D01*
G75*
G02*
X158702000Y-108895000I175000J0D01*
G01*
X159052000Y-108895000D01*
G75*
G02*
X159227000Y-109070000I0J-175000D01*
G01*
X159227000Y-110770000D01*
G75*
G02*
X159052000Y-110945000I-175000J0D01*
G01*
G37*
G36*
G01*
X157782000Y-110945000D02*
X157432000Y-110945000D01*
G75*
G02*
X157257000Y-110770000I0J175000D01*
G01*
X157257000Y-109070000D01*
G75*
G02*
X157432000Y-108895000I175000J0D01*
G01*
X157782000Y-108895000D01*
G75*
G02*
X157957000Y-109070000I0J-175000D01*
G01*
X157957000Y-110770000D01*
G75*
G02*
X157782000Y-110945000I-175000J0D01*
G01*
G37*
G36*
G01*
X156512000Y-110945000D02*
X156162000Y-110945000D01*
G75*
G02*
X155987000Y-110770000I0J175000D01*
G01*
X155987000Y-109070000D01*
G75*
G02*
X156162000Y-108895000I175000J0D01*
G01*
X156512000Y-108895000D01*
G75*
G02*
X156687000Y-109070000I0J-175000D01*
G01*
X156687000Y-110770000D01*
G75*
G02*
X156512000Y-110945000I-175000J0D01*
G01*
G37*
G36*
G01*
X156512000Y-115895000D02*
X156162000Y-115895000D01*
G75*
G02*
X155987000Y-115720000I0J175000D01*
G01*
X155987000Y-114020000D01*
G75*
G02*
X156162000Y-113845000I175000J0D01*
G01*
X156512000Y-113845000D01*
G75*
G02*
X156687000Y-114020000I0J-175000D01*
G01*
X156687000Y-115720000D01*
G75*
G02*
X156512000Y-115895000I-175000J0D01*
G01*
G37*
G36*
G01*
X157782000Y-115895000D02*
X157432000Y-115895000D01*
G75*
G02*
X157257000Y-115720000I0J175000D01*
G01*
X157257000Y-114020000D01*
G75*
G02*
X157432000Y-113845000I175000J0D01*
G01*
X157782000Y-113845000D01*
G75*
G02*
X157957000Y-114020000I0J-175000D01*
G01*
X157957000Y-115720000D01*
G75*
G02*
X157782000Y-115895000I-175000J0D01*
G01*
G37*
G36*
G01*
X159052000Y-115895000D02*
X158702000Y-115895000D01*
G75*
G02*
X158527000Y-115720000I0J175000D01*
G01*
X158527000Y-114020000D01*
G75*
G02*
X158702000Y-113845000I175000J0D01*
G01*
X159052000Y-113845000D01*
G75*
G02*
X159227000Y-114020000I0J-175000D01*
G01*
X159227000Y-115720000D01*
G75*
G02*
X159052000Y-115895000I-175000J0D01*
G01*
G37*
G36*
G01*
X160322000Y-115895000D02*
X159972000Y-115895000D01*
G75*
G02*
X159797000Y-115720000I0J175000D01*
G01*
X159797000Y-114020000D01*
G75*
G02*
X159972000Y-113845000I175000J0D01*
G01*
X160322000Y-113845000D01*
G75*
G02*
X160497000Y-114020000I0J-175000D01*
G01*
X160497000Y-115720000D01*
G75*
G02*
X160322000Y-115895000I-175000J0D01*
G01*
G37*
%TD*%
%TO.C,R24*%
G36*
G01*
X102762000Y-108936262D02*
X102762000Y-107979738D01*
G75*
G02*
X103033738Y-107708000I271738J0D01*
G01*
X103740262Y-107708000D01*
G75*
G02*
X104012000Y-107979738I0J-271738D01*
G01*
X104012000Y-108936262D01*
G75*
G02*
X103740262Y-109208000I-271738J0D01*
G01*
X103033738Y-109208000D01*
G75*
G02*
X102762000Y-108936262I0J271738D01*
G01*
G37*
G36*
G01*
X100712000Y-108936262D02*
X100712000Y-107979738D01*
G75*
G02*
X100983738Y-107708000I271738J0D01*
G01*
X101690262Y-107708000D01*
G75*
G02*
X101962000Y-107979738I0J-271738D01*
G01*
X101962000Y-108936262D01*
G75*
G02*
X101690262Y-109208000I-271738J0D01*
G01*
X100983738Y-109208000D01*
G75*
G02*
X100712000Y-108936262I0J271738D01*
G01*
G37*
%TD*%
%TO.C,R23*%
G36*
G01*
X101962000Y-114456738D02*
X101962000Y-115413262D01*
G75*
G02*
X101690262Y-115685000I-271738J0D01*
G01*
X100983738Y-115685000D01*
G75*
G02*
X100712000Y-115413262I0J271738D01*
G01*
X100712000Y-114456738D01*
G75*
G02*
X100983738Y-114185000I271738J0D01*
G01*
X101690262Y-114185000D01*
G75*
G02*
X101962000Y-114456738I0J-271738D01*
G01*
G37*
G36*
G01*
X104012000Y-114456738D02*
X104012000Y-115413262D01*
G75*
G02*
X103740262Y-115685000I-271738J0D01*
G01*
X103033738Y-115685000D01*
G75*
G02*
X102762000Y-115413262I0J271738D01*
G01*
X102762000Y-114456738D01*
G75*
G02*
X103033738Y-114185000I271738J0D01*
G01*
X103740262Y-114185000D01*
G75*
G02*
X104012000Y-114456738I0J-271738D01*
G01*
G37*
%TD*%
%TO.C,R21*%
G36*
G01*
X106026000Y-91977738D02*
X106026000Y-92934262D01*
G75*
G02*
X105754262Y-93206000I-271738J0D01*
G01*
X105047738Y-93206000D01*
G75*
G02*
X104776000Y-92934262I0J271738D01*
G01*
X104776000Y-91977738D01*
G75*
G02*
X105047738Y-91706000I271738J0D01*
G01*
X105754262Y-91706000D01*
G75*
G02*
X106026000Y-91977738I0J-271738D01*
G01*
G37*
G36*
G01*
X108076000Y-91977738D02*
X108076000Y-92934262D01*
G75*
G02*
X107804262Y-93206000I-271738J0D01*
G01*
X107097738Y-93206000D01*
G75*
G02*
X106826000Y-92934262I0J271738D01*
G01*
X106826000Y-91977738D01*
G75*
G02*
X107097738Y-91706000I271738J0D01*
G01*
X107804262Y-91706000D01*
G75*
G02*
X108076000Y-91977738I0J-271738D01*
G01*
G37*
%TD*%
%TO.C,R20*%
G36*
G01*
X94342000Y-100740738D02*
X94342000Y-101697262D01*
G75*
G02*
X94070262Y-101969000I-271738J0D01*
G01*
X93363738Y-101969000D01*
G75*
G02*
X93092000Y-101697262I0J271738D01*
G01*
X93092000Y-100740738D01*
G75*
G02*
X93363738Y-100469000I271738J0D01*
G01*
X94070262Y-100469000D01*
G75*
G02*
X94342000Y-100740738I0J-271738D01*
G01*
G37*
G36*
G01*
X96392000Y-100740738D02*
X96392000Y-101697262D01*
G75*
G02*
X96120262Y-101969000I-271738J0D01*
G01*
X95413738Y-101969000D01*
G75*
G02*
X95142000Y-101697262I0J271738D01*
G01*
X95142000Y-100740738D01*
G75*
G02*
X95413738Y-100469000I271738J0D01*
G01*
X96120262Y-100469000D01*
G75*
G02*
X96392000Y-100740738I0J-271738D01*
G01*
G37*
%TD*%
%TO.C,R19*%
G36*
G01*
X95142000Y-104491262D02*
X95142000Y-103534738D01*
G75*
G02*
X95413738Y-103263000I271738J0D01*
G01*
X96120262Y-103263000D01*
G75*
G02*
X96392000Y-103534738I0J-271738D01*
G01*
X96392000Y-104491262D01*
G75*
G02*
X96120262Y-104763000I-271738J0D01*
G01*
X95413738Y-104763000D01*
G75*
G02*
X95142000Y-104491262I0J271738D01*
G01*
G37*
G36*
G01*
X93092000Y-104491262D02*
X93092000Y-103534738D01*
G75*
G02*
X93363738Y-103263000I271738J0D01*
G01*
X94070262Y-103263000D01*
G75*
G02*
X94342000Y-103534738I0J-271738D01*
G01*
X94342000Y-104491262D01*
G75*
G02*
X94070262Y-104763000I-271738J0D01*
G01*
X93363738Y-104763000D01*
G75*
G02*
X93092000Y-104491262I0J271738D01*
G01*
G37*
%TD*%
%TO.C,R18*%
G36*
G01*
X123336000Y-109063262D02*
X123336000Y-108106738D01*
G75*
G02*
X123607738Y-107835000I271738J0D01*
G01*
X124314262Y-107835000D01*
G75*
G02*
X124586000Y-108106738I0J-271738D01*
G01*
X124586000Y-109063262D01*
G75*
G02*
X124314262Y-109335000I-271738J0D01*
G01*
X123607738Y-109335000D01*
G75*
G02*
X123336000Y-109063262I0J271738D01*
G01*
G37*
G36*
G01*
X121286000Y-109063262D02*
X121286000Y-108106738D01*
G75*
G02*
X121557738Y-107835000I271738J0D01*
G01*
X122264262Y-107835000D01*
G75*
G02*
X122536000Y-108106738I0J-271738D01*
G01*
X122536000Y-109063262D01*
G75*
G02*
X122264262Y-109335000I-271738J0D01*
G01*
X121557738Y-109335000D01*
G75*
G02*
X121286000Y-109063262I0J271738D01*
G01*
G37*
%TD*%
%TO.C,R17*%
G36*
G01*
X122536000Y-114456738D02*
X122536000Y-115413262D01*
G75*
G02*
X122264262Y-115685000I-271738J0D01*
G01*
X121557738Y-115685000D01*
G75*
G02*
X121286000Y-115413262I0J271738D01*
G01*
X121286000Y-114456738D01*
G75*
G02*
X121557738Y-114185000I271738J0D01*
G01*
X122264262Y-114185000D01*
G75*
G02*
X122536000Y-114456738I0J-271738D01*
G01*
G37*
G36*
G01*
X124586000Y-114456738D02*
X124586000Y-115413262D01*
G75*
G02*
X124314262Y-115685000I-271738J0D01*
G01*
X123607738Y-115685000D01*
G75*
G02*
X123336000Y-115413262I0J271738D01*
G01*
X123336000Y-114456738D01*
G75*
G02*
X123607738Y-114185000I271738J0D01*
G01*
X124314262Y-114185000D01*
G75*
G02*
X124586000Y-114456738I0J-271738D01*
G01*
G37*
%TD*%
%TO.C,R15*%
G36*
G01*
X126600000Y-91850738D02*
X126600000Y-92807262D01*
G75*
G02*
X126328262Y-93079000I-271738J0D01*
G01*
X125621738Y-93079000D01*
G75*
G02*
X125350000Y-92807262I0J271738D01*
G01*
X125350000Y-91850738D01*
G75*
G02*
X125621738Y-91579000I271738J0D01*
G01*
X126328262Y-91579000D01*
G75*
G02*
X126600000Y-91850738I0J-271738D01*
G01*
G37*
G36*
G01*
X128650000Y-91850738D02*
X128650000Y-92807262D01*
G75*
G02*
X128378262Y-93079000I-271738J0D01*
G01*
X127671738Y-93079000D01*
G75*
G02*
X127400000Y-92807262I0J271738D01*
G01*
X127400000Y-91850738D01*
G75*
G02*
X127671738Y-91579000I271738J0D01*
G01*
X128378262Y-91579000D01*
G75*
G02*
X128650000Y-91850738I0J-271738D01*
G01*
G37*
%TD*%
%TO.C,R14*%
G36*
G01*
X114916000Y-99978738D02*
X114916000Y-100935262D01*
G75*
G02*
X114644262Y-101207000I-271738J0D01*
G01*
X113937738Y-101207000D01*
G75*
G02*
X113666000Y-100935262I0J271738D01*
G01*
X113666000Y-99978738D01*
G75*
G02*
X113937738Y-99707000I271738J0D01*
G01*
X114644262Y-99707000D01*
G75*
G02*
X114916000Y-99978738I0J-271738D01*
G01*
G37*
G36*
G01*
X116966000Y-99978738D02*
X116966000Y-100935262D01*
G75*
G02*
X116694262Y-101207000I-271738J0D01*
G01*
X115987738Y-101207000D01*
G75*
G02*
X115716000Y-100935262I0J271738D01*
G01*
X115716000Y-99978738D01*
G75*
G02*
X115987738Y-99707000I271738J0D01*
G01*
X116694262Y-99707000D01*
G75*
G02*
X116966000Y-99978738I0J-271738D01*
G01*
G37*
%TD*%
%TO.C,R13*%
G36*
G01*
X115716000Y-103729262D02*
X115716000Y-102772738D01*
G75*
G02*
X115987738Y-102501000I271738J0D01*
G01*
X116694262Y-102501000D01*
G75*
G02*
X116966000Y-102772738I0J-271738D01*
G01*
X116966000Y-103729262D01*
G75*
G02*
X116694262Y-104001000I-271738J0D01*
G01*
X115987738Y-104001000D01*
G75*
G02*
X115716000Y-103729262I0J271738D01*
G01*
G37*
G36*
G01*
X113666000Y-103729262D02*
X113666000Y-102772738D01*
G75*
G02*
X113937738Y-102501000I271738J0D01*
G01*
X114644262Y-102501000D01*
G75*
G02*
X114916000Y-102772738I0J-271738D01*
G01*
X114916000Y-103729262D01*
G75*
G02*
X114644262Y-104001000I-271738J0D01*
G01*
X113937738Y-104001000D01*
G75*
G02*
X113666000Y-103729262I0J271738D01*
G01*
G37*
%TD*%
%TO.C,R12*%
G36*
G01*
X143910000Y-109063262D02*
X143910000Y-108106738D01*
G75*
G02*
X144181738Y-107835000I271738J0D01*
G01*
X144888262Y-107835000D01*
G75*
G02*
X145160000Y-108106738I0J-271738D01*
G01*
X145160000Y-109063262D01*
G75*
G02*
X144888262Y-109335000I-271738J0D01*
G01*
X144181738Y-109335000D01*
G75*
G02*
X143910000Y-109063262I0J271738D01*
G01*
G37*
G36*
G01*
X141860000Y-109063262D02*
X141860000Y-108106738D01*
G75*
G02*
X142131738Y-107835000I271738J0D01*
G01*
X142838262Y-107835000D01*
G75*
G02*
X143110000Y-108106738I0J-271738D01*
G01*
X143110000Y-109063262D01*
G75*
G02*
X142838262Y-109335000I-271738J0D01*
G01*
X142131738Y-109335000D01*
G75*
G02*
X141860000Y-109063262I0J271738D01*
G01*
G37*
%TD*%
%TO.C,R11*%
G36*
G01*
X143110000Y-114456738D02*
X143110000Y-115413262D01*
G75*
G02*
X142838262Y-115685000I-271738J0D01*
G01*
X142131738Y-115685000D01*
G75*
G02*
X141860000Y-115413262I0J271738D01*
G01*
X141860000Y-114456738D01*
G75*
G02*
X142131738Y-114185000I271738J0D01*
G01*
X142838262Y-114185000D01*
G75*
G02*
X143110000Y-114456738I0J-271738D01*
G01*
G37*
G36*
G01*
X145160000Y-114456738D02*
X145160000Y-115413262D01*
G75*
G02*
X144888262Y-115685000I-271738J0D01*
G01*
X144181738Y-115685000D01*
G75*
G02*
X143910000Y-115413262I0J271738D01*
G01*
X143910000Y-114456738D01*
G75*
G02*
X144181738Y-114185000I271738J0D01*
G01*
X144888262Y-114185000D01*
G75*
G02*
X145160000Y-114456738I0J-271738D01*
G01*
G37*
%TD*%
%TO.C,R9*%
G36*
G01*
X146412000Y-91977738D02*
X146412000Y-92934262D01*
G75*
G02*
X146140262Y-93206000I-271738J0D01*
G01*
X145433738Y-93206000D01*
G75*
G02*
X145162000Y-92934262I0J271738D01*
G01*
X145162000Y-91977738D01*
G75*
G02*
X145433738Y-91706000I271738J0D01*
G01*
X146140262Y-91706000D01*
G75*
G02*
X146412000Y-91977738I0J-271738D01*
G01*
G37*
G36*
G01*
X148462000Y-91977738D02*
X148462000Y-92934262D01*
G75*
G02*
X148190262Y-93206000I-271738J0D01*
G01*
X147483738Y-93206000D01*
G75*
G02*
X147212000Y-92934262I0J271738D01*
G01*
X147212000Y-91977738D01*
G75*
G02*
X147483738Y-91706000I271738J0D01*
G01*
X148190262Y-91706000D01*
G75*
G02*
X148462000Y-91977738I0J-271738D01*
G01*
G37*
%TD*%
%TO.C,R8*%
G36*
G01*
X135490000Y-100105738D02*
X135490000Y-101062262D01*
G75*
G02*
X135218262Y-101334000I-271738J0D01*
G01*
X134511738Y-101334000D01*
G75*
G02*
X134240000Y-101062262I0J271738D01*
G01*
X134240000Y-100105738D01*
G75*
G02*
X134511738Y-99834000I271738J0D01*
G01*
X135218262Y-99834000D01*
G75*
G02*
X135490000Y-100105738I0J-271738D01*
G01*
G37*
G36*
G01*
X137540000Y-100105738D02*
X137540000Y-101062262D01*
G75*
G02*
X137268262Y-101334000I-271738J0D01*
G01*
X136561738Y-101334000D01*
G75*
G02*
X136290000Y-101062262I0J271738D01*
G01*
X136290000Y-100105738D01*
G75*
G02*
X136561738Y-99834000I271738J0D01*
G01*
X137268262Y-99834000D01*
G75*
G02*
X137540000Y-100105738I0J-271738D01*
G01*
G37*
%TD*%
%TO.C,R7*%
G36*
G01*
X136290000Y-103856262D02*
X136290000Y-102899738D01*
G75*
G02*
X136561738Y-102628000I271738J0D01*
G01*
X137268262Y-102628000D01*
G75*
G02*
X137540000Y-102899738I0J-271738D01*
G01*
X137540000Y-103856262D01*
G75*
G02*
X137268262Y-104128000I-271738J0D01*
G01*
X136561738Y-104128000D01*
G75*
G02*
X136290000Y-103856262I0J271738D01*
G01*
G37*
G36*
G01*
X134240000Y-103856262D02*
X134240000Y-102899738D01*
G75*
G02*
X134511738Y-102628000I271738J0D01*
G01*
X135218262Y-102628000D01*
G75*
G02*
X135490000Y-102899738I0J-271738D01*
G01*
X135490000Y-103856262D01*
G75*
G02*
X135218262Y-104128000I-271738J0D01*
G01*
X134511738Y-104128000D01*
G75*
G02*
X134240000Y-103856262I0J271738D01*
G01*
G37*
%TD*%
%TO.C,R6*%
G36*
G01*
X164484000Y-109190262D02*
X164484000Y-108233738D01*
G75*
G02*
X164755738Y-107962000I271738J0D01*
G01*
X165462262Y-107962000D01*
G75*
G02*
X165734000Y-108233738I0J-271738D01*
G01*
X165734000Y-109190262D01*
G75*
G02*
X165462262Y-109462000I-271738J0D01*
G01*
X164755738Y-109462000D01*
G75*
G02*
X164484000Y-109190262I0J271738D01*
G01*
G37*
G36*
G01*
X162434000Y-109190262D02*
X162434000Y-108233738D01*
G75*
G02*
X162705738Y-107962000I271738J0D01*
G01*
X163412262Y-107962000D01*
G75*
G02*
X163684000Y-108233738I0J-271738D01*
G01*
X163684000Y-109190262D01*
G75*
G02*
X163412262Y-109462000I-271738J0D01*
G01*
X162705738Y-109462000D01*
G75*
G02*
X162434000Y-109190262I0J271738D01*
G01*
G37*
%TD*%
%TO.C,R5*%
G36*
G01*
X163684000Y-114456738D02*
X163684000Y-115413262D01*
G75*
G02*
X163412262Y-115685000I-271738J0D01*
G01*
X162705738Y-115685000D01*
G75*
G02*
X162434000Y-115413262I0J271738D01*
G01*
X162434000Y-114456738D01*
G75*
G02*
X162705738Y-114185000I271738J0D01*
G01*
X163412262Y-114185000D01*
G75*
G02*
X163684000Y-114456738I0J-271738D01*
G01*
G37*
G36*
G01*
X165734000Y-114456738D02*
X165734000Y-115413262D01*
G75*
G02*
X165462262Y-115685000I-271738J0D01*
G01*
X164755738Y-115685000D01*
G75*
G02*
X164484000Y-115413262I0J271738D01*
G01*
X164484000Y-114456738D01*
G75*
G02*
X164755738Y-114185000I271738J0D01*
G01*
X165462262Y-114185000D01*
G75*
G02*
X165734000Y-114456738I0J-271738D01*
G01*
G37*
%TD*%
%TO.C,R3*%
G36*
G01*
X168256000Y-91723738D02*
X168256000Y-92680262D01*
G75*
G02*
X167984262Y-92952000I-271738J0D01*
G01*
X167277738Y-92952000D01*
G75*
G02*
X167006000Y-92680262I0J271738D01*
G01*
X167006000Y-91723738D01*
G75*
G02*
X167277738Y-91452000I271738J0D01*
G01*
X167984262Y-91452000D01*
G75*
G02*
X168256000Y-91723738I0J-271738D01*
G01*
G37*
G36*
G01*
X170306000Y-91723738D02*
X170306000Y-92680262D01*
G75*
G02*
X170034262Y-92952000I-271738J0D01*
G01*
X169327738Y-92952000D01*
G75*
G02*
X169056000Y-92680262I0J271738D01*
G01*
X169056000Y-91723738D01*
G75*
G02*
X169327738Y-91452000I271738J0D01*
G01*
X170034262Y-91452000D01*
G75*
G02*
X170306000Y-91723738I0J-271738D01*
G01*
G37*
%TD*%
%TO.C,R2*%
G36*
G01*
X156064000Y-100486738D02*
X156064000Y-101443262D01*
G75*
G02*
X155792262Y-101715000I-271738J0D01*
G01*
X155085738Y-101715000D01*
G75*
G02*
X154814000Y-101443262I0J271738D01*
G01*
X154814000Y-100486738D01*
G75*
G02*
X155085738Y-100215000I271738J0D01*
G01*
X155792262Y-100215000D01*
G75*
G02*
X156064000Y-100486738I0J-271738D01*
G01*
G37*
G36*
G01*
X158114000Y-100486738D02*
X158114000Y-101443262D01*
G75*
G02*
X157842262Y-101715000I-271738J0D01*
G01*
X157135738Y-101715000D01*
G75*
G02*
X156864000Y-101443262I0J271738D01*
G01*
X156864000Y-100486738D01*
G75*
G02*
X157135738Y-100215000I271738J0D01*
G01*
X157842262Y-100215000D01*
G75*
G02*
X158114000Y-100486738I0J-271738D01*
G01*
G37*
%TD*%
%TO.C,R1*%
G36*
G01*
X156864000Y-103983262D02*
X156864000Y-103026738D01*
G75*
G02*
X157135738Y-102755000I271738J0D01*
G01*
X157842262Y-102755000D01*
G75*
G02*
X158114000Y-103026738I0J-271738D01*
G01*
X158114000Y-103983262D01*
G75*
G02*
X157842262Y-104255000I-271738J0D01*
G01*
X157135738Y-104255000D01*
G75*
G02*
X156864000Y-103983262I0J271738D01*
G01*
G37*
G36*
G01*
X154814000Y-103983262D02*
X154814000Y-103026738D01*
G75*
G02*
X155085738Y-102755000I271738J0D01*
G01*
X155792262Y-102755000D01*
G75*
G02*
X156064000Y-103026738I0J-271738D01*
G01*
X156064000Y-103983262D01*
G75*
G02*
X155792262Y-104255000I-271738J0D01*
G01*
X155085738Y-104255000D01*
G75*
G02*
X154814000Y-103983262I0J271738D01*
G01*
G37*
%TD*%
D17*
%TO.C,D8*%
X105283000Y-52705000D03*
D18*
X105283000Y-55245000D03*
%TD*%
D17*
%TO.C,D6*%
X125857000Y-52832000D03*
D18*
X125857000Y-55372000D03*
%TD*%
D17*
%TO.C,D4*%
X146431000Y-52832000D03*
D18*
X146431000Y-55372000D03*
%TD*%
D12*
%TO.C,D9*%
X181988000Y-74168000D03*
X184788000Y-74168000D03*
%TD*%
%TO.C,C47*%
G36*
G01*
X102762000Y-111603262D02*
X102762000Y-110646738D01*
G75*
G02*
X103033738Y-110375000I271738J0D01*
G01*
X103740262Y-110375000D01*
G75*
G02*
X104012000Y-110646738I0J-271738D01*
G01*
X104012000Y-111603262D01*
G75*
G02*
X103740262Y-111875000I-271738J0D01*
G01*
X103033738Y-111875000D01*
G75*
G02*
X102762000Y-111603262I0J271738D01*
G01*
G37*
G36*
G01*
X100712000Y-111603262D02*
X100712000Y-110646738D01*
G75*
G02*
X100983738Y-110375000I271738J0D01*
G01*
X101690262Y-110375000D01*
G75*
G02*
X101962000Y-110646738I0J-271738D01*
G01*
X101962000Y-111603262D01*
G75*
G02*
X101690262Y-111875000I-271738J0D01*
G01*
X100983738Y-111875000D01*
G75*
G02*
X100712000Y-111603262I0J271738D01*
G01*
G37*
%TD*%
%TO.C,C46*%
G36*
G01*
X102762000Y-106650262D02*
X102762000Y-105693738D01*
G75*
G02*
X103033738Y-105422000I271738J0D01*
G01*
X103740262Y-105422000D01*
G75*
G02*
X104012000Y-105693738I0J-271738D01*
G01*
X104012000Y-106650262D01*
G75*
G02*
X103740262Y-106922000I-271738J0D01*
G01*
X103033738Y-106922000D01*
G75*
G02*
X102762000Y-106650262I0J271738D01*
G01*
G37*
G36*
G01*
X100712000Y-106650262D02*
X100712000Y-105693738D01*
G75*
G02*
X100983738Y-105422000I271738J0D01*
G01*
X101690262Y-105422000D01*
G75*
G02*
X101962000Y-105693738I0J-271738D01*
G01*
X101962000Y-106650262D01*
G75*
G02*
X101690262Y-106922000I-271738J0D01*
G01*
X100983738Y-106922000D01*
G75*
G02*
X100712000Y-106650262I0J271738D01*
G01*
G37*
%TD*%
%TO.C,C45*%
G36*
G01*
X92807262Y-113519000D02*
X91850738Y-113519000D01*
G75*
G02*
X91579000Y-113247262I0J271738D01*
G01*
X91579000Y-112540738D01*
G75*
G02*
X91850738Y-112269000I271738J0D01*
G01*
X92807262Y-112269000D01*
G75*
G02*
X93079000Y-112540738I0J-271738D01*
G01*
X93079000Y-113247262D01*
G75*
G02*
X92807262Y-113519000I-271738J0D01*
G01*
G37*
G36*
G01*
X92807262Y-115569000D02*
X91850738Y-115569000D01*
G75*
G02*
X91579000Y-115297262I0J271738D01*
G01*
X91579000Y-114590738D01*
G75*
G02*
X91850738Y-114319000I271738J0D01*
G01*
X92807262Y-114319000D01*
G75*
G02*
X93079000Y-114590738I0J-271738D01*
G01*
X93079000Y-115297262D01*
G75*
G02*
X92807262Y-115569000I-271738J0D01*
G01*
G37*
%TD*%
%TO.C,C38*%
G36*
G01*
X98903262Y-84690000D02*
X97946738Y-84690000D01*
G75*
G02*
X97675000Y-84418262I0J271738D01*
G01*
X97675000Y-83711738D01*
G75*
G02*
X97946738Y-83440000I271738J0D01*
G01*
X98903262Y-83440000D01*
G75*
G02*
X99175000Y-83711738I0J-271738D01*
G01*
X99175000Y-84418262D01*
G75*
G02*
X98903262Y-84690000I-271738J0D01*
G01*
G37*
G36*
G01*
X98903262Y-86740000D02*
X97946738Y-86740000D01*
G75*
G02*
X97675000Y-86468262I0J271738D01*
G01*
X97675000Y-85761738D01*
G75*
G02*
X97946738Y-85490000I271738J0D01*
G01*
X98903262Y-85490000D01*
G75*
G02*
X99175000Y-85761738I0J-271738D01*
G01*
X99175000Y-86468262D01*
G75*
G02*
X98903262Y-86740000I-271738J0D01*
G01*
G37*
%TD*%
%TO.C,C37*%
G36*
G01*
X102762000Y-103602262D02*
X102762000Y-102645738D01*
G75*
G02*
X103033738Y-102374000I271738J0D01*
G01*
X103740262Y-102374000D01*
G75*
G02*
X104012000Y-102645738I0J-271738D01*
G01*
X104012000Y-103602262D01*
G75*
G02*
X103740262Y-103874000I-271738J0D01*
G01*
X103033738Y-103874000D01*
G75*
G02*
X102762000Y-103602262I0J271738D01*
G01*
G37*
G36*
G01*
X100712000Y-103602262D02*
X100712000Y-102645738D01*
G75*
G02*
X100983738Y-102374000I271738J0D01*
G01*
X101690262Y-102374000D01*
G75*
G02*
X101962000Y-102645738I0J-271738D01*
G01*
X101962000Y-103602262D01*
G75*
G02*
X101690262Y-103874000I-271738J0D01*
G01*
X100983738Y-103874000D01*
G75*
G02*
X100712000Y-103602262I0J271738D01*
G01*
G37*
%TD*%
%TO.C,C36*%
G36*
G01*
X123336000Y-111603262D02*
X123336000Y-110646738D01*
G75*
G02*
X123607738Y-110375000I271738J0D01*
G01*
X124314262Y-110375000D01*
G75*
G02*
X124586000Y-110646738I0J-271738D01*
G01*
X124586000Y-111603262D01*
G75*
G02*
X124314262Y-111875000I-271738J0D01*
G01*
X123607738Y-111875000D01*
G75*
G02*
X123336000Y-111603262I0J271738D01*
G01*
G37*
G36*
G01*
X121286000Y-111603262D02*
X121286000Y-110646738D01*
G75*
G02*
X121557738Y-110375000I271738J0D01*
G01*
X122264262Y-110375000D01*
G75*
G02*
X122536000Y-110646738I0J-271738D01*
G01*
X122536000Y-111603262D01*
G75*
G02*
X122264262Y-111875000I-271738J0D01*
G01*
X121557738Y-111875000D01*
G75*
G02*
X121286000Y-111603262I0J271738D01*
G01*
G37*
%TD*%
%TO.C,C35*%
G36*
G01*
X123336000Y-106523262D02*
X123336000Y-105566738D01*
G75*
G02*
X123607738Y-105295000I271738J0D01*
G01*
X124314262Y-105295000D01*
G75*
G02*
X124586000Y-105566738I0J-271738D01*
G01*
X124586000Y-106523262D01*
G75*
G02*
X124314262Y-106795000I-271738J0D01*
G01*
X123607738Y-106795000D01*
G75*
G02*
X123336000Y-106523262I0J271738D01*
G01*
G37*
G36*
G01*
X121286000Y-106523262D02*
X121286000Y-105566738D01*
G75*
G02*
X121557738Y-105295000I271738J0D01*
G01*
X122264262Y-105295000D01*
G75*
G02*
X122536000Y-105566738I0J-271738D01*
G01*
X122536000Y-106523262D01*
G75*
G02*
X122264262Y-106795000I-271738J0D01*
G01*
X121557738Y-106795000D01*
G75*
G02*
X121286000Y-106523262I0J271738D01*
G01*
G37*
%TD*%
%TO.C,C34*%
G36*
G01*
X113381262Y-113519000D02*
X112424738Y-113519000D01*
G75*
G02*
X112153000Y-113247262I0J271738D01*
G01*
X112153000Y-112540738D01*
G75*
G02*
X112424738Y-112269000I271738J0D01*
G01*
X113381262Y-112269000D01*
G75*
G02*
X113653000Y-112540738I0J-271738D01*
G01*
X113653000Y-113247262D01*
G75*
G02*
X113381262Y-113519000I-271738J0D01*
G01*
G37*
G36*
G01*
X113381262Y-115569000D02*
X112424738Y-115569000D01*
G75*
G02*
X112153000Y-115297262I0J271738D01*
G01*
X112153000Y-114590738D01*
G75*
G02*
X112424738Y-114319000I271738J0D01*
G01*
X113381262Y-114319000D01*
G75*
G02*
X113653000Y-114590738I0J-271738D01*
G01*
X113653000Y-115297262D01*
G75*
G02*
X113381262Y-115569000I-271738J0D01*
G01*
G37*
%TD*%
%TO.C,C27*%
G36*
G01*
X119223262Y-84690000D02*
X118266738Y-84690000D01*
G75*
G02*
X117995000Y-84418262I0J271738D01*
G01*
X117995000Y-83711738D01*
G75*
G02*
X118266738Y-83440000I271738J0D01*
G01*
X119223262Y-83440000D01*
G75*
G02*
X119495000Y-83711738I0J-271738D01*
G01*
X119495000Y-84418262D01*
G75*
G02*
X119223262Y-84690000I-271738J0D01*
G01*
G37*
G36*
G01*
X119223262Y-86740000D02*
X118266738Y-86740000D01*
G75*
G02*
X117995000Y-86468262I0J271738D01*
G01*
X117995000Y-85761738D01*
G75*
G02*
X118266738Y-85490000I271738J0D01*
G01*
X119223262Y-85490000D01*
G75*
G02*
X119495000Y-85761738I0J-271738D01*
G01*
X119495000Y-86468262D01*
G75*
G02*
X119223262Y-86740000I-271738J0D01*
G01*
G37*
%TD*%
%TO.C,C26*%
G36*
G01*
X123336000Y-103729262D02*
X123336000Y-102772738D01*
G75*
G02*
X123607738Y-102501000I271738J0D01*
G01*
X124314262Y-102501000D01*
G75*
G02*
X124586000Y-102772738I0J-271738D01*
G01*
X124586000Y-103729262D01*
G75*
G02*
X124314262Y-104001000I-271738J0D01*
G01*
X123607738Y-104001000D01*
G75*
G02*
X123336000Y-103729262I0J271738D01*
G01*
G37*
G36*
G01*
X121286000Y-103729262D02*
X121286000Y-102772738D01*
G75*
G02*
X121557738Y-102501000I271738J0D01*
G01*
X122264262Y-102501000D01*
G75*
G02*
X122536000Y-102772738I0J-271738D01*
G01*
X122536000Y-103729262D01*
G75*
G02*
X122264262Y-104001000I-271738J0D01*
G01*
X121557738Y-104001000D01*
G75*
G02*
X121286000Y-103729262I0J271738D01*
G01*
G37*
%TD*%
%TO.C,C25*%
G36*
G01*
X143910000Y-111603262D02*
X143910000Y-110646738D01*
G75*
G02*
X144181738Y-110375000I271738J0D01*
G01*
X144888262Y-110375000D01*
G75*
G02*
X145160000Y-110646738I0J-271738D01*
G01*
X145160000Y-111603262D01*
G75*
G02*
X144888262Y-111875000I-271738J0D01*
G01*
X144181738Y-111875000D01*
G75*
G02*
X143910000Y-111603262I0J271738D01*
G01*
G37*
G36*
G01*
X141860000Y-111603262D02*
X141860000Y-110646738D01*
G75*
G02*
X142131738Y-110375000I271738J0D01*
G01*
X142838262Y-110375000D01*
G75*
G02*
X143110000Y-110646738I0J-271738D01*
G01*
X143110000Y-111603262D01*
G75*
G02*
X142838262Y-111875000I-271738J0D01*
G01*
X142131738Y-111875000D01*
G75*
G02*
X141860000Y-111603262I0J271738D01*
G01*
G37*
%TD*%
%TO.C,C24*%
G36*
G01*
X143910000Y-106523262D02*
X143910000Y-105566738D01*
G75*
G02*
X144181738Y-105295000I271738J0D01*
G01*
X144888262Y-105295000D01*
G75*
G02*
X145160000Y-105566738I0J-271738D01*
G01*
X145160000Y-106523262D01*
G75*
G02*
X144888262Y-106795000I-271738J0D01*
G01*
X144181738Y-106795000D01*
G75*
G02*
X143910000Y-106523262I0J271738D01*
G01*
G37*
G36*
G01*
X141860000Y-106523262D02*
X141860000Y-105566738D01*
G75*
G02*
X142131738Y-105295000I271738J0D01*
G01*
X142838262Y-105295000D01*
G75*
G02*
X143110000Y-105566738I0J-271738D01*
G01*
X143110000Y-106523262D01*
G75*
G02*
X142838262Y-106795000I-271738J0D01*
G01*
X142131738Y-106795000D01*
G75*
G02*
X141860000Y-106523262I0J271738D01*
G01*
G37*
%TD*%
%TO.C,C23*%
G36*
G01*
X133955262Y-113519000D02*
X132998738Y-113519000D01*
G75*
G02*
X132727000Y-113247262I0J271738D01*
G01*
X132727000Y-112540738D01*
G75*
G02*
X132998738Y-112269000I271738J0D01*
G01*
X133955262Y-112269000D01*
G75*
G02*
X134227000Y-112540738I0J-271738D01*
G01*
X134227000Y-113247262D01*
G75*
G02*
X133955262Y-113519000I-271738J0D01*
G01*
G37*
G36*
G01*
X133955262Y-115569000D02*
X132998738Y-115569000D01*
G75*
G02*
X132727000Y-115297262I0J271738D01*
G01*
X132727000Y-114590738D01*
G75*
G02*
X132998738Y-114319000I271738J0D01*
G01*
X133955262Y-114319000D01*
G75*
G02*
X134227000Y-114590738I0J-271738D01*
G01*
X134227000Y-115297262D01*
G75*
G02*
X133955262Y-115569000I-271738J0D01*
G01*
G37*
%TD*%
%TO.C,C16*%
G36*
G01*
X139924262Y-84690000D02*
X138967738Y-84690000D01*
G75*
G02*
X138696000Y-84418262I0J271738D01*
G01*
X138696000Y-83711738D01*
G75*
G02*
X138967738Y-83440000I271738J0D01*
G01*
X139924262Y-83440000D01*
G75*
G02*
X140196000Y-83711738I0J-271738D01*
G01*
X140196000Y-84418262D01*
G75*
G02*
X139924262Y-84690000I-271738J0D01*
G01*
G37*
G36*
G01*
X139924262Y-86740000D02*
X138967738Y-86740000D01*
G75*
G02*
X138696000Y-86468262I0J271738D01*
G01*
X138696000Y-85761738D01*
G75*
G02*
X138967738Y-85490000I271738J0D01*
G01*
X139924262Y-85490000D01*
G75*
G02*
X140196000Y-85761738I0J-271738D01*
G01*
X140196000Y-86468262D01*
G75*
G02*
X139924262Y-86740000I-271738J0D01*
G01*
G37*
%TD*%
%TO.C,C15*%
G36*
G01*
X143910000Y-103856262D02*
X143910000Y-102899738D01*
G75*
G02*
X144181738Y-102628000I271738J0D01*
G01*
X144888262Y-102628000D01*
G75*
G02*
X145160000Y-102899738I0J-271738D01*
G01*
X145160000Y-103856262D01*
G75*
G02*
X144888262Y-104128000I-271738J0D01*
G01*
X144181738Y-104128000D01*
G75*
G02*
X143910000Y-103856262I0J271738D01*
G01*
G37*
G36*
G01*
X141860000Y-103856262D02*
X141860000Y-102899738D01*
G75*
G02*
X142131738Y-102628000I271738J0D01*
G01*
X142838262Y-102628000D01*
G75*
G02*
X143110000Y-102899738I0J-271738D01*
G01*
X143110000Y-103856262D01*
G75*
G02*
X142838262Y-104128000I-271738J0D01*
G01*
X142131738Y-104128000D01*
G75*
G02*
X141860000Y-103856262I0J271738D01*
G01*
G37*
%TD*%
%TO.C,C14*%
G36*
G01*
X164484000Y-111603262D02*
X164484000Y-110646738D01*
G75*
G02*
X164755738Y-110375000I271738J0D01*
G01*
X165462262Y-110375000D01*
G75*
G02*
X165734000Y-110646738I0J-271738D01*
G01*
X165734000Y-111603262D01*
G75*
G02*
X165462262Y-111875000I-271738J0D01*
G01*
X164755738Y-111875000D01*
G75*
G02*
X164484000Y-111603262I0J271738D01*
G01*
G37*
G36*
G01*
X162434000Y-111603262D02*
X162434000Y-110646738D01*
G75*
G02*
X162705738Y-110375000I271738J0D01*
G01*
X163412262Y-110375000D01*
G75*
G02*
X163684000Y-110646738I0J-271738D01*
G01*
X163684000Y-111603262D01*
G75*
G02*
X163412262Y-111875000I-271738J0D01*
G01*
X162705738Y-111875000D01*
G75*
G02*
X162434000Y-111603262I0J271738D01*
G01*
G37*
%TD*%
%TO.C,C13*%
G36*
G01*
X164484000Y-106777262D02*
X164484000Y-105820738D01*
G75*
G02*
X164755738Y-105549000I271738J0D01*
G01*
X165462262Y-105549000D01*
G75*
G02*
X165734000Y-105820738I0J-271738D01*
G01*
X165734000Y-106777262D01*
G75*
G02*
X165462262Y-107049000I-271738J0D01*
G01*
X164755738Y-107049000D01*
G75*
G02*
X164484000Y-106777262I0J271738D01*
G01*
G37*
G36*
G01*
X162434000Y-106777262D02*
X162434000Y-105820738D01*
G75*
G02*
X162705738Y-105549000I271738J0D01*
G01*
X163412262Y-105549000D01*
G75*
G02*
X163684000Y-105820738I0J-271738D01*
G01*
X163684000Y-106777262D01*
G75*
G02*
X163412262Y-107049000I-271738J0D01*
G01*
X162705738Y-107049000D01*
G75*
G02*
X162434000Y-106777262I0J271738D01*
G01*
G37*
%TD*%
%TO.C,C12*%
G36*
G01*
X154529262Y-113392000D02*
X153572738Y-113392000D01*
G75*
G02*
X153301000Y-113120262I0J271738D01*
G01*
X153301000Y-112413738D01*
G75*
G02*
X153572738Y-112142000I271738J0D01*
G01*
X154529262Y-112142000D01*
G75*
G02*
X154801000Y-112413738I0J-271738D01*
G01*
X154801000Y-113120262D01*
G75*
G02*
X154529262Y-113392000I-271738J0D01*
G01*
G37*
G36*
G01*
X154529262Y-115442000D02*
X153572738Y-115442000D01*
G75*
G02*
X153301000Y-115170262I0J271738D01*
G01*
X153301000Y-114463738D01*
G75*
G02*
X153572738Y-114192000I271738J0D01*
G01*
X154529262Y-114192000D01*
G75*
G02*
X154801000Y-114463738I0J-271738D01*
G01*
X154801000Y-115170262D01*
G75*
G02*
X154529262Y-115442000I-271738J0D01*
G01*
G37*
%TD*%
%TO.C,C5*%
G36*
G01*
X160752262Y-84690000D02*
X159795738Y-84690000D01*
G75*
G02*
X159524000Y-84418262I0J271738D01*
G01*
X159524000Y-83711738D01*
G75*
G02*
X159795738Y-83440000I271738J0D01*
G01*
X160752262Y-83440000D01*
G75*
G02*
X161024000Y-83711738I0J-271738D01*
G01*
X161024000Y-84418262D01*
G75*
G02*
X160752262Y-84690000I-271738J0D01*
G01*
G37*
G36*
G01*
X160752262Y-86740000D02*
X159795738Y-86740000D01*
G75*
G02*
X159524000Y-86468262I0J271738D01*
G01*
X159524000Y-85761738D01*
G75*
G02*
X159795738Y-85490000I271738J0D01*
G01*
X160752262Y-85490000D01*
G75*
G02*
X161024000Y-85761738I0J-271738D01*
G01*
X161024000Y-86468262D01*
G75*
G02*
X160752262Y-86740000I-271738J0D01*
G01*
G37*
%TD*%
%TO.C,C4*%
G36*
G01*
X164484000Y-104237262D02*
X164484000Y-103280738D01*
G75*
G02*
X164755738Y-103009000I271738J0D01*
G01*
X165462262Y-103009000D01*
G75*
G02*
X165734000Y-103280738I0J-271738D01*
G01*
X165734000Y-104237262D01*
G75*
G02*
X165462262Y-104509000I-271738J0D01*
G01*
X164755738Y-104509000D01*
G75*
G02*
X164484000Y-104237262I0J271738D01*
G01*
G37*
G36*
G01*
X162434000Y-104237262D02*
X162434000Y-103280738D01*
G75*
G02*
X162705738Y-103009000I271738J0D01*
G01*
X163412262Y-103009000D01*
G75*
G02*
X163684000Y-103280738I0J-271738D01*
G01*
X163684000Y-104237262D01*
G75*
G02*
X163412262Y-104509000I-271738J0D01*
G01*
X162705738Y-104509000D01*
G75*
G02*
X162434000Y-104237262I0J271738D01*
G01*
G37*
%TD*%
D19*
%TO.C,J6*%
X112496600Y-61595000D03*
X101066600Y-61595000D03*
X101066600Y-48895000D03*
X112496600Y-48895000D03*
X110337600Y-58420000D03*
D20*
X112496600Y-52070000D03*
X101066600Y-52070000D03*
%TD*%
D19*
%TO.C,J5*%
X133096000Y-61658500D03*
X121666000Y-61658500D03*
X121666000Y-48958500D03*
X133096000Y-48958500D03*
X130937000Y-58483500D03*
D20*
X133096000Y-52133500D03*
X121666000Y-52133500D03*
%TD*%
D19*
%TO.C,J4*%
X153619200Y-61658500D03*
X142189200Y-61658500D03*
X142189200Y-48958500D03*
X153619200Y-48958500D03*
X151460200Y-58483500D03*
D20*
X153619200Y-52133500D03*
X142189200Y-52133500D03*
%TD*%
D19*
%TO.C,J3*%
X174218600Y-61645800D03*
X162788600Y-61645800D03*
X162788600Y-48945800D03*
X174218600Y-48945800D03*
X172059600Y-58470800D03*
D20*
X174218600Y-52120800D03*
X162788600Y-52120800D03*
%TD*%
D19*
%TO.C,J1*%
X175196500Y-121031000D03*
X175196500Y-109601000D03*
X187896500Y-109601000D03*
X187896500Y-121031000D03*
X178371500Y-118872000D03*
D20*
X184721500Y-121031000D03*
X184721500Y-109601000D03*
%TD*%
%TO.C,J2*%
G36*
G01*
X186981500Y-63490000D02*
X186981500Y-65290000D01*
G75*
G02*
X186081500Y-66190000I-900000J0D01*
G01*
X184281500Y-66190000D01*
G75*
G02*
X183381500Y-65290000I0J900000D01*
G01*
X183381500Y-63490000D01*
G75*
G02*
X184281500Y-62590000I900000J0D01*
G01*
X186081500Y-62590000D01*
G75*
G02*
X186981500Y-63490000I0J-900000D01*
G01*
G37*
G36*
G01*
X189731500Y-58665000D02*
X189731500Y-60715000D01*
G75*
G02*
X188956500Y-61490000I-775000J0D01*
G01*
X187406500Y-61490000D01*
G75*
G02*
X186631500Y-60715000I0J775000D01*
G01*
X186631500Y-58665000D01*
G75*
G02*
X187406500Y-57890000I775000J0D01*
G01*
X188956500Y-57890000D01*
G75*
G02*
X189731500Y-58665000I0J-775000D01*
G01*
G37*
D21*
X182181500Y-59690000D03*
%TD*%
M02*
